<?xml version="1.0" encoding="UTF-8" standalone="no"?>
<!-- Created with Inkscape (http://www.inkscape.org/) -->

<svg
   xmlns:dc="http://purl.org/dc/elements/1.1/"
   xmlns:cc="http://creativecommons.org/ns#"
   xmlns:rdf="http://www.w3.org/1999/02/22-rdf-syntax-ns#"
   xmlns:svg="http://www.w3.org/2000/svg"
   xmlns="http://www.w3.org/2000/svg"
   xmlns:sodipodi="http://sodipodi.sourceforge.net/DTD/sodipodi-0.dtd"
   xmlns:inkscape="http://www.inkscape.org/namespaces/inkscape"
   width="744.09448819"
   height="1052.3622047"
   id="svg2"
   version="1.1"
   inkscape:version="0.48.4 r9939"
   sodipodi:docname="банан.svg"
   inkscape:export-filename="D:\Фактуры\овощи-фрукты\inkscape\банан.png"
   inkscape:export-xdpi="195.57317"
   inkscape:export-ydpi="195.57317">
  <defs
     id="defs4" />
  <sodipodi:namedview
     id="base"
     pagecolor="#ffffff"
     bordercolor="#666666"
     borderopacity="1.0"
     inkscape:pageopacity="0.0"
     inkscape:pageshadow="2"
     inkscape:zoom="0.49497475"
     inkscape:cx="85.939211"
     inkscape:cy="629.87894"
     inkscape:document-units="px"
     inkscape:current-layer="layer1"
     showgrid="false"
     inkscape:window-width="1920"
     inkscape:window-height="1018"
     inkscape:window-x="-8"
     inkscape:window-y="-8"
     inkscape:window-maximized="1" />
  <metadata
     id="metadata7">
    <rdf:RDF>
      <cc:Work
         rdf:about="">
        <dc:format>image/svg+xml</dc:format>
        <dc:type
           rdf:resource="http://purl.org/dc/dcmitype/StillImage" />
        <dc:title></dc:title>
      </cc:Work>
    </rdf:RDF>
  </metadata>
  <g
     inkscape:label="Layer 1"
     inkscape:groupmode="layer"
     id="layer1">
    <path
       style="fill:#fff368;fill-opacity:1;fill-rule:nonzero;stroke:none"
       d="M 718.8422,553.52118 C 554.14072,722.31944 193.33463,676.38636 104.24438,477.38268 86.511385,435.5668 106.37102,404.03806 92.565562,375.63395 74.578938,342.6263 54.789133,351.17228 33.44154,332.71952 c -5.730774,-5.43434 9.052811,-21.73571 11.678819,-24.22589 46.282223,15.09514 86.304231,57.17719 113.138561,83.0602 39.32417,58.18771 142.86049,121.00012 238.68584,142.58664 103.82844,23.38938 249.62049,-55.45411 318.24781,1.38435 4.18448,3.96801 8.60719,11.08954 3.64963,17.99636 z"
       id="path2985"
       inkscape:connector-curvature="0"
       sodipodi:nodetypes="ccccccscc" />
    <path
       style="opacity:0.95719844;fill:#fff79d;fill-opacity:1;stroke:none"
       d="M 148.76987,424.77789 C 270.34881,608.05982 425.44562,609.55489 684.53568,536.21697 366.55888,591.46794 305.9998,559.33671 148.76987,424.77789 z"
       id="path3755"
       inkscape:connector-curvature="0"
       sodipodi:nodetypes="ccc" />
    <path
       style="fill:#fce258;fill-opacity:1;fill-rule:nonzero;stroke:none"
       d="M 718.8422,553.52118 C 554.14072,722.31944 193.33463,676.38636 104.24438,477.38268 86.511385,435.5668 106.37102,404.03806 92.565562,375.63395 c 6.347896,27.16313 17.186658,18.40571 19.839288,51.06768 2.47321,30.45284 33.28404,71.02224 50.31365,90.61786 34.05922,39.1912 78.77974,69.40559 134.12072,87.82453 110.68196,36.8379 263.84577,26.49401 422.00298,-51.62284 z"
       id="path2985-1"
       inkscape:connector-curvature="0"
       sodipodi:nodetypes="cccsssc" />
    <path
       style="fill:#9d6a37;fill-opacity:1;fill-rule:nonzero;stroke:none"
       d="m 710.27474,561.62446 c 7.0565,-3.59958 10.30863,-6.88814 11.10982,-11.52482 0.69642,-4.03028 -1.0882,-12.75224 -4.09574,-15.68337 -3.29923,-3.2154 -8.61737,-5.77215 -12.93982,-5.69588 -0.90756,0.8606 2.30911,6.51877 4.81632,11.27381 1.77056,3.35795 -0.50149,7.90443 1.22732,11.06459 2.54684,4.65547 -0.19299,6.71301 -0.11793,10.56567 z"
       id="path3775"
       inkscape:connector-curvature="0"
       sodipodi:nodetypes="csscssc" />
    <path
       style="fill:#fce258;fill-opacity:1;fill-rule:nonzero;stroke:none"
       d="M 104.24438,477.38268 C 86.511385,435.5668 106.37102,404.03806 92.565562,375.63395 74.578938,342.6263 54.789133,351.17228 33.44154,332.71952 c -5.730774,-5.43434 9.052811,-21.73571 11.678819,-24.22589 46.282223,15.09514 86.304231,57.17719 113.138561,83.0602 -50.86192,-23.84911 -45.03659,10.73785 -54.01454,85.82885 z"
       id="path2985-7"
       inkscape:connector-curvature="0"
       sodipodi:nodetypes="cccccc" />
    <path
       style="fill:#dc9f30;fill-opacity:1;fill-rule:nonzero;stroke:none"
       d="m 90.740748,348.98547 c -29.093773,-13.69017 -7.685555,3.60186 -5.839409,14.53554 -17.153261,-10.2079 -34.306537,-18.94645 -51.459799,-30.80149 -7.753853,-10.29386 8.107836,-22.99023 11.678819,-24.22589 22.668906,7.73175 22.418962,7.87298 54.744476,30.45541 -28.599189,-16.92742 -29.708148,-3.79768 -9.124087,10.03643 z"
       id="path2985-7-4"
       inkscape:connector-curvature="0"
       sodipodi:nodetypes="cccccc" />
    <path
       style="fill:#9d6a37;fill-opacity:1;fill-rule:nonzero;stroke:none"
       d="m 44.937876,308.32058 c -4.306521,1.89098 -6.493469,5.20584 -9.397804,7.95995 -11.856778,11.24344 0.535483,22.07421 4.835775,19.20766 0.625243,-0.4168 -2.291232,-5.17192 -1.27738,-7.09473 2.253599,-4.27404 12.952426,-16.70035 5.839409,-20.07288 z"
       id="path3813"
       inkscape:connector-curvature="0"
       sodipodi:nodetypes="csssc" />
    <path
       style="fill:#dc9f30;fill-opacity:1;fill-rule:nonzero;stroke:none"
       d="m 175.30964,516.24143 c 12.09781,8.85634 0,-12.1887 0,0 z"
       id="path3815"
       inkscape:connector-curvature="0"
       sodipodi:nodetypes="cc" />
    <path
       style="fill:#dc9f30;fill-opacity:1;fill-rule:nonzero;stroke:none"
       d="m 250.14932,522.35938 c -0.007,11.20111 13.96154,0 0,0 z"
       id="path3817"
       inkscape:connector-curvature="0" />
    <path
       style="fill:#dc9f30;fill-opacity:1;fill-rule:nonzero;stroke:none"
       d="m 199.56802,536.06361 c 3.60626,12.54928 12.08006,-2.5948 0,0 z"
       id="path3819"
       inkscape:connector-curvature="0"
       sodipodi:nodetypes="cc" />
    <path
       style="fill:#dc9f30;fill-opacity:1;fill-rule:nonzero;stroke:none"
       d="m 169.11601,469.01076 c -2.34298,10.34785 8.39002,1.32601 0,0 z"
       id="path3821"
       inkscape:connector-curvature="0" />
    <path
       style="fill:#dc9f30;fill-opacity:1;fill-rule:nonzero;stroke:none"
       d="m 479.68016,639.87101 c 8.69892,0.66359 -3.82329,-8.41438 0,0 z"
       id="path3823"
       inkscape:connector-curvature="0" />
    <path
       style="fill:#dc9f30;fill-opacity:1;fill-rule:nonzero;stroke:none"
       d="m 149.63736,520.11145 c 6.86454,-2.40171 -3.10672,-6.72662 -3.10672,-0.50668"
       id="path3825"
       inkscape:connector-curvature="0" />
    <path
       style="fill:#dc9f30;fill-opacity:1;fill-rule:nonzero;stroke:none"
       d="m 135.56718,500.57945 c 2.1355,8.9267 4.16507,-6.58269 0,0 z"
       id="path3827"
       inkscape:connector-curvature="0" />
    <path
       style="fill:#dc9f30;fill-opacity:1;fill-rule:nonzero;stroke:none"
       d="m 155.18034,501.06888 c 2.23837,3.09953 -2.32545,-2.59727 1.03228,1.22359 5.0489,5.74527 4.57946,-8.01335 0.25807,-3.91549 -0.92125,0.87358 -1.29035,0.94068 -1.29035,2.6919 z"
       id="path3829"
       inkscape:connector-curvature="0" />
    <path
       style="fill:#dc9f30;fill-opacity:1;fill-rule:nonzero;stroke:none"
       d="m 160.85784,414.928 c -4.3143,5.66873 5.96857,4.68095 1.80647,0.73415 -0.89975,-0.85321 0.32537,-1.13847 -1.80647,-0.73415 z"
       id="path3833"
       inkscape:connector-curvature="0" />
    <path
       style="fill:#dc9f30;fill-opacity:1;fill-rule:nonzero;stroke:none"
       d="m 167.5676,487.60937 c 1.33924,5.81163 8.7219,-1.65415 0,0 z"
       id="path3835"
       inkscape:connector-curvature="0" />
    <path
       style="fill:#dc9f30;fill-opacity:1;fill-rule:nonzero;stroke:none"
       d="m 227.6019,475.30617 c 2.96463,12.31885 9.53285,-5.42383 0,0 z"
       id="path3837"
       inkscape:connector-curvature="0" />
    <path
       style="fill:#dc9f30;fill-opacity:1;fill-rule:nonzero;stroke:none"
       d="m 285.98596,611.55458 c -0.32387,4.03322 7.40486,5.27529 5.44276,0.44649 -0.27046,-0.6656 -1.45141,-0.59532 -1.45141,-1.33948 0,-1.664 -2.63908,0.89299 -3.99135,0.89299 z"
       id="path3839"
       inkscape:connector-curvature="0" />
    <path
       style="fill:#dc9f30;fill-opacity:1;fill-rule:nonzero;stroke:none"
       d="m 311.5434,597.81995 c 8.84004,4.75702 9.6807,-7.34395 0,0 z"
       id="path3841"
       inkscape:connector-curvature="0" />
    <path
       style="fill:#dc9f30;fill-opacity:1;fill-rule:nonzero;stroke:none"
       d="m 224.68219,582.24617 c 0.9949,9.53365 7.73827,-5.5035 0,0 z"
       id="path3843"
       inkscape:connector-curvature="0" />
    <path
       style="fill:#dc9f30;fill-opacity:1;fill-rule:nonzero;stroke:none"
       d="m 111.54364,461.80889 c 4.36749,9.06619 6.81499,-3.23123 0,0 z"
       id="path3845"
       inkscape:connector-curvature="0" />
    <path
       style="fill:#dc9f30;fill-opacity:1;fill-rule:nonzero;stroke:none"
       d="m 131.98158,426.50831 c -0.12169,0.46145 0.12168,1.49971 -0.36497,1.38435 -0.48662,-0.11539 -0.0837,-1.59705 0.36497,-1.38435 6.93735,3.28926 -0.91931,0.85866 0.36496,2.0765 1.61281,1.5294 2.49905,-2.82147 1.45985,-3.80692 -0.75626,-0.71713 -2.9723,0.24634 -2.91971,0.34608 0.27203,0.51592 1.4323,0.90441 1.0949,1.38434 -0.3441,0.48944 -1.21656,-0.23071 -1.82482,-0.34608"
       id="path3847"
       inkscape:connector-curvature="0" />
    <path
       style="fill:#dc9f30;fill-opacity:1;fill-rule:nonzero;stroke:none"
       d="m 138.89844,461.93524 c 6.86455,-2.40171 -3.10672,-6.72661 -3.10672,-0.50667"
       id="path3825-0"
       inkscape:connector-curvature="0" />
    <path
       style="fill:#dc9f30;fill-opacity:1;fill-rule:nonzero;stroke:none"
       d="m 229.40927,508.31052 c 6.86455,-2.40171 -3.10672,-6.72663 -3.10672,-0.50668"
       id="path3825-9"
       inkscape:connector-curvature="0" />
    <path
       style="fill:#dc9f30;fill-opacity:1;fill-rule:nonzero;stroke:none"
       d="m 261.52603,579.60384 c 6.86454,-2.4017 -3.10672,-6.72661 -3.10672,-0.50666"
       id="path3825-4"
       inkscape:connector-curvature="0" />
    <path
       style="fill:#dc9f30;fill-opacity:1;fill-rule:nonzero;stroke:none"
       d="m 689.99268,549.14844 c 6.86455,-2.40171 -3.10672,-6.72661 -3.10672,-0.50667"
       id="path3825-8"
       inkscape:connector-curvature="0" />
    <path
       style="fill:#dc9f30;fill-opacity:1;fill-rule:nonzero;stroke:none"
       d="m 684.8832,563.68397 c 6.86455,-2.40171 -3.10671,-6.72661 -3.10671,-0.50668"
       id="path3825-82"
       inkscape:connector-curvature="0" />
    <path
       style="fill:#dc9f30;fill-opacity:1;fill-rule:nonzero;stroke:none"
       d="m 660.79564,535.30507 c 6.86454,-2.40171 -3.10672,-6.72661 -3.10672,-0.50668"
       id="path3825-45"
       inkscape:connector-curvature="0" />
    <path
       style="fill:#dc9f30;fill-opacity:1;fill-rule:nonzero;stroke:none"
       d="m 691.70344,530.67981 c 9.72514,2.90384 1.11036,-4.21167 0,0 z"
       id="path3902"
       inkscape:connector-curvature="0" />
    <path
       style="fill:#dc9f30;fill-opacity:1;fill-rule:nonzero;stroke:none"
       d="m 707.18752,553.1939 c 10.22657,-2.51352 -2.78173,-6.59457 0,0 z"
       id="path3904"
       inkscape:connector-curvature="0" />
    <path
       style="fill:#dc9f30;fill-opacity:1;fill-rule:nonzero;stroke:none"
       d="m 659.44497,592.83828 c 0.93743,0.009 2.69759,0.0231 3.0968,-0.73415 3.04526,-5.77544 -10.31151,3.47076 -3.0968,0.73415 z"
       id="path3906"
       inkscape:connector-curvature="0" />
    <path
       style="fill:#dc9f30;fill-opacity:1;fill-rule:nonzero;stroke:none"
       d="m 598.79901,608.98971 c 1.0054,1.25536 1.9004,0.97886 3.35489,0.97886 7.4419,0 -8.67413,-6.02295 -3.35489,-0.97886 z"
       id="path3908"
       inkscape:connector-curvature="0" />
    <path
       style="fill:#dc9f30;fill-opacity:1;fill-rule:nonzero;stroke:none"
       d="m 595.18606,541.93686 c 1.39505,3.97907 5.11162,-1.02605 3.61295,-2.44719 -1.91067,-1.81183 -4.43037,0.50936 -3.61295,2.44719 z"
       id="path3910"
       inkscape:connector-curvature="0" />
    <path
       style="fill:#dc9f30;fill-opacity:1;fill-rule:nonzero;stroke:none"
       d="m 630.28329,582.56011 c 1.9059,1.60102 1.59665,-0.29045 2.32262,-0.97887 1.63814,-1.55342 -1.16497,-4.58673 -3.09682,-3.67077 -3.17759,1.5066 0.77905,4.63814 0.7742,4.64964 -0.17204,0.40787 -1.46238,-0.0816 -1.29033,-0.48944 0.17203,-0.40786 0.86023,0.32631 1.29033,0.48944 z"
       id="path3912"
       inkscape:connector-curvature="0" />
    <path
       style="fill:#f5ca47;fill-opacity:1;fill-rule:nonzero;stroke:none"
       d="M 710.89577,561.11047 C 546.19429,729.90873 193.33463,676.38636 104.24438,477.38268 86.511385,435.5668 101.90673,401.00235 92.565562,375.63395 c 13.669328,24.66313 6.237773,55.78279 22.029068,96.75078 26.38426,78.41215 119.6507,133.47299 180.05481,154.2165 110.68196,36.8379 275.60735,54.15619 416.24633,-65.49076 z"
       id="path2985-1-1"
       inkscape:connector-curvature="0"
       sodipodi:nodetypes="cccccc" />
  </g>
</svg>
