<svg xmlns="http://www.w3.org/2000/svg" viewBox="0 0 219.17 185.77"><defs><style>.cls-1{fill:#e0a22f;}.cls-2{fill:#aeaa9e;}.cls-3{fill:#70b0cf;}.cls-4{fill:#a1daf8;}.cls-5{fill:#bb226c;}.cls-6{fill:#c9d2e2;}.cls-7{fill:#efdaeb;}.cls-8{fill:#a3195b;}.cls-9{fill:#bbc4d2;}.cls-10{fill:#d2ccbd;}.cls-11{fill:#f9b233;}.cls-12{fill:#e6f5fe;}.cls-13{fill:#ecc0b6;}.cls-14{fill:#fddcb9;}.cls-15{fill:#b8d4f1;}.cls-16{fill:#1d1d1b;}.cls-17{fill:#f9c3a1;}.cls-18{fill:#f6af95;}.cls-19{fill:#423a35;}.cls-20{fill:#d60b52;}.cls-21{fill:#f39200;}.cls-22{fill:#eaf6fe;opacity:0.47;}.cls-23{fill:#fff;}.cls-24{fill:#bbb6a9;}.cls-25{fill:#9b988d;}</style></defs><g id="Слой_2" data-name="Слой 2"><g id="Calque_1" data-name="Calque 1"><path class="cls-1" d="M83.43,143.37,69.79,166.88l-16.12-9.24s.31,6.58-12.42,14.11c-8,4.73-23.46-5.06-14.7-14.5S42.49,147,46,145.47s7.77-5.34,7.42-6.07c-.64-1.34-4.49-2.82-4.49-2.82l6.71-7.53L61,131.5Z"/><path class="cls-2" d="M27.29,167.9c-1.82-3.74,1.82-6.75,3.56-8.26a62.61,62.61,0,0,1,12.32-8.47c4.7-2.29,13.51-7.79,13.51-7.79l7.69-10.75-3.31-1.88-5.28-2.45-6.84,8.41s3.85,1.48,4.49,2.82c.35.72-3.73,4.52-7.42,6.06s-10.73,2.34-19.49,11.78c-4.69,5-2.44,10.2,1.88,13.17A19.7,19.7,0,0,0,27.29,167.9Z"/><path class="cls-3" d="M76.5,173.3c30.21,14.88,35.14,12.3,35.14,12.3,12.83-2,10-2.69,19.82-46.17L129.64,133l-4.38-1a24.39,24.39,0,0,0-9.72.22,21.48,21.48,0,0,0-2.83.81l-.66.24-.55.43c-1.25,1-1.81,1.43-7.87,27.14l-19.8-10.8-11,21.36Z"/><path class="cls-4" d="M119.2,94.59c-17.46-4.94-35.31,4.12-39.88,20.24a28.24,28.24,0,0,0-.91,10.65c-1.35,3.29-4,2.79-10.69,20.84l-15.16-8.46-14.09,20.3,4,2c32.42,16.47,34.8,15.47,36.91,14.58l.48-.21.36-.25c1-.69,2.9-2,11.43-26.67a35.19,35.19,0,0,0,11,5.33c17.47,4.94,35.32-4.12,39.88-20.24S136.67,99.53,119.2,94.59Z"/><path class="cls-5" d="M131.29,60c2.55-4.5.23-10.64-5.18-13.7s-11.86-1.88-14.41,2.62h0L85.89,95.34c-.85,4.11,1.5,8.83,6,11.4s9.79,2.15,12.88-.71l26.49-46Z"/><path class="cls-6" d="M115,66c-4.71-2.67-6.37-9.29-4.8-14.25a11.17,11.17,0,0,0-1.21,2,11.25,11.25,0,1,0,19.59,11.08,12.44,12.44,0,0,0,1.1-2.06C126.22,66.64,119.69,68.63,115,66Z"/><path class="cls-6" d="M97.26,97.3c-4.71-2.67-6.2-9.2-4.63-14.16a10.6,10.6,0,0,0-1.37,1.92,11.25,11.25,0,1,0,19.58,11.08,10.8,10.8,0,0,0,.94-2.16C108.34,97.88,102,100,97.26,97.3Z"/><path class="cls-7" d="M126.05,53.85c-.61,1.06-2.74,1-4.77-.15s-3.18-2.94-2.57-4,2.73-1,4.75.16S126.65,52.78,126.05,53.85Z"/><path class="cls-6" d="M147,67.75c-3-1.72-3.94-5.27-2.69-10.59l.34-1.44c1-4.08,1.89-7.93,1.44-12-.35-3.11-1-4.76-2.6-6.07a4.9,4.9,0,0,0-4.65-1.19c-5.23,1.32-11.21,9.94-13.34,15.39a2.43,2.43,0,0,1-3.51,1c-1.27-.72-2-1.59-1.42-3,1.61-4.12,8.18-16.37,17-18.59A10.15,10.15,0,0,1,147,33.6c3.29,2.78,4.09,6.37,4.44,9.52.55,5-.52,9.49-1.55,13.83l-.34,1.41c-1.07,4.59,0,4.84,1,5.08a2.65,2.65,0,0,1-1.23,5.15A8.46,8.46,0,0,1,147,67.75Z"/><path class="cls-8" d="M116.57,55.79c2.55-4.51.23-10.64-5.18-13.7S99.54,40.2,97,44.71h0L71.18,91.12c-.86,4.12,1.49,8.84,6,11.41s9.8,2.14,12.88-.71l26.49-46Z"/><path class="cls-6" d="M100.27,61.76c-4.71-2.67-6.37-9.29-4.8-14.25a11.13,11.13,0,0,0-1.2,2A11.25,11.25,0,1,0,113.85,60.6a10.87,10.87,0,0,0,1.1-2.07C111.51,62.43,105,64.42,100.27,61.76Z"/><path class="cls-6" d="M82.54,93.08c-4.7-2.66-6.2-9.19-4.63-14.15a11.11,11.11,0,0,0-1.37,1.92,11.25,11.25,0,1,0,20.52,8.92C93.62,93.67,87.25,95.75,82.54,93.08Z"/><path class="cls-7" d="M111.33,49.64c-.6,1.06-2.74,1-4.76-.16s-3.19-2.93-2.58-4,2.73-1,4.76.16S111.93,48.57,111.33,49.64Z"/><path class="cls-9" d="M132.32,63.54c-3-1.71-3.94-5.27-2.69-10.6l.34-1.43c1-4.08,1.89-7.93,1.44-12-.34-3.11-1-4.76-2.59-6.07a4.93,4.93,0,0,0-4.66-1.2c-5.23,1.33-11.21,10-13.34,15.4a2.43,2.43,0,0,1-3.51,1c-1.27-.72-2-1.59-1.42-3,1.61-4.12,8.19-16.37,17-18.6a10.17,10.17,0,0,1,9.37,2.29c3.29,2.78,4.09,6.38,4.44,9.53.55,5-.51,9.49-1.55,13.83l-.34,1.41c-1.07,4.59,0,4.84,1,5.08a2.64,2.64,0,1,1-1.23,5.14A8.24,8.24,0,0,1,132.32,63.54Z"/><path class="cls-10" d="M174.17,99.26,166.25,115c-25.9-3.73-30.3-21.28-32.46-23.87a8.46,8.46,0,0,1,13-10.84"/><path class="cls-11" d="M218,110.1a3,3,0,0,0-2.57-3.33,17,17,0,0,1-4.15-1.19l-.3-.11a10.93,10.93,0,0,0,.29-1.85,4.69,4.69,0,0,1,3,.09,3,3,0,0,0,2.14-5.55,10.56,10.56,0,0,0-6.51-.35,7.61,7.61,0,0,0-1.43-1.63c2.47-2.23,4.2-2.53,6-1.24a3,3,0,0,0,4.14-.64h0a3,3,0,0,0-.65-4.16c-6.78-4.94-12.72.48-16,4.25a12.13,12.13,0,0,0-1.82.46,12.66,12.66,0,0,0-.92-1.33l.5-.77a22.86,22.86,0,0,0,2.66-5.1,3,3,0,1,0-5.6-2,17,17,0,0,1-2,3.82,47.37,47.37,0,0,1-5.05,6.4c-.9.85.35,4.57,1.31,7a4.94,4.94,0,0,0-.53.1c-7.5,2-15.69-7.43-15.69-7.43l-10.18,15.61s14.14,10.92,28.54,3.3c1.06-.57,3,1,3.85.26,3.68,1.22,8.25-.3,11.32-4l.85.33a23.13,23.13,0,0,0,5.54,1.55A3,3,0,0,0,218,110.1Z"/><path class="cls-12" d="M163.19,125.65A41.38,41.38,0,1,1,147.72,69,41.54,41.54,0,0,1,163.19,125.65Z"/><rect class="cls-13" x="136.65" y="58.13" width="17.4" height="14.97" transform="translate(16.67 159.82) rotate(-60.5)"/><path class="cls-4" d="M132.12,55.61c-4,4.41.16,14.6,9.23,22.75S161,89.55,165,85.14s-.16-14.61-9.23-22.76-19.64-11.19-23.61-6.77"/><path class="cls-14" d="M157.44,72.44c-9.64-3.29-23.72-22.72-19.56-39.32S155.73,7,171,9.65c4.81.83,11.74,3.37,15.31,7.67,2.84,3.41,2.81,8.39,3.26,11.27,1.52,9.68-3.39,12.84.19,21.53C197,67.6,165.11,75.06,157.44,72.44"/><path class="cls-15" d="M180.77,31.8a4.29,4.29,0,1,0,7.42,4.2,4.29,4.29,0,1,0-7.42-4.2"/><path class="cls-16" d="M184.17,36.36a1.58,1.58,0,1,0,2.22-.74,1.66,1.66,0,0,0-2.22.74"/><path class="cls-15" d="M170.92,26.23a4.73,4.73,0,1,0,6.44-1.79,4.72,4.72,0,0,0-6.44,1.79"/><path class="cls-16" d="M175.44,31.42a1.74,1.74,0,1,0,2.37-.65,1.75,1.75,0,0,0-2.37.65"/><path class="cls-17" d="M151.83,43.37c-2.09,3.7-1.29,8.11,1.78,9.85s7.27.15,9.36-3.55,1.3-8.11-1.78-9.85-7.27-.15-9.36,3.55"/><path class="cls-17" d="M182.53,60.54c-1.69,3-2.3,5.85-1.37,6.38s3.07-1.46,4.77-4.46,2.3-5.84,1.36-6.37-3.07,1.46-4.76,4.45"/><path class="cls-17" d="M142.62,27.16c2.16-6,7.21-9.65,11.28-8.18,8.33,3,1.5,5-.66,11-1.53,4.27-.42,9.89-3.49,10.78a3.32,3.32,0,0,1-.17,1.07,3,3,0,0,1-5.71-2.05c0-.13.12-.25.18-.37-2.49-2.47-3.17-7.35-1.43-12.2"/><path class="cls-18" d="M145.46,29.43c-1.13,3.14-.73,6.17.89,6.75s3.87-1.48,5-4.63.73-6.16-.9-6.74-3.86,1.48-5,4.62"/><path class="cls-19" d="M191.34,31.13c.88-1.55-.07-3.76-2.13-4.93s-4.44-.84-5.32.72a2.7,2.7,0,0,0-.25.61,5,5,0,0,1,.63-2.35,4.8,4.8,0,1,1,8.36,4.72,5,5,0,0,1-1.69,1.76,2.63,2.63,0,0,0,.4-.53"/><path class="cls-19" d="M181.12,24.79c.89-1.56-.07-3.77-2.12-4.93s-4.44-.84-5.32.72a2.24,2.24,0,0,0-.25.6,5,5,0,0,1,.63-2.35,4.81,4.81,0,1,1,8.36,4.73,5,5,0,0,1-1.69,1.76,2.9,2.9,0,0,0,.39-.53"/><path class="cls-4" d="M96.42,106.06c-2.22-2.46,2.32-12.25,2.32-12.25,6.2-11,20-14.15,26.09-16.63a8.46,8.46,0,0,0-6.39-15.67c-3.13,1.27-24.09,3.7-35.49,27.26,0,0-7.56,17.16-1.64,23.22"/><polygon class="cls-4" points="119.67 89.98 140.55 99.53 145.01 91.64 124.14 82.09 119.67 89.98"/><path class="cls-20" d="M176.22,61.7a4.12,4.12,0,1,1-1.56-5.61A4.12,4.12,0,0,1,176.22,61.7Z"/><path class="cls-21" d="M162.9,22.8a1,1,0,1,1-.36-1.31A1,1,0,0,1,162.9,22.8Z"/><path class="cls-21" d="M163.44,16.1a1.38,1.38,0,1,1-.52-1.87A1.39,1.39,0,0,1,163.44,16.1Z"/><path class="cls-21" d="M154.35,16.06l-.34.6.34-.6.34-.59Z"/><path class="cls-21" d="M158.43,15.66a1.68,1.68,0,1,1-.63-2.29A1.67,1.67,0,0,1,158.43,15.66Z"/><path class="cls-21" d="M167.24,14.37a.78.78,0,0,1-1.06.29.77.77,0,0,1-.29-1.05.77.77,0,0,1,1.35.76Z"/><path class="cls-22" d="M203.64,58.14A39,39,0,1,1,188.92,5.06,39,39,0,0,1,203.64,58.14Z"/><path class="cls-17" d="M186.84,43s-6.7-8.79-6.79-12.35c-.08-2.91-1.83,6.93-2.82,12.76-2.36-.79-4.54-.52-5.3.82-1,1.69.69,4.42,3.66,6.1a9.74,9.74,0,0,0,2.95,1.11A9.82,9.82,0,0,0,181,53.38c3.75,2.13,8.11,1.53,9.73-1.34S190.6,45.13,186.84,43Z"/><path class="cls-23" d="M162.67,11.24q-2.53,2.41-5.36,5.13a71.42,71.42,0,0,1-5.06-6c1.87-1.8,3.65-3.49,5.33-5.09A74.83,74.83,0,0,0,162.67,11.24Z"/><path class="cls-23" d="M150.88,11.66a73.07,73.07,0,0,0,5.05,6l-6.11,5.87a73.85,73.85,0,0,1-5-6.07Z"/><path class="cls-23" d="M169.82,17.84,164.41,23a70.9,70.9,0,0,1-5.8-5.29L164,12.59A72.83,72.83,0,0,0,169.82,17.84Z"/><path class="cls-23" d="M163,24.35l-6.14,5.92a71.12,71.12,0,0,1-5.77-5.33l6.12-5.88A72.61,72.61,0,0,0,163,24.35Z"/><path class="cls-24" d="M119.29,146l-2.83-.59c18.77-4.49,31.15-16.79,35.6-34.47a66.25,66.25,0,0,0,1.07-25.49l2.81-.54a68,68,0,0,1-1.1,26.73C151.58,124.6,144.08,140.13,119.29,146Z"/><polygon class="cls-4" points="158.43 105.56 172.5 113.19 176.96 105.3 162.89 97.67 158.43 105.56"/><path class="cls-25" d="M151.34,85.21a3.58,3.58,0,1,0,4.88-1.36,3.57,3.57,0,0,0-4.88,1.36"/><path class="cls-11" d="M75.64,109.35s4.81,7.78,16.43,16a14.75,14.75,0,0,0,2.77,2c.43,3.85,3.7,7.37,8.35,8.62,0,.28,0,.58.06.91a22,22,0,0,0,.91,5.68,3,3,0,1,0,5.67-1.77,16.42,16.42,0,0,1-.65-4.27c0-.11,0-.22,0-.32a12,12,0,0,0,1.8-.51,4.78,4.78,0,0,1,1.18,2.8,3,3,0,0,0,5.93-.38,10.51,10.51,0,0,0-2.39-6.06,7.52,7.52,0,0,0,.88-2c3.06,1.32,4,2.76,3.61,4.91a3,3,0,0,0,2.31,3.5h0a3,3,0,0,0,3.5-2.33c1.66-8.22-5.74-11.35-10.56-12.8a12.14,12.14,0,0,0-7.78-5,13.11,13.11,0,0,0-3.93-.2,6.63,6.63,0,0,0-1-1.59c-4.92-6-6.65-11.2-5.15-15.51"/><path class="cls-11" d="M59.52,140.11,45.88,163.62l-16.12-9.23s.31,6.58-12.42,14.1c-8,4.73-23.46-5.06-14.7-14.5s15.94-10.3,19.49-11.78,7.77-5.34,7.42-6.07c-.64-1.34-4.48-2.82-4.48-2.82l6.7-7.53L37,128.24Z"/><path class="cls-2" d="M3.38,164.64c-1.82-3.73,1.82-6.75,3.56-8.26a62.61,62.61,0,0,1,12.32-8.47c4.7-2.28,13.51-7.79,13.51-7.79l7.68-10.75-3.3-1.88L31.87,125,25,133.45s3.85,1.48,4.49,2.82c.35.73-3.73,4.52-7.42,6.07s-10.73,2.34-19.49,11.77c-4.69,5-2.44,10.2,1.88,13.17A21.13,21.13,0,0,0,3.38,164.64Z"/></g></g></svg>