<svg xmlns="http://www.w3.org/2000/svg" viewBox="0 0 465.27 316.24"><defs><style>.cls-1{fill:#572106;}.cls-2{fill:#ffa996;}.cls-3{fill:#320a00;}.cls-4{fill:#ffa995;}.cls-5{fill:#fee3d7;}.cls-6{fill:#441503;}.cls-7{fill:#5d2609;}.cls-8{fill:#5d260a;}.cls-9{fill:#ffdfd9;}.cls-10{fill:#3b0e01;}.cls-11{fill:#4c1b08;}.cls-12{fill:#fde3d7;}.cls-13{fill:#3d1903;}.cls-14{fill:#521c06;}.cls-15{fill:#e7d4e5;}.cls-16{fill:#fee8f1;}</style></defs><g id="Слой_2" data-name="Слой 2"><g id="Layer_1" data-name="Layer 1"><path class="cls-1" d="M168.21,1.15c28.91-3,58.63-.16,85.95,10a209.14,209.14,0,0,1,23.2,10.35c23.09-3.27,46.79-4.68,69.91-.72,2.28.61,5.64.66,6.47,3.38,1.36,5.79.45,11.75.29,17.62A185.46,185.46,0,0,1,349.45,76a64.62,64.62,0,0,1-4.51,13.1,153.33,153.33,0,0,1,14.21,46.64,90.61,90.61,0,0,1,31.62,19.06c2.79-5.13,6.06-10.12,10.58-13.89,5.9-5.08,13.84-7.07,19.48-12.51,5.92-5.43,9.48-12.73,13.68-19.44,2-3.19,4.61-6.22,8.27-7.47,5.59-1.64,12.5.15,15.67,5.3s2.25,11.46.55,16.88a52.63,52.63,0,0,1-15.77,23c-5,4-11,6.31-16.16,10a44.32,44.32,0,0,0-16.55,21.79c4.48,8.35,9.56,16.57,11.74,25.91,6.44-2.32,14.36-3,20,1.68,6.47,5.93,7,16.55,2.35,23.76-4.94,7.48-12.59,12.55-20.12,17.12a249.57,249.57,0,0,1-44.22,19.95,441.15,441.15,0,0,1-68.46,17.5c-1.63,4.82-4.25,9.51-8.65,12.32-9.85,6.47-22,7.15-33.4,8.21-10.34.25-20.71.34-31-.82-7.9-1.63-16.46-3.44-22.32-9.41-3.14-3.13-4.11-7.59-4.53-11.84-25.59,2.19-51.38-.61-76.46-5.8-1.57-.28-3.26-.66-4.68.31-7,3.7-14.21,7.07-21.47,10.29a37.28,37.28,0,0,1-9.08,2.32,70.94,70.94,0,0,1-11.57,0c-8.36-1.51-18.67-3-23.14-11.25-5.21-9.83-2.13-21.48,2.27-31,1.27-2.73,2.44-5.51,3.44-8.35C55,233.41,39.58,224,29,210.12c-8.88-11.07-13.43-25.24-13.54-39.36-.27-10.95,1.88-22.11,7.17-31.77-.82-10.93,1.54-21.81,5-32.11C20.57,97.09,15.37,86.09,10,75.28c-3.55-8-7.61-15.94-9.9-24.45-.65-2.32,1.83-3.8,3.57-4.65a86.13,86.13,0,0,1,22.87-6.41c6.26,1.28,12.47-.63,18.7-1.06,5.67-.42,11.35-.7,17-.77,4.71-.09,9.49.52,14.12-.6l1-1.23c1.86-2.28,4.48-3.76,6.83-5.48C108.82,13.28,138.39,3.78,168.21,1.15Zm2.16,6C137.71,10.06,105,21,79.59,42.2c-7.45.33-14.93-.14-22.37.52-17,1.26-34.45,2.41-50.42,8.9a300.3,300.3,0,0,0,22,45.7c1.71,3.36,5.41,6.16,5.11,10.22-2.4,8.26-4.9,16.62-5.23,25.28,1.35.86,3.42,2,2.76,4-1.88,3.38-4.23,6.5-5.65,10.13l.08.31c-4.55,10.12-4.86,21.72-3.35,32.57,2.66,18.93,15.9,34.85,31.9,44.53,4.17,2.34,8.23,5.12,12.9,6.39-6.54-4.27-11.67-11.11-12-19.14l-.34-.28a39.74,39.74,0,0,1,4.08-18c-3.8-3.54-8-7-10.23-11.79a5.73,5.73,0,0,1,3.31,2.24,53.17,53.17,0,0,0,11.32,10,6,6,0,0,0,3,4.73L64,197.1c-3,6.42-4.07,14.24-.84,20.79,3.86,7.36,13,9.81,16.77,17.3a21.16,21.16,0,0,1-.18,2.75l-2.67,1.45c-1.24,7.25-5.8,13.4-7.21,20.58-2.13,6.93-1.57,16.85,5.81,20.42,10.86,4.34,23.82,5.64,34.54.21,6.54-3,13.1-6,19.34-9.61,1.41-.79,3.09-1.53,4.68-.74,5.87,2.06,12.13,2.54,18.19,3.79,20.15,3.11,40.74,4.8,61,2.39a25.29,25.29,0,0,1,6-8.52,40.34,40.34,0,0,1,12.73-5.71c6.87-1.78,14-1.19,21.05-1,3.46.05,7.14-.15,10-2.27-.45-2.18-1.68-5.3,1-6.5,3.08-.93,4.7,2.72,4.71,5.22.73,4.27-2.95,7.75-6.84,8.58-9.55,2.18-19.59-.84-29.07,2-6.16,1.55-12.79,5.09-14.53,11.7-.58,2.89-.73,6,.72,8.69,2.41,3.91,6.77,6,11,7.25,9,3,18.59,2.87,28,3.07,12.28-.27,24.94-.19,36.59-4.62,5.14-2,9.72-6,11-11.55,1.54-6.86,1.5-14.37-1.1-21,0-1.45,0-2.9,0-4.34,1.2-.4,2.39-1.35,3.73-1,2,.94,2,3.47,3,5.2.65,5.49,1.84,11,1.22,16.54,23.58-4.53,47-10.27,69.57-18.48,15.41-5.81,30.69-12.36,44.48-21.46,5.24-3.66,10.74-7.57,13.74-13.4,2.78-5.28.88-12.64-4.44-15.54a19.14,19.14,0,0,0-11.36.25c-.51,1.35-.52,3-1.47,4.15s-3.56,1.14-4-.55c-1.74-4.76-2.81-9.77-4.92-14.4-9.54-22.4-26-42.54-48-53.55-2.18-1.06-4.37-2.09-6.58-3.07,2,23.62-3.59,48.6-18.93,67.12-9.63,12.28-23,20.91-37.08,27.34a170.6,170.6,0,0,1-64.53,11.64,10.73,10.73,0,0,1-2.48-2.68c.86-1.42,1.65-3.5,3.69-3.33,19.08-.48,38.31-3.12,56.28-9.78,17.7-6.58,34.11-18,44.28-34.14,12.16-18.9,15-42.53,11.57-64.41-2.47-15-6.92-29.86-14.12-43.28.78-5.8,4-10.92,5-16.69A196.72,196.72,0,0,0,348,27.34,144.81,144.81,0,0,0,317.26,25a216.39,216.39,0,0,0-34,2.18c-2.82.26-5.9,1.95-8.55.24a173.39,173.39,0,0,0-44.84-16.76C210.4,6,190.21,5.55,170.37,7.18Zm272,101.76c-2.16,2.23-3.59,5-5.21,7.66-4.58,8.07-10,16.19-18.19,21-4.54,2.82-9.63,4.77-13.76,8.24-4.33,3.65-7.29,8.59-9.71,13.65a121.5,121.5,0,0,1,10.66,12.65c2.61-5,5.45-10,9.43-14,5.15-5.5,11.76-9.27,18.28-12.89,8.62-4.52,14.73-12.78,18.38-21.64a20.48,20.48,0,0,0,1.58-11.7C452.64,107.13,445.79,105.49,442.41,108.94Z"/><path class="cls-2" d="M290.69,36.38c6.18-2.67,13-2.61,19.62-2.89a226.33,226.33,0,0,1,29.52,2.94c1.1,3.37.22,6.86,0,10.29-.85,10.69-3.11,21.2-5.34,31.67-3.7.54-4.94-3.54-7-5.75-3.72-5.31-9.18-9.13-12.6-14.66,3.21.43,6.41,1,9.64,1.4a6.11,6.11,0,0,0-1.71-1.93C315.93,54,308.5,51.4,302,47.15c4-.1,8.1.11,12.15-.09a15.56,15.56,0,0,0-5.64-3.5c-5.85-2-11.67-4-17.61-5.66C290.88,37.52,290.76,36.76,290.69,36.38Z"/><path class="cls-3" d="M26.55,39.77a279.51,279.51,0,0,1,50.87-3.66l-1,1.23c-4.63,1.12-9.41.51-14.12.6-5.68.07-11.36.35-17,.77C39,39.14,32.81,41.05,26.55,39.77Z"/><path class="cls-3" d="M139.91,141.48c1.9-2,2.25-5.56,5.3-6.39-1,4.54-4.19,9-8.84,10.19l-2.06-.6A39.16,39.16,0,0,0,139.91,141.48Z"/><path class="cls-3" d="M63.46,193.85c7.78,5.08,17,7.07,25.82,9.36,4.47,1,8.79,2.63,13.33,3.41l-2.93,2.74c-10.85-4.23-22.91-5-33.19-10.78A6,6,0,0,1,63.46,193.85Z"/><path class="cls-4" d="M49.3,51.4c7.07-.28,14.1-1.6,21.19-.85-.94,2.07-3.32,2.5-5.19,3.32A55.84,55.84,0,0,0,46.35,65.69c6-1,11.29-4.16,17.06-5.86-.52,1-1,2.21-2.07,2.76-7.21,4.5-14.24,9.82-19,16.94,3.28-1.62,6.38-3.63,9.88-4.79-5,6.51-8.48,14-13,20.87a15.68,15.68,0,0,1-4-4.77c-6.1-10.5-12.78-21-15.73-32.9,1.81-1.23,3.64-2.61,5.88-2.91C33.28,53.64,41.23,52,49.3,51.4Z"/><path class="cls-5" d="M338.43,90.62c7.2,13.42,11.65,28.27,14.12,43.28,3.48,21.88.59,45.51-11.57,64.41-10.17,16.16-26.58,27.56-44.28,34.14-18,6.66-37.2,9.3-56.28,9.78-2-.17-2.83,1.91-3.69,3.33a10.73,10.73,0,0,0,2.48,2.68c1.1.58,2.22,1.16,3.35,1.73-2.13-.27-4.38-.17-6.36-1.07-1.45-1.62-1.43-4.08-1.12-6.11,1.63-2.53,4.8-3.14,7.53-3.74,14.06-2.51,28.11-5.83,41-12,15.53-6.45,29-17.32,39.58-30.27a98.88,98.88,0,0,0,20-54,113.33,113.33,0,0,0-1.95-34.12C340.1,102.72,337.14,96.81,338.43,90.62Z"/><path class="cls-5" d="M442.41,108.94c3.38-3.45,10.23-1.81,11.46,2.92a20.48,20.48,0,0,1-1.58,11.7c-3.65,8.86-9.76,17.12-18.38,21.64-6.52,3.62-13.13,7.39-18.28,12.89-4,4.06-6.82,9-9.43,14a121.5,121.5,0,0,0-10.66-12.65c2.42-5.06,5.38-10,9.71-13.65,4.13-3.47,9.22-5.42,13.76-8.24,8.16-4.81,13.61-12.93,18.19-21C438.82,114,440.25,111.17,442.41,108.94Z"/><path class="cls-5" d="M359.75,142.14c2.21,1,4.4,2,6.58,3.07a26.31,26.31,0,0,1,3.39,13.58c1.11,18.11-6.78,35.6-17.79,49.58-7,8.08-14.66,16.08-24.67,20.33-7.44,3.41-14.9,9.14-23.52,7.9,14-6.43,27.45-15.06,37.08-27.34C356.16,190.74,361.76,165.76,359.75,142.14Z"/><path class="cls-5" d="M436.08,209.31c5.32,2.9,7.22,10.26,4.44,15.54-3,5.83-8.5,9.74-13.74,13.4-13.79,9.1-29.07,15.65-44.48,21.46-22.59,8.21-46,14-69.57,18.48.62-5.57-.57-11.05-1.22-16.54.28.43.82,1.3,1.1,1.73,11.53-.77,22.43-4.78,33.77-6.69,17.71-5,36.48-7.2,53-15.86a111.62,111.62,0,0,0,28.5-16.57C432.32,220.42,434,214.6,436.08,209.31Z"/><path class="cls-5" d="M69.84,260c1.92,4.93,3.8,10.68,8.9,13.21,9,3.32,18.92,1.78,27.73-1.3,8.06-2.78,14.89-8.24,23-11,4-1.65,7,2.55,10.82,2.91,9,.93,17.95,2.51,27,2.82,16.85,1.26,33.9,2.31,50.7-.11.37.35,1.12,1,1.5,1.37a25.29,25.29,0,0,0-6,8.52c-20.31,2.41-40.9.72-61-2.39-6.06-1.25-12.32-1.73-18.19-3.79-1.59-.79-3.27-.05-4.68.74-6.24,3.59-12.8,6.61-19.34,9.61-10.72,5.43-23.68,4.13-34.54-.21C68.27,276.82,67.71,266.9,69.84,260Z"/><path class="cls-5" d="M304.79,261.78c2.6,6.59,2.64,14.1,1.1,21-1.26,5.52-5.84,9.59-11,11.55-11.65,4.43-24.31,4.35-36.59,4.62-9.37-.2-19-.12-28-3.07-4.25-1.27-8.61-3.34-11-7.25-1.45-2.68-1.3-5.8-.72-8.69,6.81,1.57,12.71,5.58,19.5,7.21,7.89,2.12,16.15,1.1,24.22,1.42,8.85-.21,17.83.48,26.58-1.17,6.06-1,9.63-6.58,12.58-11.43C304.32,271.72,303.68,266.49,304.79,261.78Z"/><path class="cls-6" d="M242.25,112.8a14.12,14.12,0,0,1,13,3.55c-5.06-.67-10.33-2.47-15.38-.94-2.71,2-4.63,4.82-7.44,6.66A13.76,13.76,0,0,1,242.25,112.8Z"/><path class="cls-7" d="M239.89,115.41c5.05-1.53,10.32.27,15.38.94l.28.05c3.08,3.59,4.88,8.59,3.47,13.26-1.75,8.29-12.28,13.33-19.71,9-6-2.83-8.8-10-7.2-16.32l.34-.26C235.26,120.23,237.18,117.36,239.89,115.41Z"/><path class="cls-8" d="M118.82,127.15c2.73-7.38,12.49-11,19.33-7,5.37,2.66,8.11,9,7.37,14.78l-.31.16c-3.05.83-3.4,4.35-5.3,6.39a39.16,39.16,0,0,1-5.6,3.2l2.06.6-1.87.62.56,1.23-2.68,1.78-.16.1a50.51,50.51,0,0,0-15.67-10.4l.06-.16c.25-.71.74-2.13,1-2.83C118.18,132.82,117.51,129.8,118.82,127.15Z"/><path class="cls-9" d="M276.61,126.06c5.34-1.11,11.08-1.23,16.2.87,3.91,1.53,8.34,3.51,9.92,7.74.56,5.65-4.8,9.68-9.78,10.75-6,1.13-12.52,1.37-18.28-1-4.18-1.69-8.89-4.61-9-9.68C266.92,129.84,272.06,127.23,276.61,126.06Z"/><path class="cls-10" d="M74.45,134c8.61-3,18-3.18,27-2.44,5.5.83,11.19,1.53,16.2,4.09-.25.7-.74,2.12-1,2.83-12.9-4.3-26.8-4.91-40.23-3.42A1.75,1.75,0,0,1,74.45,134Z"/><path class="cls-11" d="M187,134.29c.77-1.43,2.76-3,4.25-1.51,3.22,3.18,6.1,7,10.53,8.61,2.78,1,6.34,1.56,8.82-.44,3.35-2.1-1.06-6.85,2.59-8.82.6.34,1.79,1,2.38,1.37,1.16,2.93,1.59,6.37-.41,9.07-2.75,4.59-8.9,4.55-13.51,3.53a26.83,26.83,0,0,1-11.73-8c-3.72,5.33-9.48,11.4-16.66,9.72-5.86-.8-9.34-9.09-5-13.38,2.29-1,3.42,1.51,2.74,3.39-.91,2.77,1.26,6,4.3,5.68C180.81,143.53,184.08,138.23,187,134.29Z"/><path class="cls-12" d="M22.56,179.86c-1.51-10.85-1.2-22.45,3.35-32.57,2,8.29.52,17,2.69,25.28C32.87,188,42.76,201.3,55,211.36l.34.28c.37,8,5.5,14.87,12,19.14-4.67-1.27-8.73-4.05-12.9-6.39C38.46,214.71,25.22,198.79,22.56,179.86Z"/><path class="cls-13" d="M132.38,148.91l2.68-1.78c4.95,5.35,11,11.11,11.7,18.75-3.16-2.06-5-5.43-7.16-8.37A104,104,0,0,0,132.38,148.91Z"/><path class="cls-14" d="M102.61,206.62a45,45,0,0,1,14.64,6.2c4.15,4.69,6.25,11,7.11,17.08,1.06,8.83.71,18.3-3.62,26.27-1.28,2.59-3.24,5.24-6.45,5-.52-1.14-1-2.27-1.53-3.4,7.52-10.48,8-25,2.87-36.56-2.73-6.6-10.19-8.73-15.95-11.88Z"/><path class="cls-15" d="M424.46,246.89c7.53-4.57,15.18-9.64,20.12-17.12,6.76,1.42,14.84,2.48,19.09,8.6,3.61,5.21.72,12.46-4.59,15.23-13.76,8.16-29.49,12-44.77,16.24q-34.77,8.51-69.7,16.32c-1.61,3.41-3.12,7.31-6.62,9.22-7.13,4.05-14.14,8.49-22,11-23.67,7.69-48.81,10.35-73.62,9.81-12.73-.46-26-1.55-37.26-8.14-5.31-3.34-11.27-5.83-15.72-10.39-1.21-1-2.21-2.63-3.94-2.6-10.45-.32-20.73,1.85-31.12,2.5-19.07.9-38,3.41-57.07,4.68-4.3.15-8.61.09-12.9-.18-3.53,0-6.42-2.47-9.9-2.66-12-1.15-24.11-3.87-34.4-10.33-3.18-2.21-5.94-5-9.52-6.62-4.57-2.12-9-5.49-10.55-10.52-1.7-4.81-.61-10.78,3.17-14.31,6.55-4.84,15-4.87,22.7-6.47,6.8-2.81,14.54-6.25,21.9-3.41-4.4,9.51-7.48,21.16-2.27,31C69.94,287,80.25,288.45,88.61,290l-1.33,1.76a116.6,116.6,0,0,0,15.07.12l-2.17-1.92a37.28,37.28,0,0,0,9.08-2.32c7.26-3.22,14.45-6.59,21.47-10.29,1.42-1,3.11-.59,4.68-.31,25.08,5.19,50.87,8,76.46,5.8.42,4.25,1.39,8.71,4.53,11.84,5.86,6,14.42,7.78,22.32,9.41l-1.15,1.45c7.53,1.18,15.18.8,22.78.85,6.7-.07,13.42-.05,20.12-.42-3.57-.49-7.15-.9-10.74-1.06,11.39-1.06,23.55-1.74,33.4-8.21,4.4-2.81,7-7.5,8.65-12.32a441.15,441.15,0,0,0,68.46-17.5A249.57,249.57,0,0,0,424.46,246.89Z"/><path class="cls-16" d="M87.28,291.72,88.61,290a70.94,70.94,0,0,0,11.57,0l2.17,1.92A116.6,116.6,0,0,1,87.28,291.72Z"/></g></g></svg>