<svg xmlns="http://www.w3.org/2000/svg" viewBox="0 0 2066.43 1966.16"><defs><style>.cls-1{fill:#ffeabf;}.cls-2,.cls-8{fill:#d7c5a3;}.cls-2{opacity:0.53;}.cls-3{fill:#b37521;}.cls-4{fill:#d89d29;}.cls-5{fill:#231f20;}.cls-6{fill:#490000;}.cls-7{fill:#fff;}.cls-8{opacity:0.31;}.cls-9{fill:#7e461d;}.cls-10{fill:#81540f;}</style></defs><g id="Слой_2" data-name="Слой 2"><g id="Layer_1" data-name="Layer 1"><path class="cls-1" d="M968.5,1460c-52.36-17.37-114.2-17.27-165.75,9-51,26-136.93,95.43-116.34,161.44,25.32,81.17,109.2,159.28,186.24,189.75,117.87,46.62,251.38,54.58,377,59.92,158.94,6.76,337,17.8,488.89-35.83,47.94-16.93,50.66-43.9,88-71.42,43.15-31.8,63.25-40.27,63-96.17-.24-67.91-35.15-123.12-93-156.61-41.53-24-92.7-52.26-140.92-57.14-32.47-3.28-62.89,8.63-95.49,9.07-47.89.65-93,15.14-142.05,15-127.74-.36-254.06-7.62-380.95-12.15-32.63-1.17-42.87-8.73-71.65-20.85"/><path class="cls-2" d="M1035.23,1541c-26.87-4.2-71,13.13-84.46,38.85-23,44,14.76,86.38,46.79,111.89,106.53,84.87,272.12,61.48,397.57,53.11,64.19-4.28,113.39-13,170.37-41.85,40.25-20.38,155.78-28.46,158.54-96.07,1.59-38.84-51.45-65.6-81.61-72.66-52.53-12.3-94.56,5.24-142,25.39-93,39.44-203.17,30.17-303.82,20.27-57.15-5.62-102.17-38.74-158.53-38.93"/><path class="cls-1" d="M1976.6,1063.92c-40.08-22.65-126-14-156.1,20.32-18.08,20.63-47.23,66.68-29.48,93.24,39.42,1.92,79.7-1.21,119.12.9,11.09,68.84-60.07,47.8-101.56,56.56-33.23,7-46.13,54-44.71,89.41,58.12,24.36,108.89,22.76,161.87-14.41,23.55-16.52,35.63-41.28,56.65-61.43,22.78-21.84,49.47-28.83,48.2-64.56-.53-15.13-5.51-38.72-9-54.76-7.32-33.72-36.93-46.64-48-77.27"/><ellipse class="cls-3" cx="1332.79" cy="955.27" rx="450" ry="92"/><ellipse class="cls-4" cx="1350.79" cy="965.27" rx="308" ry="54"/><path class="cls-1" d="M1282.79,1623.27c-159.74,4-292.44-255.25-341.18-375.32-10.81-26.62-79.4-216.19-14.93-224.08,13-1.59,46.78,46,59.92,53.55,38.14,21.82,78.5,21.92,121.29,21.85,103.7-.19,207.82-3,311.1-12,81-7.09,162-8.78,240.81-28.1,56.65-13.89,98.08-18.67,154.37-7.31,5.08,65.79-24.68,137.06-42.19,199.42-21,75-30.69,191.33-81,252.09-53.45,64.53-188.28,98.5-268.25,104-51,3.5-102.41-7.2-151.93-4.07"/><path class="cls-5" d="M2059.13,1111.39c-8.14-21.06-21.74-38.26-40.81-50.52-20.76-13.33-46.11-18.39-70.42-19.4-24.13-1-48.59,2.62-72.08,7.87-29.8,6.65-58.75,16.93-86.87,28.71a28.41,28.41,0,0,0-12.91,10.16c-6.8,3.83-11.81,11-11.25,19.06a523.5,523.5,0,0,1,.55,63.5c-.54,10.73-1.45,21.43-2.63,32.11-.28,2.57-.59,5.14-.91,7.71l-.21,1.6c-.07.56-.16,1.17-.21,1.55-.78,5.58-1.67,11.14-2.63,16.69A571.31,571.31,0,0,1,1744,1294c-3.06,10.47-6.46,20.84-10.12,31.11-1.75,4.93-3.59,9.82-5.48,14.7-1,2.44-1.92,4.86-2.9,7.29-.49,1.21-1,2.41-1.48,3.62l-.38.9a528.38,528.38,0,0,1-29.07,57.92q-8.1,13.93-17.12,27.32c-2.86,4.26-5.81,8.47-8.8,12.64q-2.25,3.12-4.55,6.19c-.76,1-1.54,2-2.31,3.07l-.59.78a431.41,431.41,0,0,1-42.41,46.81c-7.59,7.24-15.5,14.15-23.64,20.76-1.29,1-2.6,2.06-3.9,3.09-.88.65-3.73,2.84-4.56,3.45-4.36,3.25-8.81,6.37-13.32,9.41a351.77,351.77,0,0,1-55,30.36l-1.67.72-1.25.52c-2.35,1-4.72,1.89-7.09,2.8-5.17,2-10.39,3.81-15.65,5.54-10.24,3.36-20.66,6.18-31.18,8.54-5.12,1.16-10.28,2.16-15.46,3.08-2.61.46-5.23.87-7.85,1.28l-1.4.2-3.34.44c-12.32,1.5-24.74,2.31-37.13,3q-35.61,2.1-71.32.85-16.62-.62-33.18-2.11c-5.12-.46-10.24-1-15.35-1.6-1.62-.19-3.24-.4-4.86-.61-1.18-.17-5.53-.76-6.74-.94a490.25,490.25,0,0,1-58.37-12.33c-9.07-2.51-18.06-5.34-27-8.43q-6.24-2.17-12.42-4.57c-2-.78-4.06-1.59-6.08-2.4-.95-.38-1.89-.77-2.82-1.16a378.67,378.67,0,0,1-46.68-24c-7.3-4.41-14.42-9.11-21.39-14q-5-3.49-9.81-7.18l-.32-.24-.82-.64c-1.85-1.45-3.67-2.93-5.49-4.42a375.49,375.49,0,0,1-36.49-34.29c-5.71-6.11-11.19-12.42-16.51-18.87-1.27-1.55-2.53-3.12-3.79-4.69-.44-.55-1.38-1.76-2.12-2.7q-3.37-4.42-6.64-8.93a469.47,469.47,0,0,1-27.56-43.08C972,1388,964.18,1372.28,957,1356.31q-1.31-2.93-2.59-5.86c-.32-.73-1.08-2.51-1.59-3.71q-2.26-5.45-4.45-10.93-5-12.7-9.56-25.6c-12.62-35.81-22.44-72.57-30.48-109.65-6.8-31.33-12.23-62.94-16.77-94.66q-.77-5.39-1.5-10.78c-.15-1.09-.31-2.32-.39-2.9-.26-2-.53-4.09-.79-6.13q-1.57-12.35-3-24.71-2.4-20.93-4.35-41.9c25.2,11.33,51.66,20,78.29,27.12,65.67,17.55,133.87,26.41,201.57,31.38,24.68,1.8,49.43,3,74.18,3.25,15.47.16,31,1.56,46.44,2,55.38,1.55,110.87.51,166.2-2,71-3.2,142.08-9.22,212.34-20.33,59.22-9.35,120.71-21.82,174.3-49.81,20.81-10.87,40.13-25.29,53.45-44.85,12.77-18.77,15.81-42.18,10.47-64-6.76-27.6-26.06-51-47.72-68.55-28.74-23.27-61.63-39.53-95.64-53.57-74.84-30.9-155.21-48.62-234.72-62.59-62.79-11-126.31-19.72-189.93-24.28-12-.86-22,10.65-22,22,0,12.64,10,21.14,22,22,26.71,1.91,53.35,4.75,79.92,8q6,.74,12,1.51l6.15.8,2.49.33h0q13.56,1.85,27.08,3.86,28.92,4.31,57.7,9.46c40.67,7.28,81.13,15.89,121.09,26.43q29.54,7.79,58.59,17.27,14,4.6,27.76,9.73,6.43,2.4,12.83,4.93c2.11.83,4.2,1.68,6.29,2.54l3.06,1.26a424.42,424.42,0,0,1,47,23.31q10.35,6,20.17,12.88c1.5,1,3,2.13,4.46,3.21l1.27,1q4.08,3.22,8,6.67a152.12,152.12,0,0,1,14.46,14.6c.81.93,1.59,1.89,2.37,2.86l.45.61c1.92,2.64,3.69,5.37,5.34,8.17,1.49,2.52,2.84,5.11,4.08,7.76l.06.13q.65,1.66,1.23,3.36c.74,2.16,1.37,4.37,1.91,6.59.27,1.06.49,2.14.7,3.22l.06.34a57.46,57.46,0,0,1,0,9.64c-.1.54-.22,1.08-.34,1.61a54.33,54.33,0,0,1-1.77,6.13c-.07.21-.16.41-.23.61l0,.07a61.7,61.7,0,0,1-3.17,5.75c-.8,1.3-1.67,2.56-2.57,3.8-.75.91-1.53,1.8-2.32,2.68a103.36,103.36,0,0,1-10.36,9.82l-1.21,1-.59.44c-2.22,1.63-4.5,3.17-6.81,4.67a217.23,217.23,0,0,1-31,16.42l-1.44.63-2.51,1c-3.2,1.29-6.42,2.52-9.65,3.72-6.5,2.42-13.07,4.63-19.68,6.73-14.26,4.53-28.73,8.38-43.29,11.83-8.85,2.11-17.75,4-26.67,5.85,5-5.5,7.6-13.27,4.83-20.33-21.85-55.75-69-94.21-122.53-118.38-63.84-28.85-133.83-41.26-203.34-46.27-73.86-5.33-148.33-1.1-221.41,10.51-63.56,10.1-127.4,26.46-185.21,55.31-26.46,13.2-53.06,30.17-72.13,53.13-7.65,9.21-9.06,22.05,0,31.11a20.76,20.76,0,0,0,5,3.63,273.12,273.12,0,0,1-34.7-18.87c-2.74-1.77-5.42-3.62-8.07-5.52q-1.41-1-2.79-2.07l-1.53-1.23a145.12,145.12,0,0,1-13.84-12.86c-2-2.09-3.85-4.26-5.66-6.48-.88-1.19-1.72-2.39-2.55-3.62a93.84,93.84,0,0,1-6.8-11.89c-.44-1.2-1.94-4.92-2.39-6.35a85.46,85.46,0,0,1-2.24-8.67c-.17-.86-.33-1.73-.47-2.6,0-.18,0-.37-.06-.55a88.48,88.48,0,0,1-.38-9.35c0-3,.23-5.91.52-8.85.27-1.68.59-3.35.94-5a128.39,128.39,0,0,1,6.13-20.31l.55-1.38q1-2.25,2-4.46c1.85-3.9,3.88-7.71,6-11.47,2-3.56,4.09-7.07,6.39-10.44l1.4-2c.57-.7,2.66-3.38,3.43-4.27a149.69,149.69,0,0,1,17.79-17.46c.71-.6,1.44-1.19,2.17-1.78.57-.42,3.14-2.39,4-3,3.75-2.72,7.62-5.26,11.54-7.72a258.26,258.26,0,0,1,24.44-13.37c4-1.92,8-3.73,12-5.48l3-1.22c2.59-1,5.2-2,7.81-3a479.23,479.23,0,0,1,59.93-17.79c10.58-2.46,21.24-4.61,31.93-6.54q7.77-1.39,15.59-2.62c2.61-.42,5.23-.81,7.84-1.2l3.93-.56,2.55-.36c21.11-2.78,42.33-4.71,63.57-6q44.61-2.7,89.34-1.3,19.17.6,38.29,2.09,8.57.68,17.11,1.58c2.66.29,5.31.59,8,.91l3,.38.35.05.31,0,.61.08c.8.11.57.07,0,0,11.54,1.33,22.76-3.14,26.15-15.47,2.87-10.43-3.47-25.37-15.37-27.06-79.35-11.26-161-8.85-240.29,1.92-42.26,5.75-84.42,14.51-124.46,29.44-36.56,13.63-73,32.32-99.67,61.47-23.57,25.74-39.24,60-42.5,94.81-2.73,29.14,7.93,56.55,25.54,79.23,11.42,14.71,26.11,26.83,41.94,37a18.35,18.35,0,0,0-4.41,13.34c7.48,82,18.56,164.13,39.33,243.92,18.41,70.68,45,140.75,86,201.63,39.61,58.9,92.69,108,156.59,139.44,76,37.4,161.41,49.91,245.47,48.53,47.73-.79,95.91-4.8,141.48-19.77,43.06-14.15,82.22-36.44,117.69-64.46,67.24-53.12,115.41-127.58,146.6-206.77,57,14.57,116.67,10,169.77-16,44-21.57,81.8-58.55,104.41-102C2063.3,1198.78,2074.72,1151.72,2059.13,1111.39ZM925,975.54A149.76,149.76,0,0,1,947,954.24c1.05-.79,2.12-1.57,3.18-2.34,2.49-1.8,5-3.53,7.58-5.22,5.16-3.42,10.46-6.61,15.84-9.66a361.17,361.17,0,0,1,35.5-17.43l1.09-.45q2.4-1,4.82-1.95c3.55-1.42,7.12-2.78,10.71-4.11q10.66-4,21.5-7.48a736.14,736.14,0,0,1,96-23.83q12.91-2.35,25.9-4.33,6.31-1,12.64-1.83l.52-.08,1-.14,7.45-.94q27-3.3,54-5.08a945.87,945.87,0,0,1,109.38-1q26.82,1.32,53.5,4.38,4.92.57,9.84,1.22l4.15.57q3.62.51,7.23,1.07,12.73,2,25.39,4.41c31.71,6.14,63.06,14.73,93,26.94l1.05.43,4.53,2c3.52,1.57,7,3.22,10.49,4.91q9.75,4.76,19.15,10.2c6,3.5,12,7.26,17.71,11.23,2.59,1.79,5.13,3.64,7.64,5.52l.34.28c1.46,1.16,2.91,2.35,4.34,3.55a195.34,195.34,0,0,1,15,14c2.33,2.4,4.58,4.89,6.77,7.42q1.74,2,3.43,4.11c.17.21.33.42.5.62a157.94,157.94,0,0,1,11,16.82c1.61,2.84,3.11,5.75,4.53,8.69.62,1.27,1.2,2.56,1.78,3.85.17.44.35.87.52,1.31a26.4,26.4,0,0,0,11.24,13.59q-22.39,3.9-44.91,7l-1.83.25-5.77.75q-6.78.87-13.55,1.68-13.1,1.56-26.23,2.92-26.28,2.74-52.64,4.74c-33.85,2.61-67.75,4.41-101.68,5.59-51.29,1.79-102.76,2.47-154.06.37-16.24-.67-32.39-1.36-48.64-1.81-25.06-.7-50.09-2.24-75.06-4.4a25.39,25.39,0,0,0,9.67-12.67l.36-1q.52-1.08,1.08-2.16a67.68,67.68,0,0,1,4.8-7.84l.14-.21c.74-.9,1.51-1.78,2.3-2.65a84.78,84.78,0,0,1,6.89-6.78c1-.86,2-1.69,3-2.51l.43-.31c2.81-2,5.74-3.93,8.72-5.73a147.37,147.37,0,0,1,16.59-8.51c1-.41,2.29-.95,3-1.21q2.55-1,5.12-1.9c3.81-1.36,7.67-2.59,11.55-3.75,7.8-2.33,15.72-4.22,23.69-5.83,4-.81,8-1.52,12-2.17,2-.33,4-.63,6-.92l2.48-.31c8.77-1.07,17.59-1.78,26.42-2.25a442.32,442.32,0,0,1,54.25.54c8.15.56,16.27,1.39,24.37,2.4l4.07.57c2.1.31,4.2.65,6.29,1,4.49.74,9,1.57,13.41,2.46A321.2,321.2,0,0,1,1437.23,984c1.75.64,3.48,1.31,5.21,2l2.42,1q4.38,1.9,8.69,4a162.3,162.3,0,0,1,18,10.28c1.3.86,2.58,1.76,3.85,2.67l.71.52q3.26,2.63,6.3,5.51c2,1.93,3.93,4,5.75,6.09l.43.51q.89,1.25,1.71,2.52c6.53,10,19.39,14.17,30.1,7.89,10-5.84,14.44-20,7.9-30.1-17.23-26.49-45.51-42-74.14-53.31-33.09-13.12-68.86-19.31-104.17-22.53a438.23,438.23,0,0,0-111.55,4.15c-30.94,5.16-63.34,14.73-89.1,33.21-17.85,12.81-31.69,28.88-39.18,49.73-2.8,7.81.4,16.31,6.24,21.81q-14.36-1.53-28.67-3.36l-3.37-.44-3.79-.52q-6.57-.91-13.12-1.92-12.73-1.92-25.42-4.16c-33.53-5.89-66.85-13.43-99.31-23.78q-11.57-3.69-22.94-7.94-5.32-2-10.58-4.12l-2.38-1-4.3-1.87-1.15-.53C909.34,983.4,919.3,982.36,925,975.54ZM2021.9,1161.48c-.13,1.81-.31,3.61-.51,5.41-.17,1.09-.35,2.19-.55,3.29a161.32,161.32,0,0,1-8,28.58c-.43,1.15-.88,2.3-1.34,3.44-.91,2.08-1.85,4.15-2.84,6.2-2.31,4.82-4.84,9.53-7.53,14.15s-5.72,9.34-8.84,13.84c-1.49,2.15-3,4.27-4.6,6.37-.83,1-1.66,2.07-2.5,3.1a219.53,219.53,0,0,1-23.93,24.86c-2.1,1.88-4.25,3.7-6.43,5.49-1,.82-2,1.62-3,2.41l-.39.29c-4.79,3.6-9.75,7-14.82,10.17s-10.45,6.24-15.86,9q-3.94,2-8,3.88c-1.26.59-2.54,1.15-3.81,1.71l-.52.22a208.81,208.81,0,0,1-36.62,11c-3.64.75-7.29,1.37-11,1.91-.68.08-1.35.17-2,.24-2.14.24-4.3.44-6.45.61a217,217,0,0,1-25.76.51c-4.3-.15-8.6-.46-12.89-.86-2-.19-4.1-.42-6.14-.67l-2.94-.45c-6.77-1.07-13.48-2.45-20.14-4.08a578,578,0,0,0,20.84-95.69,24.93,24.93,0,0,0,16.52-2.16q2.24-1.1,4.48-2.16c.66-.31,3.93-1.74,4.42-2,3.56-1.44,7.18-2.76,10.81-4a238.13,238.13,0,0,1,27.16-7.45c4.69-1,9.43-1.87,14.17-2.64l5-.71,5.46-.6c2.72-.28,5.45-.5,8.17-.7-.06.77-.12,1.53-.2,2.29,0,.12,0,.25-.06.4a73,73,0,0,1-2,8.35c-.32,1.07-.7,2.13-1.09,3.19a53.9,53.9,0,0,1-3.83,6.68l-.28.41c-.51.59-1,1.16-1.56,1.73-.85.92-1.76,1.78-2.67,2.63-.37.34-1,.86-1.6,1.34-1.54,1-3.14,2-4.77,2.92-1.12.63-2.28,1.2-3.45,1.76a86,86,0,0,1-16,4.21l-.42.07c-1.38.15-2.76.27-4.14.38-3.29.26-6.59.35-9.89.37a179.7,179.7,0,0,1-22.83-1.48c-11.93-1.46-22,11.1-22,22,0,13.08,10.1,20.55,22,22,31.62,3.84,64.76.64,90.56-19.45,24.72-19.24,31-53,27.44-82.55-1.42-11.88-8.92-22-22-22-38.82.12-77.8,6.86-113.39,22.48a542.61,542.61,0,0,0,0-54.86c32.66-13.22,66.5-24.21,101.39-29.51l1.32-.19c1.54-.19,3.07-.37,4.61-.54q5.6-.6,11.21-.94c6.66-.41,13.34-.49,20-.24,3,.11,5.93.31,8.88.58,1.19.11,2.38.24,3.57.38l.36,0a127.09,127.09,0,0,1,15.92,3.55c2.34.69,4.66,1.47,6.95,2.31.6.21,1.18.45,1.77.68l.53.24a87.8,87.8,0,0,1,12,6.79c.64.43,1.27.88,1.9,1.34,1.44,1.19,2.85,2.43,4.2,3.72s2.86,2.87,4.21,4.39c.5.55,1,1.13,1.46,1.7a78.61,78.61,0,0,1,6,9.87c.41.8.8,1.62,1.18,2.43.55,1.43,1.06,2.86,1.54,4.31a91.92,91.92,0,0,1,3,12.37c.07.38.12.77.18,1.16.23,2.18.39,4.37.49,6.55A120.81,120.81,0,0,1,2021.9,1161.48Z"/><path class="cls-6" d="M1159.07,1300.36a9.47,9.47,0,0,0-12.86-3.37q-1.9,1.17-3.92,2.16l-.76.36-2,.81a65.68,65.68,0,0,1-10,2.69c-.84.16-1.68.3-2.53.43l-.53.06c-1.9.22-3.8.35-5.71.44a82.27,82.27,0,0,1-11.1-.29l-1.21-.12-2-.29c-1.86-.31-3.7-.7-5.53-1.15-1.65-.41-3.28-.9-4.9-1.44-.79-.26-1.58-.55-2.36-.85l-.32-.13-.46-.2c-1.46-.67-2.88-1.42-4.27-2.23-.68-.39-1.34-.81-2-1.24l-1.52-1.1c-.84-.72-1.65-1.48-2.42-2.27-.49-.5-.95-1-1.41-1.56l-.37-.54a25.53,25.53,0,0,1-1.94-3.42c-.08-.2-.15-.4-.22-.6-.29-.83-.52-1.69-.73-2.55-.07-.29-.13-.58-.18-.88-.06-.47-.16-1.31-.18-1.71a29.69,29.69,0,0,1,.09-4.11c.07-.44.24-1.66.33-2.12a18.38,18.38,0,0,1,.73-2.32l.12-.32a1,1,0,0,0,.07-.15c.43-.92.91-1.81,1.42-2.69a39.62,39.62,0,0,1,2.24-3.48c.22-.28,1.1-1.41,1.4-1.77.74-.87,1.52-1.71,2.3-2.54,1.39-1.46,2.87-2.83,4.39-4.16.74-.65,1.51-1.28,2.28-1.9.5-.38,1-.75,1.53-1.12a78.58,78.58,0,0,1,11.33-6.69c.55-.27,1.11-.52,1.66-.77,0,0,1.82-.75,2.33-.93a60.81,60.81,0,0,1,6.32-2c1-.25,1.93-.46,2.9-.66.42-.08,1.59-.26,2.12-.35a46.36,46.36,0,0,1,4.86-.21c.77,0,1.53.06,2.29.12l.5,0,.11,0a28.59,28.59,0,0,1,4.88,1.31l.69.35a25.27,25.27,0,0,1,2.24,1.32l.38.26.15.13a22.74,22.74,0,0,1,1.93,1.87c3.51,3.73,9.76,3.54,13.29,0a9.51,9.51,0,0,0,0-13.29c-13.93-14.81-35.8-12.2-52.79-5-16.58,7-32.29,20.06-38.91,37.16-2.88,7.42-2.69,17-.09,24.43,2.81,8.06,8.07,14.2,14.82,19.25,5.92,4.44,13.23,7.28,20.37,9.1a88,88,0,0,0,23.92,2.55c12.31-.34,25.32-3,35.91-9.55A9.52,9.52,0,0,0,1159.07,1300.36Z"/><path class="cls-6" d="M1550.28,1320.86a9.51,9.51,0,0,0-12.85-3.37c-.82.44-1.65.86-2.49,1.25-.47.23-1,.44-1.43.65l-.13.06c-2.4,1-4.83,1.85-7.28,2.67a155.41,155.41,0,0,1-18.77,4.89c-1.63.31-3.27.6-4.91.86l-2,.31-1.29.15q-5.13.6-10.31.69a76.13,76.13,0,0,1-9.78-.43l-.22,0c-.73-.12-1.46-.25-2.18-.4a44.09,44.09,0,0,1-4.52-1.17c-.31-.09-.62-.2-.93-.31a115.78,115.78,0,0,0,15.63-1.32,34.58,34.58,0,0,0,16.72-6.94c4.74-3.8,6-9.78,5.08-15.47-.68-4.25-3.86-8.37-6.93-11.2-14.6-13.47-44.59-18.64-55.5,2.15a38.75,38.75,0,0,0-.15,34.42,10.2,10.2,0,0,0-6,1.12c-.65.35-1.31.68-2,1l-.53.24c-1.46.58-3,1.08-4.46,1.53s-3.13.85-4.71,1.19c-.8.18-1.61.33-2.42.47-.42.08-1.45.22-2,.31a69.11,69.11,0,0,1-9.1.36c-1.63,0-3.25-.15-4.86-.32l-.29,0c-.89-.14-1.77-.31-2.65-.5a40.54,40.54,0,0,1-4.36-1.16c-.56-.18-1.11-.38-1.66-.59l-.72-.34-.17-.08a7.57,7.57,0,0,0,1-.27c9.56-3.12,19.8-7.41,26.69-15,5.11-5.66,8.28-13.42,6-21-2.09-6.89-7.87-11.78-14.67-13.74-7.18-2.06-15-.44-21.39,3.15-6.06,3.41-10.83,8.85-14.56,14.78a7.93,7.93,0,0,0-5.94-5c-11.46-1.62-23-2.54-34.46-3.06.63-1.74,1.28-3.48,2-5.2.46-1.2.94-2.39,1.43-3.58l.06-.14c.33-.77.67-1.54,1-2.31q3.21-7.21,7.09-14.09a130.29,130.29,0,0,1,8.32-12.88l.65-.87c.16-.21.34-.43.43-.56.58-.72,1.18-1.44,1.78-2.15.71,1.25,1.37,2.54,2,3.85.14.33.39.9.46,1.1.25.65.47,1.31.69,2,.43,1.32.78,2.66,1.09,4,.16.67.29,1.35.41,2,0,.15.08.5.12.81.15,1.41.21,2.83.22,4.24a9.4,9.4,0,1,0,18.79,0,56.77,56.77,0,0,0-16.42-39.1,9.51,9.51,0,0,0-13.29,0c-11.21,10.63-19.68,23.65-26.38,37.52a194.85,194.85,0,0,0-27.94-39.06c-12-12.88-28.41-25.16-47-21.59-14.28,2.74-22.07,15.74-26.36,28.44a104.88,104.88,0,0,0-3.34,12.55q-4-2.74-7.91-5.66c-4.11-3.07-10.48-.67-12.85,3.37-2.81,4.8-.72,9.8,3.37,12.86,4.71,3.52,9.6,6.91,14.65,10.11-.31,4.15-.5,8.28-.64,12.36q-.14,4.11-.16,8.22c-.29-.85-.62-1.69-1-2.52a25.54,25.54,0,0,0-6.32-8.08,75.41,75.41,0,0,0-12.44-9,4,4,0,0,1-5.17-3.46,9.52,9.52,0,0,0-12.86-3.37c-8.88,5-18,10.76-23.88,19.31a19.63,19.63,0,0,0-3.43,10.68c-.06,4.37,1.81,8,4.47,11.29,3.76,4.65,10.43,7.1,16.08,8.35a62.59,62.59,0,0,0,19.35,1.22c6.16-.61,13.06-1.76,18.23-5.44a18.75,18.75,0,0,0,7.08-8.68c.27,9.19,1,18.38,2,27.5,1.45,12.11,3.15,24.45,7.94,35.75,2,4.72,8.87,5.71,12.86,3.37a9.46,9.46,0,0,0,4.32-5.61c.73-2.68.09-4.8-1-7.24,1.67,3.94.25.5-.11-.52s-.7-2.19-1-3.29c-.71-2.52-1.3-5.08-1.83-7.65-.63-3-1.16-6.07-1.63-9.13-.13-.79-.24-1.59-.36-2.38,0-.25-.07-.5-.1-.75-.23-1.71-.43-3.42-.62-5.13a302.78,302.78,0,0,1-1.64-45.56,136.07,136.07,0,0,0,41.11,13c2.64.36,4.85.46,7.25-1a9.41,9.41,0,0,0,4.31-5.61c1.22-4.44-1.48-10.86-6.56-11.56a117.15,117.15,0,0,1-19-4.29c-3.15-1-6.26-2.11-9.33-3.32l-1.43-.58-1.28-.54c-1.65-.71-3.28-1.46-4.9-2.23q-4.28-2-8.44-4.3c.12-.77.24-1.54.37-2.32a97.19,97.19,0,0,1,5.08-19.27l0-.1c.26-.6.54-1.18.83-1.77a38.4,38.4,0,0,1,2-3.66c.32-.52.67-1,1-1.53a24.6,24.6,0,0,1,2.3-2.38l.2-.18.66-.42c.44-.27.89-.51,1.35-.74l.41-.2.34-.13a22.55,22.55,0,0,1,2.4-.68l.54-.11c.73-.06,1.46-.07,2.19-.06.42,0,1.36.11,1.93.17,1,.2,1.93.45,2.88.74.67.2,1.32.44,2,.69l.63.29a52.5,52.5,0,0,1,8.68,5.33l.54.43c.65.53,1.29,1.07,1.93,1.62,1.43,1.23,2.81,2.52,4.16,3.83,2.78,2.69,5.39,5.55,7.91,8.49,1.15,1.34,2.26,2.7,3.37,4.08l1,1.23,1.39,1.83q3.25,4.39,6.27,9c3.18,4.76,6.17,9.66,8.91,14.68a9.36,9.36,0,0,0,9.9,4.45c-.44,1.12-.87,2.24-1.3,3.35q-1.35,3.6-2.58,7.23c-6.7-.1-13.4-.12-20.11-.12a9.4,9.4,0,1,0,0,18.79c4.89,0,9.79,0,14.68,0a289.88,289.88,0,0,0-6.43,36.29c-.21,1.84-.39,3.69-.56,5.54-.47,5.1,4.63,9.39,9.39,9.39,5.48,0,8.93-4.3,9.4-9.39.2-2.23.44-4.45.7-6.67.11-1,.24-2,.37-2.94a2,2,0,0,1,0-.3c.1-.78.22-1.55.34-2.33.74-5,1.65-10,2.68-15,1-4.79,2.13-9.56,3.41-14.28l1.43,0q8.88.3,17.73,1,4.23.33,8.44.77c1.41.15,2.81.31,4.22.48l1.75.22,1.66.22a14,14,0,0,0,4.6.07,31.81,31.81,0,0,0-.94,17.93c4.1,15.71,21.25,21.51,35.66,22.7a70.49,70.49,0,0,0,38-7.48,9,9,0,0,0,4.56-7.2c9.84,8,24.1,9.69,36.34,9.3a144.73,144.73,0,0,0,32.48-5.09c8.18-2.18,16.53-4.92,24-9C1551.41,1331.28,1552.81,1325.17,1550.28,1320.86Zm-344.51-29.08a33,33,0,0,1-3.63,1c-.63.13-1.26.25-1.89.35h-.07c-1.31.15-2.63.24-4,.28a56.43,56.43,0,0,1-8.32-.32h0c-.71-.11-1.41-.25-2.12-.4a39.38,39.38,0,0,1-3.84-1q-.64-.21-1.29-.45c-.49-.24-1-.49-1.43-.77.09-.14.17-.28.27-.42s.12-.17.17-.25a35.19,35.19,0,0,1,3.56-3.56c.43-.38.87-.75,1.31-1.11l.28-.22c1-.74,2-1.45,3-2.14,1.39-1,2.81-1.85,4.24-2.72a9.55,9.55,0,0,0,3.72,4.13c2.1,1.25,4.16,2.57,6.15,4l.69.51c.72.59,1.42,1.2,2.11,1.83q.63.6,1.23,1.23Zm192.57,18.87c.87-1.45,1.8-2.88,2.78-4.27.13-.13,1.09-1.34,1.43-1.71.68-.75,1.41-1.45,2.16-2.13.19-.18.4-.35.6-.52.52-.36,1.06-.71,1.61-1s1.1-.62,1.67-.9l.55-.19c.62-.2,1.25-.36,1.89-.5l.22-.05c.41,0,.82,0,1.23,0,.24,0,.59,0,.92,0a12.68,12.68,0,0,1,1.34.37l.07,0c.22.12.43.25.64.38l.22.2.06.06.06.1v.14c0,.15-.08.3-.13.44s-.24.51-.34.7-.27.44-.42.66-.63.79-.85,1a27,27,0,0,1-2,2l-.33.26q-.72.52-1.47,1c-1.33.88-2.72,1.66-4.13,2.41-.69.36-1.39.7-2.09,1-.34.17-1.75.78-2.1.94-1.57.62-3.17,1.19-4.77,1.73Q1397.71,1311.72,1398.34,1310.65Zm63.63-6.14c.08-.24.21-.6.33-.93.31-.6.64-1.19,1-1.76l.09-.15c.19-.21.39-.41.59-.62l.6-.57c.39-.25.78-.49,1.19-.71s1.39-.54,1.86-.66.92-.22,1.38-.32h0a28.61,28.61,0,0,1,5.07.07l1.09.2c1.08.22,2.14.49,3.2.8s1.92.61,2.87,1l.18.07.77.35a36.79,36.79,0,0,1,5.13,3l.27.2.1.08c.4.34.79.7,1.17,1.07a41,41,0,0,1-6.73,1.63l-.74.12-2.16.22c-1.94.18-3.89.28-5.83.35-4.09.15-8.19.09-12.27-.08.09-.51.19-1,.3-1.52S1461.8,1305.09,1462,1304.51Z"/><path class="cls-7" d="M1176,913.42c-3.13-11.36-15.58-18.81-27.06-15.37-44.5,13.34-89.88,26.68-125.71,57.66-9.08,7.85-8,23.1,0,31.11,8.93,8.94,22,7.84,31.11,0,1.11-1,2.25-1.88,3.38-2.82.36-.22,4.08-3.08,4.86-3.63,4.4-3.1,9-5.9,13.66-8.56,4.22-2.41,8.57-4.6,13-6.71,2.44-1.17,4.92-2.28,7.41-3.37l.27-.12,3.52-1.43c19.63-7.85,40-13.64,60.24-19.7C1172.12,937,1179.24,925.17,1176,913.42Z"/><path class="cls-5" d="M1935.53,1605.36c-24.13-59.5-74.12-105.44-136.54-121.95a206,206,0,0,0-40.2-6.14c-12-.73-22,10.55-22,22,0,12.54,10,21.27,22,22,3.51.21,7,.51,10.48.89l.21,0,.85.13c1.72.26,3.43.57,5.14.88a175.57,175.57,0,0,1,21.76,5.53c3.28,1,6.51,2.22,9.72,3.45l2.73,1.12,3.07,1.4a177.33,177.33,0,0,1,19.55,10.72c2.91,1.82,5.75,3.77,8.55,5.75,1,.67,1.88,1.36,2.8,2.06-1.69-1.26,1.73,1.38,2.31,1.85a179.14,179.14,0,0,1,16.44,15.33c2.41,2.52,4.71,5.15,7,7.8q1,1.21,2,2.46c-.55-.66,1.72,2.21,2.11,2.73a183.93,183.93,0,0,1,12.42,19.4c1.76,3.13,3.38,6.34,5,9.57.79,1.63,1.53,3.28,2.28,4.93.1.23.19.43.28.61s.2.51.34.84c2.18,5.38,4,10.89,5.74,16.43a183.81,183.81,0,0,1,5.07,21c.25,1.34.45,2.68.66,4,0,.19,0,.39.07.58.38,3.38.61,6.77.76,10.16a131.62,131.62,0,0,1-.6,18.73c0,.2,0,.4-.07.59-.15,1-.31,1.93-.49,2.89-.55,3-1.24,6.05-2,9-.72,2.73-1.56,5.43-2.47,8.1-.46,1.33-1,2.65-1.45,4-.1.27-.2.53-.31.79a126.73,126.73,0,0,1-7.83,14.74c-1.49,2.43-3.09,4.8-4.74,7.13-.57.82-1.17,1.61-1.77,2.41l-1,1.19a176.48,176.48,0,0,1-26.94,26.11l-.34.25q-1.93,1.46-3.92,2.87c-2.9,2.08-5.86,4.09-8.85,6-6,3.9-12.1,7.54-18.34,11-6.53,3.62-13.21,7-20,10.16-3.36,1.58-6.74,3.1-10.13,4.59-.53.24-1.51.66-2.41,1l-4.57,1.88c-15.43,6.22-31.2,11.58-47.13,16.4-35.08,10.6-71,18.33-107.11,24.52q-14.36,2.46-28.77,4.57-7,1-14,2l-.15,0-2.23.3-8.26,1.06c-19.92,2.5-39.89,4.58-59.88,6.36-40.31,3.6-80.73,5.84-121.17,7.16-73.79,2.4-147.71,1.64-221.45-1.74-46-2.12-92.3-4.72-138-10.59-.67-.11-5.09-.74-6.57-1q-7.77-1.37-15.53-2.85-15.84-3-31.59-6.58-34.1-7.66-67.52-18-17.41-5.38-34.54-11.64-8.28-3-16.47-6.27c-2.74-1.08-5.46-2.18-8.18-3.3l-1.53-.64-4-1.73a469,469,0,0,1-64-33.64c-4.76-3-9.44-6.17-14.06-9.41-2.29-1.6-4.55-3.25-6.79-4.91l-1.33-1c-.72-.56-2.44-1.88-3-2.33a271.35,271.35,0,0,1-25.17-22.76c-3.71-3.81-7.27-7.78-10.71-11.83-1.2-1.42-2.37-2.87-3.53-4.32.83,1-3.39-4.56-4.27-5.8a185.52,185.52,0,0,1-16.32-28.13c-.5-1.06-1-2.13-1.45-3.2-1-2.4-1.87-4.84-2.73-7.29a166.78,166.78,0,0,1-4.84-16.51c-1.06-4.35-1.89-8.76-2.58-13.18.11.4-.59-5.23-.7-6.56-.29-3.28-.44-6.57-.55-9.86-.18-5.83,0-11.66.33-17.48.18-3,.46-6,.77-9l.33-2.91s.59-4.14.73-5a165.38,165.38,0,0,1,4.48-19.13c.88-3,1.9-6,3-8.94.47-1.3,1-2.59,1.49-3.88.32-.72.64-1.44,1-2.16a142.15,142.15,0,0,1,14.41-24.36c.1-.07,2.82-3.54,3.48-4.33,1.86-2.19,3.81-4.3,5.78-6.38,3.63-3.81,7.5-7.39,11.48-10.83,1.18-1,2.4-2,3.62-3-.44.39,3.54-2.68,4.43-3.32,4.34-3.12,8.84-6,13.42-8.76a235.83,235.83,0,0,1,26.9-13.78c.07,0,4.43-1.83,5.38-2.2,2.36-.93,4.74-1.81,7.12-2.69,5.27-1.93,10.61-3.68,16-5.35,10.83-3.38,21.84-6.19,32.9-8.68s22.24-4.56,33.44-6.38c4.81-.78,9.63-1.49,14.46-2.16l5.33-.71c3-.38,5.94-.73,8.91-1.07,11.91-1.39,22-9,22-22,0-11-10.06-23.39-22-22-53.51,6.21-106.92,16.14-155.73,39.88s-87,64.56-100.88,117.62c-13.15,50.41-6.61,105.11,18.92,150.5,23.64,42,62.13,74.2,102.9,98.8,42.72,25.77,90.07,44.15,137.72,58.52,39.86,12,81,22,122.34,27.4,47.89,6.31,96.37,9,144.59,11.18q111,5,222.17,1.49c81.55-2.73,163.22-9.3,243.7-23.1,68.52-11.75,138.47-28.88,199.91-62.41,47.82-26.09,92.73-67.61,101.53-123.89C1953.05,1668.7,1947.87,1635.81,1935.53,1605.36Z"/><path class="cls-5" d="M1656.64,1574.05c-12-3.31-21.61,3.6-26.4,13.87.63-1.51,1.28-3.06.66-1.62-.23.54-.47,1.07-.71,1.59-.49,1.07-1,2.12-1.52,3.16-1.15,2.28-2.41,4.51-3.73,6.69s-2.57,4-4,6c-.4.58-.83,1.14-1.25,1.71-.17.21-.34.43-.52.64a130.39,130.39,0,0,1-10.84,11.58c-1.9,1.83-3.87,3.58-5.87,5.31-1,.87-2,1.73-3.09,2.59-.39.32-1,.81-1.6,1.28A227,227,0,0,1,1569,1645c-5.74,3.1-11.6,6-17.53,8.68-1.46.67-2.93,1.32-4.4,2l-2,.85c-2.66,1.1-5.32,2.17-8,3.21-27.82,10.82-56.82,18.54-86.05,24.44q-11.7,2.37-23.47,4.3-5.71.94-11.46,1.8l-5.76.84-2.18.31q-24.27,3.18-48.7,4.85a822,822,0,0,1-98.27,1q-23.62-1.17-47.13-3.9c-1.83-.21-3.66-.44-5.49-.66l-2.36-.31q-4.9-.68-9.79-1.43-10.92-1.7-21.75-3.83c-13.63-2.67-27.15-5.92-40.47-9.86q-9.32-2.74-18.47-6-4.21-1.51-8.39-3.17c-1.1-.43-2.2-.88-3.29-1.33l-.82-.35a195.81,195.81,0,0,1-29.48-15.85c-2-1.31-3.92-2.68-5.84-4.08-.77-.63-1.55-1.25-2.31-1.89a106,106,0,0,1-10.18-9.81c-.83-.92-1.64-1.86-2.43-2.81-1.49-2.06-2.89-4.19-4.18-6.39-.73-1.25-1.42-2.54-2.07-3.84-.48-1.31-1.85-4.76-2.28-6.26-.57-2-1-4-1.39-6,0,0,0-.05,0-.08-.12-1.38-.19-2.77-.22-4.15a67.29,67.29,0,0,1,.3-8c.23-1.35.51-2.7.81-4.05,2.61-11.69-3.39-23.76-15.37-27.06-11.13-3.06-24.44,3.66-27.06,15.37-5.06,22.64-2.46,45.61,9,65.91,11.12,19.61,29.42,34.64,48.57,46,49,28.94,108.38,39.32,164.17,45.11,66.44,6.89,133.64,4.41,199.7-5,59.17-8.41,119.62-23.28,172.18-52.57,33.12-18.46,62.21-44.1,76.77-79.73C1676.55,1590,1667.17,1577,1656.64,1574.05Z"/><path class="cls-5" d="M1690.36,466.18c-9.64-30.59-25.93-60.39-50.75-81.27-26.93-22.66-62.22-35-97.23-36.85-28.48-1.51-57.61,8.13-77.38,29.14-18.81,20-27.42,46.33-29.81,73.19-2.33,26.17,3.17,52.5,13.71,76.38,9.46,21.42,26.55,42,48.32,51.57,27.82,12.23,62.64,10.41,87.55-8.11,31.14-23.14,46.63-66.24,29.32-102.49A42.06,42.06,0,0,0,1602.41,453c-8.51-6.58-16.55-9.64-27.19-11.05-16.94-2.26-35.06,7.31-48.08,17.15-9.54,7.21-14.49,18.83-7.89,30.1,5.53,9.43,20.51,15.14,30.1,7.89A101.25,101.25,0,0,1,1561.8,489c.76-.42,2.59-1.24,3.76-1.77s2.53-.8,3.82-1.13q.57-.15,1.14-.27c.71,0,1.42,0,2.13,0l.14,0,.49.14.42.26c.22.22.45.45.66.68.5.78,1,1.59,1.39,2.42.07.24.16.46.24.7a42.61,42.61,0,0,1,1.12,4.31c.05.2.07.39.11.59.12,1.5.18,3,.19,4.51s-.09,3.31-.21,4.95l0,.29a67,67,0,0,1-2.89,10.76c-.1.28-.21.56-.32.84-.73,1.57-1.55,3.1-2.4,4.61s-1.93,3.18-3,4.72a1.25,1.25,0,0,0-.09.12c-.39.49-.82,1-1.12,1.38-1.27,1.45-2.63,2.82-4,4.15-.63.61-2.18,1.89-3.07,2.63s-1.81,1.21-2.73,1.79c-1.32.82-5.48,2.75-5.33,2.81a85,85,0,0,1-13.57,3.59c-1.26.12-2.53.19-3.8.24a61.72,61.72,0,0,1-7.69-.2c-.91-.17-1.82-.35-2.73-.56a59.71,59.71,0,0,1-7.06-2.12c-.76-.36-1.51-.74-2.26-1.13a65.64,65.64,0,0,1-6.62-4l-.41-.28c-.43-.37-.88-.72-1.31-1.09-2-1.74-3.89-3.6-5.7-5.52-.84-.9-1.65-1.81-2.44-2.75-.6-.86-3.21-4.38-4.07-5.71a106.7,106.7,0,0,1-7.46-13.85c-.43-1.09-.84-2.18-1.24-3.28-1-2.75-1.89-5.54-2.7-8.35a134.36,134.36,0,0,1-3.59-16.33c-.13-1.14-.25-2.27-.35-3.4-.27-3-.42-6-.5-8.94a130.9,130.9,0,0,1,.71-17c.15-1,.3-1.92.47-2.88.51-2.85,1.15-5.68,1.88-8.48.66-2.55,1.44-5.08,2.29-7.58.4-1.15.83-2.3,1.27-3.44a84.77,84.77,0,0,1,7.81-13.63l.07-.11c.53-.63,1-1.27,1.59-1.88a70.91,70.91,0,0,1,5.79-5.84c.56-.49,1.12-1,1.69-1.46l.35-.25a71.47,71.47,0,0,1,7.2-4.41c1-.53,2-1,3-1.5a75.17,75.17,0,0,1,8.3-2.58c1.52-.39,5.79-1.1,7.1-1.36,2.2-.2,4.4-.31,6.61-.37,3.35-.08,6.71,0,10,.27,1.53.1,3,.26,4.57.42l2.15.34a168.58,168.58,0,0,1,24.73,6.33c3.29,1.09,6.57,2.15,9.8,3.4l.82.36c1.84.84,3.66,1.75,5.46,2.69,3,1.58,6,3.33,8.89,5.18,1.43.91,2.83,1.87,4.22,2.85.5.35,1,.72,1.5,1.09A122.25,122.25,0,0,1,1621.78,429c1.12,1.27,2.21,2.57,3.29,3.89.13.16.26.33.4.49,2.17,2.92,4.2,5.93,6.15,9A162.2,162.2,0,0,1,1642,461.78c.23.49.44,1,.65,1.46.56,1.39,1.12,2.77,1.65,4.17,1.42,3.74,2.71,7.54,3.91,11.36a230.5,230.5,0,0,1,5.91,23c.79,3.82,1.48,7.67,2.1,11.52.16,1,.3,2,.45,3.05.18,1.38.51,3.89.63,4.89,1,8.41,1.5,16.87,1.79,25.33a384.68,384.68,0,0,1-1.95,52.36c-.22,2.12-.46,4.23-.7,6.34-.09.73-.3,2.33-.46,3.58q-.82,5.85-1.8,11.69c-1.48,8.77-3.25,17.48-5.25,26.14a420.5,420.5,0,0,1-15,50.23c-1.4,3.84-2.89,7.65-4.41,11.45l-.87,2.1c-.8,1.87-1.62,3.74-2.45,5.59q-5,11.16-10.85,21.92-5.56,10.31-12,20.1c-2,3-4,6-6.15,8.91-.81,1.13-1.64,2.23-2.48,3.34-.51.65-1,1.3-1.55,1.94a179.19,179.19,0,0,1-14.11,15.43c-2.29,2.23-4.66,4.37-7.09,6.45-.92.79-1.87,1.56-2.81,2.32l-1.25.92c-2.83,2-5.77,3.93-8.78,5.71a22,22,0,0,0,22.21,38c26.67-15.75,47.23-40.25,63.48-66.23,18.45-29.5,31.68-62.59,41.23-96a450.76,450.76,0,0,0,17.06-109.45C1704.19,534.87,1700.79,499.26,1690.36,466.18Z"/><path class="cls-5" d="M1381.55,47.68C1364.1,29.73,1342.47,16.59,1319,8.15c-24.4-8.79-50.43-9.85-75.87-6.12C1223,5,1202.31,12.36,1186,24.71a153.79,153.79,0,0,0-39.94,45c-19.55,33.16-29,75.54-18.12,113.17,11.56,40,48.17,68.12,89.54,70.24,31.06,1.59,62.08-15.25,81.17-39.13,18.61-23.28,31-54,18.24-83-5.83-13.24-19.32-22.33-33-25.82-18.15-4.64-37.77-1.4-55.45,3.66A22.26,22.26,0,0,0,1213,136c3.16,11.46,15.54,18.66,27.07,15.36,4.41-1.26,8.86-2.37,13.37-3.25.83-.17,2.7-.46,3.94-.65s2.47-.22,3.71-.29a67.26,67.26,0,0,1,9.09.09,40.7,40.7,0,0,1,4.47,1.15l.29.1c.52.28,1,.58,1.55.88l.06,0,.6.62c.16.28.33.56.49.85.24.79.45,1.58.63,2.39q0,.81.06,1.62c0,1.16,0,2.33-.1,3.49,0,.13,0,.26,0,.39a60.92,60.92,0,0,1-1.46,6c-.37,1.27-.8,2.52-1.24,3.77l-.4,1.06a89.83,89.83,0,0,1-8.37,14.23l-.19.27c-.8,1-1.63,1.94-2.46,2.89a97,97,0,0,1-7,7.08c-1.13,1.05-2.31,2.05-3.49,3l-.12.09a84.34,84.34,0,0,1-8.21,5.29c-1.36.77-2.75,1.49-4.15,2.19-.44.21-1.11.52-1.77.81a79.57,79.57,0,0,1-7.73,2.42c-1.54.4-3.1.72-4.67,1l-.19,0a68.24,68.24,0,0,1-10.21.18c-.66,0-1.79-.14-2.74-.25s-1.63-.31-2.44-.49A69.37,69.37,0,0,1,1203,206c-.54-.27-3.91-1.68-5-2.22-2-1-3.85-2.1-5.72-3.24-.89-.54-1.75-1.11-2.61-1.69-.44-.4-3.56-2.8-4.52-3.68-1.48-1.35-2.87-2.79-4.22-4.26-.56-.6-1.72-2-2.46-3a77,77,0,0,1-5.12-8.55c-.33-.65-.93-2-1.38-3s-.79-2.19-1.15-3.3a86.61,86.61,0,0,1-3-12.29c0-.35-.08-.7-.11-1-.2-2-.31-4-.39-6a113.84,113.84,0,0,1,.3-13.19c.07-.92.33-3.13.46-4.33s.36-2.11.56-3.15c.82-4.49,1.93-8.91,3.19-13.29,1.18-4.08,2.59-8.09,4.12-12l.49-1.23.17-.38c1-2.27,2.1-4.51,3.22-6.72,1.92-3.79,4-7.47,6.26-11.07,1.11-1.79,2.28-3.55,3.47-5.29.66-1,2.88-3.93,3.43-4.71a122.21,122.21,0,0,1,15.66-15.94c.4-.34.82-.67,1.23-1,1.49-1.09,3-2.13,4.58-3.14a88.17,88.17,0,0,1,10.51-5.81c.42-.15.83-.32,1.26-.47,2.45-.91,4.93-1.74,7.41-2.54a138.36,138.36,0,0,1,18.3-4.48c.42-.08.85-.14,1.28-.21.7-.09,2-.27,2.64-.33,2.76-.29,5.54-.45,8.31-.56a130.88,130.88,0,0,1,17.71.57c.42,0,1.12.12,1.75.19l1.73.29c2.63.44,5.25,1,7.85,1.6a133.24,133.24,0,0,1,16.48,5c.71.26,1.41.55,2.11.83l1.17.5c2.4,1.09,4.76,2.27,7.09,3.49a139.27,139.27,0,0,1,14.61,8.91c1.09.75,2.15,1.53,3.21,2.31h0c2,1.57,3.87,3.2,5.75,4.87a143.61,143.61,0,0,1,12.09,12.21c1.19,1.34,2.34,2.73,3.47,4.12-.5-.54,2.94,4,3.68,5.07a141.54,141.54,0,0,1,8.93,14.93c1.25,2.39,2.4,4.83,3.52,7.28a.3.3,0,0,0,0,.1c.46,1.14.9,2.29,1.33,3.44a142.42,142.42,0,0,1,5.12,17.06c.64,2.71,1.16,5.44,1.65,8.18.07.42.13.83.2,1.25.09.71.27,2,.33,2.65.4,3.7.65,7.41.77,11.12a147.61,147.61,0,0,1-.84,20.49c0,.37-.08.74-.13,1.11-.19,1.27-.38,2.54-.6,3.81-.62,3.64-1.37,7.25-2.2,10.85-1.65,7.12-3.72,14.14-6,21.07-1.15,3.42-2.39,6.82-3.67,10.2-.65,1.71-1.33,3.42-2,5.12l-.88,2.17c-3,7.09-6.36,14.07-9.82,21-7.49,14.92-15.83,29.4-24.53,43.64-18.51,30.29-38.82,59.44-58.8,88.77-38.23,56.14-79.29,115.19-96.1,182-7.87,31.27-9.22,64.31-.57,95.57,9.65,34.81,31.47,65.13,57.8,89.36,15.54,14.31,32.82,26.89,50.65,38.17,10.15,6.42,24.21,2.18,30.11-7.89,6.22-10.62,2.22-23.7-7.9-30.1q-13.17-8.33-25.63-17.69c-1-.76-3.58-2.82-4.35-3.44-1.88-1.53-3.74-3.1-5.59-4.68-3.84-3.28-7.56-6.7-11.2-10.21a214.34,214.34,0,0,1-18.19-19.92l0,0-.87-1.16c-1.19-1.59-2.33-3.22-3.46-4.85-2.38-3.44-4.59-7-6.7-10.59-1.88-3.21-3.61-6.51-5.25-9.85-.72-1.46-1.41-2.95-2.07-4.44-.25-.63-.51-1.25-.75-1.88a140.8,140.8,0,0,1-6.22-20.89c-.52-2.37-1-4.75-1.34-7.14-.13-1-.3-2.34-.37-3.07-.2-2-.34-4-.46-6a159.21,159.21,0,0,1,.25-21.4c.13-1.73.3-3.45.49-5.17.05-.49.11-1,.16-1.47q.75-5,1.75-10c1.46-7.36,3.38-14.62,5.56-21.8,2.26-7.43,4.89-14.74,7.75-22,.58-1.47,1.18-2.93,1.79-4.4.26-.61.52-1.21.79-1.81,1.69-3.87,3.46-7.7,5.27-11.51,14.81-31.13,33.23-60.45,52.21-89.17,38.16-57.74,81.41-113.41,110.42-176.61,13.62-29.67,23.94-60.72,25.48-93.56C1430.93,125.09,1413.06,80.09,1381.55,47.68Z"/><path class="cls-5" d="M1088.44,650.44c.16-1.05.53-3.67.73-4.71a119.63,119.63,0,0,1,3.57-13.43c1.3-4.08,2.83-8.08,4.44-12,.39-.9.79-1.8,1.19-2.7,1.13-2.53,2.3-5,3.49-7.53,4.49-9.44,9.33-18.71,14.08-28,11-21.46,21.58-43.39,29-66.38,12.62-39.23,8.65-83.72-5.71-121.9s-38.58-73.27-73.12-95.85A120.22,120.22,0,0,0,1012,279.16c-19.68-2-39.53,3.35-57,12.16-21.65,10.93-38.55,29-53,48-11.48,15.05-16.54,32-18.44,50.69-1.88,18.34.91,37.46,5.48,55.21a199.17,199.17,0,0,0,23,54.15c20.18,32.88,53.09,61.64,93.63,61.43,1.91,0,3.82-.15,5.72-.34,1.65-.15,3.34-.38,5-.62-5.45.79,4.64-.63,5.64-.76a62.17,62.17,0,0,0,11.11-2.65,81.85,81.85,0,0,0,26-14.88c12.65-10.32,21.12-26,25.65-41.5,8.44-28.8,3.65-68-21.4-87.61A65.05,65.05,0,0,0,1028,398.38c-11.93-1.21-24.7,1.89-35.64,6.5-5.57,2.35-10,4.68-13.15,10.11A22.2,22.2,0,0,0,977,432c2.87,10.42,16,20,27.07,15.36a87.76,87.76,0,0,1,11.79-4.06c1.38-.36,2.77-.64,4.16-.9.79-.06,1.58-.11,2.36-.14,1.49-.06,3,0,4.46.08a38.15,38.15,0,0,1,4.07,1.09l.17.05a38.2,38.2,0,0,1,3.34,1.94c.83.75,1.63,1.52,2.41,2.33.34.36.67.73,1,1.11a53,53,0,0,1,3.45,6l0,.07c.52,1.4,1,2.82,1.4,4.25a58.9,58.9,0,0,1,1.42,6.15c.1.8.2,1.69.25,2.27.13,1.82.17,3.65.18,5.48,0,2.2-.12,4.41-.32,6.61-.13.87-.28,1.89-.4,2.52-.36,1.83-.8,3.64-1.29,5.44-.42,1.55-.91,3.07-1.42,4.58-.19.54-.52,1.41-.83,2.19a71.85,71.85,0,0,1-3.81,6.87c-.37.59-.76,1.17-1.16,1.75s-1.19,1.51-1.61,2c-1.06,1.19-2.19,2.3-3.34,3.39-.52.49-1.06,1-1.6,1.43a54.2,54.2,0,0,1-6.95,4.07l-.44.16a56.45,56.45,0,0,1-5.84,1.69c-1.18.28-4.06.71-4.52.8l-1.62.15a59.82,59.82,0,0,1-9,0c-1.09-.17-2.87-.44-3.75-.63-1.81-.4-3.58-.91-5.35-1.45-.7-.22-1.39-.47-2.08-.71-1-.45-3.66-1.61-4.67-2.14a84.13,84.13,0,0,1-9.74-6l-.62-.46c-.13-.09-.24-.19-.35-.27-1.79-1.48-3.52-3-5.21-4.62a119.32,119.32,0,0,1-8.44-8.84c-.65-.75-1.29-1.5-1.91-2.27-.19-.29-2.89-3.8-3.64-4.88A165.37,165.37,0,0,1,941.18,461c-.83-1.71-1.61-3.44-2.37-5.18-.36-.87-.7-1.74-1-2.62-1.72-4.4-3.22-8.88-4.59-13.4-1.25-4.12-2.31-8.3-3.25-12.5-.47-2.06-.87-4.15-1.26-6.23-.21-1.14-.69-4.39-.88-5.6a131.69,131.69,0,0,1-.56-21.66c.08-1.48.22-3,.37-4.44.1-.56.19-1.13.29-1.69a80.51,80.51,0,0,1,2.86-11.06c.18-.52.5-1.33.81-2.1s.85-1.72,1.31-2.57a67.75,67.75,0,0,1,5.39-8.13c.14-.18,1.46-1.92,1.9-2.48q1.37-1.69,2.76-3.34c1.79-2.14,3.65-4.21,5.55-6.25a144.41,144.41,0,0,1,12.19-11.67c.75-.64,1.51-1.25,2.27-1.86,1.84-1.36,3.74-2.64,5.66-3.89a98.35,98.35,0,0,1,12.16-6.69l1.8-.69c1.89-.69,3.83-1.29,5.77-1.85s3.83-1,5.76-1.41c.85-.18,1.71-.33,2.56-.48a80.69,80.69,0,0,1,10.66-.33c1.68,0,3.35.19,5,.35l2.23.41a88.88,88.88,0,0,1,11,2.94c1.43.47,2.85,1,4.25,1.55,1,.45,2,.92,3,1.4a110.72,110.72,0,0,1,10.3,5.82c1.7,1.07,3.36,2.21,5,3.36.72.51,1.42,1,2.13,1.55a149.31,149.31,0,0,1,18.8,18.24c1.43,1.63,2.81,3.3,4.17,5l.16.2c.35.48.71,1,1.07,1.43,2.86,3.87,5.52,7.89,8.07,12a195.4,195.4,0,0,1,12.77,24.37c.39,1,.77,1.94,1.15,2.92.84,2.15,1.62,4.31,2.38,6.48,1.65,4.72,3.08,9.52,4.36,14.35,1.19,4.46,2.18,9,3,13.51.39,2.06.73,4.12,1,6.19.16,1.31.3,2.62.43,3.94a166.67,166.67,0,0,1,.31,28.61c-.09,1.16-.2,2.32-.31,3.47-.13.83-.58,4.24-.78,5.37a139.12,139.12,0,0,1-3.34,14.4c-1.39,4.88-3.14,9.66-4.92,14.41-1,2.69-2.06,5.35-3.13,8-.11.27-.3.73-.5,1.2-.56,1.3-1.13,2.61-1.7,3.91-4.55,10.31-9.59,20.4-14.69,30.44-9.79,19.26-20,38.42-27.18,58.85-7,19.75-9,40.66-4.76,61.23,5,24,20.72,45,37.74,62,4.57,4.54,9.42,8.81,14.35,12.95,9.18,7.7,22.09,9,31.12,0,7.92-7.92,9.19-23.39,0-31.11-5.37-4.5-10.55-9.17-15.51-14.11-2.23-2.22-4.38-4.52-6.48-6.86-1-1.11-2-2.25-2.94-3.38-.41-.48-1.56-1.94-2.23-2.78a112.56,112.56,0,0,1-7.36-11.45c-1.07-1.92-2-3.89-3-5.89-.47-1.23-.91-2.48-1.32-3.74a70.37,70.37,0,0,1-2.32-9.06c-.08-.94-.41-3.72-.46-4.83-.12-2.4-.08-4.8,0-7.2C1088.29,652.31,1088.36,651.37,1088.44,650.44Zm-76.12-134.08h0l.86-.11C1009.52,516.71,1004.85,517.31,1012.32,516.36Z"/><path class="cls-5" d="M1022,559.08h0Z"/><path class="cls-8" d="M1711.21,1093.85c-29.65-31.54-50.19,66.17-51.69,83.57-6.57,76.16-32.28,134.85-66.93,204.24-25.6,51.26-58.1,83.88-107.48,110.64-19.42,10.52-47.09,24-69.13,28.53-16.87,3.48-36.09-3.93-53-.21-57.94,12.76,27.76,48,52.42,51.1,54.66,6.87,102.18-8.23,148.51-36.88,114.76-70.94,149-192.11,178.87-319.64,10-42.54,7.59-71.57-23-100.61"/><path class="cls-9" d="M409.7,1618.64c49.79,8.69,95.15-12.93,101.32-48.3l-180.29-31.47C324.56,1574.23,359.91,1610,409.7,1618.64Z"/><path class="cls-9" d="M332,1531.57h0L512.3,1563h0c6.17-35.36-29.18-71.07-79-79.76S338.18,1496.21,332,1531.57Z"/><path class="cls-9" d="M79.67,1762.65c49.78,8.69,95.15-12.93,101.32-48.29L.7,1682.89C-5.47,1718.25,29.88,1754,79.67,1762.65Z"/><path class="cls-9" d="M2,1675.59H2l180.3,31.47h0c6.17-35.36-29.19-71.08-79-79.77S8.15,1640.22,2,1675.59Z"/><path class="cls-9" d="M229.68,1912.67c49.79,8.69,95.15-12.93,101.33-48.29l-180.3-31.48C144.54,1868.27,179.9,1904,229.68,1912.67Z"/><path class="cls-9" d="M152,1825.6h0l180.29,31.47h0c6.17-35.36-29.18-71.07-79-79.76S158.16,1790.24,152,1825.6Z"/><path class="cls-9" d="M457.6,1843c42.65-10.25,71.33-43.12,64-73.42l-154.46,37.13C374.46,1837,414.94,1853.22,457.6,1843Z"/><path class="cls-9" d="M365.67,1800.42h0l154.47-37.12h0c-7.28-30.3-47.76-46.55-90.42-36.3S358.39,1770.12,365.67,1800.42Z"/><path class="cls-9" d="M649.61,1915c42.66-10.25,71.34-43.12,64-73.42L559.2,1878.68C566.48,1909,607,1925.23,649.61,1915Z"/><path class="cls-9" d="M557.69,1872.43h0l154.47-37.12h0c-7.28-30.3-47.76-46.55-90.42-36.3S550.41,1842.13,557.69,1872.43Z"/><path class="cls-9" d="M313.58,1720c42.66-10.25,71.33-43.12,64.05-73.42l-154.47,37.12C230.44,1714,270.93,1730.21,313.58,1720Z"/><path class="cls-9" d="M221.66,1677.41h0l154.47-37.12h0c-7.28-30.3-47.77-46.55-90.42-36.3S214.38,1647.11,221.66,1677.41Z"/><path class="cls-4" d="M565.79,1519.52c31.92,23.13,71.11,23.5,87.54.83l-115.59-83.76C521.31,1459.27,533.87,1496.39,565.79,1519.52Z"/><path class="cls-10" d="M541.13,1431.91h0l115.59,83.76h0c16.42-22.67,3.87-59.8-28.05-82.93S557.56,1409.24,541.13,1431.91Z"/><path class="cls-4" d="M793.81,1948.56c31.92,23.13,71.11,23.5,87.54.83l-115.59-83.75C749.34,1888.31,761.89,1925.43,793.81,1948.56Z"/><path class="cls-10" d="M769.15,1861h0l115.59,83.75h0c16.43-22.67,3.87-59.8-28-82.92S785.58,1838.28,769.15,1861Z"/><path class="cls-4" d="M608.07,1730.26c39.07,5.26,73.77-13,77.51-40.71l-141.47-19.07C540.38,1698.23,569,1725,608.07,1730.26Z"/><path class="cls-10" d="M544.89,1664.76h0l141.46,19.06h0c3.74-27.74-24.9-54.51-64-59.77S548.62,1637,544.89,1664.76Z"/></g></g></svg>