<svg xmlns="http://www.w3.org/2000/svg" viewBox="0 0 1951.06 1978.28"><defs><style>.cls-1{fill:#9362a5;}.cls-2{fill:#764d87;}.cls-3{fill:#cb7fef;}.cls-4{fill:#6f4389;}.cls-5{fill:#8d55b5;}.cls-6{fill:#bf9134;}.cls-7{fill:#e0ab4f;}.cls-8{fill:#f9d6a2;}.cls-9{fill:#c18f4d;}.cls-10{fill:#020202;}.cls-11{fill:#eaeae5;}.cls-12{fill:#d1af24;}.cls-13{fill:#ddc014;}.cls-14{fill:#e3d00e;}</style></defs><g id="Слой_2" data-name="Слой 2"><g id="GraphicMama"><g id="purple_background" data-name="purple background"><path class="cls-1" d="M26.06,245.06C10.64,246.16-1,260.06.08,276L11.47,436.22Q96.54,335.12,181.59,234Zm354.32-25.2L217.94,231.41,14.14,473.69,26,641.09l243-288.89Zm3.3-.23L346,264.39l-170.8,203L26.28,644.49,36.82,792.63Q282.13,501,527.43,209.41Zm180.1-12.81L424.92,371.89,39.48,830.09l9.15,128.7,640-760.85ZM1110.4,197c-1.13-15.89-14.67-28-30.1-26.9L725,195.35,51.3,996.25l19.56,275.06c1.13,15.89,14.67,28,30.09,26.9l654.82-46.56,396.14-470.92Zm44.17,621.21L792.12,1249.06l286.13-20.34,97.29-115.66Zm26.61,374.15-3-41.83-63.61,75.61,40.6-2.89C1170.62,1222.15,1182.31,1208.25,1181.18,1192.35Z"/><path class="cls-2" d="M1662.34,174,1504,69.59,1087.6,291.71l-19.93,483.36,57.26,37.74,40.92-48.65Zm196.49,129.48-174.5-115L1425.8,495.77,1146.92,827.3,1320,941.35,1853.27,307.4A12.63,12.63,0,0,1,1858.83,303.44Zm17,11.18a12.4,12.4,0,0,1-3,10.22L1618.41,627.22,1342,955.83l122.13,80.49,16.09-8.59,69.93-83.12,341.72-406.23,8.56-207.54Zm-333.59,680,41.62-22.21L1888.9,609.79l1.19-28.69L1728.15,773.61Q1635.18,884.13,1542.2,994.66Zm103.62-55.28L1880.47,814.2l6.67-161.69L1711.38,861.45Z"/><path class="cls-3" d="M1171.53,757.41a809.27,809.27,0,0,0-89,1.47c-281.67,20-499.81,179.66-487.23,356.54,5.19,73,48.85,137.45,118.1,186.66l452.5-537.92Zm254.53,57.84c-63.46-29.59-139.3-49.21-222-55.89L883.83,1140.05,735.28,1316.64c56.63,35,127.38,60.79,206.54,74.26l7.26-8.63,451.55-536.79Zm142,108.09c-28.57-37.32-68.86-69.89-117.88-96.07L1166.86,1164,972.2,1395.41a793.23,793.23,0,0,0,155.83,4q21.79-1.56,43-4.22l16.42-19.51,362.65-431.1Zm24.51,38.78q-4.23-8.32-9.15-16.4l-373.23,443.67q13.86-2.42,27.41-5.3l284.69-338.42Zm22.74,80.77A206.33,206.33,0,0,0,1604,989.06L1325,1320.81l-44.51,52.92C1484.2,1318.13,1625.45,1186.19,1615.26,1042.89Z"/><path class="cls-4" d="M874.88,1110.06l-601.07,42.75c-15.43,1.09-27.12,15-26,30.89l32.36,455.13c1.14,15.9,14.68,28,30.1,26.91l103.34-7.35L623.44,1409Zm322.47-22.93-286.12,20.35-27.4,32.57L450,1655.8l286.12-20.34q106.5-126.6,213-253.19Zm247.7-17.62-211.35,15L772.45,1632.87l211.34-15,203.69-242.13Zm60.76-4.32-24.41,1.74-115.9,137.78-345.35,410.55,24.4-1.74,91.7-109Zm292.1-20.77-255.75,18.19L1325,1320.81,1080.9,1610.94l255.75-18.19,293-348.34Zm120.71,20.46c-1.13-15.89-14.67-28-30.1-26.9l-54.26,3.86-48.16,57.24-316.33,376.05-96.77,115,141.24-10,406.64-483.4ZM1951,1520l-27.43-385.84-103.22,122.7-269.74,320.65L1925,1550.91C1940.42,1549.81,1952.12,1535.91,1951,1520Z"/><path class="cls-5" d="M1661.61,812.08l-211.35,15-166.57,198,15.42,216.92c0,.28.08.55.1.83l250.92-298.27Zm60.75-4.32L1698,809.5,1365.5,1204.71l-51.27,61a27.22,27.22,0,0,0,15,3.3l5.52-.4,187.51-222.89Zm83.33,23.12c-1.13-15.89-14.68-28-30.1-26.9l-16.88,1.2-47.33,56.27L1371.08,1266l255.75-18.19,2.84-3.38,189.41-225.16Zm16.06,225.83-158.57,188.5,141.24-10,27.68-32.89Zm-407.84-227-115.35,8.2c-15.43,1.1-27.12,15-26,30.89L1281,987.67l119.61-142.19Z"/></g><g id="moon"><path class="cls-6" d="M1290.94,0c-226.21,0-409.6,177.77-409.6,397.07s183.38,397.07,409.6,397.07,409.6-177.78,409.6-397.07S1517.16,0,1290.94,0Zm360.28,496.2c-.49,0-1-.05-1.44-.08C1617.66,601.91,1536.56,688,1431.32,730.6a30.85,30.85,0,0,1,.18,3.19c0,20.07-18.51,36.35-41.35,36.35-14.86,0-27.85-6.92-35.14-17.26a405.48,405.48,0,0,1-74.16,6.83c-177.06,0-326.1-113.94-370.47-268.89a68.56,68.56,0,0,1-12.9-76.1q-.57-9.93-.58-20c0-201.57,171.9-365,383.95-365a405,405,0,0,1,77.29,7.4,76,76,0,0,1,46.32-15.63c36.86,0,67.54,26,74.17,60.33,111.55,63.86,186.18,180.08,186.18,312.88a350,350,0,0,1-5.28,60.49,21.54,21.54,0,0,1,11.87,19.53C1671.4,486.59,1662.36,496.2,1651.22,496.2Z"/><path class="cls-7" d="M1288.71,756.81c-162.08,0-299-104.3-343.22-247.39a64.28,64.28,0,0,1-35.11-18.6c44.37,155,193.41,268.89,370.47,268.89a405.48,405.48,0,0,0,74.16-6.83c-.42-.6-.85-1.18-1.24-1.8A371.57,371.57,0,0,1,1288.71,756.81ZM896.9,394.72q0,10.08.58,20a66.12,66.12,0,0,1,34.19-33.36c7.81-93.53,53.89-176.58,123.05-234.43a53.16,53.16,0,0,1-.39-6.34c0-31.67,28.41-57.35,63.46-57.35a68.52,68.52,0,0,1,30.56,7.09,367,367,0,0,1,140.36-27.66,371.45,371.45,0,0,1,46.74,2.94,74.59,74.59,0,0,1,22.69-28.47,405,405,0,0,0-77.29-7.4C1068.8,29.74,896.9,193.15,896.9,394.72ZM1478.63,81.84a72.93,72.93,0,0,1-1.15,32.9c101.72,61.22,169.46,170.44,169.46,295a339.59,339.59,0,0,1-3,45,18.89,18.89,0,0,1,15.58.46,350,350,0,0,0,5.28-60.49C1664.81,261.92,1590.18,145.7,1478.63,81.84ZM1431,728.33c.13.75.26,1.51.33,2.27,105.24-42.65,186.34-128.69,218.46-234.48a19.58,19.58,0,0,1-12.53-5.92C1611,597.41,1533.38,685.35,1431,728.33Z"/><path class="cls-8" d="M1637.25,490.2a22.06,22.06,0,0,1-6.21-15.46,21.43,21.43,0,0,1,12.91-20,339.59,339.59,0,0,0,3-45c0-124.56-67.74-233.78-169.46-295a72.93,72.93,0,0,0,1.15-32.9c-6.63-34.35-37.31-60.33-74.17-60.33a76,76,0,0,0-46.32,15.63,74.59,74.59,0,0,0-22.69,28.47,371.45,371.45,0,0,0-46.74-2.94,367,367,0,0,0-140.36,27.66,68.52,68.52,0,0,0-30.56-7.09c-35,0-63.46,25.68-63.46,57.35a53.16,53.16,0,0,0,.39,6.34c-69.16,57.85-115.24,140.9-123.05,234.43a66.12,66.12,0,0,0-34.19,33.36,68.56,68.56,0,0,0,12.9,76.1,64.28,64.28,0,0,0,35.11,18.6c44.22,143.09,181.14,247.39,343.22,247.39a371.57,371.57,0,0,0,65.06-5.73c.39.62.82,1.2,1.24,1.8,7.29,10.34,20.28,17.26,35.14,17.26,22.84,0,41.35-16.28,41.35-36.35a30.85,30.85,0,0,0-.18-3.19c-.07-.76-.2-1.52-.33-2.27C1533.38,685.35,1611,597.41,1637.25,490.2ZM907.07,460.72c0-23.94,17.19-43.34,38.38-43.34s38.38,19.4,38.38,43.34-17.18,43.33-38.38,43.33S907.07,484.65,907.07,460.72Zm591.87,82.12c-32.1,0-58.12-28.08-58.12-62.73s26-62.73,58.12-62.73,58.13,28.09,58.13,62.73S1531.05,542.84,1498.94,542.84ZM1329.67,314.62c10.57,0,19.13,10.06,19.13,22.48s-8.56,22.48-19.13,22.48-19.12-10.07-19.12-22.48S1319.11,314.62,1329.67,314.62Zm-235.78,80.1c-29.84,0-54-27-54-60.39s24.2-60.39,54-60.39,54,27,54,60.39S1123.74,394.72,1093.89,394.72Zm192.54,300c-63.45,0-114.9-49.81-114.9-111.27s51.45-111.26,114.9-111.26,114.9,49.81,114.9,111.26S1349.89,694.72,1286.43,694.72Zm133.11,40c0,13.62-12.21,24.66-27.27,24.66s-27.27-11-27.27-24.66,12.21-24.65,27.27-24.65S1419.54,721.08,1419.54,734.7Z"/><path class="cls-9" d="M1659.53,455.21a18.89,18.89,0,0,0-15.58-.46,21.43,21.43,0,0,0-12.91,20,22.06,22.06,0,0,0,6.21,15.46,19.58,19.58,0,0,0,12.53,5.92c.48,0,1,.08,1.44.08,11.14,0,20.18-9.61,20.18-21.46A21.54,21.54,0,0,0,1659.53,455.21ZM1093.89,273.94c-29.84,0-54,27-54,60.39s24.2,60.39,54,60.39,54-27,54-60.39S1123.74,273.94,1093.89,273.94Zm307.44,309.51c0-61.45-51.44-111.26-114.9-111.26s-114.9,49.81-114.9,111.26,51.45,111.27,114.9,111.27S1401.33,644.91,1401.33,583.45Zm-9.06,126.6c-15.06,0-27.27,11-27.27,24.65s12.21,24.66,27.27,24.66,27.27-11,27.27-24.66S1407.33,710.05,1392.27,710.05Zm-62.6-350.47c10.57,0,19.13-10.07,19.13-22.48s-8.56-22.48-19.13-22.48-19.12,10.06-19.12,22.48S1319.11,359.58,1329.67,359.58Zm169.27,57.8c-32.1,0-58.12,28.09-58.12,62.73s26,62.73,58.12,62.73,58.13-28.08,58.13-62.73S1531.05,417.38,1498.94,417.38Zm-553.49,0c-21.19,0-38.38,19.4-38.38,43.34s17.19,43.33,38.38,43.33,38.38-19.4,38.38-43.33S966.65,417.38,945.45,417.38Z"/></g><path id="tree" class="cls-10" d="M1935.72,1722.25a47.55,47.55,0,0,0-20.12-34.76c-6.6-4.26-12.89-5.38-21.4-6a5.92,5.92,0,0,1,.37-1.31c1.94-4.87,7.14-3.94,12.8-9.6,4.21-4.21,5.49-8.88,7.32-15.55,2.15-7.84,4.72-17.24.91-27-2.91-7.43-8.11-11.42-16.46-17.84-8-6.11-13.89-10.66-22-12.34-19.67-4.11-37,12-40.25,7.77-2.06-2.68,5.39-8.5,4.12-18.75-.6-4.88-2.87-8.24-5-11.43-2-3-9.33-13.82-20.12-14.64-7.15-.53-12.61,3.56-13.72,1.83-.78-1.2,1.78-3.34,3.66-7.31a25.51,25.51,0,0,0,1.37-16.47c-2.58-9.94-13.36-14.67-20.58-17.83-4.64-2-19.11-8.38-33.84-3.2-9.66,3.39-15.55,10.37-18.29,8.23-1.71-1.33.12-4.4-.92-11a31.49,31.49,0,0,0-4.57-11.89c-1.2-1.91-5.68-9.08-14.18-12.34s-16.09-.79-24.23,1.83c-5.38,1.72-13,4.18-19.67,11-5.66,5.81-7.34,11.48-10.06,11-2.24-.41-2.19-4.43-5.49-11a49.39,49.39,0,0,0-8.69-11.89c-5.39-5.89-9.66-10.55-16.92-12.8a29.65,29.65,0,0,0-16.92,0c-9.38,2.76-14.87,9.52-17.83,13.26-7.45,9.42-8.48,18.15-11.44,17.83-1.84-.2-2.23-3.7-4.57-9.14-3.67-8.58-8.75-14-12.35-17.84-3.93-4.2-10.52-11.24-20.57-14.17-14.69-4.3-28.11,2.69-36.13,6.85-5.56,2.9-15.21,8.06-22.87,19.21-2.4,3.5-14.19,21.54-9.14,40.25,2.1,7.81,6.39,12.93,4.57,14.63-2.63,2.45-11.86-7.92-25.61-6.86-2.44.19-7,.54-11,3.66a18.63,18.63,0,0,0-5.48,7.56c0-.59.07-2.38,0-4.29-.5-10-15.69-37-24.39-47.1,2.58-11.23,4.36-34-2.38-57,4.12-15,2.6-26,4.85-30.86,15.57-33.43,52.93-47.91,62.65-51.67,24.37-9.45,30.55-3.48,60.36-16.47a197,197,0,0,0,35.67-20.12c9.31-6.65,22.93-16.37,35.22-32.47,18.5-24.25,11.4-33.39,29.72-51.67,13.15-13.13,27.12-18.72,35.21-22,13.83-5.53,20.24-4.95,22.87-4.58,15,2.13,23.26,14.09,24.24,15.55,1.31,2,8.65,12.91,5.48,26.07-.4,1.67-4,15.8-13.71,17.38-4.53.73-10.26-1.28-11.89-5-1.73-4,1.17-9.72,2.74-12.81,1.78-3.53,3.43-5.07,2.74-6.4-.88-1.72-5-1.76-7.77-.92-9.59,2.89-16.86,20.08-11,28.36,2.51,3.53,7,4.79,11,5.94,4.93,1.41,8.85,1.19,13.26.92,6.66-.42,12.37-.78,17.84-4.58a24.23,24.23,0,0,0,7.31-8.23c9.2-16.18-2-38-3.66-41.16-2.75-5.35-7.88-15-19.2-21.49a46.84,46.84,0,0,0-25.16-5.94c-28.59,1.31-45.58,29.25-51.21,25.15-3.42-2.49,3.58-12.22,4.57-33.84a123.31,123.31,0,0,0-1.83-26.07c-1.88-12.18-3-19.76-8.23-28.35-2.33-3.86-6.06-9.92-13.26-14.64-12.18-8-25.46-6.38-32.93-5.49-6.48.78-16.45,2.11-26.07,9.61a46.3,46.3,0,0,0-13.72,17.83c-2.31,5.07-7.51,16.47-3.65,29.73,3.78,13,13.91,19.68,18.75,22.86,4.25,2.81,20.15,13.28,36.58,7.32,1.74-.63,15.19-5.51,17.38-16.92,1.57-8.16-3.43-15.49-5-17.83-2.69-3.94-5.57-6.06-9.15-8.69-5.25-3.87-11.55-8.5-16.46-6.41-1.85.79-3.9,2.7-4.12,5a6.37,6.37,0,0,0,1.83,4.58c3.58,4.07,8,1.65,14.64,5,1.41.72,7.45,3.8,7.77,8.69.2,3.15-2.07,5.62-3.2,6.86-4.42,4.81-10.86,5-12.35,5-6.88.19-11.85-3.33-14.18-5-9-6.57-11.24-16.57-11.89-19.67-.77-3.71-2.78-13.27,2.75-22.41,5.4-8.92,14.48-11.66,18.29-12.8,1.55-.47,17.35-5,30.18,3.2,18.16,11.56,17.7,40.41,17.38,60.37-.12,7.7-.3,15.4-3.2,25.15-2.27,7.65-6.49,17.45-22.41,36.58-13.46,16.18-21.23,25.51-33.84,34.76-31,22.76-64.55,25.23-78.2,26.06-15.42,1-46.83,2.87-77.74-15.09-11.78-6.84-20.81-16-38.87-34.29-6.93-7-12.7-13.55-16-23.33-2.06-6.1-1.3-7.94-3.2-11.89a20.08,20.08,0,0,0-3.57-5.09c-2.3-13-17.75-31.47-19.3-68.53-1.12-26.82,5.71-47.52,9.61-59,1.89-5.58,17.17-49.27,45.73-71.8,3-2.37,9.82-7.39,20.12-16s12.81-11.39,21.49-18.29c10-8,15.07-12,21-15.1,9-4.69,23.16-12.11,36.59-6.85,7.11,2.78,11.5,8.16,14.17,11.43,3,3.64,4,6.1,10.06,20.58,8,19.19,8.42,20.1,8.69,22.86a41.49,41.49,0,0,1-5,23.78,40.92,40.92,0,0,1-12.8,13.72c-4.31,2.88-18.19,12.16-29.73,6-10.55-5.68-11.27-20.09-11.43-23.33-.2-4-.75-15,6.4-19.2,4-2.33,9.88-2.33,13.26.45,1.74,1.44,1.74,2.73,5,11.44,2.93,7.71,3.63,8.54,4.58,9.14,3.81,2.44,10.41.54,14.17-3.2,5.26-5.21,4.09-13.1,3.66-16a26.66,26.66,0,0,0-9.14-16c-11.31-9.4-26.59-5.49-30.19-4.57s-14.71,3.76-21.49,14.17c-5.06,7.77-5,15.72-5,22a53.27,53.27,0,0,0,4.57,21c2.84,6.46,5.24,11.92,11,15.55,5,3.19,9.89,3.24,19.2,3.2,7.73,0,15.63-.06,25.16-3.66,4.77-1.8,15.93-6,23.32-16.46,7-9.92,6.94-20.24,6.86-32.93-.18-26.46-10.07-45.58-16.46-57.62-8.84-16.62-15-20.77-16.92-22-11.43-7.19-24.27-6.1-32-5-1.78.25-3.62.58-5.45.9.14-.15.29-.29.42-.44,6.66-7.58,10.39-22.28,17.84-51.68,8.22-32.44,11.37-57.86,13.72-77.28,2.9-24,4.35-36.06,3.66-50.77-.35-7.47-1.24-17.33-1.83-36.12-.41-12.84-.32-18.33,0-23.78a189.64,189.64,0,0,1,3.66-27.9c2.57-12.19,5.77-27.51,15.09-43,2.47-4.11,9.63-15.3,27-29.26,28.22-22.72,56.77-29.78,113.87-43.91,14.68-3.63,30.45-7.06,47.1-.45,5.2,2.06,16.16,6.6,22.41,18.29a37.65,37.65,0,0,1,3.66,23.78c-2.11,12.19-9.61,19.37-13.26,22.87-4.47,4.27-9.3,8.89-16.92,9.6a21.61,21.61,0,0,1-15.55-4.57c-1.22-1-7-5.73-7.32-13.72a18.83,18.83,0,0,1,4.57-12.81c1.74-2.11,4.86-5.88,9.61-5.94,2.75,0,7,1.16,8.23,4.57a7.12,7.12,0,0,1-1.37,6.86c-2,2.3-4.34,1.24-6.41,3.66a6.28,6.28,0,0,0-1.37,5.94c1.16,3,5.53,3.7,7.78,3.66,5.75-.1,9.43-5.06,10.06-5.94,3.57-5,2.76-10.77,2.28-14.18s-1.21-8.66-5.48-12.35c-3.7-3.18-8-3.4-12.81-3.66-5-.26-12.35-.64-18.75,4.12-5.14,3.83-7.08,9.05-9.14,14.63a36.38,36.38,0,0,0-2.75,13.27c0,3.4-.05,14.1,7.78,21,4.22,3.75,8.89,4.75,12.34,5.49,7.76,1.66,14,.14,18.3-.92a51.08,51.08,0,0,0,19.66-9.6c4.4-3.55,6.94-6.9,11.43-12.8s6.79-8.93,8.69-13.27c4.74-10.78,3.73-20.86,3.2-25.6-.63-5.64-1.19-10.62-4.57-16-4-6.35-9.51-9.5-13.72-11.89a54.11,54.11,0,0,0-16-6c-22.81-4.71-39.86,2.74-41.15-.45-.42-1,.6-3.69,30.64-22.41,15-9.36,19.45-11.63,28.81-18.29,13.5-9.62,20.25-14.43,23.78-21s3.92-15.92,4.57-34.3c.26-7.34.11-14.3-2.29-22.41-1.72-5.82-3-10.25-6.86-13.26-5.5-4.32-11.41-1.92-24.69-.91-24.58,1.87-31.11-4.33-38.87,2.28-6.19,5.27-7.73,14-8.23,16.92-1,5.72-.21,10,.91,16,1.91,10.23,3,16.34,8.23,21.95,7.06,7.64,16.54,8.85,19.21,9.15a31.93,31.93,0,0,0,16-2.29c3.65-1.55,9.54-4.06,12.35-10.06,1.72-3.66,1.44-6.81.92-12.81-.75-8.53-1.24-14.06-5.49-17.83-4.83-4.28-11.53-3.63-16-3.2-3.06.29-15.85,1.53-17.83,9.14-1,3.8.76,9,4.11,10.52,4.43,2,8-4,15.55-3.2,5.12.54,10.54,4.06,10.52,7.32,0,4-8.16,6.89-12.8,7.77-2.64.51-11,2.09-17.84-3.2-7.08-5.44-7.54-14.21-7.77-18.75-.19-3.65-.43-8.19,2.28-12.35,1.44-2.2,4.55-5.59,14.18-7.77s25.61-5.78,36.58,3.66c11.92,10.25,11,29.88,6.41,42.07-1.68,4.5-5.78,13.18-42.53,36.59-9.37,6-18.59,11.44-54.88,30.64-36.46,19.28-40.73,20.94-43.44,18.75-8.06-6.52,12.76-34.72,27-85.06,15-53.17,14.15-100.89,12.8-101.07-.69-.09-2.18,12.26-6.86,35.67-12,59.89-28.36,109.7-32.47,108.84-1.12-.23-.32-4-3.2-17.38-2-9.28-3.61-13.07-6.4-16.46a17.76,17.76,0,0,0-9.15-6.4c-1.62-.43-5.37-1.42-8.69.45-3.66,2.08-4.54,6.37-5.48,11-.84,4.09-1.63,7.93.45,11.89.65,1.23,2.91,5,6.86,5.95,0,0,1.67.39,9.61-1.38a9.27,9.27,0,0,0-.92-6.86c-1.67-2.53-4.07-2.3-5-4.57-1.23-2.93,1-7.56,3.2-7.77.41,0,2,0,4.58,4.57,4.22,7.42,4.59,15.1,4.57,20.12,0,6.57-.06,14.44-3.2,24.24-1.8,5.6-6.91,19-27.9,38.41-17.41,16.08-20.81,13.21-36.58,27-25.88,22.6-30.23,42.11-38.42,40.7s-5.87-23-14.17-55.79c-6.69-26.37-16.13-43.92-30.64-70.88-19-35.24-28.45-52.86-48.94-70.43-9.74-8.36-28.7-24.23-58.07-30.64-12.38-2.7-43.81-9.55-72.72,8.24-5.94,3.66-22.12,13.93-30.18,34.29-10.39,26.27.1,50.7,3.66,59,3,6.88,8.4,19.17,21,29.72,23.16,19.34,51.31,16.82,60.36,16,13.26-1.19,29.86-2.68,42.07-16,13.57-14.8,12.65-34.28,12.35-40.7a65.29,65.29,0,0,0-14.63-38c-3-3.58-21.69-26.21-49.85-23.32-1.65.17-30.63,3.62-40.24,27.44-.73,1.8-6.92,17.89,1.37,33.84,1.57,3,6.12,11.48,16,16,11,5,28.62,5.18,35.22-5.49,3.93-6.37,3.75-16.27-.92-21.49-3.39-3.8-6.58-2.25-14.63-7.78-4.25-2.92-9.41-6.46-9.15-11s5.72-7.21,6-7.32c7.06-3.42,15.46,1.53,18.29,3.2a38.64,38.64,0,0,1,18.29,29.73c1.11,13.86-5.47,28.67-17.38,35.67-19.46,11.43-45.07-2.78-57.16-17.84-12.25-15.26-11.63-32.65-11.43-36.13.12-2.23,1.86-26.26,22.41-40.7,16.17-11.36,33.62-9.49,41.15-8.69,17.25,1.85,31.54,9.69,47.56,22.87,41.9,34.46,63.43,78.91,73.63,104.27,4.53,11.25,15.65,40.7,22,86.43,7.62,55.27,19.78,143.78-24.66,219.07-.45-1.94-.92-3.91-1.4-6-3.58-15.15-5.92-23.24-7.78-29.26-5.49-17.78-9-29.09-15.09-40.25-5.46-10-20.45-33.46-48.93-46.64-18.78-8.69-34.76-8.91-53-9.15-28.19-.37-51.4-.68-72.25,15.55-22.56,17.55-28.24,43.48-29.73,53.5-1.14,7.68-5.13,34.52,11.89,57.17,3.33,4.43,13.93,18.54,32.93,22.41,4.39.89,18,3.66,31.09-4.12,15.21-9,18.55-25.55,19.67-31.1,1.27-6.29,4.49-22.26-5.49-33.84-1.55-1.79-9.62-10.68-20.58-9.6-11.8,1.16-18,13-20.58,17.83-1.61,3.06-7.62,14.49-3.2,26.53,1.07,2.92,3.75,10.22,10.52,12.35,7.46,2.34,15.08-3.11,18.75-7.78.55-.71,7-9.11,3.66-17.38-.49-1.22-3-6.85-7.78-7.31s-8.2,4.36-8.69,5a13,13,0,0,0-2.28,5.49l4.11,4.11.09-.18,2.66-5.31c2.9,1.5,4.73,4.18,4.57,6.86s-2.35,4.47-3.66,5.49c-.82.64-4.43,3.47-8.23,2.29-2.43-.76-3.64-2.75-5-5-1.48-2.43-4.34-7.13-2.74-11.44.68-1.85,2.43-3.82,5.94-7.77l.74-.82c5-5.48,7.5-8.22,10.24-9.24a11.66,11.66,0,0,1,7.77,0c4.69,1.81,6.52,6.7,7.78,10.06,2.14,5.73,1.73,10.7,1.37,14.63-.42,4.52-.87,9.32-4.12,14.18a25.59,25.59,0,0,1-8.69,7.77,38.16,38.16,0,0,1-21,5.49,40.16,40.16,0,0,1-18.3-5.49,34,34,0,0,1-12.34-11.43,33.57,33.57,0,0,1-3.66-8.23c-2-6.76-1.41-12.23-.46-20.12a77.55,77.55,0,0,1,4.12-18.75c1.72-4.71,3.8-10.43,8.69-16.46,4.26-5.27,8.48-8.09,14.17-11.89a73.73,73.73,0,0,1,18.75-9.61c5.31-1.74,10.09-2.22,19.67-3.2,10.91-1.11,18.94-1.23,30.64-1.37,9.08-.11,13.71-.15,17.83.46a78.3,78.3,0,0,1,20.12,5.94c6.65,2.86,11.69,5,16.92,9.6,4,3.46,7.57,9.52,14.64,21.5,5.42,9.19,8.17,13.89,10.06,18.75,1.19,3.06,1.93,5.51,5,18.75,3.42,14.62,5.14,21.93,5.49,24.69,1,7.87,2.2,17.38-.46,28.81-.21.9-.62,2.53-1.38,4.78-59.63,4.79-117.65,133.12-128.5,157.11-7.81,17.29-15.37,37.5-19.66,62.65-5.22,30.56-3.21,54.27-1.46,72.26-51.91-19.08-95-52.4-155.4-72.26-71.46-23.47-133.93-17.17-195.27-11-12.69,1.28-94.66,9.55-147.71,31.55a252.17,252.17,0,0,1-33.39,11.43c-8.71,2.33-27.25,6.76-66.31,8.69a634.66,634.66,0,0,1-103.35-3.2c-28.71-3.28-46.51-7.34-54-9.14-15.48-3.74-27.48-6.64-43-13.27-5.81-2.48-5.11-2.49-38.41-18.75-15.09-7.36-15.6-7.54-18.29-9.14-12.1-7.21-24.27-14.48-31.56-28.81a57.7,57.7,0,0,1-5.94-22.87c-.49-7.86.7-13.9,2.28-22,1.44-7.33,2.49-12.67,5.49-19.21,3.49-7.6,6.52-14.2,13.26-18.29,9.43-5.71,20.24-2.92,31.56,0,8.51,2.2,14.94,4,19.2,10.06,4.43,6.34,3.86,13.53,3.66,16-.81,10.15-7,16.76-11.43,21.49-5.38,5.75-10.28,11-17.84,11.43-8.71.54-18.18-5.42-18.29-10.51,0-1.32.59-1.54,1.83-4.58.62-1.51,4.13-10.15,1.83-12.34s-12.45,1.12-16.46,8.68c-3.69,7-.69,14.42,0,16,4.7,10.83,17.4,13.87,20.58,14.63,19.63,4.7,36.7-8.66,40.24-11.43,5.63-4.41,21.78-17,21-36.13S448.68,988,443.06,984.15a57.8,57.8,0,0,0-27-9.61c-3.91-.36-23.74-2.21-39.78,11-8.13,6.68-11.53,14.13-17.38,27-4.64,10.18-8.82,19.35-9.15,32-.31,12.08,3.05,20.86,7.32,32a117.16,117.16,0,0,0,18.29,32.93c9.93,12.33,21.52,21,35.67,28.81,24.81,13.71,49.56,20.44,86,27.44a1253.48,1253.48,0,0,0,143.13,17.38c12.18.73,28.45,1.49,48.48,1.37,11.76-.07,28.7-.17,44.81-1.83,30.24-3.11,51.2-11,67.23-16.46,25.92-8.77,78-26.37,137.19-28.82,6.86-.28,36.58.88,96,3.21,26.83,1,32.38,1.39,40.7,2.74,42.17,6.83,72.09,25.86,85.06,34.3,50.2,32.64,73.75,74.36,84.14,93.29,16.51,30.08,18.41,47.53,17.84,59.91-.35,7.67-1.24,26.87-14.18,43-8.86,11-15.42,10.74-16.85,15.8a48.45,48.45,0,0,0-4.18,3c-5.78,4.69-7.73,9-11.44,14.18-2.08,2.92-6,6.82-13.72,14.63-8.07,8.13-8.67,8-12.34,11.89-11,11.62-9.59,16.89-20.58,31.1-8.08,10.44-8.77,7.52-15.55,16.92-7.93,11-11.6,21.39-14.64,30.18-4,11.51-5.94,17.26-5.94,24.24,0,14.67,6.8,27.9,9.15,32.47,4.83,9.42,9.62,14.62,7.77,16.92-1,1.26-5.26.4-13.72-1.37-8.92-1.87-10.48-2.9-11.43-3.66-3.76-3-2.69-5.42-6.4-9.6-2.65-3-6-4.43-12.81-7.32-7.71-3.29-11.56-4.94-15.55-5-9-.21-12,5-16.46,2.74-1.58-.8-3.52-5.11-7.32-13.71-2.6-5.89-3.14-7.51-5-10.07a26.28,26.28,0,0,0-7.77-7.31c-7.64-4.44-18.31-3.79-25.61.91-6.58,4.24-8.92,10.78-10.52,10.06s1.56-6.58-.46-14.17a20.79,20.79,0,0,0-8.23-11.89c-8.17-5.4-17.73-2-18.29-1.83-10.32,3.8-13.84,15.12-16,14.17-1.95-.85,2.61-9.28,0-18.75-2.77-10-12-15.52-14.63-16.92-13.72-7.39-28.67-1.69-34.3.46-6.49,2.48-11.12,5.81-18.29,11-6.34,4.56-9.57,6.93-12.35,11-5.57,8.11-5.93,17.1-7.32,16.92-1-.12.07-4.35-2.74-7.77-2.1-2.56-5.19-3.24-9.15-4.12-4.59-1-7.72-1.71-11-.46-6.17,2.37-7.59,9.71-9.61,9.15-1.58-.44-.32-4.87-3.2-10.52-.85-1.67-2.43-4.77-5.48-6.4-6.26-3.34-14.57,1.67-15.55,2.29-8,5-8.94,12.74-12.81,12.34-2.29-.23-2.61-3-6.86-7.77a52.18,52.18,0,0,0-9.6-7.77c-14.81-9.71-79.91,10-80.94,35.21-.16,3.69,2,8.19,0,9.6-4.25,3-21-12.87-31.1-22.41-15.54-14.62-21.16-26.46-32.93-26.52-8.77,0-15.58,6.48-20.12,2.74-.52-.43-1.12-1.08-3.66-9.6-2.85-9.6-2.57-10.38-4.11-12.8-2.56-4-6.05-6.11-9.61-8.24-5.09-3-8.19-4.9-11.43-4.57-10.49,1.08-15.17,24.49-17.84,23.78-1.23-.33-.39-5.36-.91-16.46-.57-12.18-2-15.68-4.12-18.29a14.54,14.54,0,0,0-8.23-5.49c-8.2-1.69-15.42,6.06-16.92,7.77-4.37,5-5.44,10.33-6.4,10.06-.78-.22-.08-3.75,0-9.6.11-7.89.16-11.83-1.83-15.09-2.64-4.32-7.35-6.14-12.8-8.23-2.73-1-4.13-1.57-6-1.38-5.77.63-8.24,7.1-10.06,6.41s.65-7.32-.46-15.09c-.18-1.3-1.89-12.13-11-19.21-9.41-7.34-20.61-5.9-23.78-5.49-14.53,1.87-23.16,12.26-24.7,14.18-10.9,13.61-9.26,31.2-12.34,31.09-1.39,0-1.78-3.58-4.12-9.6-.26-.67-4.85-12.27-11-18.75-7-7.39-16.44-8.6-27.89-10.06-9.77-1.25-20.74-2.65-32.47,2.74-12.67,5.83-19.79,16.62-22.41,20.58-7.28,11-9.46,21.94-13.26,21.5-2.57-.3-5.36-5.72-5.95-6.86-.38-.76-1-2.2-2.28-4.58,0,0-1-1.85-1.85-3.37a39.29,39.29,0,0,0-16.9-15.38c-4.3-1.8-10.62-4.47-16-1.83-7.25,3.56-8.28,14.52-9.6,14.18-.8-.21-.21-4.12,0-12.35.15-6.15.21-9.28-.46-11.89-1.2-4.65-3.77-7.52-7.77-11.89-7.77-8.46-12.4-13.51-17.38-12.8-7.77,1.1-9.78,15.26-13.72,14.63-2.69-.42-3.24-7.24-5.49-19.2-1.7-9.06-3.52-18.76-6.86-28.36a90.15,90.15,0,0,0-15.55-27.44c-5.54-6.65-8.67-8.34-11.43-9.14-8.67-2.52-16.87,2.74-18.29,3.66-2.23,1.43-5,3.65-16,20.12-6.52,9.73-7.13,11.28-9.14,11.43-6.06.46-7.74-13.11-22.41-23.78-4.43-3.22-7.84-5.7-12.81-6.4-12.68-1.8-23.52,9.64-34.75,21.49-12,12.66-18,19-18.75,28.81-.67,8.66,2.95,16.73-1.83,21-2.1,1.89-4.3,1.69-7.32,2.29-10.49,2.07-17.1,11.07-22.41,18.29-5.85,8-14.52,19.77-11.43,31.55,2.9,11,14.28,15,12.35,21.5-1,3.48-4.34,2.51-9.61,7.77-7.82,7.82-9.09,18.57-9.6,22.87s-.79,6.71,0,10.06c2,8.49,8.46,11.53,7.32,16-.66,2.6-3.24,3.17-6.86,5.49-8.78,5.62-12.62,14.37-15.55,21-3.2,7.28-6.39,14.55-4.57,23.32,2.45,11.83,12.45,18.86,15.55,21,11.18,7.86,18.87,5.29,21.49,11.43,3.07,7.2-6.6,12.93-3.66,22.41,1.4,4.52,5.2,7.43,12.81,13.26a90.21,90.21,0,0,0,14.63,9.14A78.86,78.86,0,0,0,64,1669.2c-.29,6.1,1.4,10.67,3.2,15.55,2.38,6.43,4.75,12.83,9.61,16.92,11.46,9.63,31.12,1.58,32,4.57,1,3.48-27.14,9.59-28.81,22.86-.42,3.3.87,6.56,3,9.6a41.51,41.51,0,0,0-4.09,14.18C78,1766.12,85.38,1776,89.1,1781c8,10.77,17.78,15.52,25.39,19.21,1.25.61,2.44,1.17,3.61,1.71l-1.84,93.65a48.29,48.29,0,0,0,47.33,49.23l1705.31,33.46a46,46,0,0,0,46.87-45.06l3-154.07a39.35,39.35,0,0,0,6.87-10.25c2.42-5.26,1.6-6.67,3.66-17.38C1932.86,1733.17,1936.31,1731.87,1935.72,1722.25Z"/><path id="bats" class="cls-10" d="M789,321.74,787.26,320l-1.44-1-1.56-.15-1.47.24-1,.48-1.46,1.19-.42,2,.09,1.88s.34.7.52,1.05a23.46,23.46,0,0,0,1.52,2l1.54.3.63-1.19-1.8-2.52c-.11-.53-.21-1.06-.32-1.59l1.15-1.26,1.84,0,1.77,1.32,1.28,2.6c-.06.76-.12,1.52-.19,2.28l-.9,1.57-1.18,1.2L784.51,332l-1.81,1.24-3,.69-3.32-.12-3-.37a32.27,32.27,0,0,1-3.42-.5,9.2,9.2,0,0,1-2.66-.88,7.36,7.36,0,0,1-3.62-5.47,5.49,5.49,0,0,0-.28-2.83c-.52-1.06-.11-1.17-1.28-2.61a6.34,6.34,0,0,0-2.36-2.15,19.89,19.89,0,0,0-2.14-1.14,12.61,12.61,0,0,0,2-2.8,8.91,8.91,0,0,0,1.1-3.25,7.57,7.57,0,0,0-.4-3.47,8.33,8.33,0,0,0-1.42-2.89,3.63,3.63,0,0,0-2.76-1.44,3.21,3.21,0,0,0-2.72,2.22,2.84,2.84,0,0,0-.06.6c-.09.49-.2,1.44.33,1.83a.89.89,0,0,0,.49.25c.84.2.9.52,1.32.23a1.85,1.85,0,0,0,.81-1.19c.08-.71-.53-1.09-.36-1.31s.83-.09,1.32.23c1.16.76,1,2.6,1,3a5.26,5.26,0,0,1-.9,2.53,4.54,4.54,0,0,1-1.69,2.06,5.87,5.87,0,0,0-1.54,1,3.42,3.42,0,0,1-.52.43,1.29,1.29,0,0,1-.57.19,7.86,7.86,0,0,1-3.31-.47,8.24,8.24,0,0,1-3-1.65c-1.37-1.07-2-1.13-2.44-2.12s-.64-.92-.85-1.73-.65-.76-.07-1.66a15.34,15.34,0,0,1,1.43-2s0,.08-.06.17a7.28,7.28,0,0,1,.75-1,12.84,12.84,0,0,0,.92-1c.11-.15.45-.64.81-1.1l.58-.81a11.88,11.88,0,0,0,1.36-2.33,8.66,8.66,0,0,0,.18-2.1c-.11-1.82-.4-2.19-.63-2.22s-.64.53-1.77,2.27a10.48,10.48,0,0,1-1.75,1.73c-.52.26-1.14,1.09-2.07,1.28a5.25,5.25,0,0,1-1.74.07,6,6,0,0,1-1.1-1.29,2.54,2.54,0,0,1-.35-1.49c.08-.39-.36-.52.12-1.46a11,11,0,0,1,.86-1.64,8.53,8.53,0,0,1,1.27-1.41,11.2,11.2,0,0,1,2.45-1.64l-3,0-1.34.49a20.66,20.66,0,0,0-4.63,2.71,22.4,22.4,0,0,0-2.16,1.85l-1,1.36-3.32-1.07s-2.5-2.44-2.64-2.72a12.59,12.59,0,0,1-1.32-2.5,16.35,16.35,0,0,1-.11-4.57s1-2.58,1.42-2.8,1.2-1.72,1.2-1.72l2.63-1.29,2,.21,1.15,1.18-.77,2,1.23.62,1.22-1.13a8.89,8.89,0,0,0,0-2.52,21.35,21.35,0,0,0-2.28-2.37,25.22,25.22,0,0,0-2.6-.55,14.42,14.42,0,0,0-2.48.25,11.42,11.42,0,0,0-2.1,1,13.34,13.34,0,0,0-2,1.31,11.51,11.51,0,0,0-1.57,1.56l-1.46-.7a2,2,0,0,1-1.14-1,7.59,7.59,0,0,0-.86-1.76c-.43-.48-1.88-1.43-2.47-1.93a5.39,5.39,0,0,0-1.83-.76l-4.75-.19-4.92.41-5,1.4-3,1.48a33.68,33.68,0,0,1-3.6,1.76c-.29,0-2.85.45-2.85.45a11.54,11.54,0,0,1-2.74-.84c-.69-.45-2.06-1.35-2.78-1.87a25.86,25.86,0,0,1-2.66-3.14l-1.73-3.52-.57-4.18a7,7,0,0,1,.49-2.42,7.64,7.64,0,0,1,1.4-2.26,6.68,6.68,0,0,1,1.94-1.74l2.47-1.22,3.64.4,1.65,1.46s.6,2.93.63,3.18a17.4,17.4,0,0,1-.88,3.14,6.93,6.93,0,0,1-1.9,1.81c-.26,0-1,.48-1.58-.18a1.7,1.7,0,0,1-.49-1.77c.19-.36.86-.51.51-1.22s-.45-1.87-1.61-1.39-1.65.82-1.86,1.53a2.29,2.29,0,0,0-.09,1.7c.23.85-.09.57.43,1.63s.93,1.9,1.26,2,1,1,1.82.85.53.7,2.08-.5a20.69,20.69,0,0,0,3.44-3.61,8.26,8.26,0,0,0,.79-2.75,9.42,9.42,0,0,0,.06-2.13,6,6,0,0,0-.51-2.19,5.6,5.6,0,0,0-1.46-1.82,7.28,7.28,0,0,0-2.46-1.41,7.45,7.45,0,0,0-3.12-.29,8.3,8.3,0,0,0-3,.8,10.63,10.63,0,0,0-2.37,1.25,14.86,14.86,0,0,0-2.87,3.24,29.05,29.05,0,0,0-1.91,4.26c0,.36.3,4.22.3,4.22a27.34,27.34,0,0,0,.68,4l1.91,3.87c.59,1.2,3.62,5.3,3.62,5.3.92.65,1.83,1.31,2.74,2q1.2.65,2.46,1.41c.77.46,1.49.92,2.17,1.38l2.34,1.91,3.4,3.13c.38.35,1.72,1.65,1.34,2.92-.14.47-.62,1-1.57,1.91-.56.56-1,1-1.41,1.31a9.56,9.56,0,0,0-2.41,2.84c-.42.75-1.05,2.16-.67,2.43.16.12.44,0,1.79-.71l1.8-.88a12.43,12.43,0,0,1,3.05-1,29.69,29.69,0,0,1,3.15-.24,9.81,9.81,0,0,1,2.79,3.79,25.26,25.26,0,0,1,1.05,5,5.81,5.81,0,0,1-1.34,3.72c-.46.52-.63.47-1.93,1.74a23.8,23.8,0,0,0-1.84,1.95c-.54.65-.5.69-1.08,1.4-1.25,1.56-2,2.08-1.88,2.23s1.56-.56,4-1.63c.42-.18.72-.31,1.09-.45.68-.26.78-.26,1.34-.48.81-.33.78-.41,1.08-.45a2.43,2.43,0,0,1,1.5.4,4.4,4.4,0,0,1,1.4,1.15,4.89,4.89,0,0,1,1,3.53c-.14,1-.6,1.52-1.43,3.15a38.52,38.52,0,0,0-1.55,3.65c-.74,1.78-2.62,5.7-7.38,14.72l11.06-8.76,3.41-1.76L715,337l1.17-.84,2,0,.81.5,1.54,1.11.92,1.88.79,1.59.22,2.22.69,1.41,1,.22.5-.25-.42-.84s.35-.41.79-1a9,9,0,0,1,1.05-1.1l1.32-.77,1.49-.84,1.68-.37,1.38-.21,2.5.28,2.74,2,1.51,1.82,2,1.71,1.76,1.81,2.53,2.61,2,1.74c0-.41,0-.81,0-1.21l-1-1.58c-.47-.76-.94-1.52-1.4-2.28s-.81-1.64-1.21-2.46l-.29-1.84,0-2,.42-.91,1-1.87,2.1-1.45,1.5-.74,1-.49,1.74.26,1.33,1.44.79,1.59.2,2.7,0,1.79c.06.47.12.93.19,1.4l0,1,1-2.49.28-2.47.24-1.28.66-1.18.7-.35.8-.39,2.86.58,3.11,1,4.65.77s3.21.26,3.44,0,3.85-.67,3.85-.67l3.9-.61,3.67-1.8,2.68-1.75,1.86-1.71,1.35-2,.89-2.18.67-1.47.31-1.64-.23-1.81Zm-461.73,286c.81,1.22,1.48,2.08,1.77,2.45C328.65,609.66,327.78,608.38,327.24,607.72ZM511.32,499.63l-5.15-8.58-6.86-7.2-4.46-5.15L489,474.59l-7.54-2.4h-9.26l-10.29,3.08-6.86,3.43-3.6,5.49L449.58,490v4.46l1.89,7.55,7,5.14,7.54,3.09h5.15c1.71,0,10.63-2.06,10.63-2.06l4.12-5.14-3.43-4.46-13.38,2-6.86-1.71-2.74-6.52,3.43-6.86,8.57-4.11h12.69l8.58,4.8,4.45,6.17c.8,2.17,1.6,4.35,2.41,6.52l4.11,8.23c.46,3,.92,5.95,1.37,8.92l-3.08,12.35q-3.44,6-6.86,12L488,550.73c-5.14,7.36-6.32,9.06-8.57,11.66-3.38,3.89-5.26,6.07-8.58,8.23a32.52,32.52,0,0,1-13.37,4.8,33,33,0,0,1-15.09-1.37c-3.78-1.71-6.52-4.11-11.66-4.11s-4.81-1.72-12.69,0-7.89,1.71-13,4.8a86.61,86.61,0,0,0-8.57,5.83,51.19,51.19,0,0,0-7.21-12.35,37.9,37.9,0,0,0-10.63-9.94,34.49,34.49,0,0,0-14.4-4.81c-3.09-.34-9.95-1.37-14.07,0-3.46,1.16-8.85,2.55-11,7.55s-.1,11.42,3.43,14.06a13.78,13.78,0,0,0,2.24,1.31c1.76,1.22,5.31,3.32,7.82,2.09a4,4,0,0,0,1.94-1.34c2.4-2.74,3.78-2.4,3.43-4.46a7.46,7.46,0,0,0-3.08-5.14c-2.64-1.59-5.31,0-5.83-1s1.21-3.23,3.43-4.46c5.24-2.91,12.19.88,13.71,1.71a22.58,22.58,0,0,1,8.24,7.89c3.56,4.23,4.57,7.59,4.8,10,.21,2.15-.08,5.07,1,7.54a12.74,12.74,0,0,1,.68,2.71,5,5,0,0,1-.34,2.44c-1,3.09-4.46,7.89-8.23,11.32s-5.49,5.14-12.35,8.23S351.83,619,347,619s-4.86.69-8.43,0-4.26,1-6.66-2.74c-1.6-2.51-5.48-8.73-5.15-8.92.06,0,.23.14.45.4a32.23,32.23,0,0,1-2.51-4.51c-1.21-2.71-.87-3.06-2.05-5.15-.39-.68-1.65-2.81-2.75-5-.19-.38,0,0-2.06-3.6a50.75,50.75,0,0,0-6.51-9.26c-1-1.38-7.89-4.46-7.89-4.46-7.38-2.91-9.39-2.51-10-1.72-.74,1.08.84,3.36,5.49,10.63,0,0,3.43,7.21,3.43,9.61s2.06,6.17,1,9.94a21.34,21.34,0,0,1-3.09,6.52s-4.46,1.72-7.2,1.72-5.15-.35-6.52-1.38-2.74.35-5.48-3.08-3.43-3.78-4.81-6.18a34.83,34.83,0,0,1-3.08-7.2,43.77,43.77,0,0,1-1.72-12l-5.83,11q-.35,2.92-.68,5.83a78.08,78.08,0,0,0,0,9.61,83,83,0,0,0,1.71,12.34,93.31,93.31,0,0,0,3.09,11.32l3.43,6.18-10.64,10.29s-14.4,4.8-15.77,4.8-6.52,1-12.35.34-18.18-7.89-18.18-7.89-8.23-8.23-8.23-10.29-4.46-7.54-4.46-7.54v-12l4.8-7.2,6.86-2.06,6.52,6.52,4.8-3.43c-.68-2.17-1.37-4.35-2.06-6.52,0,0-7.54-4.46-9.94-4.46s-13.72,4.12-13.72,4.12-6.86,7.54-7.21,8.57-3.43,6.86-3.77,9.61a44.53,44.53,0,0,0,0,9.6,52.48,52.48,0,0,0,1.37,9.6,46.09,46.09,0,0,0,3.09,8.58l-5.57,4.11a9,9,0,0,1-6.09,2.41c-3.77,0-5.83-.69-8.58,0s-9.26,4.34-12.34,5.6S155.3,667,155.3,667l-10,17.15L137.47,703l-4.12,20.93v13.72s.69,15.43,0,16.46-3.77,11.32-3.77,11.32S124.09,772.3,121,774s-9.26,5.15-12.69,6.86S90.82,785,90.82,785H73.67L56.18,779.5a30.64,30.64,0,0,1-8.58-6.17,31.41,31.41,0,0,1-6.17-9.27c-1.71-3.77-3.09-7.2-3.09-10.28V742.46l8.58-12.69,8.92-3.43s12.69,3.08,13.71,3.43,9.27,7.2,10.64,8.91S84,747.94,83.62,749s0,4.46-3.78,5.49-6.86,0-7.88-1.37S71.61,749,68.18,749s-8.23-1.71-8.57,3.43,0,7.55,2.4,9.61,2.74,2.74,6.52,3.43,2,1.37,7.2,1.37,9.26,0,10.29-1,5.83-2.06,6.86-5.14,3.77-.69,2.06-8.58-2.75-8.23-3.09-9.6-2.75-7.55-4.46-9.61A34.81,34.81,0,0,0,78.13,725a43.23,43.23,0,0,0-8.23-4.11,27.51,27.51,0,0,0-9.61-2.06,25.41,25.41,0,0,0-9.94,2.06,30,30,0,0,0-17.49,17.49A33.07,33.07,0,0,0,30.11,751c0,2.06-.68,6.18.34,11a59.93,59.93,0,0,0,7.21,16.46c2.4,3.43,11.66,14.06,13,14.75s17.15,6.52,17.15,6.52,14.06,4.8,17.15,4.8h18.86c5.83,0,27.78-3.78,27.78-3.78l13-6.51c3.24-2.16,6.67-4.35,10.29-6.52,3.27-2,6.48-3.79,9.6-5.49l12-5.14,18.86-6.86c2.13-.78,9.8-3.33,14.06.34,1.59,1.37,2.57,4,4.46,9.26,1.11,3.08,1.89,5.69,2.4,7.55a38.81,38.81,0,0,0,6.52,14.06c2.14,2.87,6.43,7.76,8.23,6.86.79-.4.72-1.72.69-7.89,0-4.06,0-6.7,0-8.23a50.27,50.27,0,0,1,2.05-13c.4-1.32.77-2.29,5.15-12a45.1,45.1,0,0,1,20.23-3.43c4.72.34,8.15,1.42,21.61,5.15,7.46,3.92,10.56,8.34,12,11.66,1.16,2.65.65,3.18,3.08,10.29A96.52,96.52,0,0,0,300,801.11c1.52,3.19,1.74,3.11,3.43,6.51,3.7,7.43,4.32,11.11,5.14,11,1.09-.17.8-6.75,1.38-17.84.09-1.88.18-3.21.34-4.8.3-3,.49-3.37.68-5.83.28-3.56-.07-3.62.35-4.8.8-2.27,2.62-3.54,4.46-4.8a20,20,0,0,1,7.2-3.09c7.09-.92,12.13.4,15.78,2.75s4.81,5,9.6,11,7.76,8.55,11.32,12.35c5.59,6,17.35,20,43.56,53.85q-6.52-28.3-13-56.6-.17-7.87-.34-15.77l-.69-12.69-1-5.83c1.25-2.52,2.51-5,3.77-7.55l3.54-2.06,7.32-3.66h16.92l9.15,3.2h6.86l2.74-3.2v-2.28h-4.12s-.91-2-2.28-4.68a36.89,36.89,0,0,1-2.29-5.84l-.46-6.24-.45-7,1.83-6.86,1.83-5.49,5.94-8.69,13.26-6.39,10.06-2.26,10.52-4.15,10.52-3.21,15.09-4.57,10.63-4.11-4.8-2.06-8.23,1-11.66,1h-12l-7.77-2.29-7.77-3.66-2.75-3.2-5.49-7-1.6-10.38V643.45l4.35-6,8.23-2.28h7.77l11,4.11,7.09,3.2,5.83,1.83,4.11,1.72L487,638l-9.14-5.49-4.57-3.2-3.37-4.57v-6.86l7.82-9.49,9.95-9.6,12-15.78s7.2-11.32,6.51-12.69,4.8-15.43,4.8-15.43l5.15-15.44v-16.8l-1.72-13ZM329,610.17l.18.24A1.35,1.35,0,0,0,329,610.17ZM1669.27,344.5l-3.49.72-5,.83-5.14.42-3.41-.66-3.46-1.23-1.28-1.22-2.59-2.68-1-4.21-.24-2.82-.15-1.88,1.66-2.59,3.45-1.23,3.33-.28,4.85,1.31,3.14,1.06,2.56.55,1.83.56-3.66-3.06-4.1-1.93L1654.5,325l-1.6-1.76-.11-1.32-.12-1.5,3-4.18,3.94-4.29,4.61-6.91s2.71-4.9,2.37-5.44,1.54-6.51,1.54-6.51l1.68-6.52-.57-6.91-1.17-5.29-1.66-4-2.5-3.34-3.18-2.72-2.08-1.95L1656,260.9l-3.32-.72-4,.33-4.3,1.63-2.83,1.65-1.35,2.38-.62,2.46.15,1.83,1.07,3,3.18,1.86,3.34,1,2.21-.19c.73-.06,4.49-1.22,4.49-1.22l1.59-2.25-1.62-1.72-5.67,1.32-3-.46-1.39-2.58c.41-1,.82-2,1.24-2.94l3.53-2,5.44-.45,3.84,1.67,2.12,2.38c.41.86.83,1.73,1.25,2.59l2,3.24c.3,1.2.59,2.41.89,3.61-.3,1.73-.61,3.46-.91,5.19-.84,1.72-1.69,3.44-2.53,5.17l-2.74,4.48a54.69,54.69,0,0,1-3.28,5.09,16.68,16.68,0,0,1-3.4,3.69,14.59,14.59,0,0,1-5.57,2.44,14.76,14.76,0,0,1-6.52,0c-1.67-.57-2.93-1.46-5.13-1.28s-2.12-.54-5.44.44-3.33,1-5.43,2.44a37.07,37.07,0,0,0-3.47,2.69,21.28,21.28,0,0,0-3.51-4.82,16.1,16.1,0,0,0-4.89-3.71,15.27,15.27,0,0,0-6.34-1.46c-1.33,0-4.31-.22-6,.49-1.45.6-3.71,1.36-4.45,3.49a5.06,5.06,0,0,0,1.94,5.66,7.39,7.39,0,0,0,1,.46c.79.44,2.38,1.17,3.42.58a1.81,1.81,0,0,0,.78-.62c.94-1.21,1.54-1.12,1.32-1.95a3,3,0,0,0-1.49-2c-1.18-.56-2.28.18-2.54-.22s.41-1.36,1.32-1.95c2.15-1.38,5.26-.07,5.94.22a9.63,9.63,0,0,1,3.8,2.95,7.36,7.36,0,0,1,2.39,3.92,8.93,8.93,0,0,0,.7,3.06,6,6,0,0,1,.38,1.09,2.07,2.07,0,0,1-.06,1,13.57,13.57,0,0,1-3.15,4.94,15.85,15.85,0,0,1-5,3.81c-2.84,1.51-3.36,2.41-5.42,2.57s-2.06.46-3.61.3-1.79.57-3-.89a25.88,25.88,0,0,1-2.5-3.48s.13.07.26.2a12.79,12.79,0,0,1-1.28-1.82,20.76,20.76,0,0,0-1.06-2c-.19-.27-.8-1.1-1.34-1.95-.1-.15,0,0-1-1.41a21.41,21.41,0,0,0-3.1-3.57,17.09,17.09,0,0,0-3.53-1.56c-3.27-.93-4.12-.7-4.33-.35s.48,1.35,2.72,4.18c0,0,1.71,2.83,1.79,3.82s1.09,2.46.78,4.05a8.78,8.78,0,0,1-1.11,2.79,11.71,11.71,0,0,1-3,.95,5.17,5.17,0,0,1-2.84-.33c-.62-.37-1.16.24-2.45-1.07a19,19,0,0,1-2.27-2.37,14.14,14.14,0,0,1-1.56-2.85,17.23,17.23,0,0,1-1.14-4.87l-2.13,4.71c0,.81-.07,1.61-.1,2.42a31.56,31.56,0,0,0,.32,3.95,32.29,32.29,0,0,0,1.16,5,38.34,38.34,0,0,0,1.7,4.54l1.68,2.41-4.21,4.61s-6,2.48-6.6,2.52a25.74,25.74,0,0,1-5.28.58c-2.52-.08-8.06-2.6-8.06-2.6s-3.8-3.09-3.87-3.94-2.17-2.94-2.17-2.94l-.4-4.93,1.81-3.13,2.87-1.09,3,2.45,2-1.58-1.11-2.6s-3.38-1.57-4.41-1.48-5.74,2.17-5.74,2.17a42.35,42.35,0,0,0-2.8,3.78,22.37,22.37,0,0,0-1.29,4.07,17.51,17.51,0,0,0,.32,3.95,20,20,0,0,0,.92,3.9,17.75,17.75,0,0,0,1.61,3.41l-2.25,1.89a3.93,3.93,0,0,1-2.53,1.2c-1.62.13-2.52-.08-3.68.3s-3.82,2.11-5.1,2.74a9.39,9.39,0,0,0-2.61,2.43l-3.68,7.4-2.75,8-1.06,8.74.47,5.63s.81,6.32.55,6.77-1.23,4.78-1.23,4.78a20.51,20.51,0,0,1-3.39,3.83c-1.26.81-3.79,2.44-5.2,3.26s-7.36,2.31-7.36,2.31l-7.35.6-7.69-1.64a13.16,13.16,0,0,1-3.88-2.23,12.73,12.73,0,0,1-3-3.59,10.8,10.8,0,0,1-1.67-4.12c-.1-1.27-.38-4.65-.38-4.65l3.25-5.51,3.7-1.73s5.55.83,6,.93a32.6,32.6,0,0,1,4.86,3.29,11.11,11.11,0,0,1,1.81,4.11c-.11.43.15,1.83-1.43,2.38a3.47,3.47,0,0,1-3.43-.28c-.48-.53-.28-1.68-1.75-1.56s-3.59-.42-3.56,1.71.25,3.1,1.35,3.86a4.41,4.41,0,0,0,2.91,1.18c1.64.15.93.49,3.14.31s4-.33,4.37-.78,2.43-1.06,2.77-2.36,1.59-.41.59-3.59a14.46,14.46,0,0,0-1.65-3.84,15.91,15.91,0,0,0-2.23-3.79,14.66,14.66,0,0,0-4.24-2.91,19,19,0,0,0-3.67-1.41,12.07,12.07,0,0,0-4.18-.5,11.3,11.3,0,0,0-4.19,1.19,13.46,13.46,0,0,0-4.19,3,12.67,12.67,0,0,0-2.72,4.77,13.22,13.22,0,0,0-.75,5.31,16.45,16.45,0,0,0,.52,4.49,24.09,24.09,0,0,0,3.64,6.51,50.14,50.14,0,0,0,6.09,5.6c.61.24,7.57,2.08,7.57,2.08s6.18,1.47,7.51,1.36l8.08-.66c2.5-.21,11.78-2.53,11.78-2.53l5.37-3.13q2-1.51,4.19-3c1.34-.93,2.65-1.79,3.93-2.6l5-2.53,7.85-3.49c.89-.39,4.09-1.71,6-.35.73.5,1.24,1.56,2.23,3.65.58,1.22,1,2.27,1.28,3a15.76,15.76,0,0,0,3.27,5.55c1,1.1,3,3,3.76,2.53.32-.19.25-.73,0-3.27-.15-1.67-.25-2.75-.28-3.38A19.82,19.82,0,0,1,1557,395a47.23,47.23,0,0,1,1.8-5.12,20.2,20.2,0,0,1,8.56-2.12c2,0,3.53.3,9.43,1.35,3.33,1.35,4.81,3.06,5.54,4.37.59,1.05.39,1.29,1.67,4.12a40.23,40.23,0,0,0,2.11,4.08c.76,1.26.85,1.22,1.69,2.56,1.84,2.92,2.23,4.41,2.58,4.33s.11-2.8,0-7.38c0-.78,0-1.32,0-2,0-1.25.1-1.41.1-2.42,0-1.48-.16-1.49,0-2a4.35,4.35,0,0,1,1.75-2.13,8.74,8.74,0,0,1,3-1.52,10.2,10.2,0,0,1,6.86.57c1.63.83,2.23,1.88,4.48,4.17a69.05,69.05,0,0,0,5.27,4.68c2.6,2.25,8.12,7.6,20.49,20.58l-7.5-22.79q-.33-3.22-.68-6.47l-.72-5.19c-.21-.78-.42-1.57-.64-2.35.46-1.08.91-2.16,1.36-3.24l1.45-1,3-1.76,3.92-.32,3.33-.27,4,1,2.94-.24,1.07-1.41-.08-.94-1.77.14s-.46-.8-1.13-1.84a14.68,14.68,0,0,1-1.18-2.32l-.41-2.54-.43-2.88.55-2.88.6-2.32,2.26-3.78,5.46-3.09,4.24-1.28,4.37-2.08,4.4-1.68,6.31-2.41,4.42-2.07Zm-78-23.15c.39.48.66.75.77.87C1591.85,322,1591.5,321.61,1591.25,321.35Zm.77.87.1.11Z"/><g id="owl"><path class="cls-10" d="M697.86,914.92c-.37-1.08-2.12-6.64-2.67-7.91a58.45,58.45,0,0,0-2.77-6.06,58.08,58.08,0,0,1-2.91-5.05c-.11-.33-4.47-5-4.47-5l-2.35-2,.88,4.77,1.14,5.53.53,5.85-.27,4.56-.82,3.65s-2.16,3.26-2.37,3.7a19.54,19.54,0,0,1-2.42,2.14,74.84,74.84,0,0,0-10.17,6.69l-1.43,1.14c-19.1-23.94-47.11-34.26-75.84-34.26-28.31,0-57.91,9.48-78.8,32.18l-4.2-2.11s-2.29-1-8.35-3.2a74.47,74.47,0,0,0-11.78-3.09,18.9,18.9,0,0,1-3-1.25c-.34-.35-3.43-2.75-3.43-2.75l-1.94-3.2L478.73,905l-1.37-5.72-.68-5.6-.69-4.8-1.6,2.63s-2.63,5.83-2.63,6.17a56.08,56.08,0,0,1-1.14,5.72,54.06,54.06,0,0,0-.69,6.63c-.11,1.37,0,7.2,0,8.35s1.94,9.94,1.94,9.94l2.86,6.29,3.09,4.92,3.43,5.26,4.57,5,7.57,7.57c-5.37,14.3-8.48,31.24-8.48,51.19,0,63.66,32.48,134.49,70.39,165.91a10,10,0,0,0-3.25-.59c-7.16,0-12.95,7.68-12.95,17.15s5.79,17.15,12.95,17.15c4.26,0,8-2.75,10.4-7a13.91,13.91,0,0,0,23.81.5,16.29,16.29,0,0,0,13.23,6.47,16.73,16.73,0,0,0,10.33-3.49,15.17,15.17,0,0,0,19.9-.47,11.69,11.69,0,0,0,8.53,4c7.37,0,13.35-7.68,13.35-17.15s-6-17.15-13.35-17.15c-4.83,0-9,3.31-11.4,8.25a15.81,15.81,0,0,0-3.47-1.42c38.57-26.92,68.93-102.13,68.94-170.33,0-18.73-2.4-34.92-6.68-48.79l1.62-.55,5.6-11.3,2.72-6.23,1.57-6.08,1.35-5.64.7-6.87S698.22,916,697.86,914.92ZM586.09,1042.05c0,1.2,1.37-2.74,1.37-2.74-1.37,2.74-1.37,1.89,1.37-2.75,1.29-2.17,1.2-2.22,1.2-2.22l4-1.2h3.6l3.6,2.4,1.88,2.4.86,2.23.8,2.57-1.37,5.89-2.34,5.08-4.46,7-8.75-11.32-1.71-6.18ZM565,1152.32c0,1.2,1.38-2.74,1.38-2.74-1.38,2.74-1.38,1.88,1.37-2.75,1.29-2.17,1.2-2.23,1.2-2.23l3.94-1.2h3.6l3.6,2.4,1.89,2.41.86,2.23.8,2.57-1.38,5.89-2.34,5.08-4.46,7-8.74-11.31-1.72-6.18Zm-1,32a18,18,0,0,0-2.75-5.3q2.46,1.74,4.93,3.25A14.09,14.09,0,0,0,564,1184.32Zm68.89-25.42L630.5,1164l-4.46,7-8.74-11.31-1.72-6.18v-1.2c0,1.2,1.38-2.74,1.38-2.74-1.38,2.74-1.38,1.88,1.37-2.75,1.29-2.17,1.2-2.23,1.2-2.23l3.94-1.2h3.6l3.6,2.4,1.89,2.41.86,2.23.8,2.57Z"/><path class="cls-11" d="M545.61,965.63c-17,0-30.86,13.49-30.86,30.12s13.82,30.12,30.86,30.12,30.87-13.49,30.87-30.12S562.66,965.63,545.61,965.63Zm0,55.41c-14.9,0-27-11.32-27-25.29s12.08-25.29,27-25.29,27,11.32,27,25.29S560.52,1021,545.61,1021Z"/><path d="M545.61,970.46c-14.9,0-27,11.32-27,25.29s12.08,25.29,27,25.29,27-11.32,27-25.29S560.52,970.46,545.61,970.46Zm0,44.95c-11.17,0-20.23-8.8-20.23-19.66s9.06-19.66,20.23-19.66,20.24,8.8,20.24,19.66S556.79,1015.41,545.61,1015.41Z"/><path class="cls-12" d="M545.61,976.09c-11.17,0-20.23,8.8-20.23,19.66s9.06,19.66,20.23,19.66,20.24-8.8,20.24-19.66S556.79,976.09,545.61,976.09Zm0,30.81a11.15,11.15,0,1,1,11-11.15A11.06,11.06,0,0,1,545.61,1006.9Z"/><ellipse cx="545.61" cy="995.75" rx="10.98" ry="11.15"/><path class="cls-11" d="M635.59,965.63c-17.05,0-30.87,13.49-30.87,30.12s13.82,30.12,30.87,30.12,30.87-13.49,30.87-30.12S652.64,965.63,635.59,965.63Zm0,55.41c-14.9,0-27-11.32-27-25.29s12.08-25.29,27-25.29,27,11.32,27,25.29S650.49,1021,635.59,1021Z"/><path d="M635.59,970.46c-14.9,0-27,11.32-27,25.29s12.08,25.29,27,25.29,27-11.32,27-25.29S650.49,970.46,635.59,970.46Zm0,44.95c-11.18,0-20.24-8.8-20.24-19.66s9.06-19.66,20.24-19.66,20.24,8.8,20.24,19.66S646.77,1015.41,635.59,1015.41Z"/><path class="cls-12" d="M635.59,976.09c-11.18,0-20.24,8.8-20.24,19.66s9.06,19.66,20.24,19.66,20.24-8.8,20.24-19.66S646.77,976.09,635.59,976.09Zm0,30.81a11.15,11.15,0,1,1,11-11.15A11.06,11.06,0,0,1,635.59,1006.9Z"/><ellipse cx="635.59" cy="995.75" rx="10.98" ry="11.15"/></g><g id="cat"><polygon class="cls-13" points="885.58 712.45 887.87 711.19 891.24 710.04 896.9 712.45 896.9 717.36 891.24 719.31 885.58 717.36 885.58 712.45"/><path d="M1249.14,672.32l-2.2-2,.83-.11-4.57-3.2-10.52-7.78-11-4.11-13.26-3.2-17.6-2.44s-8.92-.76-14.87.6c-1.55.36-21.83,3.67-22.86,4.35s-5.38,3-7.09,4.35-8.8,4.28-12.58,6.17a8.2,8.2,0,0,1-1.24.48,13.38,13.38,0,0,1-7,1.81,13.7,13.7,0,0,1-6.09-1.34,12.25,12.25,0,0,1-6.76-3.09,8.31,8.31,0,0,1-1.1-.49c-1-.69-4.34-2.86-4.34-2.86l-5.49-2.74s-7.58-.64-10.32-.64-12.09,3.15-13.8,3.5A70.74,70.74,0,0,0,1067,663.4c-1,.69-10.29,5.32-10.29,5.32l-5.6,2.09-5.72,2.88-1.4.43a13.07,13.07,0,0,1-6.31,1.82,14.55,14.55,0,0,1-3.72.49,15.56,15.56,0,0,1-2.31-.18,14.92,14.92,0,0,1-2.27.18,13.38,13.38,0,0,1-7.12-1.89c-.4-.07-.8-.14-1.17-.24a12.54,12.54,0,0,1-7.27-3,11.76,11.76,0,0,1-2.23-1.07,62,62,0,0,0,5.33-24.66c0-.12,0-.25,0-.38L1020,636l2.06-11.32,1-6.5a15.8,15.8,0,0,1,.48-7.42c-.14-4.8,1.9-9.65,6.09-12.25a12.29,12.29,0,0,1,5.12-5.23c.3-.38.52-.67.63-.84.69-1,6.52-7.89,6.52-7.89s2.51-3.67,4.2-6.81a15,15,0,0,1,1.55-3.62c.93-3.1,1.8-7.4,1.8-7.4l2.22-7.23a16.12,16.12,0,0,1,.52-3.08l2.06-12.33v-8.92l-2.06-15.68a15.62,15.62,0,0,1-.89-5.6l-1.51-4.1-2.74-8.91-2.06-7.55-2.4-7.55-1.72-4.8-1.32,2.95a13.45,13.45,0,0,1-5,8.77,13.14,13.14,0,0,1-3.85,6.08,12.73,12.73,0,0,1-5.36,7,12.24,12.24,0,0,1-4.13,4.66l-4.39,5.57-4.74,4.28a12.16,12.16,0,0,1-5.71,5.22,11.89,11.89,0,0,1-3.53,2.8,116.49,116.49,0,0,1-11.85,8.9,12.07,12.07,0,0,1-4.5,2.52l-12.88,8.52-15.09,8.23-17.27,7.82a171.11,171.11,0,0,0-52-7.82,185.49,185.49,0,0,0-64.21,11.37l-20.45-9L789.34,551l-13.16-8.09a60.79,60.79,0,0,1-10-5.91,12,12,0,0,1-6.68-5,11.69,11.69,0,0,1-3.61-2.68,12.12,12.12,0,0,1-5.88-5l-4.89-4.13-4.57-5.41a12.46,12.46,0,0,1-4.28-4.53,12.73,12.73,0,0,1-5.58-6.78,13.14,13.14,0,0,1-4-5.95,13.44,13.44,0,0,1-5.25-8.61l-1.42-2.89-1.55,4.85-2.15,7.62-1.81,7.61-2.45,9-1.37,4.14a15.72,15.72,0,0,1-.71,5.63l-1.54,15.74.3,8.91,2.46,12.26a15.1,15.1,0,0,1,.62,3.06l2.46,7.15s1,4.27,2,7.33a15.32,15.32,0,0,1,1.66,3.58c1.79,3.08,4.42,6.67,4.42,6.67s6.06,6.66,6.78,7.66c.11.17.35.46.66.83a12.17,12.17,0,0,1,5.28,5c4.28,2.46,6.48,7.24,6.5,12a15.76,15.76,0,0,1,.72,7.4l1.27,6.47L746,640.3,752.64,656a65.77,65.77,0,0,0,11.51,24.6,13.13,13.13,0,0,1-4.62,1.56c-.37.12-.77.21-1.16.3a13.32,13.32,0,0,1-7,2.24,14.22,14.22,0,0,1-2.28-.07,14.74,14.74,0,0,1-2.29.3,14.51,14.51,0,0,1-3.74-.31,13.16,13.16,0,0,1-6.4-1.49l-1.41-.37-5.68-2.51-.36-.13-5.33-1.7-.35-.13c-1.24-.54-9.4-4.14-10.38-4.72a71.19,71.19,0,0,0-10.46-3.26c-1.73-.26-11.22-2.94-14-2.8-2.24.11-7.67.81-9.59,1.06a3.69,3.69,0,0,0-1.3.43l-4.55,2.57-.34.22-4,3a8.23,8.23,0,0,1-1.07.54,12.37,12.37,0,0,1-6.59,3.43,13.74,13.74,0,0,1-6,1.63,13.41,13.41,0,0,1-7.07-1.45,8.46,8.46,0,0,1-1.26-.42c-3.86-1.7-11.09-4.25-12.87-5.54s-6.23-3.35-7.3-4-21.48-2.92-23.05-3.2c-5.6-1-13.69,0-14.76.12l-.22,0-17.18,3.27-.35.08L558.44,673a2.86,2.86,0,0,0-.41.15l-10.1,4.37a3.41,3.41,0,0,0-.85.52l-9.73,8-4.4,3.42.84.07-1.27,1.23a3.56,3.56,0,0,0-1,2l-.63,3.76a4,4,0,0,0,0,.77l.28,5.68a3.64,3.64,0,0,0,.41,1.48l2.25,4.33a3.65,3.65,0,0,0,.4.62c.89,1.08,4,4.87,4.4,5.43s23.31,15.37,28.7,18.85a3.59,3.59,0,0,0,2.47.52l7.35-1.08a3.66,3.66,0,0,0,1.18-.4l9.14-4.93,9.17-5.54a3.66,3.66,0,0,0,.81-.66c.56-.63,1.12-1.25,1.69-1.87a1.32,1.32,0,0,1,.27-.64l-.3-6.09a3.58,3.58,0,0,0-.68-1.93l-2.44-3.38a3.64,3.64,0,0,0-1.19-1.05l-8.64-4.71-13.35-6.9a3.79,3.79,0,0,0-1.47-.4l-8.9-.46a3.11,3.11,0,0,0-2.24.56,1.34,1.34,0,0,1-.81.3l-.47,0a1.25,1.25,0,0,1-1.2.91h0a3.68,3.68,0,0,0-1.43,2.36,1.35,1.35,0,0,1-.6,1.19l1.13,7.1.62,3.36a1.69,1.69,0,0,1,.34-.09l3.94-.2a3.6,3.6,0,0,0,3.42-3.77l-.06-1.23a1.43,1.43,0,0,1-.52-1.9,1.31,1.31,0,0,1,1.2-1.71.93.93,0,0,1,.24,0,1.19,1.19,0,0,1,.27-.07,1.25,1.25,0,0,1,1.12.54l.07,0,.09-.11,6.61,1.85a3.09,3.09,0,0,1,.68.26l6.77,3.5a2.71,2.71,0,0,1,.37.21l5.43,3.67.15.11,1,.77a3.6,3.6,0,0,1-.09,5.83L583,721.4l-1.68.83-1.19,1.32a1.2,1.2,0,0,1-.83.42,1.22,1.22,0,0,1-1.11.77,2,2,0,0,1-.26,0,1.25,1.25,0,0,1-.93.44,1.28,1.28,0,0,1-1-.36,1.22,1.22,0,0,1-1.21,1.15l-.68,0a1.25,1.25,0,0,1-.77-.22,1.27,1.27,0,0,1-.94.48l-1.54.07a1.21,1.21,0,0,1-1.12-.54l-.62.11s-9.67-4.55-8.65-5.81l-.29-.26h-.12a1.19,1.19,0,0,1-.72-.18l-.12-.08a1.22,1.22,0,0,1-.41-.49h0l-.41-.11a1.31,1.31,0,0,1-1.7-1.2l-5.54-4.36L545.61,709a4.12,4.12,0,0,1-.65-.67L540.23,702a3.66,3.66,0,0,1-.43-.74l-.81-1.91a3.58,3.58,0,0,1,.48-3.63l1.32-1.69a3.33,3.33,0,0,1,.36-.39L544,690.9l.53-.62.66.05a12.06,12.06,0,0,1,5.11-3.14,12.21,12.21,0,0,1,5.82-3.07,12.65,12.65,0,0,1,3-1.36l1.83-1h0a13.16,13.16,0,0,1,4.63-1.53,13.56,13.56,0,0,1,5.56-1.7,13,13,0,0,1,4.7-1.18l1.37-.07c.13,0,.27,0,.41,0a13.65,13.65,0,0,1,6.14-1.73h.13a13,13,0,0,1,4.62-1.15l.46,0c.22,0,.44,0,.66,0a15.38,15.38,0,0,1,3-.44c.43,0,.84,0,1.24,0a13.37,13.37,0,0,1,2.63-.42l.46,0a13,13,0,0,1,3.39.33c.18,0,.33-.06.51-.07a13.87,13.87,0,0,1,5.89.91c.84,0,1.61,0,2.17.06a16.61,16.61,0,0,1,5.78,1.09c3.84,1.18-1.1-1.44,7.33,2.38s9.84,4.43,11.59,5c1.17.4,6.75,3.72,10.85,5.69a3.39,3.39,0,0,0,1,.3,14.45,14.45,0,0,1,3.57,1c1.57-.76,5.37.18,8.24-.1,1.73-.18,3.45-.2,5-.24a20.69,20.69,0,0,0,6.35-2.9,12.23,12.23,0,0,1,5.85-2.58,12.6,12.6,0,0,1,6.07-2.4,13.18,13.18,0,0,1,7.35-2.5h.72a14.87,14.87,0,0,1,2.69-.4,14.11,14.11,0,0,1,4.89.58,12.68,12.68,0,0,1,6.27,1.92,3.53,3.53,0,0,0,1.11.48,18.27,18.27,0,0,1,6,2.18c1.27.86,2.93,1.88,4.49,2.81a3,3,0,0,0,.78.33,11.94,11.94,0,0,1,4.25,2.25c.27.13.55.26.81.41a11.79,11.79,0,0,1,2.89,1.49l.55.22c3.86,1.57,7,2.44,8.41,3.4.92.62,3.87,2.13,5.85,3.13a14.19,14.19,0,0,1,2,.37l.31,0a13.21,13.21,0,0,1,3.18.28c1.71-.12,3.76-.21,5.64-.15a33,33,0,0,1,3.85.45,3.51,3.51,0,0,0,1.81-.23,12.68,12.68,0,0,1,3.81-.8l.91,0h.12a13.37,13.37,0,0,1,3.74-1.18c1-.4,1.89-.72,2.71-1a14.36,14.36,0,0,1,2.67-1.23l2-1c.89-.64,2.14-1.46,3.27-2.18A116.28,116.28,0,0,0,785,701.53,10.86,10.86,0,0,1,781,706.6a11.39,11.39,0,0,1-5.61,4.4,9.77,9.77,0,0,1-1,.49,12.11,12.11,0,0,1-5.75,3.39,14.19,14.19,0,0,1-2,.39,14.66,14.66,0,0,1-2,.72,13.19,13.19,0,0,1-3.36.47,12,12,0,0,1-6-.05l-1.32,0-5.5-1.09-.39-.06-5-.44a2.08,2.08,0,0,1-.36,0c-1.27-.24-9.13-1.79-10.11-2.11a64.44,64.44,0,0,0-9.9-.8c-1.58.11-10.5-.37-12.89.29-1.94.54-6.52,2.21-8.21,2.83a3.6,3.6,0,0,0-1.17.71l-3.44,3.12a2.65,2.65,0,0,0-.29.29l-3,3.41a6.87,6.87,0,0,1-.83.69,11.17,11.17,0,0,1-5.15,4.35,12.45,12.45,0,0,1-5,2.65,12.16,12.16,0,0,1-6.54.12,8.86,8.86,0,0,1-1.2-.12c-3.76-.74-10.65-1.57-12.48-2.35s-6.18-1.73-7.25-2.08-19.57,1.69-21,1.76c-5.14.23-12.07,2.69-13,3l-.2.08-14.51,6.3a1.91,1.91,0,0,0-.32.16l-10.45,5.82c-.13.08-.25.15-.37.24l-8,5.84a3.67,3.67,0,0,0-.72.7l-7,9-3.21,3.92.76-.11-1.46,2.24.27,4.49a3.26,3.26,0,0,0,.12.76l1.36,4.87a3.69,3.69,0,0,0,.71,1.36l2.79,3.3a3.2,3.2,0,0,0,.53.51c1,.81,4.47,3.51,5,3.92s23.3,8.84,29,10.94a3.61,3.61,0,0,0,2.55,0l6.1-2.35a3.79,3.79,0,0,0,1.07-.65l7-6.15,7.35-7.06,1.35-2.41a1.09,1.09,0,0,1,.12-.62l-1.46-5.24a3.62,3.62,0,0,0-1.08-1.73L636,766.19a3.53,3.53,0,0,0-1.39-.77l-8.5-2.43L613,759.55a3.55,3.55,0,0,0-1.52-.06l-7.88,1.34a2.86,2.86,0,0,0-1.88.95,1.18,1.18,0,0,1-.65.42l-.41.12a1.14,1.14,0,0,1-.88,1h0a1.18,1.18,0,0,1-.73,1.49,1.3,1.3,0,0,1-.07.89,1.2,1.2,0,0,1-.29,1.17L601,773l1.22,2.85a1.12,1.12,0,0,1,.29-.14l3.11-.87a3.61,3.61,0,0,0,2.51-4.44l-.21-.75a1.31,1.31,0,0,1-.84-1.58,1.19,1.19,0,0,1,.72-1.75.86.86,0,0,1,.22,0,1.63,1.63,0,0,1,.23-.11,1.09,1.09,0,0,1,1.09.26h.07l.06-.11,6.17.32a3.58,3.58,0,0,1,.73.11l6.63,1.73.4.13,5.51,2.16.17.07.65.3a3.59,3.59,0,0,1,1.18,5.69l-3.72,4.12L625.89,782c-.27.46-.53.93-.79,1.4a7.81,7.81,0,0,0-1.48,1.44.92.92,0,0,1-.23,0,1.22,1.22,0,0,1-1.68.46,1.11,1.11,0,0,1-.84,1.26l-.6.17a1.16,1.16,0,0,1-.72,0,1.08,1.08,0,0,1-.73.6l-1.35.38a1.08,1.08,0,0,1-1.09-.26l-.53.23s-9.46-2.12-8.8-3.43l-.32-.18-.1,0a1.16,1.16,0,0,1-.67,0l-.13,0a1.13,1.13,0,0,1-.46-.35h0l-.38,0a1.19,1.19,0,0,1-1.75-.71l-5.77-2.77-5.72-2.77a3.09,3.09,0,0,1-.78-.51l-5.39-4.62a3.47,3.47,0,0,1-.58-.63l-1-1.34a3.59,3.59,0,0,1-.34-3.64l.74-1.56a5,5,0,0,1,.26-.46l2-3L587,761l.6-.08a10.88,10.88,0,0,1,3.88-3.8,80.39,80.39,0,0,1,6.92-5.68l1.42-1.2h0a199,199,0,0,1,8.36-4.88,11.78,11.78,0,0,1,3.92-2l1.19-.33c.12,0,.25,0,.38-.07a12.38,12.38,0,0,1,5.08-2.75l.11,0a11.74,11.74,0,0,1,3.85-1.94l.4-.11c.2-.06.4-.06.6-.1a13.16,13.16,0,0,1,2.54-1c.37-.11.74-.18,1.1-.25a11,11,0,0,1,2.24-.9l.4-.11a12,12,0,0,1,3.06-.38c.15,0,.28-.12.44-.16a12.63,12.63,0,0,1,5.39-.37c.74-.17,1.42-.31,1.93-.38a15,15,0,0,1,5.32-.19c3.63.29-1.26-1.05,7,.65s9.58,2,11.24,2.15c1.11.13,6.67,1.94,10.68,2.88a3.55,3.55,0,0,0,1.08.06,13.09,13.09,0,0,1,3.3.17c1.23-1,4.78-.91,7.26-1.74,1.49-.5,3-.86,4.36-1.2a11.14,11.14,0,0,1,2.18-1.33,58.62,58.62,0,0,1,7.5-6,11.66,11.66,0,0,1,4.89-3.34,12,12,0,0,1,6-3.67c.21-.06.42-.09.63-.14a13.27,13.27,0,0,1,6.74-1.36,11.52,11.52,0,0,1,6.45.66,18,18,0,0,1,6.26.75c1.28.5,2.93,1.07,4.49,1.58a3.39,3.39,0,0,0,.83.16,10.8,10.8,0,0,1,4.17,1.14c.26.06.53.12.79.2a11,11,0,0,1,2.86.74l.53.09c3.72.62,6.66.77,8.11,1.34.94.36,3.84,1.11,5.8,1.6a14.46,14.46,0,0,1,1.86-.07l.27-.08a12.4,12.4,0,0,1,2.87-.38,50.57,50.57,0,0,1,5-1.25,26.52,26.52,0,0,1,3.39-.36,3.74,3.74,0,0,0,1.73-.63,11.56,11.56,0,0,1,3.13-1.42l.8-.22.11,0a12,12,0,0,1,3.06-1.79c.81-.55,1.53-1,2.2-1.44a12.35,12.35,0,0,1,2.83-2,7.14,7.14,0,0,0,.69-.65c1.19-1.39,3.59-3.77,4.45-4.61a3.78,3.78,0,0,0,.55-.7l2.41-4a3.52,3.52,0,0,0,.46-1.56,169.07,169.07,0,0,0,54.55,21.9s0,.09,0,.13c0,5.72,16.47,12,34.73,13.83l1.2,10.18v63.11l-2.29,32.47-2,31.33-6.73,30.87-6.86,23.32-3.07,11.56h0c-11.92,22.39-21,52-26.49,81.86-44.32-22.63-71.52,7.52-75.27,32.11-3.81,24.91,32.16,63.21,62.5,67.84a91.6,91.6,0,0,1,10.09,2.17c2.39,8.63,5.89,14.5,10.33,18.39.59,8.29,9.23,14.87,19.84,14.87,7,0,13.1-2.85,16.65-7.16a12.93,12.93,0,0,0,11.87,7.16c6.93,0,12.55-5,12.81-11.21,3.84-.27,7.75-.45,11.73-.45,7.93,0,15.7.38,23.16.64.41,6.14,6.48,11,14,11,7.77,0,14.06-5.22,14.06-11.66,0-.05,0-.1,0-.15l1.54-.23c3,5.06,9.91,8.61,18,8.61,10.8,0,15.44-4.58,15.44-12.34,0-5-1.38-10.27-5-13.6.91-.47,1.9-1,2.85-1.44l6.86,21.55a25.44,25.44,0,0,1,.69,2.7l1.88,9.4a6.68,6.68,0,0,1,.14,1.33v31.09a6.59,6.59,0,0,1-.15,1.4l-3.39,16.11a7.35,7.35,0,0,1-.34,1.13l-7.73,19.32a6.92,6.92,0,0,1-.72,1.34l-7.42,10.71a6.11,6.11,0,0,1-.84,1c-2.49,2.43-14.36,14-16,16s-14.85,16.13-16.33,17.69a2.29,2.29,0,0,1-.27.27c-.92.86-7.13,8-8,10.07s-5.22,9.47-6.63,12a6.18,6.18,0,0,0-.57,1.38l-3.37,11.79c0,.18-.09.36-.13.54l-4,20.06c0,.16-.06.33-.08.49l-2.66,21.29a7.89,7.89,0,0,0,0,.84v11c0,1.59,2.43,14.32,3.06,17.55a6.57,6.57,0,0,0,.44,1.43l5.94,13.57a7.14,7.14,0,0,0,.37.73c.9,1.53,4.48,7.59,5.28,8.79s8.28,11,10.69,14.13a6.68,6.68,0,0,0,1.78,1.61l7,4.4,2.27,1.43a6.71,6.71,0,0,0,2,.82l10.55,7.34,14.75,3.77h14.4l15.66-1.89,14.18-6.34,7.89-5.15,7.2-6.17,7.2-9.26,6.52-10.29,3.43-12.35v-9.26l-3.77-12.69-4.12-7.54-6.17-8.24-8.23-6.17-9.26-4.12-14.07-2.05h-9.94l-8.58,3.08-5.48,6.18-1.25,7.22,2,6.47a1.52,1.52,0,0,1,.17.56l.37,1.18h.73a1.29,1.29,0,0,1,1.32,1.4l7.63,2.09a1.7,1.7,0,0,1,.31-.06h13.38a1.21,1.21,0,0,1,.33.07l7.22-2.47,10.2.93,10,3.53s.5,1.08,1.19,2.84a1.39,1.39,0,0,1,.69,1.86,56.62,56.62,0,0,1,3.27,14.16c.07,1-1.38,8.58-2.4,10.64a40,40,0,0,1-7.21,9.6c-3.77,3.77-10.3,6.84-13.73,9.58s-6.85,3.8-8.22,4.82-9.6,4.81-12,5.15-9.95,1.55-13,1.8-9.94-1.8-9.94-1.8l-9.61-3.09-2.85-2.23a1.26,1.26,0,0,1-1.55-.23l-1-1a.62.62,0,0,1-.14-.19s0,0,0,0a1.21,1.21,0,0,1-.15-.44h-.05l-.06,0a1.29,1.29,0,0,1-.53-.11,1.21,1.21,0,0,1-.32-.22.24.24,0,0,1-.08-.06,1.18,1.18,0,0,1-1.07-.36l-1-1a1.36,1.36,0,0,1-.33-.5s0-.07,0-.1a1.58,1.58,0,0,1,0-.43,1.15,1.15,0,0,1-1-.34l-.34-.34a1.34,1.34,0,0,1-.34-.61s0-.09,0-.14a1.4,1.4,0,0,1,.05-.58h-.09a1.25,1.25,0,0,1-1.29-1.15l-1.94-1.22a6.7,6.7,0,0,1-1.39-1.16l-8.76-9.55a7.12,7.12,0,0,1-1.12-1.66l-4.43-9.25a6.52,6.52,0,0,1-.29-.73l-6.5-13.69c-.08-.21-2-8-2.06-8.23l-.62-10.29a6.58,6.58,0,0,1-.11-2.54l2.1-14.72,4-20.65a6.69,6.69,0,0,1,.2-.77l6.76-21.14a6.93,6.93,0,0,1,1.36-2.41l11.73-13.4.31-.33,13.1-13.1,18.88-20.23a6.06,6.06,0,0,0,.6-.74l12-17.21a6.45,6.45,0,0,0,.79-1.49l7.16-19a6.77,6.77,0,0,0,.41-1.71l1.7-16.61q0-.35,0-.69v-42.79q0-.32,0-.63l-1.76-18.94a5.32,5.32,0,0,0-.12-.8l-2.81-13c.48-.14.92-.31,1.4-.44,29.63-8,61.12-50,54.57-74.37-6.45-24-36.66-50.79-78-23.79-10.53-39.63-24.55-78-47.33-99.73l-17.91-37.5L929,862.1l-4.58-28.35-3.13-44.13V768.35l2.41-28.51c7.37-3,12-6.85,12-10.24a3.42,3.42,0,0,0-.19-.93c20.34-5.61,37.69-14.78,51.08-26l3.82,5.65s3.45,3,5,4.67a7.3,7.3,0,0,0,.72.62,12.2,12.2,0,0,1,2.93,1.88c.69.39,1.42.81,2.26,1.33a11.77,11.77,0,0,1,3.15,1.63h.11l.81.18a11.84,11.84,0,0,1,4,1.77c1.36.08,2.71,0,4.36.22s3.51.64,5,1a12,12,0,0,1,2.88.24l.27.06a14.61,14.61,0,0,1,1.87,0c1.93-.58,4.79-1.48,5.71-1.89,1.41-.64,4.35-.94,8-1.74l.53-.12a10.84,10.84,0,0,1,2.81-.88,7.92,7.92,0,0,1,.79-.24,10.84,10.84,0,0,1,4.53-1.39c1.64-.63,3.43-1.35,4.8-2a17.82,17.82,0,0,1,6.21-1.06,11.46,11.46,0,0,1,6.41-1,12.86,12.86,0,0,1,4.45.24,14.08,14.08,0,0,1,2.35.78c.21,0,.42.06.64.11a12,12,0,0,1,6.18,3.36,11.54,11.54,0,0,1,5,3.09,11.08,11.08,0,0,1,4.82,3.22,10.91,10.91,0,0,1,3,2.35,11.58,11.58,0,0,1,2.25,1.22c1.37.28,2.9.56,4.42,1,2.51.7,6,.45,7.33,1.37a13.1,13.1,0,0,1,3.84-.3c4-1.09,9.89-3.36,11-3.55,1.66-.26,3-.6,11.13-2.71s3.3-.53,6.91-1a14.82,14.82,0,0,1,5.33-.08c.51,0,1.19.15,1.94.28a12.68,12.68,0,0,1,5.4.1l.45.14a11.7,11.7,0,0,1,3.08.23l.4.09a11.35,11.35,0,0,1,2.28.78c.37.06.74.11,1.11.2a12.9,12.9,0,0,1,2.59.86,5.79,5.79,0,0,1,.6.07l.41.09a12,12,0,0,1,3.94,1.74l.12,0a12.31,12.31,0,0,1,5.21,2.5c.12,0,.25,0,.37,0l1.22.27a11.86,11.86,0,0,1,4,1.78,12.19,12.19,0,0,1,4.7,2.38,11.62,11.62,0,0,1,3.9,2.09h0l1.48,1.13a11.92,11.92,0,0,1,2.47,1.68,11.11,11.11,0,0,1,4.72,3.65,10.92,10.92,0,0,1,4.07,3.6l.6,0,.37.64,2.28,3.07,2,3.63-2.28,3.53-5.81,5.5-6,3.28-5.63,3.05a1.19,1.19,0,0,1-1.7.8l-.39,0h0a1.14,1.14,0,0,1-.44.37l-.12.06a1.14,1.14,0,0,1-.67,0l-.11,0-.3.19c.72,1.28-8.62,3.86-8.62,3.86l-.54-.2a1.1,1.1,0,0,1-1.08.31l-1.36-.3a1.09,1.09,0,0,1-.77-.57,1.07,1.07,0,0,1-.72.07l-.6-.13a1.18,1.18,0,0,0-1.84-1.05,1.17,1.17,0,0,1-.76-.54,1.85,1.85,0,0,1-.23,0,1.09,1.09,0,0,1-.87-.85,1.11,1.11,0,0,1-.68-.51l-.86-1.36-1.37-1-7.41-7.42,5.11-2.62,5.67-2.56,7.09-2.23,6.52-.66.06.1h.07a1.12,1.12,0,0,1,1.08-.31,1.6,1.6,0,0,1,.23.1h.22a1.2,1.2,0,0,1,.81,1.72,1.31,1.31,0,0,1-.76,1.62l-1,4.28,6.66,1.5a2.08,2.08,0,0,1,.3.13l1.07-2.91,2.11-6.18a1.2,1.2,0,0,1-.35-1.15,1.28,1.28,0,0,1-.11-.88,1.16,1.16,0,0,1-.8-1.45h0a1.13,1.13,0,0,1-.92-1l-.42-.09a1.14,1.14,0,0,1-.93-1l-10.38-1.24-13.66,4.32-9.14,3.12-3.93,3.84-1.42,6.34a1.21,1.21,0,0,1,.14.62c.5.78,1,1.56,1.48,2.34l7.68,6.68,7.85,6.19,8.1,2.67s29.12-12.38,29.66-12.9,5-4.4,5-4.4l3.32-4.36,1.37-6.08,0-4.88-1.57-2.17.76.07-3.4-3.74-7.75-9-8.87-5.83-11.09-5.47-15.07-5.67s-7.73-2.45-13.26-2.42c-1.45,0-20-1.1-21.08-.7s-5.34,1.56-7.13,2.44-8.63,2-12.35,3a7.24,7.24,0,0,1-1.19.18,12.11,12.11,0,0,1-6.54.21,12.49,12.49,0,0,1-5.12-2.4,11.18,11.18,0,0,1-5.35-4.08,6.48,6.48,0,0,1-.87-.65l-3.27-3.4-4.31-3.52s-6.57-2.07-9-2.62-11.31.38-12.9.35a65.14,65.14,0,0,0-9.85,1.29c-1,.4-10.15,2.66-10.15,2.66l-5.37.74-5.63,1.41-1.32.11a11.9,11.9,0,0,1-5.94.35,13.43,13.43,0,0,1-3.39-.3,13,13,0,0,1-2-.63,12.47,12.47,0,0,1-2-.28,12.16,12.16,0,0,1-5.92-3.1c-.34-.14-.68-.28-1-.44a11.33,11.33,0,0,1-5.82-4.12,10.92,10.92,0,0,1-4.71-6.33,90.56,90.56,0,0,0,8.44-10.58h0s4.45,2.43,6.51,3.8a6.83,6.83,0,0,0,.93.49,13.58,13.58,0,0,1,3.61,1.31c.84.26,1.73.54,2.76.88a13.49,13.49,0,0,1,3.79,1h1a13.16,13.16,0,0,1,4.74.93c1.48-.24,2.91-.66,4.75-.81s3.93-.17,5.64-.14a13.22,13.22,0,0,1,3.16-.44h.32a14.91,14.91,0,0,1,2-.47c1.93-1.1,4.8-2.75,5.69-3.41,1.37-1,4.46-2.06,8.23-3.82l.54-.25a11.61,11.61,0,0,1,2.81-1.63c.25-.17.52-.3.79-.45a12,12,0,0,1,4.54-2.59c1.61-1.08,3.37-2.28,4.69-3.27a19.82,19.82,0,0,1,6.44-2.63,12.57,12.57,0,0,1,6.66-2.61,14.17,14.17,0,0,1,4.85-.82,14.66,14.66,0,0,1,2.72.27c.24,0,.47,0,.71,0a13.28,13.28,0,0,1,7.47,2.12,12.84,12.84,0,0,1,6.18,2.1,12.1,12.1,0,0,1,6,2.29,12.3,12.3,0,0,1,3.77,1.8,12.9,12.9,0,0,1,2.72.78c1.54,0,3.25-.1,5,0,2.88.14,6.63-1,8.23-.3a14,14,0,0,1,4.07-1.25c4-2.15,9.83-6,11-6.49,1.72-.69,3.09-1.37,11.32-5.6s3.43-1.37,7.2-2.75a16.64,16.64,0,0,1,5.72-1.37c.56-.08,1.33-.13,2.17-.17a13.9,13.9,0,0,1,5.83-1.2c.19,0,.34,0,.52,0a13.54,13.54,0,0,1,3.37-.5h.46a12.71,12.71,0,0,1,2.64.29c.41,0,.82-.06,1.25-.06a15,15,0,0,1,3,.3c.22,0,.44-.07.66-.07h.46a13,13,0,0,1,4.67.92h.13a13.65,13.65,0,0,1,6.22,1.41c.14,0,.28,0,.41,0h1.38a13,13,0,0,1,4.74.94,13.52,13.52,0,0,1,5.64,1.42,13.14,13.14,0,0,1,4.7,1.3h0l1.87.86a12.83,12.83,0,0,1,3.07,1.2,12.24,12.24,0,0,1,6,2.78,11.93,11.93,0,0,1,5.26,2.88l.66-.09.56.6,3.2,2.74,3,3.43-1.6,4.35-4.92,7.31-5.66,5-5.31,4.63a1.32,1.32,0,0,1-1.64,1.28l-.41.13h0a1.27,1.27,0,0,1-.38.51l-.12.09a1.33,1.33,0,0,1-.71.22h-.12l-.28.28c1.09,1.2-8.35,6.23-8.35,6.23l-.62-.08a1.25,1.25,0,0,1-1.09.6h-1.55a1.19,1.19,0,0,1-1-.43,1.26,1.26,0,0,1-.76.26h-.69a1.25,1.25,0,0,1-1.27-1.1,1.22,1.22,0,0,1-1,.41,1.27,1.27,0,0,1-.95-.39,1.58,1.58,0,0,1-.25.05,1.23,1.23,0,0,1-1.15-.71,1.26,1.26,0,0,1-.85-.38l-1.25-1.26-1.72-.74-9.78-6.17,4.86-4.06,5.49-4.12,7.09-4.11,6.86-2.29.09.1.08,0a1.22,1.22,0,0,1,1.09-.6,2.16,2.16,0,0,1,.27,0,1.69,1.69,0,0,1,.24,0,1.31,1.31,0,0,1,1.28,1.65,1.43,1.43,0,0,1-.42,1.92v4.84h7.54a1.21,1.21,0,0,1,.35.07l.46-3.39.77-7.15a1.3,1.3,0,0,1-.66-1.15,1.35,1.35,0,0,1-.33-.92,1.29,1.29,0,0,1-1.22-1.37l0,0a1.25,1.25,0,0,1-1.24-.86h-.48a1.23,1.23,0,0,1-1.24-.9L1209,677.4l-13.66,7.94-9.09,5.57-3.3,5.07v7.16a1.28,1.28,0,0,1,.31.63l2.16,2.15,9.89,5.33,10,4.74,9.38.92s28.35-20.36,28.81-21,4.34-6,4.34-6l2.52-5.48v-6.86Z"/><path class="cls-14" d="M770.61,620.64l1.79-4.48A6.3,6.3,0,0,0,770.61,620.64Zm93.4,48-4.44-6.27a3.25,3.25,0,0,0-.23-.29l-5.84-6.55a1.29,1.29,0,0,0-.16-.17l-6.76-6.57a1.51,1.51,0,0,0-.23-.21l-7.74-6.2-4.08-3.54-4.46-3.88a3.88,3.88,0,0,0-.57-.4L819.3,629l-.19-.1-13.25-6.17-5.38-2.6-.3-.12-9.28-3.39a3.81,3.81,0,0,0-.45-.13l-11.3-2.34-1.68.09-4.3,1.41c-.22.07-2.39,4.87-2.56,5l0,2.53.09,6.71a3.35,3.35,0,0,0,.24,1.17l2.46,6.14,2,5c0,.08.07.15.1.22l4.1,8.35c.07.11.13.22.19.33l4.57,7.1,3,4.08a3.23,3.23,0,0,0,.76.76l9.72,6.86,8,5.18.65.32,5.55,2,.17.06,6.87,2.11.33.08L832,682.16a3.79,3.79,0,0,0,.67.06l10.18-.14,7.09-.1,8.85-.13a3.24,3.24,0,0,0,2.39-1.1l2.71-3.07a3.25,3.25,0,0,0,.82-2.2l-.07-5.05A3.23,3.23,0,0,0,864,668.6Zm134.51-54-.19-.19a1.39,1.39,0,0,0-.59-.36l-4.32-1.35-1.68-.07-11.26,2.5-.46.14-9.23,3.52-.3.13-5.34,2.67L952,628l-.19.1-10.12,5.72-.57.41-4.4,3.94-4,3.6-7.65,6.3-.23.21-6.67,6.67-.16.17-5.75,6.63L912,662l-4.35,6.33a3.24,3.24,0,0,0-.58,1.85v5a3.29,3.29,0,0,0,.85,2.2l2.76,3a3.25,3.25,0,0,0,2.41,1.06H939.2a3.91,3.91,0,0,0,.68-.06l12.53-2.64.33-.09,6.84-2.21.17-.06,5.52-2.12.64-.33,7.93-5.29,9.62-7,.75-.76,2.89-4.13,4.48-7.16.18-.33,4-8.4.1-.23,1.93-5,2.38-6.18c.07-.39.14-.78.22-1.17V619.1A6.3,6.3,0,0,0,998.52,614.65Z"/><path d="M948.29,628.67a510.32,510.32,0,0,1-6.66,4.43c-.25.3-.46.63-.73.9l-1,1a13.18,13.18,0,0,1-1.43,1.16l2.57,9.55,1.22,5.67c.19.9.29,6.61.29,7.53V674l3.43-1.71,3.77-2.4,2.4-3.78,1.6-3.43,1.1-6a8.53,8.53,0,0,0,.39-2.55V626.44Zm-130-.81c-.83-.24-1.67-.45-2.53-.62a11.44,11.44,0,0,1-1.34-.35l.06,1.84.13,3.77.18,5.15.18,5.14.19,5.67.21,6a8.71,8.71,0,0,0,.47,2.53l1.31,5.92,1.71,3.37,2.53,3.69,3.85,2.27,3.49,1.6-.06-1.72-.22-6.51-.24-6.85c0-.92-.13-6.63,0-7.54l1-5.71,2.62-11.29A61.26,61.26,0,0,0,818.69,628Z"/></g></g></g></svg>