<svg xmlns="http://www.w3.org/2000/svg" xmlns:xlink="http://www.w3.org/1999/xlink" viewBox="0 0 4039.87 4148.5"><defs><style>.cls-1{fill:none;}.cls-2{fill:#424242;}.cls-3{fill:#e6e6e6;}.cls-4{opacity:0.1;}.cls-5{opacity:0.6;}.cls-6{fill:#fff;}.cls-7{fill:#231f20;}.cls-8{fill:#f2f2f2;}.cls-9{fill:#7fc431;}.cls-10{fill:#bd6019;}.cls-11{fill:#ff9c2e;}.cls-12{fill:#ff6f21;}.cls-13{opacity:0.2;}.cls-14{fill:#ed3b00;}.cls-15{clip-path:url(#clip-path);}.cls-16{fill:#1c1c1c;}.cls-17{clip-path:url(#clip-path-2);}.cls-18{opacity:0.4;}</style><clipPath id="clip-path"><path class="cls-1" d="M2402.44,1517.68c-6.35,245.93,57.54,368.41,149.34,370.18,66.12,1.27,316.84-39.43,409.4-63.57,54.64-14.26,69.52-168.86,71-243.51,4.73-246-100-459.36-348.19-464.12C2506.49,1113.25,2409.07,1261,2402.44,1517.68Z"/></clipPath><clipPath id="clip-path-2"><path class="cls-1" d="M2317.25,1526.61c-2.86,227.08-66.14,337.79-150.88,336.16-61-1.17-290.84-47.58-375.37-73.13-49.89-15.08-58.13-158.21-56.81-227.12,4.36-227,108.54-420.17,337.63-415.77C2235.61,1149.89,2320.23,1289.65,2317.25,1526.61Z"/></clipPath></defs><g id="Слой_2" data-name="Слой 2"><g id="Layer_3" data-name="Layer 3"><path class="cls-2" d="M1354.11,2186.1a501.1,501.1,0,0,1-199,61.34c-71.12,5.93-148.38-7.13-215.27-45.64-33.37-18.93-63.71-43.13-90.9-70.26-12.75-14.05-26.26-28-37.34-43.29-12.13-14.86-22.33-30.61-32.63-46.48-40.63-63.8-68.43-132.91-90.5-202.47l-.13-.41a82.32,82.32,0,0,1,156.92-49.8,87.82,87.82,0,0,1,3.31,15.46c7.18,62.21,19.24,123.63,41.38,179.77,5.65,13.93,11.21,28.1,18.29,41.11,6.25,13.8,14.4,25.89,22,38.81,16.52,24.39,35.6,47,58,66.34,44.56,38.94,103.62,62.52,167.33,69.61,63.62,6.66,131.44-.82,194.9-21.65l.32-.1a4.2,4.2,0,0,1,3.35,7.66Z"/><g id="_7" data-name="7"><path class="cls-3" d="M566,1775.47c-21.64,16.19-31.23,44.27-33.28,71.21-1.34,17.59.24,36.11,9.34,51.22,19.94,33.13,65.6,37.18,104.26,36.72,99.58-1.19,207.35-10.84,281.83-76.94,20.92-18.56,38.81-42,44.58-69.39s-2.79-58.87-25.7-74.92c-16.83-11.8-38.45-13.92-59-14.67a641.07,641.07,0,0,0-350.73,90.35"/><g class="cls-4"><path d="M972.69,1788.29c-5.77,27.37-23.66,50.83-44.58,69.39-74.48,66.1-182.25,75.75-281.83,76.94-38.66.46-84.32-3.59-104.26-36.72-9.1-15.11-10.68-33.63-9.34-51.22,2.05-26.94,11.64-55,33.28-71.21l-28.7,13.59A641,641,0,0,1,888,1698.7c20.55.75,42.17,2.87,59,14.67C969.9,1729.42,978.47,1760.93,972.69,1788.29Zm-130.45,10.34c-29.89-2.57-57.2,6.42-83.68,21-69.62,38.43-159,54.46-164.56,54.46a11.71,11.71,0,0,0-3.86.69c-1.13-.15-2.75-1.41-3.39-.45-28.47,42.7,100.39,23.76,121,21.27,134.59-16.31,205.92-60.31,217.39-82.82C928.64,1805.88,899.18,1803.53,842.24,1798.63Z"/></g><path class="cls-3" d="M.47,1088.32c3.68,9.85,267.15,279.53,267.15,279.53S307.11,1780.9,468,1837.29s318-67,318-67,203.81,57.36,278.48-48.38,46-221.64,120.75-329.33,100.9-142.26,100.9-142.26S1252.76,1081.57,1152,1134s-220.69,256.74-220.69,256.74S916.08,1284.89,883.68,1249s-64.88-67.89-64.88-67.89,66.9-193.81,42.39-319.38S816.27,688.82,747.94,687.27,612.6,711.54,602.31,734.75s7.51,99.79,11.2,195.59l-3.89,171.8S578.23,935.4,511.71,853.8,383.42,739.55,314.33,771.19s-105.42,83.55-105.42,83.55L272.47,981.2S167.12,889,78.11,937.72.47,1088.32.47,1088.32Z"/><g class="cls-4"><path d="M1286.06,1250.31s-26.18,34.57-100.9,142.26-46.08,223.59-120.75,329.33-278.48,48.37-278.48,48.37-157.11,123.41-318,67-200.35-469.44-200.35-469.44S4.15,1098.17.47,1088.32c0,0-3.43-31,8.42-67,13.2-35.28,39.85-49.53,37.91-38.82-7,38.83-8.28,51.8,17.7,79.42,99.12,105.36,232.61,239.28,237.57,234.69,30.79-28.42,69.84-45.4,100.37-74.44,7.54-7.17,13-13.91,11.77-24.85-1.76-15.09-9-30.1-16-43.33-39.26-74.79-91-147.46-160.93-196.35-4.22-2.95-8.47-5.81-12.75-8.62a282.84,282.84,0,0,1,47.93,32.17L208.91,854.74s7.13-10.16,21-24.23c-.47,6.37,45.37,14.39,52.49,17.18C312.28,859.38,433.33,1026.6,474,1175.11c1.43,5.21,9.94,11.63,14.48,9.14,31.09-17,100.49-24.88,133.37-35.79.63-9.75-10.35-41.28-10.35-41.28s10.29-293.69-9.21-372.43c-2.09-8.44,13.71-16.2,28.31-23.56,7.85-1.24,15.7.12,22.83,6.22,15,12.82,21,35.53,25.33,53.87,9.83,41.75,12,86.67,9.11,129.43-4,58.64-20.12,119.85-4.31,178.1,6.41,23.66,19.78,45,43.19,54.45s50.73,9.46,75.36,7.32c8.69-.75,19.09-2,30.23-3.89-7.66,27.33-13.56,44.42-13.56,44.42s32.49,32,64.88,67.89c23,25.49,38.27,112.33,44.65,145.41-30.1-31.94-187.14,14.35-229.65,33.39-13.12.67,195.26,78.84,121.38,281.78,33.73,15.13,137.62,15.84,167.11-4.1,133.17-90.06,64-185.37,68.14-209.42,23-132.41,97.06-203.49,156-244.53,19.23-13.39,70.08-24.28,74.73-1.32ZM364.11,1435.82c36.94,26.56,88.39,38.62,127.53,16.58,77.13-43.45,259.52-100.68,310.64-113.07,28.33-6.86,73.25.25,84.9-33,15.36-43.78-56-108.93-85-119.43-37.85-13.69-135.49-7.51-173.87-.17-113.14,21.64-217.32,76-293.06,157.37C308.65,1372.68,336.28,1415.81,364.11,1435.82Zm420.15,193.79c-4.12-78.33-99.71-199.2-176.58-180.72C462.32,1483.84,295.59,1575.2,457.35,1717c57.71,50.61,129.35,80.59,203.09,61.77C729.29,1761.23,788.21,1704.58,784.26,1629.61Z"/></g><g class="cls-5"><path class="cls-6" d="M48.45,1018.27C45,975.4,88,939.51,130.92,937.1s83.44,20,117.42,46.36c56.7,44,102.68,100.78,139.81,162.22,6.53,10.8,13,22.24,13.93,34.83s-5.1,26.61-17,30.86c-16.46,5.9-32.61-8.54-44.17-21.65L226.56,1060c-24.28-27.53-50-56.07-84.35-69S62.33,987,46,1019.86"/></g><g class="cls-5"><path class="cls-6" d="M244.94,820.08c41.78-37.76,101.78-61.33,155.13-43.3,39.58,13.38,80.23,48.44,104.16,82.69,51.77,74.09,76.89,157.18,95.33,245.66,1,4.66,7.14,13.88,5.43,18.32-2.24,5.79-85.27,49.38-93.69,13.27-20.06-86-141.35-278.34-179-296.55s-54.8-34.46-90.48-12.59"/></g><g class="cls-5"><path class="cls-6" d="M710.06,696.66c25-1.17,52.22-1.71,72.38,13.14,14.94,11,38.52,41.13,45.08,58.48,30.16,79.8,30.44,151.55,18.7,239.73-4.62,34.68-18.37,114.08-32,120.19-21.77,9.76-91.8-9-88.66-27.67,22.53-133.93,12.87-296.3-9.26-361.45-7.43-21.87-26.14-25.07-47.47-33.92Z"/></g><g class="cls-5"><path class="cls-6" d="M333.41,1360.52c87.82-97.62,213.3-157.43,343.07-177.58,37-5.75,75.59-8.35,111.5,2.41s69,37.14,79,73.26c3.2,11.47,9.89,31-1.36,34.9-63.86,22.21-48.08-57.78-122.73-52-148.8,11.53-279.83,41.72-408.31,117.64-.41,3.74-7.33,3.6-7.59-.15s6.58-4.84,7.5-1.19"/></g><g class="cls-5"><path class="cls-6" d="M764.15,1587.69A173.41,173.41,0,0,0,740,1543.05a197.47,197.47,0,0,0-12.77-20.21,183.87,183.87,0,0,0-38.42-39.46c-16.71-12.6-32.77-17.41-52.66-22.71a1.4,1.4,0,0,0-1.39.42c-1.45-.36-2.92-.69-4.41-.93-11.88-2-24,0-35.81,2.57a371.21,371.21,0,0,0-128.19,54.66c61.66-25.24,136.43-15.91,189.73,24.19,55.06,41.42,84.93,113.94,75,182.12C771,1693.66,780.92,1634.74,764.15,1587.69Z"/></g><g class="cls-5"><path class="cls-6" d="M455.4,1526.28c.88,2.79,6-1.27,3.07-1.69l-1.89-.42c3.21-2.32,6.48-4.57,9.77-6.78q-3,1.24-6,2.6C457.65,1521.2,454.52,1523.5,455.4,1526.28Z"/></g><g class="cls-5"><path class="cls-6" d="M1271.17,1217.12a13.48,13.48,0,0,0,1-9.82c-5.12-18.84-14.86-36.31-29.88-49a101.55,101.55,0,0,0-14.35-10.14c-9.34-9.85-20.57-17.35-33.63-19.49-.25-.11-.5-.23-.76-.33-4.23-1.72-7.91-1.53-10.88-.14-15.41,1.24-30.07,9.36-43.18,18.08-86.88,57.85-145.83,148.31-199.83,237.64l-7.15,6.62q.82,6.68,1.64,13.34a191.21,191.21,0,0,0-138.07,43.86,248.37,248.37,0,0,1,151,70.53c16.44,16.35,45.47,127.16,88.82,88.93,8.4-7.41,6-53.72,7.41-64.84,8.68-68.77-72.92-112.43-71.5-116,30.07-76.46,126.46-158.66,182.8-218.46,16.73-17.75,63.65,49.74,124.25,26.38C1277.47,1229.85,1274.64,1223.8,1271.17,1217.12Z"/></g></g><path class="cls-2" d="M3691,2587.56a27.43,27.43,0,0,1-7.57-53.78c117.17-33.71,302.65-115.65,301.57-192-.44-31-39.5-112.8-391.74-203.41a27.42,27.42,0,0,1,13.66-53.12c294,75.62,431.53,156.9,432.91,255.78,2,142.74-306.11,235.38-341.25,245.47A27.31,27.31,0,0,1,3691,2587.56Z"/><g class="cls-4"><ellipse class="cls-7" cx="2558.43" cy="3882.26" rx="1235.5" ry="266.24"/></g><path class="cls-2" d="M2346.62,3701.57a27.42,27.42,0,0,1-27.28-30.65c.5-4.19,47.68-424.36-115.57-896.6a27.43,27.43,0,0,1,51.84-17.93c167.55,484.71,120.28,903.42,118.2,921A27.44,27.44,0,0,1,2346.62,3701.57Z"/><path class="cls-2" d="M2969.47,3774.9a27.42,27.42,0,0,1-25.51-17.34c-1.93-4.88-194.51-493.95-341.88-1044.07a27.42,27.42,0,0,1,53-14.2c146.52,547,338,1033.26,339.89,1038.1a27.42,27.42,0,0,1-25.48,37.51Z"/><path class="cls-8" d="M1521.81,3907.83c0,1.15,0,2.29,0,3.44,45.31,27.07,92.66,49.64,142.07,66.53a631.91,631.91,0,0,0,148.55,31.89A746.94,746.94,0,0,0,1993,4004c62.4-9.67,123.17-28.06,184.82-41.36,17.32-3.71,92.5-16.61,112.86-14.48,18.43,0,37.3,4.1,55.61,5,43.25-31.61,62.59-99.49,65.71-148.74a236.69,236.69,0,0,0-8.09-77.75c-.52-2-1.11-3.94-1.7-5.88v0c-1.23-4.22-2.61-8.36-4.07-12.51a4.75,4.75,0,0,0,.44-.59,3.24,3.24,0,0,0,.47-.83,1,1,0,0,0,.16-.27c.47-.08,1-.08,1.46-.16,28.57-3.83,55.68-27.66,53.83-58.25-1.26-20.88-16.58-40.33-33.63-56.35a352.47,352.47,0,0,0-28-23.33,286.68,286.68,0,0,0-36.11-23.6c-4.5-2.52-9-4.89-13.66-7.1a268.08,268.08,0,0,0-45.94-17.29c-4.85-1.34-9.86-2.56-15-3.67h0c-5.17-1.1-10.5-2.05-15.83-2.76-17.6-2.29-35.59-1.85-51.69,4.3a68.42,68.42,0,0,0-21,12.59c-23.32,20.48-25.37,51.46-10.65,76.64a78.81,78.81,0,0,0,5.36,7.93c.44.52.87,1,1.31,1.5,0,0,0,0,0,.08a.8.8,0,0,1,.05.51v0c-.24.75-1.27,1.82-3,3.16a4.85,4.85,0,0,0-.56.4c-12.27,9-53.9,28.41-94.4,33.82-18.54,2.44-36.85,2-52-3.75-56.55-21.47-101.26-65.67-158.65-86.15-.59-.2-1.22-.44-1.81-.63h0a192.86,192.86,0,0,0-80.94-9.36c-.79.28-1.62.52-2.41.83-5.56,1.82-11.09,3.87-16.57,6.08-115.91,46.33-223,168.2-250.56,287a258.55,258.55,0,0,0-6.16,39.27Q1521.74,3898.13,1521.81,3907.83Z"/><g class="cls-4"><path d="M1521.81,3907.83c0,1.15,0,2.29,0,3.44,45.31,27.07,92.66,49.64,142.07,66.53a631.91,631.91,0,0,0,148.55,31.89A746.94,746.94,0,0,0,1993,4004c62.4-9.67,123.17-28.06,184.82-41.36,17.32-3.71,92.5-16.61,112.86-14.48,18.43,0,37.3,4.1,55.61,5,43.25-31.61,62.59-99.49,65.71-148.74a236.69,236.69,0,0,0-8.09-77.75c-.52-2-1.11-3.94-1.7-5.88v0c-1.23-4.22-2.61-8.36-4.07-12.51a4.75,4.75,0,0,0,.44-.59,3.24,3.24,0,0,0,.47-.83,1,1,0,0,0,.16-.27c.47-.08,1-.08,1.46-.16,28.57-3.83,55.68-27.66,53.83-58.25-1.26-20.88-16.58-40.33-33.63-56.35a352.47,352.47,0,0,0-28-23.33,286.68,286.68,0,0,0-36.11-23.6c-4.5-2.52-9-4.89-13.66-7.1a152.44,152.44,0,0,1-5.64,30c-2,11.8-6.79,32.17-15.08,48.94-2.09,6.9-8.09,37.65-24,40a2.52,2.52,0,0,1-.79.12.88.88,0,0,1-.32,0c-1.22-.55-2.48-1.14-3.74-1.74a8.85,8.85,0,0,1-1.07-.43c-9.71-4.42-19.89-8.52-30.11-12.31a2.78,2.78,0,0,0-.52-.2c-23.91-9-47.91-16.5-65.94-22.93a1.73,1.73,0,0,0-.2,0c-2.13-.71-4.14-1.46-6-2.17a.8.8,0,0,1,.05.51v0c-.24.75-1.27,1.82-3,3.16a4.85,4.85,0,0,0-.56.4c18.87,15.82,50.79,38.2,65.2,46,6,3.28,12.19,6.71,18.47,10.1.23.12.47.28.75.4,14.16,7.77,28.89,15.23,43.53,20.13.11.31.23.59.35.9v0c1.15,3,2.21,5.92,3.12,8.92,14.17,44.44,6.51,88.64-10.18,132.25,0,.15-.12.27-.16.43-9.47,25.06-32.2,42.74-59,44.16-33-9-61.25-12.86-87.41-13.42-10.7,1.58-21.35,3.16-31.69,5.65-32.44,7.69-63.82,19-95.39,29.55-54.3,18.12-108.48,33.94-165.12,42.82-102.6,16-213.14,15.12-310.74-24A299.56,299.56,0,0,1,1521.81,3907.83Z"/></g><g class="cls-4"><path class="cls-6" d="M2180.82,3765.78c1.68-21.88,10-43.18,24.79-59.42,12.85-14.14,45.32-6.61,61.45-2,13.05,3.75,25.46,12.09,30.77,24.59,5.85,13.77,2.19,29.54-1.87,43.94-5.56,19.71-12.1,39.91-25.8,55.14s-36.42,24.18-55.22,16.06c-13.78-5.95-22.75-19.62-28-33.68A105.35,105.35,0,0,1,2180.82,3765.78Z"/></g><path class="cls-8" d="M2646.27,3923.59q9.67,8.88,19.94,16.89c50.17,39.21,111.1,64.09,173.47,78.7,18.36,4.34,36.86,7.78,55.26,10.4,102.7,14.76,218.08,9.36,314.75-31.15,31.82-13.31,58.69-31.88,84.09-55.11,4.77-4.31,9.46-8.66,14.16-12.93a406,406,0,0,0-10.13-46.78c-1.12-4-2.27-8-3.54-11.91a364.35,364.35,0,0,0-29.11-67.59l-.42-.63c-18.43-26.38-39.46-51.19-64.51-71.51a248.5,248.5,0,0,0-30.59-21.27c-3.68-2.18-7.43-4.28-11.24-6.24a2.27,2.27,0,0,0-.28-.18c-.53-.28-1.06-.52-1.55-.77q-8.82-4.52-18-8.27c.07-.21.14-.42.21-.66v-.07a19,19,0,0,0,.6-2.1c0-.07,0-.14.07-.25,3-12.86-.91-27.71-9.46-41.38a182.78,182.78,0,0,0-40.33-45.06A190,190,0,0,0,3041,3577.3a183,183,0,0,0-21.83-7.25,185.37,185.37,0,0,0-22.81-4.48c-1.37-.18-2.77-.35-4.13-.49-49.23-5.29-99.86,10.4-138,41.9-4,3.33-7.95,6.84-11.66,10.51l-.53.53c-14.29,14.23-30.24,35.84-28.28,56.76-.35.18-.73.32-1.08.49a0,0,0,0,0,0,0c-5.15,2.31-10.26,4.73-15.27,7.32,0,0-.07,0-.11,0-36.4,18.53-69.44,43.23-94.6,75.71a241.73,241.73,0,0,0-41.84,82.52c-1.44,3.68-2.8,7.39-4.1,11-.87,2.42-1.61,4.83-2.42,7.25-.17.77-.31,1.54-.49,2.31v0q-2.1,10.2-3.61,20.46A412.88,412.88,0,0,0,2646.27,3923.59Z"/><g class="cls-4"><path d="M3169.64,3710.7c-3.68-2.18-7.43-4.28-11.24-6.24q5.71,3.15,11.35,6.62Z"/></g><g class="cls-4"><path d="M2832,3672.06c3.37-.54,6.73-1.09,10.14-1.59,5-.77,10.12-1.47,15.2-2.17.56-.07,1.09-.14,1.65-.25,2.84-.35,5.68-.73,8.51-1.08,1.23-.14,2.49-.32,3.72-.46h.07c4.41-.56,8.86-1.05,13.35-1.54,33.56-3.54,68-5.29,102.1-3.92,3.93.17,7.88.35,11.81.59,3.71.25,7.43.53,11.14.84a3.77,3.77,0,0,1,.67,0c1.19.1,2.38.21,3.57.35.94.07,1.89.17,2.83.27.52.05,1,.09,1.57.15,2.46.24,4.88.5,7.34.81.79.05,1.55.16,2.33.26l2.54.32,4.9.64c2.6.35,5.19.77,7.75,1.16,1,.14,2.07.31,3.08.49,2.31.38,4.63.77,6.94,1.19,3.85.7,7.71,1.44,11.56,2.28,1.58.35,3.19.66,4.77,1a.2.2,0,0,1,.14,0c2.69.63,5.43,1.26,8.13,1.93,2.94.73,5.88,1.47,8.79,2.27,2.66.74,5.33,1.51,8,2.28.63.18,1.23.35,1.86.56,2.52.77,5,1.54,7.53,2.38,2.87,1,5.71,1.93,8.55,2.91,2.21.81,4.41,1.61,6.59,2.49q10,3.74,19.65,8.27c2.39,1.09,4.77,2.21,7.12,3.36a.23.23,0,0,1-.07-.07c-1.86-1.71-3.72-3.4-5.65-5.08l-.73-.63c4.83-47.74-49.76-83.53-49.79-86.44A190,190,0,0,0,3041,3577.3c3.26,19.84,2,43.7-2.42,64.16-6.83-1.51-13.63-2.84-20.46-4-61-10.45-120.57-6.56-165.84,17.55a148.29,148.29,0,0,0-26.7,18.05l0,0C2827.67,3672.74,2829.83,3672.4,2832,3672.06Z"/></g><g class="cls-4"><path d="M2839.68,4019.18c18.36,4.34,36.86,7.78,55.26,10.4,102.7,14.76,218.08,9.36,314.75-31.15,31.82-13.31,58.69-31.88,84.09-55.11,4.77-4.31,9.46-8.66,14.16-12.93a406,406,0,0,0-10.13-46.78c-46.07,47.48-109.74,83.5-163.56,103.86A590.87,590.87,0,0,1,2839.68,4019.18Z"/></g><path class="cls-9" d="M2501.44,518.58S2297.28,48,1884.63,3.22C1431.27-45.95,1213,483.86,1213,483.86s231.52,345.77,671.9,105.62C2226.53,403.19,2402.84,446.75,2501.44,518.58Z"/><path class="cls-10" d="M2488.78,680.14l-92.58-26.09,46.29,13-46.32-13c.74-2.68,71.44-271.29-69.41-519.76l12-43.4,71.48-4.45C2571.44,371,2492.23,667.65,2488.78,680.14Z"/><ellipse class="cls-11" cx="2451.34" cy="1747.7" rx="1333.86" ry="1201.74"/><path class="cls-12" d="M1117.49,1747.7C1117.49,1084,1642,257.8,2451.34,546c-1147.23-16.76-1173.55,2284.42,0,2403.48C1714.68,2949.44,1117.49,2411.4,1117.49,1747.7Z"/><g id="_1" data-name="1"><g class="cls-13"><path class="cls-14" d="M2371.9,1501.66c-7,270,63.17,404.45,163.94,406.39,72.59,1.39,347.82-43.28,449.44-69.79,60-15.65,76.31-185.37,77.89-267.33,5.18-270-109.79-504.29-382.25-509.52C2486.13,1057.67,2379.18,1219.91,2371.9,1501.66Z"/></g><path class="cls-6" d="M2402.44,1517.68c-6.35,245.93,57.54,368.41,149.34,370.18,66.12,1.27,316.84-39.43,409.4-63.57,54.64-14.26,69.52-168.86,71-243.51,4.73-246-100-459.36-348.19-464.12C2506.49,1113.25,2409.07,1261,2402.44,1517.68Z"/><g class="cls-15"><ellipse class="cls-16" cx="2705.91" cy="1545.02" rx="199.82" ry="199.81" transform="translate(-400.22 1298.04) rotate(-25.18)"/><circle class="cls-6" cx="2586.89" cy="1450.34" r="88.93" transform="translate(-371.25 1238.4) rotate(-25.18)"/><circle class="cls-6" cx="2768.58" cy="1603.06" r="31.3" transform="translate(-418.96 1330.22) rotate(-25.18)"/></g><g class="cls-13"><path class="cls-14" d="M2348.85,1512.62c-3.17,251.51-73.26,374.14-167.11,372.34-67.61-1.3-322.15-52.71-415.77-81-55.26-16.7-64.39-175.24-62.92-251.57,4.83-251.48,120.21-465.38,374-460.51C2258.43,1095.35,2352.16,1250.15,2348.85,1512.62Z"/></g><path class="cls-6" d="M2317.25,1526.61c-2.86,227.08-66.14,337.79-150.88,336.16-61-1.17-290.84-47.58-375.37-73.13-49.89-15.08-58.13-158.21-56.81-227.12,4.36-227,108.54-420.17,337.63-415.77C2235.61,1149.89,2320.23,1289.65,2317.25,1526.61Z"/><g class="cls-17"><ellipse class="cls-16" cx="2072.59" cy="1530.9" rx="184.45" ry="184.44" transform="translate(-503.77 1571.75) rotate(-37.36)"/><circle class="cls-6" cx="1965.47" cy="1447.05" r="82.09" transform="matrix(0.79, -0.61, 0.61, 0.79, -474.86, 1489.54)"/><circle class="cls-6" cx="2125.83" cy="1590.45" r="28.89" transform="translate(-528.98 1616.27) rotate(-37.36)"/></g><path class="cls-14" d="M2987.76,1119.55S2847,963.82,2708.66,967.86s-259.23,31.81-259.23,31.81-20.9-14.58-13.46-53.45l7.43-38.87S2484,941.57,2483,936s-3.85-31.28-3.85-31.28,160.2-41.51,314,19.4S2987.76,1119.55,2987.76,1119.55Z"/><path class="cls-14" d="M1775.94,1123s141.93-147.21,275.46-138.18,249.39,40.37,249.39,40.37,20.71-11.41,15-49.26L2310,938.07s-40.5,31.57-39.32,26.2,4.89-30.1,4.89-30.1-153.31-46.07-304.21,7.11S1775.94,1123,1775.94,1123Z"/></g><path class="cls-14" d="M2421.06,2251.56c141.16,156.2,479.51,108.69,525.05-278.14C2946.11,1973.42,2799.26,2469.27,2421.06,2251.56Z"/><path class="cls-14" d="M2858.34,1960.42s137.07-38.61,130.64,93.81C2989,2054.23,2984.1,1970,2858.34,1960.42Z"/><path class="cls-14" d="M2485.16,2224.36s-99.82-14.36-84.78,81.33C2400.38,2305.69,2410.18,2237.26,2485.16,2224.36Z"/><g id="_13" data-name="13"><path class="cls-3" d="M3682.51,2727.67s12.85,47.88,55.82,39.81,65.42-101.28,39.91-220.22c-30.91-144.08-77.1-209.87-133.15-183.88S3682.51,2727.67,3682.51,2727.67Z"/><g class="cls-4"><path d="M3640.84,2366.2c16.35,9.19,37.28,15.23,50.13,29.38,27,29.77,37.78,68.91,47.54,107,38.75,151.2,2.12,223.34-12.47,228.5-20.74,7.34-35,10.34-44.57-7.24.67,2.49,1,3.81,1,3.81s12.85,47.88,55.82,39.81,65.42-101.28,39.91-220.22c-30.91-144.08-77.1-209.87-133.15-183.88A17.55,17.55,0,0,0,3640.84,2366.2Z"/></g><path class="cls-3" d="M3220.29,2861.81c23.74,24.12,61.78,40.63,66.39,44.6s173.23,11,289-36.85,106.19-57.64,125.16-116.32S3662.6,2333,3593.52,2294.73c-61.31-34-227.82-47.3-287-24.46-48.69,18.81-57.08,144.16-57.08,144.16l-56.16,20.21s-88.64-24-96.79,82c-4.85,63,48.58,68.24,48.58,68.24s-22.64,39.06-6.87,107.65c10.44,45.4,78.36,56.85,78.36,56.85S3176.08,2816.93,3220.29,2861.81Z"/><g class="cls-18"><path class="cls-6" d="M3386.54,2416.4c-62.81,25-152.85,18.27-166,94.48-10.88,62.82,20.08,127.15,28.87,189.26,4.72,33.35,21.33,61.46,24.19,95.82,1.93,23.17-1.92,34.69,14.82,54.54,11.79,14,15,11.87,31.66,17.17,67.5,21.52,187.86-6.44,252.66-33.27,87.14-36.07,98.23-78.7,100.46-160.85,2.17-79.73-22.54-177.54-49.29-252.58-31.86-89.37-88-65.69-112.83-55.84C3469.63,2381.55,3427.92,2399.89,3386.54,2416.4Z"/></g><g class="cls-5"><path class="cls-6" d="M3371.48,2272.54c11.88-4.55,23.91-9,35.95-13.52-41.26-.8-78.65,2.67-100.88,11.25-13.61,5.27-24.06,18.85-32.07,35.69C3308.05,2294,3342.05,2283.81,3371.48,2272.54Z"/></g><g class="cls-4"><path d="M3421.35,2320.28c-10.13-1.18-87.7-14.48-81.76-6,35.86,51.12-90.77,100.81-90.77,100.81,8.93-1.7,60.54-21.66,109.48-44.28C3378.23,2361.58,3391.51,2336.52,3421.35,2320.28Z"/></g><g class="cls-4"><path d="M3143.08,2584.56c10.58,1.12,21.18,2,31.79,2.73,4.24.29,10.93,43.51,15.17,43.77-2-5.72,6.81-46.47-17.57-82.6-3.19.62,1.12,22.72-2.17,22.93-54.27,3.53-57.36-14.54-69.11-19.6C3111.73,2577.18,3136,2583.29,3143.08,2584.56Z"/></g><g class="cls-4"><path d="M3216.59,2749.37s10.95,6.09,10.68,23.05c0,1.31,19.1-17.73-19.82-67,0,0,6.92,20,1.75,20.37-32.35,2.27-46.06-8.26-65.74-24.92C3158.75,2740.55,3216.59,2749.37,3216.59,2749.37Z"/></g><g class="cls-4"><path d="M3639.58,2432c15.15,56.84,31.9,113.65,41.76,171.7,9.46,55.71,15.15,119.8-10.9,172.09a125.9,125.9,0,0,1-55.63,56.4c-36.57,18.71-78.16,31.05-117.87,41-84.34,21.12-175.76,27.07-259.38-.29,20.56,13.73,46.81,31.48,49.12,33.47,4.61,4,173.23,11,289-36.85s106.19-57.64,125.16-116.32S3662.6,2333,3593.52,2294.73c-10.68-5.92-24.56-11.21-40.51-15.79,1.46,1.93,3.38,4,5.45,6.29C3605,2316.24,3625.13,2377.77,3639.58,2432Z"/></g><g class="cls-5"><path class="cls-6" d="M3329.71,2393.73c41.41-6.62,144.14-19.15,173-67.23,8.67-14.43,6.08-50-49.47-53.12-42.86-2.41-86.86,0-129.78.68-5,.07-18,5.88-22.76,7.41-29.8,9.55-37.35,83.86-42.95,103.65,20.68,2.6,51.31-28.58,52.34-49.4.55-11.24-2.49-25.63,7.28-31.22,3.08-1.76,6.77-2,10.31-2.21a443.83,443.83,0,0,1,113.76,8.88c-42.52,27.61-21.15,43.44-105.61,77.46"/></g></g></g></g></svg>