<svg xmlns="http://www.w3.org/2000/svg" viewBox="0 0 598.38 270.99"><defs><style>.cls-1{fill:#8cc8e1;}</style></defs><g id="Слой_2" data-name="Слой 2"><g id="Artwork"><path class="cls-1" d="M63.64,44a1.32,1.32,0,0,0-1-1,.75.75,0,0,0-.42,0,1.25,1.25,0,0,0-.74,0,1.4,1.4,0,0,0-.86,1.72,1.55,1.55,0,0,0,2.41.76A1.45,1.45,0,0,0,63.64,44Z"/><path class="cls-1" d="M82.06,46.66c-1.14,0-1,1.79.1,1.79S83.21,46.66,82.06,46.66Z"/><path class="cls-1" d="M62.41,79.09a1.19,1.19,0,0,0-1,.65A1.24,1.24,0,0,0,61.47,81a.5.5,0,0,0,.08.12,1.12,1.12,0,0,0,1.74.14,3,3,0,0,0,.25-.37A1.21,1.21,0,0,0,62.41,79.09Z"/><path class="cls-1" d="M72.61,121.19a.94.94,0,0,0-.8-.68.88.88,0,0,0-.87.55.91.91,0,1,0,1.67.13Z"/><path class="cls-1" d="M67,117l-.25.06a.35.35,0,0,0,0,.67l.26.07C67.65,117.94,67.69,116.81,67,117Z"/><path class="cls-1" d="M111,43.66c-1.5,0-1.38,2.34.13,2.34S112.47,43.66,111,43.66Z"/><path class="cls-1" d="M76.22,46.8a1.1,1.1,0,0,1-.27,0,.6.6,0,0,0-.8.25l0,0a.52.52,0,0,0,0,.51l0,0a.58.58,0,0,0,.72.2l.24,0a.49.49,0,0,0,.08-1Z"/><path class="cls-1" d="M99.57,63.62a0,0,0,0,0,0,.06S99.6,63.62,99.57,63.62Z"/><path class="cls-1" d="M99.26,58.77l-.13-.19a.79.79,0,0,0-1.35.07l-.14.2c-.41.61.24,1.41.89,1.37A.94.94,0,0,0,99.26,58.77Z"/><path class="cls-1" d="M97.63,35.48l-.48.17a.77.77,0,0,0-.52.76.79.79,0,0,0,.59.7l.51.18c.59.21,1.17-.41,1.14-1A1,1,0,0,0,97.63,35.48Z"/><path class="cls-1" d="M103,137.4a.63.63,0,0,0-.73-.06l-.08,0a.61.61,0,0,0-.28.48v0c-.14.36.15.85.58.68a.2.2,0,0,0,.08,0,.61.61,0,0,0,.53-.34l0-.08A.63.63,0,0,0,103,137.4Z"/><path class="cls-1" d="M78.8,109.37c-.84,0-.77,1.3.07,1.3S79.64,109.37,78.8,109.37Z"/><path class="cls-1" d="M63.28,138.61l-.41.11a.79.79,0,0,0-.54.8.82.82,0,0,0,.63.74l.41.11a.91.91,0,1,0-.09-1.76Z"/><path class="cls-1" d="M54.26,104.83c-.72,0-.66,1.11.06,1.11S55,104.83,54.26,104.83Z"/><path class="cls-1" d="M57.76,100.48c-1.75,0-1.6,2.71.15,2.71S59.51,100.48,57.76,100.48Z"/><path class="cls-1" d="M53.91,70.14l0-.17a.7.7,0,0,0-.72-.49.71.71,0,0,0-.66.56l0,.17a.75.75,0,1,0,1.45-.07Z"/><path class="cls-1" d="M34.87,64.13a.93.93,0,0,0-.33-.12.75.75,0,1,0,.07,1.44,1.36,1.36,0,0,0,.33-.14A.69.69,0,0,0,34.87,64.13Z"/><path class="cls-1" d="M36.56,69.13c0,.32,0,.61.25.85a.45.45,0,0,0,.62,0c.25-.22.2-.56.22-.87C37.69,68.39,36.52,68.42,36.56,69.13Z"/><path class="cls-1" d="M65.87,19.57a.83.83,0,0,0-1.17.55,2.66,2.66,0,0,0-.1.75.63.63,0,0,0,1,.49,2.67,2.67,0,0,0,.54-.52A.83.83,0,0,0,65.87,19.57Z"/><path class="cls-1" d="M75.77,32.56a.73.73,0,0,0-1.18.38l-.09.32a.54.54,0,0,0,.69.61l.33-.09A.72.72,0,0,0,75.77,32.56Z"/><path class="cls-1" d="M122.45,32a2.15,2.15,0,0,0-.56.12,3.93,3.93,0,0,0-.5.26.49.49,0,0,0,.29.9,5.58,5.58,0,0,0,.57-.08,2.19,2.19,0,0,0,.51-.25A.52.52,0,0,0,122.45,32Z"/><path class="cls-1" d="M141.54,39.5c-.89,0-.82,1.38.07,1.38S142.42,39.5,141.54,39.5Z"/><path class="cls-1" d="M115.64,42.47a.69.69,0,0,0-1,0,1.93,1.93,0,0,0-.3.61.56.56,0,0,0,.72.65,1.56,1.56,0,0,0,.47-.22A.7.7,0,0,0,115.64,42.47Z"/><path class="cls-1" d="M31.46,40.21a1.75,1.75,0,0,0-.4,0,.84.84,0,0,0-.79.87.86.86,0,0,0,.88.79,1.76,1.76,0,0,0,.39-.06A.81.81,0,0,0,32.1,41,.84.84,0,0,0,31.46,40.21Z"/><path class="cls-1" d="M11.22,53a.69.69,0,0,0-.47,0c-.4.16-.55.81-.08,1a.92.92,0,0,0,.61.05.55.55,0,0,0,.37-.41.39.39,0,0,0,0-.15A.56.56,0,0,0,11.22,53Z"/><path class="cls-1" d="M15.8,55.73c-.72,0-.65,1.11.06,1.11S16.52,55.73,15.8,55.73Z"/><path class="cls-1" d="M18.69,42.05a1,1,0,0,0-.87-.89,1,1,0,0,0-1,.74v.17a1,1,0,0,0,.5,1.07.91.91,0,0,0,.74.06,1,1,0,0,0,.66-1Z"/><path class="cls-1" d="M25.1,51.07s0,.06,0,.06S25.14,51.07,25.1,51.07Z"/><path class="cls-1" d="M23.46,76.43c.24-.25-.13-.61-.41-.45a.94.94,0,0,0,.15,1.57.59.59,0,0,0,.86-.48A.61.61,0,0,0,23.46,76.43Z"/><path class="cls-1" d="M40.87,85.3l-.53,0A.48.48,0,0,0,40,86l.32.42a.74.74,0,1,0,.58-1.15Z"/><path class="cls-1" d="M43.64,80a1.17,1.17,0,0,0-.81-.27,1.73,1.73,0,0,0-1.12.24,1.42,1.42,0,0,0-.67,1.3l0,.19a1.28,1.28,0,0,0,1,1.15l.16,0a1.53,1.53,0,0,0,1.63-.77,1.65,1.65,0,0,0,.18-.78A1.21,1.21,0,0,0,43.64,80Z"/><path class="cls-1" d="M71.21,65.7l-.3,0c-.38.05-.5.66-.06.72l.34.05a.5.5,0,0,0,.78-.43A.49.49,0,0,0,71.21,65.7Z"/><path class="cls-1" d="M84.08,79.93l-.5.12c-.54.13-.43.92,0,1l.52.13a.66.66,0,1,0-.07-1.28Z"/><path class="cls-1" d="M28.83,49.15A.73.73,0,0,0,27.39,49c-.06.45.13,1,.66,1A.79.79,0,0,0,28.83,49.15Z"/><path class="cls-1" d="M30.75,18.33c-.95-.21-1.55,1.29-.6,1.64l.08,0,.08,0a.66.66,0,0,0,.48,0A.89.89,0,0,0,30.75,18.33Z"/><path class="cls-1" d="M170.58,101.2a1.33,1.33,0,0,0,1.37-.43.78.78,0,0,0,.2-.38,1.2,1.2,0,0,0,.29-.68,1.4,1.4,0,0,0-1.18-1.52,1.54,1.54,0,0,0-1.72,1.84A1.43,1.43,0,0,0,170.58,101.2Z"/><path class="cls-1" d="M160.22,116.67c.5-1-1.15-1.72-1.64-.69S159.73,117.7,160.22,116.67Z"/><path class="cls-1" d="M139.5,84.91a1.17,1.17,0,0,0-.15-1.18,1.28,1.28,0,0,0-1.11-.47l-.15,0a1.11,1.11,0,0,0-.88,1.51,2.4,2.4,0,0,0,.23.38A1.2,1.2,0,0,0,139.5,84.91Z"/><path class="cls-1" d="M97.14,75.89a1,1,0,0,0,1-.43.89.89,0,0,0-.12-1,.91.91,0,1,0-.84,1.46Z"/><path class="cls-1" d="M103.36,72.63l0-.26c.07-.35-.41-.5-.61-.25l-.18.2C102.21,72.81,103.21,73.34,103.36,72.63Z"/><path class="cls-1" d="M150.42,144c.66-1.36-1.51-2.26-2.16-.9S149.77,145.37,150.42,144Z"/><path class="cls-1" d="M162.63,111.33a1.53,1.53,0,0,1,.16-.22.61.61,0,0,0,.12-.83l0,0a.5.5,0,0,0-.47-.19h-.06a.59.59,0,0,0-.49.57l-.07.22a.49.49,0,0,0,.21.61A.48.48,0,0,0,162.63,111.33Z"/><path class="cls-1" d="M137.36,125.11a0,0,0,1,0-.05,0S137.35,125.14,137.36,125.11Z"/><path class="cls-1" d="M141.87,126.93l.22,0a.81.81,0,0,0,.53-1.26l-.13-.21a.94.94,0,1,0-.62,1.5Z"/><path class="cls-1" d="M163.57,135.55l.05-.52a.77.77,0,0,0-.46-.79.79.79,0,0,0-.89.23l-.38.38a.94.94,0,0,0,.38,1.44A1,1,0,0,0,163.57,135.55Z"/><path class="cls-1" d="M69.38,96.23a.62.62,0,0,0,.37-.63v-.09a.59.59,0,0,0-.31-.45l0,0c-.25-.28-.83-.23-.86.23v.09a.61.61,0,0,0,.08.62l.05.07A.61.61,0,0,0,69.38,96.23Z"/><path class="cls-1" d="M105.11,86.59c.37-.76-.84-1.26-1.2-.51S104.75,87.34,105.11,86.59Z"/><path class="cls-1" d="M85.47,59.93c0-.14,0-.27.08-.41a.8.8,0,0,0-1.42-.59l-.28.32a.91.91,0,1,0,1.62.68Z"/><path class="cls-1" d="M119.83,66.43c.31-.65-.72-1.07-1-.43S119.52,67.07,119.83,66.43Z"/><path class="cls-1" d="M122.24,71.47c.75-1.58-1.76-2.63-2.52-1S121.48,73.05,122.24,71.47Z"/><path class="cls-1" d="M151.25,81.13l.17,0a.71.71,0,0,0,.75-.43.74.74,0,0,0-.22-.85l-.14-.1a.75.75,0,1,0-.56,1.34Z"/><path class="cls-1" d="M164.91,66.57a1.18,1.18,0,0,0,.25-.25.75.75,0,0,0-.3-1.15.76.76,0,0,0-1,.59,1.37,1.37,0,0,0,0,.35A.7.7,0,0,0,164.91,66.57Z"/><path class="cls-1" d="M159.67,65.92c-.3-.12-.55-.27-.87-.14a.45.45,0,0,0-.24.58c.1.31.42.42.69.57C159.85,67.26,160.33,66.2,159.67,65.92Z"/><path class="cls-1" d="M191.66,113.8a.82.82,0,0,0,0-1.29,2.66,2.66,0,0,0-.63-.42.63.63,0,0,0-.86.66,2.59,2.59,0,0,0,.24.71A.82.82,0,0,0,191.66,113.8Z"/><path class="cls-1" d="M175.66,117.1a.73.73,0,0,0,.17-1.23l-.25-.21a.53.53,0,0,0-.85.35l-.06.33A.73.73,0,0,0,175.66,117.1Z"/><path class="cls-1" d="M155.94,159.41a2.09,2.09,0,0,0,.14-.56,5.33,5.33,0,0,0,0-.56.5.5,0,0,0-.94-.12,5.6,5.6,0,0,0-.17.54,2.18,2.18,0,0,0,0,.57A.52.52,0,0,0,155.94,159.41Z"/><path class="cls-1" d="M140.94,173.38c.38-.8-.89-1.33-1.28-.53S140.55,174.18,140.94,173.38Z"/><path class="cls-1" d="M149.47,148.75a.69.69,0,0,0,.46-.93,2.18,2.18,0,0,0-.42-.54.57.57,0,0,0-.9.37,1.57,1.57,0,0,0,0,.53A.7.7,0,0,0,149.47,148.75Z"/><path class="cls-1" d="M187.94,73.84a1.48,1.48,0,0,0,.21-.34.84.84,0,0,0-.45-1.09.86.86,0,0,0-1.09.45,2.4,2.4,0,0,0-.12.38.82.82,0,0,0,1.45.6Z"/><path class="cls-1" d="M185.17,50.06a.7.7,0,0,0,.18-.44c0-.42-.49-.84-.87-.5a.85.85,0,0,0-.31.53.59.59,0,0,0,.21.51.83.83,0,0,0,.13.07A.57.57,0,0,0,185.17,50.06Z"/><path class="cls-1" d="M180.74,53c.31-.64-.72-1.07-1-.43S180.43,53.66,180.74,53Z"/><path class="cls-1" d="M191.82,61.53a1,1,0,0,0,1.18-.4.93.93,0,0,0-.23-1.22l-.16-.09a1,1,0,0,0-1.17,0,.92.92,0,0,0-.38.65,1,1,0,0,0,.59,1Z"/><path class="cls-1" d="M180.91,63.41s0,0-.06,0S180.89,63.44,180.91,63.41Z"/><path class="cls-1" d="M158.76,51c.12.33.6.15.58-.17a.94.94,0,0,0-1.48-.55.59.59,0,0,0,.06,1A.6.6,0,0,0,158.76,51Z"/><path class="cls-1" d="M143.22,62.81l.25-.47a.48.48,0,0,0-.51-.66l-.51.11A.76.76,0,0,0,142,63,.75.75,0,0,0,143.22,62.81Z"/><path class="cls-1" d="M146.81,67.6a1.17,1.17,0,0,0,.59-.61,1.72,1.72,0,0,0,.27-1.12,1.4,1.4,0,0,0-.89-1.16l-.18-.06a1.28,1.28,0,0,0-1.45.38l-.1.13a1.51,1.51,0,0,0,.62,2.3A1.2,1.2,0,0,0,146.81,67.6Z"/><path class="cls-1" d="M147.77,98.65l.09-.3c.11-.36-.38-.73-.63-.36l-.19.29a.49.49,0,1,0,.73.37Z"/><path class="cls-1" d="M129.36,104.09c0-.17.08-.34.11-.51.12-.54-.64-.78-.95-.4l-.34.42a.66.66,0,1,0,1.18.49Z"/><path class="cls-1" d="M181,67.6a.74.74,0,0,0,.91-.3.73.73,0,0,0-.18-.94.84.84,0,0,0-1.23.14A.79.79,0,0,0,181,67.6Z"/><path class="cls-1" d="M208,82.68c.6-.77-.49-2-1.22-1.25l-.06,0,0,.07a.68.68,0,0,0-.23.42A.89.89,0,0,0,208,82.68Z"/><path class="cls-1" d="M13.57,108.5c-1.15,0-1.06,1.78.09,1.78S14.71,108.5,13.57,108.5Z"/><path class="cls-1" d="M4.11,183a1,1,0,0,0-.8-.68.88.88,0,0,0-.87.55.91.91,0,1,0,1.67.13Z"/><path class="cls-1" d="M42.47,105.49c-1.51,0-1.39,2.34.12,2.34S44,105.49,42.47,105.49Z"/><path class="cls-1" d="M7.72,108.64a1.28,1.28,0,0,1-.27,0,.62.62,0,0,0-.8.25l0,0a.5.5,0,0,0,0,.5l0,0a.59.59,0,0,0,.73.2l.23,0a.5.5,0,0,0,.46-.45A.49.49,0,0,0,7.72,108.64Z"/><path class="cls-1" d="M31.07,125.45s0,.06,0,.06S31.1,125.45,31.07,125.45Z"/><path class="cls-1" d="M30.76,120.6l-.12-.19a.8.8,0,0,0-1.36.07l-.14.2c-.41.62.24,1.41.89,1.37A.94.94,0,0,0,30.76,120.6Z"/><path class="cls-1" d="M29.14,97.31l-.49.18a.76.76,0,0,0-.52.75.8.8,0,0,0,.6.7l.5.18c.59.21,1.17-.41,1.14-1A1,1,0,0,0,29.14,97.31Z"/><path class="cls-1" d="M34.47,199.23a.63.63,0,0,0-.73-.06l-.08.05a.55.55,0,0,0-.27.47l0,0c-.14.36.16.85.58.68l.09,0a.6.6,0,0,0,.52-.33l0-.09A.6.6,0,0,0,34.47,199.23Z"/><path class="cls-1" d="M10.31,171.2c-.84,0-.77,1.3.06,1.3S11.14,171.2,10.31,171.2Z"/><path class="cls-1" d="M7.28,94.4a.73.73,0,0,0-1.19.38L6,95.09a.53.53,0,0,0,.68.61L7,95.61A.72.72,0,0,0,7.28,94.4Z"/><path class="cls-1" d="M54,93.85a2.15,2.15,0,0,0-.56.12,3.46,3.46,0,0,0-.5.27.49.49,0,0,0,.3.89,5.39,5.39,0,0,0,.56-.08,2,2,0,0,0,.51-.25A.52.52,0,0,0,54,93.85Z"/><path class="cls-1" d="M73,101.33c-.89,0-.82,1.38.07,1.38S73.93,101.33,73,101.33Z"/><path class="cls-1" d="M47.14,104.3a.69.69,0,0,0-1,0,2,2,0,0,0-.3.61.56.56,0,0,0,.72.65,1.61,1.61,0,0,0,.48-.22A.71.71,0,0,0,47.14,104.3Z"/><path class="cls-1" d="M2.71,127.53l-.3,0c-.38.05-.49.66-.06.72l.35.05a.49.49,0,0,0,.77-.43A.49.49,0,0,0,2.71,127.53Z"/><path class="cls-1" d="M15.59,141.76l-.51.12c-.54.13-.43.92.05,1l.52.12a.68.68,0,0,0,.81-.68A.68.68,0,0,0,15.59,141.76Z"/><path class="cls-1" d="M102.09,163a1.33,1.33,0,0,0,1.36-.44.74.74,0,0,0,.2-.38,1.17,1.17,0,0,0,.29-.67,1.4,1.4,0,0,0-1.18-1.53,1.56,1.56,0,0,0-1.72,1.85A1.47,1.47,0,0,0,102.09,163Z"/><path class="cls-1" d="M91.73,178.5c.49-1-1.15-1.72-1.65-.69S91.23,179.53,91.73,178.5Z"/><path class="cls-1" d="M71,146.75a1.21,1.21,0,0,0-.14-1.19,1.27,1.27,0,0,0-1.12-.46.38.38,0,0,0-.15,0,1.12,1.12,0,0,0-.88,1.52,3,3,0,0,0,.23.38A1.21,1.21,0,0,0,71,146.75Z"/><path class="cls-1" d="M28.64,137.72a1,1,0,0,0,1-.43.86.86,0,0,0-.12-1,.91.91,0,1,0-.84,1.45Z"/><path class="cls-1" d="M34.86,134.46l0-.26c.07-.35-.41-.5-.61-.25l-.17.2C33.71,134.65,34.72,135.17,34.86,134.46Z"/><path class="cls-1" d="M81.93,205.85c.65-1.36-1.51-2.25-2.16-.9S81.27,207.21,81.93,205.85Z"/><path class="cls-1" d="M94.13,173.17a1.19,1.19,0,0,1,.16-.23.6.6,0,0,0,.12-.82l0-.05a.49.49,0,0,0-.46-.19h-.06a.58.58,0,0,0-.5.56l-.07.23a.49.49,0,0,0,.21.6A.48.48,0,0,0,94.13,173.17Z"/><path class="cls-1" d="M68.86,186.94s0-.06,0,0S68.85,187,68.86,186.94Z"/><path class="cls-1" d="M73.37,188.76l.23,0a.8.8,0,0,0,.52-1.25l-.12-.21a.94.94,0,1,0-.63,1.49Z"/><path class="cls-1" d="M95.07,197.38l.05-.52a.77.77,0,0,0-.46-.79.78.78,0,0,0-.88.23l-.38.38a.94.94,0,0,0,.37,1.45A1,1,0,0,0,95.07,197.38Z"/><path class="cls-1" d="M.89,158.07a.64.64,0,0,0,.36-.63v-.1a.58.58,0,0,0-.31-.45l0,0c-.26-.28-.83-.22-.86.23a.28.28,0,0,0,0,.09.61.61,0,0,0,.08.62l.06.07A.61.61,0,0,0,.89,158.07Z"/><path class="cls-1" d="M36.61,148.42c.37-.76-.84-1.26-1.2-.5S36.25,149.17,36.61,148.42Z"/><path class="cls-1" d="M17,121.76l.08-.41a.8.8,0,0,0-.48-.84.84.84,0,0,0-.94.25l-.28.32a.91.91,0,1,0,1.62.68Z"/><path class="cls-1" d="M51.33,128.26c.31-.65-.71-1.07-1-.43S51,128.9,51.33,128.26Z"/><path class="cls-1" d="M53.74,133.3c.76-1.58-1.76-2.62-2.52-1.05S53,134.88,53.74,133.3Z"/><path class="cls-1" d="M82.75,143l.17,0a.73.73,0,0,0,.75-.44.71.71,0,0,0-.22-.84l-.14-.11a.77.77,0,0,0-1.16.3A.78.78,0,0,0,82.75,143Z"/><path class="cls-1" d="M96.41,128.4a1,1,0,0,0,.25-.25.75.75,0,0,0-.3-1.15.77.77,0,0,0-1,.59,1,1,0,0,0,0,.35A.69.69,0,0,0,96.41,128.4Z"/><path class="cls-1" d="M91.17,127.75a1.12,1.12,0,0,0-.87-.14.45.45,0,0,0-.24.58c.1.32.42.43.69.57C91.35,129.1,91.83,128,91.17,127.75Z"/><path class="cls-1" d="M123.16,175.63a.82.82,0,0,0,0-1.29,3,3,0,0,0-.63-.42.63.63,0,0,0-.86.66,2.83,2.83,0,0,0,.24.71A.82.82,0,0,0,123.16,175.63Z"/><path class="cls-1" d="M107.16,178.93a.73.73,0,0,0,.17-1.23l-.25-.21a.52.52,0,0,0-.84.35l-.07.34A.72.72,0,0,0,107.16,178.93Z"/><path class="cls-1" d="M87.44,221.24a1.54,1.54,0,0,0,.14-.55,5.43,5.43,0,0,0,0-.57.5.5,0,0,0-.94-.12,5.52,5.52,0,0,0-.16.54,2.18,2.18,0,0,0,0,.57A.52.52,0,0,0,87.44,221.24Z"/><path class="cls-1" d="M72.44,235.21c.38-.8-.89-1.33-1.28-.53S72.05,236,72.44,235.21Z"/><path class="cls-1" d="M81,210.58a.69.69,0,0,0,.46-.93,2,2,0,0,0-.42-.54.56.56,0,0,0-.89.37,1.35,1.35,0,0,0,0,.53A.7.7,0,0,0,81,210.58Z"/><path class="cls-1" d="M119.45,135.68a1.75,1.75,0,0,0,.2-.35.84.84,0,0,0-.45-1.09.86.86,0,0,0-1.09.45,2.38,2.38,0,0,0-.11.38.82.82,0,0,0,.49.86A.85.85,0,0,0,119.45,135.68Z"/><path class="cls-1" d="M116.67,111.89a.7.7,0,0,0,.18-.44c0-.42-.49-.84-.87-.5a.84.84,0,0,0-.3.53.54.54,0,0,0,.21.51.4.4,0,0,0,.13.07A.56.56,0,0,0,116.67,111.89Z"/><path class="cls-1" d="M112.24,114.84c.31-.64-.72-1.07-1-.43S111.93,115.49,112.24,114.84Z"/><path class="cls-1" d="M123.32,123.37a1,1,0,0,0,1.18-.4.94.94,0,0,0-.23-1.23l-.15-.09a1,1,0,0,0-1.18,0,1,1,0,0,0-.38.65,1,1,0,0,0,.59,1Z"/><path class="cls-1" d="M112.41,125.24s0,0,0,0S112.39,125.28,112.41,125.24Z"/><path class="cls-1" d="M90.26,112.79c.13.32.6.14.58-.18a.94.94,0,0,0-1.48-.55.59.59,0,1,0,.9.73Z"/><path class="cls-1" d="M74.73,124.64l.24-.47a.48.48,0,0,0-.5-.66l-.52.12a.74.74,0,1,0,.78,1Z"/><path class="cls-1" d="M78.31,129.43a1.17,1.17,0,0,0,.59-.61,1.79,1.79,0,0,0,.28-1.12,1.44,1.44,0,0,0-.9-1.16l-.18-.06a1.29,1.29,0,0,0-1.45.38l-.09.13a1.52,1.52,0,0,0,0,1.8,1.59,1.59,0,0,0,.63.5A1.2,1.2,0,0,0,78.31,129.43Z"/><path class="cls-1" d="M79.27,160.48l.09-.29c.11-.37-.38-.73-.62-.37l-.2.29a.5.5,0,0,0,.06.89A.49.49,0,0,0,79.27,160.48Z"/><path class="cls-1" d="M60.86,165.92l.12-.51c.12-.54-.65-.78-1-.4l-.33.42a.66.66,0,0,0,.26,1A.68.68,0,0,0,60.86,165.92Z"/><path class="cls-1" d="M112.53,129.44a.75.75,0,0,0,.9-.31.73.73,0,0,0-.17-.94.84.84,0,0,0-1.23.14A.79.79,0,0,0,112.53,129.44Z"/><path class="cls-1" d="M139.48,144.51c.6-.76-.49-2-1.22-1.25l-.06.05,0,.07a.68.68,0,0,0-.23.42A.89.89,0,0,0,139.48,144.51Z"/><path class="cls-1" d="M509.79,39.91a1.32,1.32,0,0,0-1-1,.75.75,0,0,0-.42,0,1.25,1.25,0,0,0-.74,0,1.4,1.4,0,0,0-.86,1.72,1.55,1.55,0,0,0,2.41.76A1.45,1.45,0,0,0,509.79,39.91Z"/><path class="cls-1" d="M528.22,42.55c-1.15,0-1.06,1.79.09,1.79S529.36,42.55,528.22,42.55Z"/><path class="cls-1" d="M508.56,75a1.19,1.19,0,0,0-1,.65,1.22,1.22,0,0,0,.06,1.2.41.41,0,0,0,.08.13,1.12,1.12,0,0,0,1.74.14,3,3,0,0,0,.25-.37A1.21,1.21,0,0,0,508.56,75Z"/><path class="cls-1" d="M518.76,117.08a.94.94,0,0,0-.8-.68.88.88,0,0,0-.87.54.92.92,0,0,0,.73,1.32A.9.9,0,0,0,518.76,117.08Z"/><path class="cls-1" d="M513.13,112.88l-.25.06a.35.35,0,0,0,0,.67l.26.06C513.8,113.83,513.84,112.7,513.13,112.88Z"/><path class="cls-1" d="M557.11,39.55c-1.5,0-1.38,2.34.13,2.34S558.62,39.55,557.11,39.55Z"/><path class="cls-1" d="M522.37,42.69a1.1,1.1,0,0,1-.27,0,.6.6,0,0,0-.8.25l0,0a.52.52,0,0,0,0,.51l0,0a.59.59,0,0,0,.73.2l.23,0a.49.49,0,0,0,.08-1Z"/><path class="cls-1" d="M545.72,59.51s0,.05,0,.05S545.75,59.51,545.72,59.51Z"/><path class="cls-1" d="M545.41,54.66l-.12-.19a.8.8,0,0,0-1.36.07l-.14.2c-.41.61.24,1.41.89,1.37A.94.94,0,0,0,545.41,54.66Z"/><path class="cls-1" d="M543.79,31.37l-.49.17a.77.77,0,0,0-.52.76.79.79,0,0,0,.59.7l.51.18c.59.21,1.17-.41,1.14-1A.94.94,0,0,0,543.79,31.37Z"/><path class="cls-1" d="M549.12,133.29a.63.63,0,0,0-.73-.06l-.08,0a.61.61,0,0,0-.28.48v0c-.14.36.16.85.58.68l.08,0a.6.6,0,0,0,.53-.34l0-.08A.59.59,0,0,0,549.12,133.29Z"/><path class="cls-1" d="M525,105.26c-.84,0-.76,1.3.07,1.3S525.79,105.26,525,105.26Z"/><path class="cls-1" d="M509.43,134.5l-.4.11a.79.79,0,0,0-.55.8.82.82,0,0,0,.63.74l.41.11a.91.91,0,1,0-.09-1.76Z"/><path class="cls-1" d="M500.41,100.71c-.72,0-.65,1.12.06,1.12S501.13,100.71,500.41,100.71Z"/><path class="cls-1" d="M503.92,96.36c-1.76,0-1.61,2.72.14,2.72S505.66,96.36,503.92,96.36Z"/><path class="cls-1" d="M500.07,66l0-.17a.7.7,0,0,0-.72-.49.71.71,0,0,0-.66.56l0,.17a.76.76,0,1,0,1.46-.07Z"/><path class="cls-1" d="M481,60a1.06,1.06,0,0,0-.34-.12.76.76,0,0,0-.91.77.77.77,0,0,0,1,.67,1.48,1.48,0,0,0,.32-.14A.69.69,0,0,0,481,60Z"/><path class="cls-1" d="M482.71,65a1.12,1.12,0,0,0,.25.85.45.45,0,0,0,.62,0c.25-.22.2-.56.22-.87C483.84,64.27,482.67,64.3,482.71,65Z"/><path class="cls-1" d="M512,15.46a.83.83,0,0,0-1.17.55,3.08,3.08,0,0,0-.1.75.63.63,0,0,0,1,.49,2.67,2.67,0,0,0,.54-.52A.83.83,0,0,0,512,15.46Z"/><path class="cls-1" d="M521.92,28.45a.73.73,0,0,0-1.18.38l-.08.32a.53.53,0,0,0,.68.61l.33-.09A.72.72,0,0,0,521.92,28.45Z"/><path class="cls-1" d="M568.6,27.91A2.64,2.64,0,0,0,568,28c-.18.08-.34.18-.5.27a.49.49,0,0,0,.29.9,5.62,5.62,0,0,0,.57-.09,1.82,1.82,0,0,0,.51-.24A.52.52,0,0,0,568.6,27.91Z"/><path class="cls-1" d="M587.69,35.39c-.89,0-.82,1.38.07,1.38S588.57,35.39,587.69,35.39Z"/><path class="cls-1" d="M561.79,38.36a.69.69,0,0,0-1,0,1.93,1.93,0,0,0-.3.61.56.56,0,0,0,.72.65,1.42,1.42,0,0,0,.48-.23A.7.7,0,0,0,561.79,38.36Z"/><path class="cls-1" d="M477.61,36.1a1.75,1.75,0,0,0-.4,0,.84.84,0,0,0-.79.87.86.86,0,0,0,.88.79,1.76,1.76,0,0,0,.39-.06.81.81,0,0,0,.56-.81A.84.84,0,0,0,477.61,36.1Z"/><path class="cls-1" d="M457.37,48.9a.69.69,0,0,0-.47,0c-.4.16-.55.81-.08,1a.92.92,0,0,0,.61,0,.55.55,0,0,0,.37-.41.39.39,0,0,0,0-.15A.56.56,0,0,0,457.37,48.9Z"/><path class="cls-1" d="M462,51.62c-.71,0-.65,1.11.06,1.11S462.67,51.62,462,51.62Z"/><path class="cls-1" d="M464.84,37.94a1,1,0,0,0-.87-.89.94.94,0,0,0-1,.74V38a1,1,0,0,0,.5,1.07.93.93,0,0,0,.75.06,1,1,0,0,0,.65-1Z"/><path class="cls-1" d="M471.25,47s0,.06,0,.06S471.29,47,471.25,47Z"/><path class="cls-1" d="M469.61,72.32c.24-.25-.13-.61-.41-.45a.94.94,0,0,0,.15,1.57.59.59,0,0,0,.86-.48A.61.61,0,0,0,469.61,72.32Z"/><path class="cls-1" d="M487,81.19l-.53,0a.48.48,0,0,0-.37.75l.33.41a.74.74,0,0,0,1.27-.06A.75.75,0,0,0,487,81.19Z"/><path class="cls-1" d="M489.79,75.89a1.17,1.17,0,0,0-.81-.27,1.78,1.78,0,0,0-1.12.23,1.42,1.42,0,0,0-.66,1.31l0,.19a1.29,1.29,0,0,0,1,1.15l.16,0a1.53,1.53,0,0,0,1.63-.77,1.68,1.68,0,0,0,.18-.78A1.21,1.21,0,0,0,489.79,75.89Z"/><path class="cls-1" d="M517.36,61.59l-.3,0c-.38,0-.5.66-.06.72l.34,0a.5.5,0,0,0,.78-.43A.49.49,0,0,0,517.36,61.59Z"/><path class="cls-1" d="M530.24,75.82l-.51.12c-.54.13-.43.92,0,1l.52.13a.66.66,0,1,0-.06-1.28Z"/><path class="cls-1" d="M475,45a.73.73,0,0,0-1.44-.12c-.06.46.13,1,.66,1A.79.79,0,0,0,475,45Z"/><path class="cls-1" d="M476.9,14.22c-.95-.21-1.55,1.29-.59,1.64l.07,0,.08,0a.66.66,0,0,0,.48,0A.89.89,0,0,0,476.9,14.22Z"/><path class="cls-1" d="M585.65,80.8a1.17,1.17,0,0,0-.15-1.18,1.28,1.28,0,0,0-1.11-.47.39.39,0,0,0-.15,0,1.11,1.11,0,0,0-.88,1.51,2.4,2.4,0,0,0,.23.38A1.2,1.2,0,0,0,585.65,80.8Z"/><path class="cls-1" d="M543.29,71.78a1,1,0,0,0,1-.43.89.89,0,0,0-.12-1,.91.91,0,1,0-.84,1.46Z"/><path class="cls-1" d="M549.51,68.52l0-.26c.07-.35-.41-.5-.61-.26l-.18.21C548.36,68.7,549.36,69.23,549.51,68.52Z"/><path class="cls-1" d="M596.57,139.91c.66-1.36-1.5-2.26-2.16-.9S595.92,141.26,596.57,139.91Z"/><path class="cls-1" d="M583.51,121s0,0,0,0S583.5,121,583.51,121Z"/><path class="cls-1" d="M588,122.82l.22,0a.81.81,0,0,0,.53-1.26l-.13-.21a.94.94,0,1,0-.62,1.5Z"/><path class="cls-1" d="M515.54,92.12a.63.63,0,0,0,.36-.63V91.4a.59.59,0,0,0-.31-.45l0,0a.48.48,0,0,0-.85.23.28.28,0,0,0,0,.09.61.61,0,0,0,.08.62l.05.07A.62.62,0,0,0,515.54,92.12Z"/><path class="cls-1" d="M551.26,82.48c.37-.76-.84-1.26-1.2-.51S550.9,83.23,551.26,82.48Z"/><path class="cls-1" d="M531.62,55.82l.08-.41a.81.81,0,0,0-.48-.84.82.82,0,0,0-.94.25l-.28.32a.91.91,0,1,0,1.62.68Z"/><path class="cls-1" d="M566,62.32c.31-.65-.72-1.08-1-.43S565.67,63,566,62.32Z"/><path class="cls-1" d="M568.39,67.36c.76-1.58-1.76-2.63-2.52-1S567.63,68.93,568.39,67.36Z"/><path class="cls-1" d="M597.4,77l.17,0a.71.71,0,0,0,.75-.43.74.74,0,0,0-.22-.85l-.14-.1a.76.76,0,0,0-1.16.3A.77.77,0,0,0,597.4,77Z"/><path class="cls-1" d="M587.09,169.27c.38-.8-.89-1.33-1.28-.53S586.7,170.07,587.09,169.27Z"/><path class="cls-1" d="M595.62,144.63a.67.67,0,0,0,.46-.92,1.87,1.87,0,0,0-.42-.54.57.57,0,0,0-.9.37,1.51,1.51,0,0,0,0,.52A.69.69,0,0,0,595.62,144.63Z"/><path class="cls-1" d="M589.38,58.7l.24-.47a.48.48,0,0,0-.51-.66l-.51.11a.74.74,0,1,0,.78,1Z"/><path class="cls-1" d="M593,63.49a1.17,1.17,0,0,0,.59-.61,1.79,1.79,0,0,0,.28-1.12,1.41,1.41,0,0,0-.9-1.16l-.18-.06a1.29,1.29,0,0,0-1.45.38l-.1.13a1.51,1.51,0,0,0,.62,2.3A1.2,1.2,0,0,0,593,63.49Z"/><path class="cls-1" d="M593.92,94.54l.09-.3c.11-.36-.38-.73-.62-.36l-.2.29a.49.49,0,1,0,.73.37Z"/><path class="cls-1" d="M575.51,100l.11-.51c.12-.54-.64-.79-1-.4l-.34.42a.66.66,0,1,0,1.18.49Z"/><path class="cls-1" d="M441.29,101.74a1.32,1.32,0,0,0-1-1,.78.78,0,0,0-.43,0,1.25,1.25,0,0,0-.74,0,1.4,1.4,0,0,0-.86,1.72,1.55,1.55,0,0,0,2.41.76A1.43,1.43,0,0,0,441.29,101.74Z"/><path class="cls-1" d="M459.72,104.39c-1.15,0-1.05,1.78.09,1.78S460.86,104.39,459.72,104.39Z"/><path class="cls-1" d="M440.06,136.81a1.19,1.19,0,0,0-1,.65,1.27,1.27,0,0,0,.06,1.21l.08.13a1.12,1.12,0,0,0,1.75.13c.08-.12.17-.24.24-.37A1.21,1.21,0,0,0,440.06,136.81Z"/><path class="cls-1" d="M450.26,178.91a.93.93,0,0,0-.8-.68.88.88,0,0,0-.87.55.91.91,0,0,0,.74,1.31A.9.9,0,0,0,450.26,178.91Z"/><path class="cls-1" d="M444.63,174.71l-.25.07c-.35.08-.27.58,0,.66l.25.07C445.3,175.67,445.34,174.53,444.63,174.71Z"/><path class="cls-1" d="M488.62,101.38c-1.51,0-1.38,2.34.12,2.34S490.12,101.38,488.62,101.38Z"/><path class="cls-1" d="M453.87,104.53a2.56,2.56,0,0,1-.27,0,.61.61,0,0,0-.8.25l0,0a.52.52,0,0,0,0,.51l0,0a.59.59,0,0,0,.73.2l.23,0a.5.5,0,0,0,.46-.45A.49.49,0,0,0,453.87,104.53Z"/><path class="cls-1" d="M477.22,121.34s0,.06,0,.06S477.25,121.34,477.22,121.34Z"/><path class="cls-1" d="M476.92,116.49l-.13-.19a.8.8,0,0,0-1.36.07l-.14.2c-.41.62.24,1.41.89,1.37A1,1,0,0,0,476.92,116.49Z"/><path class="cls-1" d="M475.29,93.2l-.49.17a.78.78,0,0,0-.52.76.8.8,0,0,0,.6.7l.5.18c.59.21,1.17-.41,1.14-1A1,1,0,0,0,475.29,93.2Z"/><path class="cls-1" d="M480.62,195.12a.63.63,0,0,0-.73-.06l-.08.05a.55.55,0,0,0-.27.47l0,0c-.14.36.16.85.58.68l.09,0a.6.6,0,0,0,.52-.33l0-.09A.6.6,0,0,0,480.62,195.12Z"/><path class="cls-1" d="M456.46,167.09c-.84,0-.77,1.3.07,1.3S457.29,167.09,456.46,167.09Z"/><path class="cls-1" d="M440.93,196.33l-.4.11a.81.81,0,0,0-.55.8.83.83,0,0,0,.63.74l.41.11a.92.92,0,0,0,1.11-.94A.93.93,0,0,0,440.93,196.33Z"/><path class="cls-1" d="M431.91,162.55c-.71,0-.65,1.11.06,1.11S432.63,162.55,431.91,162.55Z"/><path class="cls-1" d="M435.42,158.2c-1.76,0-1.61,2.72.14,2.72S437.17,158.2,435.42,158.2Z"/><path class="cls-1" d="M431.57,127.86l0-.17a.7.7,0,0,0-.72-.49.71.71,0,0,0-.66.56l0,.18a.76.76,0,0,0,.78.91A.78.78,0,0,0,431.57,127.86Z"/><path class="cls-1" d="M412.53,121.85a1.06,1.06,0,0,0-.34-.12.76.76,0,0,0-.91.77.77.77,0,0,0,1,.67,1.12,1.12,0,0,0,.32-.14A.69.69,0,0,0,412.53,121.85Z"/><path class="cls-1" d="M414.21,126.85a1.12,1.12,0,0,0,.25.85.46.46,0,0,0,.63,0c.24-.23.2-.57.21-.87C415.34,126.11,414.17,126.14,414.21,126.85Z"/><path class="cls-1" d="M443.52,77.29a.83.83,0,0,0-1.17.55,3.08,3.08,0,0,0-.1.75.63.63,0,0,0,1,.49,3.32,3.32,0,0,0,.54-.52A.83.83,0,0,0,443.52,77.29Z"/><path class="cls-1" d="M453.43,90.29a.73.73,0,0,0-1.19.38c0,.1-.05.2-.08.31a.53.53,0,0,0,.68.61l.33-.09A.72.72,0,0,0,453.43,90.29Z"/><path class="cls-1" d="M500.1,89.74a2.15,2.15,0,0,0-.56.12,3.46,3.46,0,0,0-.5.27.49.49,0,0,0,.3.89,5.39,5.39,0,0,0,.56-.08,1.86,1.86,0,0,0,.51-.25A.52.52,0,0,0,500.1,89.74Z"/><path class="cls-1" d="M519.19,97.22c-.89,0-.81,1.38.07,1.38S520.08,97.22,519.19,97.22Z"/><path class="cls-1" d="M493.29,100.19a.68.68,0,0,0-1,0,1.85,1.85,0,0,0-.31.61.56.56,0,0,0,.72.65,1.61,1.61,0,0,0,.48-.22A.71.71,0,0,0,493.29,100.19Z"/><path class="cls-1" d="M409.11,97.93a2.6,2.6,0,0,0-.4,0,.84.84,0,0,0-.79.87.86.86,0,0,0,.88.79,1.76,1.76,0,0,0,.4-.06.8.8,0,0,0,.55-.81A.84.84,0,0,0,409.11,97.93Z"/><path class="cls-1" d="M388.88,110.73a.72.72,0,0,0-.48,0c-.39.16-.55.81-.08,1a.86.86,0,0,0,.61,0,.53.53,0,0,0,.37-.41.39.39,0,0,0,0-.15A.58.58,0,0,0,388.88,110.73Z"/><path class="cls-1" d="M393.45,113.45c-.71,0-.65,1.11.06,1.11S394.17,113.45,393.45,113.45Z"/><path class="cls-1" d="M396.34,99.77a1,1,0,0,0-.87-.89.94.94,0,0,0-1,.74l0,.18a1,1,0,0,0,.5,1.06.93.93,0,0,0,.75.06,1,1,0,0,0,.66-1Z"/><path class="cls-1" d="M402.76,108.79a0,0,0,0,0,0,.06S402.79,108.79,402.76,108.79Z"/><path class="cls-1" d="M401.11,134.15c.24-.25-.12-.6-.4-.45a.94.94,0,0,0,.14,1.58.6.6,0,1,0,.26-1.13Z"/><path class="cls-1" d="M418.53,143H418a.48.48,0,0,0-.38.74l.33.42a.74.74,0,1,0,.58-1.15Z"/><path class="cls-1" d="M421.29,137.72a1.17,1.17,0,0,0-.81-.27,1.74,1.74,0,0,0-1.12.24,1.4,1.4,0,0,0-.66,1.31l0,.18a1.29,1.29,0,0,0,1,1.15l.16,0a1.53,1.53,0,0,0,1.63-.77,1.45,1.45,0,0,0,.18-.78A1.21,1.21,0,0,0,421.29,137.72Z"/><path class="cls-1" d="M448.87,123.42l-.31,0c-.37.05-.49.66-.06.72l.35,0a.49.49,0,0,0,.77-.43A.48.48,0,0,0,448.87,123.42Z"/><path class="cls-1" d="M461.74,137.65l-.51.12c-.54.13-.43.92.06,1l.51.12a.68.68,0,0,0,.81-.68A.68.68,0,0,0,461.74,137.65Z"/><path class="cls-1" d="M406.49,106.87a.76.76,0,0,0-.67-.68.72.72,0,0,0-.77.57c-.07.45.12,1,.66,1A.8.8,0,0,0,406.49,106.87Z"/><path class="cls-1" d="M408.4,76.05c-.94-.21-1.55,1.29-.59,1.64l.07,0,.08,0a.66.66,0,0,0,.48,0A.89.89,0,0,0,408.4,76.05Z"/><path class="cls-1" d="M548.24,158.92a1.3,1.3,0,0,0,1.36-.43.78.78,0,0,0,.2-.38,1.17,1.17,0,0,0,.29-.68,1.39,1.39,0,0,0-1.18-1.52,1.55,1.55,0,0,0-1.72,1.84A1.44,1.44,0,0,0,548.24,158.92Z"/><path class="cls-1" d="M537.88,174.39c.49-1-1.15-1.72-1.65-.69S537.38,175.42,537.88,174.39Z"/><path class="cls-1" d="M517.16,142.64a1.24,1.24,0,0,0-.15-1.19,1.27,1.27,0,0,0-1.12-.46.38.38,0,0,0-.15,0,1.11,1.11,0,0,0-.88,1.51,2.5,2.5,0,0,0,.23.39A1.22,1.22,0,0,0,517.16,142.64Z"/><path class="cls-1" d="M474.79,133.61a1,1,0,0,0,1-.43.86.86,0,0,0-.12-1,.91.91,0,1,0-.84,1.45Z"/><path class="cls-1" d="M481,130.35l.05-.26c.07-.35-.41-.5-.61-.25l-.17.2C479.86,130.54,480.87,131.06,481,130.35Z"/><path class="cls-1" d="M528.08,201.74c.65-1.36-1.51-2.25-2.16-.9S527.43,203.1,528.08,201.74Z"/><path class="cls-1" d="M540.28,169.06a1.19,1.19,0,0,1,.16-.23.61.61,0,0,0,.12-.83l0,0a.48.48,0,0,0-.46-.19H540a.59.59,0,0,0-.5.57l-.06.23a.49.49,0,0,0,.2.6A.48.48,0,0,0,540.28,169.06Z"/><path class="cls-1" d="M515,182.83s0-.06,0,0S515,182.86,515,182.83Z"/><path class="cls-1" d="M519.52,184.65l.23,0a.8.8,0,0,0,.52-1.25l-.12-.21a.94.94,0,1,0-.63,1.49Z"/><path class="cls-1" d="M541.22,193.27l0-.52a.75.75,0,0,0-.46-.79.78.78,0,0,0-.88.23l-.38.38a.94.94,0,0,0,.37,1.45A1,1,0,0,0,541.22,193.27Z"/><path class="cls-1" d="M447,154a.62.62,0,0,0,.36-.62v-.1a.56.56,0,0,0-.31-.45l0,0c-.26-.28-.83-.22-.86.23a.28.28,0,0,0,0,.09.63.63,0,0,0,.08.62l.06.07A.59.59,0,0,0,447,154Z"/><path class="cls-1" d="M482.77,144.31c.36-.76-.85-1.26-1.21-.5S482.4,145.06,482.77,144.31Z"/><path class="cls-1" d="M463.12,117.65l.08-.41a.8.8,0,0,0-.48-.84.82.82,0,0,0-.94.25l-.28.32a.91.91,0,1,0,1.62.68Z"/><path class="cls-1" d="M497.48,124.15c.31-.65-.71-1.07-1-.43S497.17,124.79,497.48,124.15Z"/><path class="cls-1" d="M499.89,129.19c.76-1.58-1.76-2.63-2.52-1.05S499.13,130.77,499.89,129.19Z"/><path class="cls-1" d="M528.9,138.85l.17.05a.73.73,0,0,0,.75-.44.71.71,0,0,0-.22-.84l-.14-.11a.77.77,0,0,0-1.16.3A.78.78,0,0,0,528.9,138.85Z"/><path class="cls-1" d="M542.56,124.29a1.18,1.18,0,0,0,.25-.25.75.75,0,0,0-.3-1.15.77.77,0,0,0-1,.59,1,1,0,0,0,0,.35A.69.69,0,0,0,542.56,124.29Z"/><path class="cls-1" d="M537.32,123.64c-.3-.12-.55-.27-.87-.14a.46.46,0,0,0-.24.58c.1.32.42.42.69.57C537.5,125,538,123.92,537.32,123.64Z"/><path class="cls-1" d="M569.31,171.52a.82.82,0,0,0,0-1.29,3,3,0,0,0-.63-.42.63.63,0,0,0-.86.66,3,3,0,0,0,.24.71A.82.82,0,0,0,569.31,171.52Z"/><path class="cls-1" d="M553.31,174.82a.73.73,0,0,0,.17-1.23l-.25-.21a.52.52,0,0,0-.84.35l-.07.34A.72.72,0,0,0,553.31,174.82Z"/><path class="cls-1" d="M533.6,217.13a2.12,2.12,0,0,0,.14-.55c0-.19,0-.38,0-.57a.5.5,0,0,0-.94-.12c0,.18-.12.36-.16.54a2.18,2.18,0,0,0,0,.57A.53.53,0,0,0,533.6,217.13Z"/><path class="cls-1" d="M518.59,231.1c.38-.8-.89-1.33-1.28-.53S518.21,231.9,518.59,231.1Z"/><path class="cls-1" d="M527.12,206.47a.69.69,0,0,0,.46-.93,1.79,1.79,0,0,0-.42-.54.56.56,0,0,0-.89.37,1.57,1.57,0,0,0,0,.53A.7.7,0,0,0,527.12,206.47Z"/><path class="cls-1" d="M565.6,131.57a1.75,1.75,0,0,0,.2-.35.84.84,0,0,0-.44-1.09.87.87,0,0,0-1.1.45,2.38,2.38,0,0,0-.11.38.82.82,0,0,0,.49.86A.85.85,0,0,0,565.6,131.57Z"/><path class="cls-1" d="M562.82,107.78a.7.7,0,0,0,.18-.44c0-.42-.49-.84-.87-.5a.84.84,0,0,0-.3.53.54.54,0,0,0,.21.51.4.4,0,0,0,.13.07A.56.56,0,0,0,562.82,107.78Z"/><path class="cls-1" d="M558.39,110.73c.31-.64-.72-1.07-1-.43S558.08,111.38,558.39,110.73Z"/><path class="cls-1" d="M569.47,119.26a1,1,0,0,0,1.18-.41.93.93,0,0,0-.23-1.22l-.15-.09a1,1,0,0,0-1.18,0,1,1,0,0,0-.38.65,1,1,0,0,0,.59,1Z"/><path class="cls-1" d="M558.56,121.13s0,0,0,0S558.54,121.17,558.56,121.13Z"/><path class="cls-1" d="M536.41,108.68c.13.32.6.14.58-.18a.94.94,0,0,0-1.48-.55.59.59,0,1,0,.9.73Z"/><path class="cls-1" d="M520.88,120.53l.24-.47a.48.48,0,0,0-.5-.66l-.52.12a.74.74,0,0,0-.49,1.17A.75.75,0,0,0,520.88,120.53Z"/><path class="cls-1" d="M524.46,125.32a1.17,1.17,0,0,0,.59-.61,1.79,1.79,0,0,0,.28-1.12,1.44,1.44,0,0,0-.9-1.16l-.18-.06a1.29,1.29,0,0,0-1.45.38l-.09.13a1.52,1.52,0,0,0,0,1.8,1.59,1.59,0,0,0,.63.5A1.2,1.2,0,0,0,524.46,125.32Z"/><path class="cls-1" d="M525.42,156.37l.09-.29c.12-.37-.38-.74-.62-.37l-.2.29a.5.5,0,0,0,.06.89A.49.49,0,0,0,525.42,156.37Z"/><path class="cls-1" d="M507,161.81l.12-.51c.12-.54-.65-.78-1-.4l-.33.42a.67.67,0,0,0,.26,1A.68.68,0,0,0,507,161.81Z"/><path class="cls-1" d="M558.68,125.33a.75.75,0,0,0,.9-.31.73.73,0,0,0-.17-.94.84.84,0,0,0-1.23.14A.8.8,0,0,0,558.68,125.33Z"/><path class="cls-1" d="M585.64,140.4c.59-.76-.5-2-1.23-1.25l-.06,0-.05.07a.68.68,0,0,0-.23.42A.9.9,0,0,0,585.64,140.4Z"/><path class="cls-1" d="M186.47,59a1.34,1.34,0,0,0-1.39-.37.79.79,0,0,0-.37.2,1.21,1.21,0,0,0-.61.41,1.39,1.39,0,0,0,.16,1.92,1.54,1.54,0,0,0,2.45-.61A1.45,1.45,0,0,0,186.47,59Z"/><path class="cls-1" d="M203.57,51.62c-1,.6,0,2.07,1,1.47S204.55,51,203.57,51.62Z"/><path class="cls-1" d="M203.7,89.53a1.22,1.22,0,0,0-.52,1.08,1.26,1.26,0,0,0,.68,1,.61.61,0,0,0,.14.07,1.11,1.11,0,0,0,1.55-.8,2.2,2.2,0,0,0,0-.44A1.22,1.22,0,0,0,203.7,89.53Z"/><path class="cls-1" d="M234.34,120.15a.94.94,0,0,0-1-.17.89.89,0,0,0-.47.93.93.93,0,0,0,1.32.74A.91.91,0,0,0,234.34,120.15Z"/><path class="cls-1" d="M227.35,119.5l-.18.19c-.25.25.07.64.37.54l.26-.07C228.41,120,227.86,119,227.35,119.5Z"/><path class="cls-1" d="M226.67,34c-1.29.79,0,2.72,1.32,1.93S228,33.21,226.67,34Z"/><path class="cls-1" d="M198.65,54.79a1.86,1.86,0,0,1-.25.1.6.6,0,0,0-.55.63v0a.48.48,0,0,0,.28.41l.06,0a.57.57,0,0,0,.72-.21l.18-.15a.49.49,0,0,0,.15-.62A.47.47,0,0,0,198.65,54.79Z"/><path class="cls-1" d="M227.35,57a0,0,0,1,0,0,0A0,0,0,1,0,227.35,57Z"/><path class="cls-1" d="M224.56,53l-.21-.09a.8.8,0,0,0-1.12.77v.24c0,.74.93,1.08,1.47.71A1,1,0,0,0,224.56,53Z"/><path class="cls-1" d="M211,34l-.33.4a.76.76,0,0,0,.83,1.2l.52-.11a.94.94,0,0,0,.47-1.42A1,1,0,0,0,211,34Z"/><path class="cls-1" d="M268.7,118.16a.62.62,0,0,0-.65.33l-.05.08a.59.59,0,0,0,0,.55v0c.06.38.57.65.84.28l.06-.07a.64.64,0,0,0,.27-.57v-.09A.61.61,0,0,0,268.7,118.16Z"/><path class="cls-1" d="M233.47,106.83c-.72.44,0,1.51.73,1.08S234.18,106.39,233.47,106.83Z"/><path class="cls-1" d="M235.45,139.88l-.28.3a.81.81,0,0,0,0,1,.8.8,0,0,0,.92.3l.41-.12a.91.91,0,0,0,.45-1.37A.93.93,0,0,0,235.45,139.88Z"/><path class="cls-1" d="M210.15,115.75c-.61.37,0,1.29.63.91S210.76,115.37,210.15,115.75Z"/><path class="cls-1" d="M210.88,110.21c-1.5.91,0,3.16,1.53,2.24S212.37,109.3,210.88,110.21Z"/><path class="cls-1" d="M191.78,86.32l-.12-.13a.72.72,0,0,0-1.14.79l.06.16a.76.76,0,0,0,1.14.38A.78.78,0,0,0,191.78,86.32Z"/><path class="cls-1" d="M172.4,91.12a1,1,0,0,0-.35.07.75.75,0,1,0,.81,1.19,1,1,0,0,0,.21-.29A.69.69,0,0,0,172.4,91.12Z"/><path class="cls-1" d="M176.44,94.51c.19.26.32.52.66.59a.45.45,0,0,0,.51-.35c.09-.32-.12-.59-.26-.86C177,93.28,176,93.92,176.44,94.51Z"/><path class="cls-1" d="M175.63,36.93a.83.83,0,0,0-.71,1.08,2.49,2.49,0,0,0,.3.69.63.63,0,0,0,1.08-.08,3.14,3.14,0,0,0,.19-.73A.83.83,0,0,0,175.63,36.93Z"/><path class="cls-1" d="M190.85,42.86a.73.73,0,0,0-.81.94l.09.32a.53.53,0,0,0,.9.16l.24-.25A.72.72,0,0,0,190.85,42.86Z"/><path class="cls-1" d="M230.41,18.07a2.26,2.26,0,0,0-.42.39c-.11.16-.2.33-.29.49-.23.42.35.92.72.61.14-.11.3-.23.44-.36a2.63,2.63,0,0,0,.31-.48C231.41,18.28,230.8,17.75,230.41,18.07Z"/><path class="cls-1" d="M250.6,14.51c-.76.46,0,1.6.78,1.14S251.35,14.05,250.6,14.51Z"/><path class="cls-1" d="M230,30.54a.69.69,0,0,0-.89.53,1.75,1.75,0,0,0,.06.68.56.56,0,0,0,.95.18,1.3,1.3,0,0,0,.29-.44A.7.7,0,0,0,230,30.54Z"/><path class="cls-1" d="M157,72.48a2.42,2.42,0,0,0-.36.18.84.84,0,0,0-.22,1.16.86.86,0,0,0,1.16.22,1.94,1.94,0,0,0,.31-.26.83.83,0,0,0,.05-1A.87.87,0,0,0,157,72.48Z"/><path class="cls-1" d="M146.42,94a.73.73,0,0,0-.39.27c-.25.35-.05,1,.45.9a.89.89,0,0,0,.55-.28.55.55,0,0,0,.1-.54.54.54,0,0,0-.07-.13A.57.57,0,0,0,146.42,94Z"/><path class="cls-1" d="M151.74,93.89c-.61.37,0,1.29.63.91S152.35,93.51,151.74,93.89Z"/><path class="cls-1" d="M147.08,80.71a1,1,0,0,0-1.21-.3.93.93,0,0,0-.47,1.14l.08.17a1,1,0,0,0,1,.64.93.93,0,0,0,.67-.34,1,1,0,0,0,.05-1.16Z"/><path class="cls-1" d="M157.25,85.07s0,.06,0,0S157.29,85.05,157.25,85.07Z"/><path class="cls-1" d="M169.07,107.56c.07-.34-.43-.45-.58-.17a.93.93,0,0,0,.94,1.27.59.59,0,0,0,.48-.86A.6.6,0,0,0,169.07,107.56Z"/><path class="cls-1" d="M188.55,106.06l-.46.26a.48.48,0,0,0,.07.83l.49.19a.74.74,0,1,0-.1-1.28Z"/><path class="cls-1" d="M188.15,100.09a1.24,1.24,0,0,0-.83.19,1.83,1.83,0,0,0-.84.79,1.42,1.42,0,0,0,.12,1.46l.12.15a1.29,1.29,0,0,0,1.42.47l.16-.06a1.51,1.51,0,0,0,1-1.49,1.54,1.54,0,0,0-.26-.77A1.22,1.22,0,0,0,188.15,100.09Z"/><path class="cls-1" d="M204.23,73.52l-.24.19c-.29.24-.08.82.33.65l.31-.14a.5.5,0,0,0,.44-.77A.48.48,0,0,0,204.23,73.52Z"/><path class="cls-1" d="M222.63,79l-.37.36c-.39.39.12,1,.59.86l.5-.17a.66.66,0,1,0-.72-1.05Z"/><path class="cls-1" d="M159.44,81.48a.75.75,0,0,0-.93-.23.72.72,0,0,0-.36.88.83.83,0,0,0,1.11.55A.8.8,0,0,0,159.44,81.48Z"/><path class="cls-1" d="M145,54.18c-.92.31-.65,1.91.35,1.71h.07l.08,0a.68.68,0,0,0,.42-.23A.89.89,0,0,0,145,54.18Z"/><path class="cls-1" d="M307.54,52a1.33,1.33,0,0,0,.94-1.08.9.9,0,0,0,0-.43,1.25,1.25,0,0,0-.11-.73,1.39,1.39,0,0,0-1.8-.68,1.54,1.54,0,0,0-.51,2.47A1.43,1.43,0,0,0,307.54,52Z"/><path class="cls-1" d="M306.76,70.63c-.12-1.14-1.88-.87-1.76.27S306.87,71.77,306.76,70.63Z"/><path class="cls-1" d="M272.53,54.33a1.2,1.2,0,0,0-1.94-.75.38.38,0,0,0-.13.09,1.12,1.12,0,0,0,.05,1.75,3.58,3.58,0,0,0,.39.21A1.21,1.21,0,0,0,272.53,54.33Z"/><path class="cls-1" d="M231.67,68.7a.94.94,0,0,0,.59-.86.89.89,0,0,0-.63-.82.91.91,0,1,0,0,1.68Z"/><path class="cls-1" d="M235.27,62.68l-.08-.25c-.13-.33-.61-.21-.66.11l0,.26C234.39,63.44,235.52,63.36,235.27,62.68Z"/><path class="cls-1" d="M312.65,99.08c-.15-1.5-2.46-1.14-2.31.36S312.8,100.57,312.65,99.08Z"/><path class="cls-1" d="M306,64.82a2.45,2.45,0,0,1,0-.27.6.6,0,0,0-.33-.77l0,0a.48.48,0,0,0-.5.08l-.05,0a.6.6,0,0,0-.13.75l.06.22a.5.5,0,0,0,.5.41A.48.48,0,0,0,306,64.82Z"/><path class="cls-1" d="M291.65,89.74a0,0,0,0,0-.06,0S291.65,89.78,291.65,89.74Z"/><path class="cls-1" d="M296.44,89l.18-.15a.8.8,0,0,0-.21-1.34l-.21-.12c-.65-.35-1.38.38-1.28,1A1,1,0,0,0,296.44,89Z"/><path class="cls-1" d="M319.45,85l-.22-.47a.78.78,0,0,0-.81-.44.79.79,0,0,0-.63.66l-.13.52c-.15.61.53,1.13,1.08,1A1,1,0,0,0,319.45,85Z"/><path class="cls-1" d="M218.58,100.53a.62.62,0,0,0,0-.73l-.05-.08a.6.6,0,0,0-.49-.22h0c-.37-.11-.82.24-.61.64a.2.2,0,0,0,0,.08.62.62,0,0,0,.39.49l.08,0A.59.59,0,0,0,218.58,100.53Z"/><path class="cls-1" d="M244.05,73.68c-.09-.84-1.38-.64-1.29.2S244.13,74.51,244.05,73.68Z"/><path class="cls-1" d="M213.39,61.16c0-.13-.1-.26-.14-.39a.82.82,0,0,0-.86-.46.84.84,0,0,0-.67.7l-.06.42a.92.92,0,0,0,1,1A.93.93,0,0,0,213.39,61.16Z"/><path class="cls-1" d="M246.1,48.8c-.07-.71-1.17-.54-1.1.17S246.17,49.51,246.1,48.8Z"/><path class="cls-1" d="M250.78,51.85c-.17-1.74-2.86-1.32-2.69.42S251,53.59,250.78,51.85Z"/><path class="cls-1" d="M280.58,45l.17,0a.72.72,0,0,0,.41-.77.71.71,0,0,0-.62-.6l-.18,0a.75.75,0,0,0-.83.86A.77.77,0,0,0,280.58,45Z"/><path class="cls-1" d="M284.65,25.43a1.37,1.37,0,0,0,.08-.35.74.74,0,0,0-.85-.82.76.76,0,0,0-.57,1,.94.94,0,0,0,.17.31A.69.69,0,0,0,284.65,25.43Z"/><path class="cls-1" d="M279.84,27.61c-.32.05-.61.06-.82.33a.46.46,0,0,0,.1.62c.25.22.58.14.89.13C280.7,28.66,280.55,27.5,279.84,27.61Z"/><path class="cls-1" d="M332.1,51.8a.83.83,0,0,0-.67-1.11,2.75,2.75,0,0,0-.76,0,.63.63,0,0,0-.39,1,3,3,0,0,0,.58.49A.84.84,0,0,0,332.1,51.8Z"/><path class="cls-1" d="M320.16,63a.72.72,0,0,0-.5-1.13l-.32-.06a.53.53,0,0,0-.54.74l.12.32A.72.72,0,0,0,320.16,63Z"/><path class="cls-1" d="M325.38,109.34a1.76,1.76,0,0,0-.17-.55c-.09-.16-.21-.31-.31-.47a.5.5,0,0,0-.87.39c.05.18.08.37.14.55a2.15,2.15,0,0,0,.3.48A.52.52,0,0,0,325.38,109.34Z"/><path class="cls-1" d="M319.86,129.08c-.09-.88-1.46-.67-1.37.21S319.94,130,319.86,129.08Z"/><path class="cls-1" d="M314.3,103.61a.68.68,0,0,0-.09-1,1.84,1.84,0,0,0-.64-.24.56.56,0,0,0-.57.78,1.38,1.38,0,0,0,.27.45A.69.69,0,0,0,314.3,103.61Z"/><path class="cls-1" d="M308.1,19.63a1.78,1.78,0,0,0,0-.4.84.84,0,1,0-1.65.26,1.64,1.64,0,0,0,.1.38.8.8,0,0,0,.87.47A.83.83,0,0,0,308.1,19.63Z"/><path class="cls-1" d="M293.34.78a.71.71,0,0,0-.08-.47c-.2-.37-.86-.46-1,0a.86.86,0,0,0,0,.61.53.53,0,0,0,.45.32.75.75,0,0,0,.15,0A.6.6,0,0,0,293.34.78Z"/><path class="cls-1" d="M291.09,5.61c-.07-.71-1.17-.54-1.1.17S291.16,6.32,291.09,5.61Z"/><path class="cls-1" d="M305,7.11a1,1,0,0,0,.8-1,.93.93,0,0,0-.83-.92h-.18a1,1,0,0,0-1,.6.93.93,0,0,0,0,.75,1,1,0,0,0,1,.56Z"/><path class="cls-1" d="M296.66,14.4s-.06,0-.06,0S296.66,14.43,296.66,14.4Z"/><path class="cls-1" d="M271.27,15.31c.27.21.58-.19.4-.45a.94.94,0,0,0-1.55.3.59.59,0,0,0,.56.8A.6.6,0,0,0,271.27,15.31Z"/><path class="cls-1" d="M264.18,33.52l0-.53a.49.49,0,0,0-.78-.3l-.38.37a.74.74,0,1,0,1.19.46Z"/><path class="cls-1" d="M269.74,35.74a1.25,1.25,0,0,0,.19-.83,1.77,1.77,0,0,0-.35-1.09,1.42,1.42,0,0,0-1.37-.53l-.19.05a1.29,1.29,0,0,0-1,1.08v.15a1.53,1.53,0,0,0,.92,1.55,1.6,1.6,0,0,0,.8.1A1.2,1.2,0,0,0,269.74,35.74Z"/><path class="cls-1" d="M286.74,61.74l-.08-.3c-.09-.37-.7-.42-.72,0v.34a.49.49,0,1,0,.81-.06Z"/><path class="cls-1" d="M273.86,76l-.16-.49c-.18-.53-1-.34-1,.15l-.07.53a.66.66,0,1,0,1.26-.19Z"/><path class="cls-1" d="M298.94,17.92a.73.73,0,0,0,.61-.74.72.72,0,0,0-.64-.71c-.45,0-1,.23-1,.76A.8.8,0,0,0,298.94,17.92Z"/><path class="cls-1" d="M329.81,16.73c.11-1-1.44-1.41-1.7-.43l0,.08a.22.22,0,0,0,0,.08.66.66,0,0,0,0,.48A.89.89,0,0,0,329.81,16.73Z"/><path class="cls-1" d="M160.23,147.43a1.31,1.31,0,0,0-1.38-.37.82.82,0,0,0-.38.2,1.25,1.25,0,0,0-.61.41,1.4,1.4,0,0,0,.17,1.92,1.53,1.53,0,0,0,2.44-.61A1.43,1.43,0,0,0,160.23,147.43Z"/><path class="cls-1" d="M177.34,140.09c-1,.6,0,2.07,1,1.47S178.31,139.49,177.34,140.09Z"/><path class="cls-1" d="M177.46,178a1.22,1.22,0,0,0-.52,1.08,1.25,1.25,0,0,0,.69,1l.13.07a1.12,1.12,0,0,0,1.56-.8,2.17,2.17,0,0,0,0-.44A1.21,1.21,0,0,0,177.46,178Z"/><path class="cls-1" d="M208.11,208.61a1,1,0,0,0-1-.16.88.88,0,0,0-.46.93.91.91,0,1,0,1.5-.77Z"/><path class="cls-1" d="M201.11,208l-.18.19c-.25.25.07.64.38.54l.25-.07C202.18,208.44,201.62,207.45,201.11,208Z"/><path class="cls-1" d="M200.43,122.46c-1.28.79,0,2.72,1.33,1.93S201.72,121.68,200.43,122.46Z"/><path class="cls-1" d="M172.42,143.26a1.14,1.14,0,0,1-.26.09.62.62,0,0,0-.55.64v0a.49.49,0,0,0,.29.41l0,0a.57.57,0,0,0,.72-.21l.18-.15a.49.49,0,0,0,.16-.62A.48.48,0,0,0,172.42,143.26Z"/><path class="cls-1" d="M201.11,145.44a0,0,0,1,0,0,0A0,0,0,1,0,201.11,145.44Z"/><path class="cls-1" d="M198.32,141.45l-.21-.09a.8.8,0,0,0-1.12.77v.24a.94.94,0,1,0,1.34-.92Z"/><path class="cls-1" d="M184.8,122.43l-.33.4a.75.75,0,0,0,.82,1.2l.53-.11a.94.94,0,1,0-1-1.49Z"/><path class="cls-1" d="M242.46,206.63a.63.63,0,0,0-.65.33l-.05.08a.6.6,0,0,0,0,.55v0c.07.38.58.65.85.28a.22.22,0,0,0,.05-.08.59.59,0,0,0,.27-.56v-.09A.61.61,0,0,0,242.46,206.63Z"/><path class="cls-1" d="M207.23,195.3c-.72.44,0,1.51.74,1.08S208,194.86,207.23,195.3Z"/><path class="cls-1" d="M209.22,228.35l-.29.3a.8.8,0,0,0,.87,1.27l.41-.12a.92.92,0,0,0,.46-1.37A.93.93,0,0,0,209.22,228.35Z"/><path class="cls-1" d="M183.92,204.22c-.61.37,0,1.29.63.91S184.53,203.84,183.92,204.22Z"/><path class="cls-1" d="M184.64,198.68c-1.5.91.05,3.15,1.54,2.24S186.13,197.77,184.64,198.68Z"/><path class="cls-1" d="M165.54,174.79l-.11-.13a.72.72,0,0,0-.87,0,.73.73,0,0,0-.28.83l.06.16a.75.75,0,1,0,1.2-.82Z"/><path class="cls-1" d="M146.16,179.59a1.09,1.09,0,0,0-.35.07.75.75,0,1,0,.82,1.19,1,1,0,0,0,.2-.29A.69.69,0,0,0,146.16,179.59Z"/><path class="cls-1" d="M150.21,183c.18.26.31.52.65.59a.46.46,0,0,0,.52-.35c.09-.32-.13-.59-.27-.86C150.78,181.75,149.8,182.39,150.21,183Z"/><path class="cls-1" d="M149.39,125.4a.83.83,0,0,0-.71,1.08,2.52,2.52,0,0,0,.31.69.62.62,0,0,0,1.07-.08,2.39,2.39,0,0,0,.19-.73A.83.83,0,0,0,149.39,125.4Z"/><path class="cls-1" d="M164.62,131.33a.73.73,0,0,0-.81.94l.09.32a.53.53,0,0,0,.9.16l.24-.25A.73.73,0,0,0,164.62,131.33Z"/><path class="cls-1" d="M204.17,106.54a2.62,2.62,0,0,0-.42.39c-.11.16-.19.33-.29.49-.23.42.35.92.72.61a3.83,3.83,0,0,0,.44-.36,1.88,1.88,0,0,0,.31-.48A.52.52,0,0,0,204.17,106.54Z"/><path class="cls-1" d="M224.36,103c-.76.46,0,1.6.78,1.14S225.12,102.52,224.36,103Z"/><path class="cls-1" d="M203.8,119a.69.69,0,0,0-.89.53,2.24,2.24,0,0,0,.06.68.57.57,0,0,0,1,.18,1.86,1.86,0,0,0,.29-.44A.7.7,0,0,0,203.8,119Z"/><path class="cls-1" d="M130.79,161a2.53,2.53,0,0,0-.37.18.84.84,0,0,0-.21,1.16.85.85,0,0,0,1.16.22,1.87,1.87,0,0,0,.3-.26.81.81,0,0,0,.05-1A.84.84,0,0,0,130.79,161Z"/><path class="cls-1" d="M120.18,182.42a.73.73,0,0,0-.39.27c-.25.35,0,1,.46.9a.86.86,0,0,0,.54-.28.51.51,0,0,0,.1-.54.52.52,0,0,0-.06-.13A.59.59,0,0,0,120.18,182.42Z"/><path class="cls-1" d="M125.51,182.36c-.62.37,0,1.29.62.91S126.12,182,125.51,182.36Z"/><path class="cls-1" d="M120.84,169.18a1,1,0,0,0-1.2-.31.94.94,0,0,0-.48,1.15l.08.16a1,1,0,0,0,1,.65.92.92,0,0,0,.67-.34,1,1,0,0,0,.06-1.16Z"/><path class="cls-1" d="M131,173.54s0,.06,0,0A0,0,0,1,0,131,173.54Z"/><path class="cls-1" d="M142.83,196c.07-.34-.42-.45-.58-.17-.33.59.33,1.35.94,1.27a.6.6,0,0,0,.49-.86A.62.62,0,0,0,142.83,196Z"/><path class="cls-1" d="M162.32,194.53l-.46.26a.48.48,0,0,0,.06.83l.5.19a.74.74,0,1,0-.1-1.28Z"/><path class="cls-1" d="M161.92,188.56a1.26,1.26,0,0,0-.84.19,1.81,1.81,0,0,0-.83.79,1.42,1.42,0,0,0,.11,1.46l.13.15a1.28,1.28,0,0,0,1.42.47l.15-.06a1.5,1.5,0,0,0,1-1.49,1.6,1.6,0,0,0-.25-.77A1.23,1.23,0,0,0,161.92,188.56Z"/><path class="cls-1" d="M178,162l-.23.19c-.3.24-.08.82.32.65l.32-.14a.5.5,0,0,0,.44-.77A.49.49,0,0,0,178,162Z"/><path class="cls-1" d="M196.4,167.43l-.37.36c-.4.39.11,1,.58.86l.51-.17a.66.66,0,1,0-.72-1Z"/><path class="cls-1" d="M133.2,170a.73.73,0,0,0-1.29.65c.18.42.64.8,1.11.55A.79.79,0,0,0,133.2,170Z"/><path class="cls-1" d="M118.77,142.65c-.92.31-.65,1.9.35,1.71l.08,0,.08,0a.71.71,0,0,0,.42-.23A.89.89,0,0,0,118.77,142.65Z"/><path class="cls-1" d="M281.31,140.5a1.35,1.35,0,0,0,.94-1.08.9.9,0,0,0,0-.43,1.18,1.18,0,0,0-.11-.73,1.39,1.39,0,0,0-1.8-.68,1.55,1.55,0,0,0-.51,2.47A1.44,1.44,0,0,0,281.31,140.5Z"/><path class="cls-1" d="M280.52,159.1c-.11-1.14-1.87-.87-1.76.27S280.64,160.24,280.52,159.1Z"/><path class="cls-1" d="M246.29,142.8a1.21,1.21,0,0,0-.74-.94,1.27,1.27,0,0,0-1.2.19.27.27,0,0,0-.12.09,1.12,1.12,0,0,0,0,1.75,3,3,0,0,0,.4.2A1.2,1.2,0,0,0,246.29,142.8Z"/><path class="cls-1" d="M205.43,157.17a.93.93,0,0,0,.59-.86.88.88,0,0,0-.63-.82.91.91,0,1,0,0,1.68Z"/><path class="cls-1" d="M209,151.15l-.09-.25c-.12-.33-.61-.21-.66.1l0,.27C208.16,151.91,209.29,151.83,209,151.15Z"/><path class="cls-1" d="M286.41,187.55c-.15-1.5-2.46-1.14-2.31.36S286.57,189,286.41,187.55Z"/><path class="cls-1" d="M279.8,153.29a.82.82,0,0,1,0-.27.62.62,0,0,0-.33-.77l-.05,0a.48.48,0,0,0-.5.08l0,0a.57.57,0,0,0-.13.74l.06.23a.49.49,0,0,0,.49.41A.49.49,0,0,0,279.8,153.29Z"/><path class="cls-1" d="M265.41,178.21s-.06,0-.05,0S265.41,178.25,265.41,178.21Z"/><path class="cls-1" d="M270.21,177.42l.17-.14a.8.8,0,0,0-.2-1.34l-.22-.12c-.65-.35-1.37.38-1.27,1A.94.94,0,0,0,270.21,177.42Z"/><path class="cls-1" d="M293.21,173.47,293,173a.77.77,0,0,0-.8-.44.8.8,0,0,0-.64.66c0,.18-.08.35-.13.52a.94.94,0,1,0,1.79-.27Z"/><path class="cls-1" d="M192.35,189a.63.63,0,0,0,0-.73l-.05-.08a.58.58,0,0,0-.5-.22h0c-.36-.11-.82.24-.61.64a.59.59,0,0,0,0,.08.62.62,0,0,0,.39.49l.09,0A.59.59,0,0,0,192.35,189Z"/><path class="cls-1" d="M217.81,162.15c-.08-.84-1.37-.64-1.29.2S217.9,163,217.81,162.15Z"/><path class="cls-1" d="M187.16,149.63l-.15-.39a.8.8,0,0,0-1.52.24c0,.14-.05.28-.07.42a.93.93,0,0,0,1,1A.94.94,0,0,0,187.16,149.63Z"/><path class="cls-1" d="M219.87,137.27c-.08-.71-1.17-.54-1.1.17S219.94,138,219.87,137.27Z"/><path class="cls-1" d="M224.55,140.32c-.18-1.74-2.87-1.32-2.69.42S224.72,142.06,224.55,140.32Z"/><path class="cls-1" d="M254.34,133.45l.17,0a.73.73,0,0,0,.42-.77.72.72,0,0,0-.63-.6l-.18,0a.76.76,0,0,0-.83.86A.77.77,0,0,0,254.34,133.45Z"/><path class="cls-1" d="M258.41,113.9a1.06,1.06,0,0,0,.09-.35.76.76,0,0,0-.86-.82.77.77,0,0,0-.57,1,1.17,1.17,0,0,0,.17.31A.69.69,0,0,0,258.41,113.9Z"/><path class="cls-1" d="M253.6,116.08c-.31,0-.6,0-.81.33a.46.46,0,0,0,.09.62c.25.22.58.14.89.13C254.46,117.13,254.31,116,253.6,116.08Z"/><path class="cls-1" d="M305.86,140.27a.83.83,0,0,0-.66-1.11,2.79,2.79,0,0,0-.76,0,.63.63,0,0,0-.39,1,2.68,2.68,0,0,0,.57.49A.84.84,0,0,0,305.86,140.27Z"/><path class="cls-1" d="M293.92,151.42a.73.73,0,0,0-.49-1.14l-.33-.05a.54.54,0,0,0-.54.74l.13.32A.72.72,0,0,0,293.92,151.42Z"/><path class="cls-1" d="M299.15,197.81a2.51,2.51,0,0,0-.17-.55c-.09-.16-.21-.31-.32-.47a.49.49,0,0,0-.86.39,5.54,5.54,0,0,0,.14.55,1.81,1.81,0,0,0,.29.48A.52.52,0,0,0,299.15,197.81Z"/><path class="cls-1" d="M293.62,217.55c-.09-.88-1.45-.67-1.36.21S293.71,218.43,293.62,217.55Z"/><path class="cls-1" d="M288.06,192.08a.69.69,0,0,0-.08-1,1.89,1.89,0,0,0-.65-.24.56.56,0,0,0-.57.78,1.59,1.59,0,0,0,.27.45A.69.69,0,0,0,288.06,192.08Z"/><path class="cls-1" d="M281.86,108.1a1.34,1.34,0,0,0,0-.4.84.84,0,0,0-.95-.7.87.87,0,0,0-.7,1,2.36,2.36,0,0,0,.1.38.81.81,0,0,0,.87.47A.83.83,0,0,0,281.86,108.1Z"/><path class="cls-1" d="M267.1,89.25a.7.7,0,0,0-.07-.47c-.21-.37-.86-.46-1,0a.94.94,0,0,0,0,.62.55.55,0,0,0,.45.32.75.75,0,0,0,.15,0A.57.57,0,0,0,267.1,89.25Z"/><path class="cls-1" d="M264.86,94.08c-.08-.71-1.17-.54-1.1.17S264.93,94.79,264.86,94.08Z"/><path class="cls-1" d="M278.75,95.58a1,1,0,0,0,.8-1,.93.93,0,0,0-.83-.92h-.18a1,1,0,0,0-1,.6.93.93,0,0,0,0,.75,1,1,0,0,0,1,.56Z"/><path class="cls-1" d="M270.42,102.87s-.06,0-.05,0S270.43,102.9,270.42,102.87Z"/><path class="cls-1" d="M245,103.78c.27.21.59-.19.4-.45a.94.94,0,0,0-1.55.3.59.59,0,1,0,1.15.15Z"/><path class="cls-1" d="M238,122l0-.53a.48.48,0,0,0-.77-.3l-.39.37a.74.74,0,1,0,1.2.46Z"/><path class="cls-1" d="M243.5,124.21a1.19,1.19,0,0,0,.19-.83,1.77,1.77,0,0,0-.35-1.09,1.41,1.41,0,0,0-1.37-.53l-.18,0a1.26,1.26,0,0,0-1,1.07l0,.16a1.53,1.53,0,0,0,.93,1.55,1.56,1.56,0,0,0,.79.1A1.19,1.19,0,0,0,243.5,124.21Z"/><path class="cls-1" d="M260.5,150.21l-.07-.3c-.09-.37-.71-.42-.73,0v.34a.5.5,0,0,0,.51.73A.49.49,0,0,0,260.5,150.21Z"/><path class="cls-1" d="M247.63,164.45l-.17-.49c-.18-.53-1-.34-1,.15l-.07.53a.66.66,0,0,0,.75.73A.67.67,0,0,0,247.63,164.45Z"/><path class="cls-1" d="M272.71,106.39a.75.75,0,0,0,.61-.74.73.73,0,0,0-.64-.71c-.46,0-1,.23-1,.76A.79.79,0,0,0,272.71,106.39Z"/><path class="cls-1" d="M303.57,105.2c.11-1-1.44-1.42-1.7-.43l0,.08a.22.22,0,0,1,0,.08.67.67,0,0,0,0,.48A.89.89,0,0,0,303.57,105.2Z"/><path class="cls-1" d="M436.86,150.32a1.34,1.34,0,0,0,1.33-.54.77.77,0,0,0,.17-.39,1.14,1.14,0,0,0,.24-.7,1.4,1.4,0,0,0-1.29-1.43,1.55,1.55,0,0,0-1.58,2A1.44,1.44,0,0,0,436.86,150.32Z"/><path class="cls-1" d="M427.67,166.51c.42-1.07-1.27-1.63-1.69-.57S427.25,167.57,427.67,166.51Z"/><path class="cls-1" d="M404.66,136.37a1.22,1.22,0,0,0-.24-1.17,1.24,1.24,0,0,0-1.14-.38l-.15,0a1.12,1.12,0,0,0-.76,1.58,2.9,2.9,0,0,0,.25.36A1.21,1.21,0,0,0,404.66,136.37Z"/><path class="cls-1" d="M361.75,130.5a1,1,0,0,0,.92-.5.89.89,0,0,0-.19-1,.91.91,0,1,0-.73,1.51Z"/><path class="cls-1" d="M367.71,126.79l0-.26c.05-.36-.45-.47-.63-.21l-.16.21C366.58,127.06,367.62,127.51,367.71,126.79Z"/><path class="cls-1" d="M419.92,194.51c.55-1.41-1.67-2.14-2.22-.74S419.37,195.9,419.92,194.51Z"/><path class="cls-1" d="M429.68,161a1,1,0,0,1,.14-.24.59.59,0,0,0,.05-.83l0,0a.49.49,0,0,0-.47-.16h-.06a.56.56,0,0,0-.45.6l-.05.23a.49.49,0,0,0,.87.43Z"/><path class="cls-1" d="M405.5,176.61s0-.05-.06,0S405.48,176.64,405.5,176.61Z"/><path class="cls-1" d="M410.13,178.1l.22,0a.8.8,0,0,0,.43-1.29l-.14-.2a.94.94,0,1,0-.51,1.54Z"/><path class="cls-1" d="M432.4,185.08l0-.51a.77.77,0,0,0-.52-.76.79.79,0,0,0-.87.29c-.12.14-.23.28-.35.41a.94.94,0,1,0,1.72.57Z"/><path class="cls-1" d="M335.57,152.84a.63.63,0,0,0,.32-.66v-.09a.62.62,0,0,0-.34-.43l0,0a.48.48,0,0,0-.84.29V152a.62.62,0,0,0,.13.61l.06.07A.61.61,0,0,0,335.57,152.84Z"/><path class="cls-1" d="M370.49,140.58c.31-.78-.93-1.19-1.24-.41S370.18,141.36,370.49,140.58Z"/><path class="cls-1" d="M348.93,115.44,349,115a.8.8,0,0,0-1.46-.49l-.25.35a.91.91,0,0,0,.46,1.37A.93.93,0,0,0,348.93,115.44Z"/><path class="cls-1" d="M383.68,119.39c.26-.67-.8-1-1.06-.36S383.42,120.05,383.68,119.39Z"/><path class="cls-1" d="M386.45,124.24c.64-1.64-1.95-2.49-2.59-.86S385.81,125.86,386.45,124.24Z"/><path class="cls-1" d="M416.1,131.73l.17,0a.72.72,0,0,0,.72-.49.74.74,0,0,0-.28-.83l-.15-.09a.76.76,0,1,0-.46,1.38Z"/><path class="cls-1" d="M428.64,116.2a1.55,1.55,0,0,0,.24-.27.75.75,0,1,0-1.37-.46,1,1,0,0,0,0,.35A.69.69,0,0,0,428.64,116.2Z"/><path class="cls-1" d="M423.37,115.94c-.31-.1-.57-.23-.88-.08a.47.47,0,0,0-.2.6c.12.3.46.39.73.52C423.65,117.26,424.05,116.16,423.37,115.94Z"/><path class="cls-1" d="M458.81,161.32a.83.83,0,0,0-.08-1.29,3.36,3.36,0,0,0-.67-.37.62.62,0,0,0-.8.72,2.85,2.85,0,0,0,.28.7A.83.83,0,0,0,458.81,161.32Z"/><path class="cls-1" d="M443.1,165.8a.73.73,0,0,0,.07-1.24l-.26-.2a.53.53,0,0,0-.82.41l0,.35A.73.73,0,0,0,443.1,165.8Z"/><path class="cls-1" d="M426.56,209.45a2.2,2.2,0,0,0,.1-.57c0-.18,0-.37-.07-.56a.49.49,0,0,0-.94,0,5.47,5.47,0,0,0-.13.55,2.19,2.19,0,0,0,0,.57A.52.52,0,0,0,426.56,209.45Z"/><path class="cls-1" d="M412.63,224.49c.32-.83-1-1.26-1.31-.44S412.3,225.31,412.63,224.49Z"/><path class="cls-1" d="M419.32,199.29a.69.69,0,0,0,.39-1,1.82,1.82,0,0,0-.46-.5.56.56,0,0,0-.87.43,1.51,1.51,0,0,0,0,.52A.69.69,0,0,0,419.32,199.29Z"/><path class="cls-1" d="M452.15,121.75a1.52,1.52,0,0,0,.18-.36.84.84,0,0,0-.52-1,.86.86,0,0,0-1.06.52,1.83,1.83,0,0,0-.09.39.81.81,0,0,0,1.49.5Z"/><path class="cls-1" d="M447.63,98.24a.77.77,0,0,0,.15-.46c0-.42-.56-.8-.91-.43a.88.88,0,0,0-.27.55.57.57,0,0,0,.25.49.61.61,0,0,0,.14.07A.6.6,0,0,0,447.63,98.24Z"/><path class="cls-1" d="M443.43,101.51c.26-.67-.8-1-1.06-.35S443.17,102.17,443.43,101.51Z"/><path class="cls-1" d="M455.11,109.19a1,1,0,0,0,1.14-.49.92.92,0,0,0-.32-1.2l-.16-.08a1,1,0,0,0-1.17.08.92.92,0,0,0-.33.67,1,1,0,0,0,.66,1Z"/><path class="cls-1" d="M444.36,111.87a0,0,0,1,0-.05,0S444.35,111.9,444.36,111.87Z"/><path class="cls-1" d="M421.36,101.08c.15.31.61.1.56-.22a.94.94,0,0,0-1.51-.44.6.6,0,0,0,.13,1A.61.61,0,0,0,421.36,101.08Z"/><path class="cls-1" d="M406.74,114.05l.21-.49a.48.48,0,0,0-.55-.62l-.51.15a.74.74,0,1,0,.85,1Z"/><path class="cls-1" d="M410.67,118.56a1.15,1.15,0,0,0,.54-.65,1.69,1.69,0,0,0,.19-1.13,1.4,1.4,0,0,0-1-1.1l-.19,0a1.28,1.28,0,0,0-1.42.48l-.08.14a1.5,1.5,0,0,0,.11,1.79,1.59,1.59,0,0,0,.67.46A1.23,1.23,0,0,0,410.67,118.56Z"/><path class="cls-1" d="M413.92,149.45c0-.1,0-.19.07-.29.08-.37-.43-.71-.65-.32-.06.1-.12.2-.17.3a.49.49,0,1,0,.75.31Z"/><path class="cls-1" d="M396,156.24c0-.17.05-.34.08-.51.08-.55-.7-.74-1-.33l-.31.44a.66.66,0,1,0,1.21.4Z"/><path class="cls-1" d="M444.79,116a.73.73,0,0,0,.64-1.3.84.84,0,0,0-1.22.24A.79.79,0,0,0,444.79,116Z"/><path class="cls-1" d="M472.79,129.08c.54-.81-.64-1.92-1.32-1.16l-.05.06a.25.25,0,0,0,0,.07.62.62,0,0,0-.2.44A.89.89,0,0,0,472.79,129.08Z"/><path class="cls-1" d="M344.58,229a1.32,1.32,0,0,0-.09,1.43.8.8,0,0,0,.28.33,1.19,1.19,0,0,0,.52.52,1.4,1.4,0,0,0,1.85-.55,1.55,1.55,0,0,0-1.09-2.28A1.46,1.46,0,0,0,344.58,229Z"/><path class="cls-1" d="M334,213.71c.78.84,2-.44,1.24-1.28S333.19,212.87,334,213.71Z"/><path class="cls-1" d="M371.09,206a1.21,1.21,0,0,0,1.16.3,1.28,1.28,0,0,0,.84-.87.42.42,0,0,0,0-.15,1.12,1.12,0,0,0-1.09-1.37,3.73,3.73,0,0,0-.44.08A1.2,1.2,0,0,0,371.09,206Z"/><path class="cls-1" d="M395,169.87a1,1,0,0,0,.05,1,.89.89,0,0,0,1,.26.91.91,0,1,0-1.05-1.31Z"/><path class="cls-1" d="M395.73,176.85l.22.14c.3.2.61-.2.46-.48l-.13-.23C396,175.71,395.12,176.46,395.73,176.85Z"/><path class="cls-1" d="M312.08,194.6c1,1.1,2.65-.58,1.63-1.68S311.06,193.5,312.08,194.6Z"/><path class="cls-1" d="M338.05,217.9a.91.91,0,0,1,.15.23.61.61,0,0,0,.73.41H339a.53.53,0,0,0,.35-.36l0-.06a.58.58,0,0,0-.35-.67l-.19-.14a.49.49,0,0,0-.64,0A.5.5,0,0,0,338.05,217.9Z"/><path class="cls-1" d="M334.46,189.35s.06,0,0,0A0,0,0,1,0,334.46,189.35Z"/><path class="cls-1" d="M331.11,192.88l-.05.22a.8.8,0,0,0,1,.94l.24,0a.94.94,0,1,0-1.17-1.12Z"/><path class="cls-1" d="M315.17,209.93l.46.24a.79.79,0,0,0,.91-.14.8.8,0,0,0,.11-.91c-.08-.16-.15-.33-.22-.49a.94.94,0,0,0-1.48-.18A1,1,0,0,0,315.17,209.93Z"/><path class="cls-1" d="M386.15,136.6a.63.63,0,0,0,.46.57l.09,0a.58.58,0,0,0,.53-.12h0c.36-.14.52-.69.1-.88l-.08,0a.64.64,0,0,0-.6-.16l-.09,0A.63.63,0,0,0,386.15,136.6Z"/><path class="cls-1" d="M382.09,173.39c.57.61,1.48-.33.91-.94S381.52,172.77,382.09,173.39Z"/><path class="cls-1" d="M414.08,164.83l.35.23A.8.8,0,0,0,415.5,164l-.2-.38a.91.91,0,1,0-1.22,1.26Z"/><path class="cls-1" d="M395.49,194.45c.48.52,1.26-.28.77-.8S395,193.93,395.49,194.45Z"/><path class="cls-1" d="M389.91,194.85c1.2,1.28,3.09-.68,1.9-2S388.72,193.57,389.91,194.85Z"/><path class="cls-1" d="M370.33,218.33l-.11.14a.73.73,0,0,0,.13.86.74.74,0,0,0,.87.11l.15-.1a.75.75,0,1,0-1-1Z"/><path class="cls-1" d="M378.9,236.36a1,1,0,0,0,.14.33.75.75,0,0,0,1.18.14.77.77,0,0,0-.18-1.18,1.83,1.83,0,0,0-.32-.14C379.21,235.34,378.78,235.9,378.9,236.36Z"/><path class="cls-1" d="M381.41,231.72c.22-.23.45-.41.45-.76a.45.45,0,0,0-.45-.43c-.33,0-.55.24-.78.43C380.09,231.4,380.91,232.24,381.41,231.72Z"/><path class="cls-1" d="M325.16,244a.83.83,0,0,0,1.2.49,3.32,3.32,0,0,0,.62-.44.63.63,0,0,0-.3-1,2.7,2.7,0,0,0-.75,0A.82.82,0,0,0,325.16,244Z"/><path class="cls-1" d="M327.93,227.92a.73.73,0,0,0,1.08.61l.29-.15a.53.53,0,0,0,0-.92l-.3-.18A.72.72,0,0,0,327.93,227.92Z"/><path class="cls-1" d="M295.74,194.12a2.15,2.15,0,0,0,.46.33,4.93,4.93,0,0,0,.54.19.49.49,0,0,0,.45-.83,5.28,5.28,0,0,0-.44-.36,2,2,0,0,0-.53-.2A.52.52,0,0,0,295.74,194.12Z"/><path class="cls-1" d="M288.21,175.05c.61.65,1.56-.34,1-1S287.61,174.4,288.21,175.05Z"/><path class="cls-1" d="M308,192a.69.69,0,0,0,.69.77,2.19,2.19,0,0,0,.66-.2.57.57,0,0,0,0-1,1.39,1.39,0,0,0-.49-.19A.68.68,0,0,0,308,192Z"/><path class="cls-1" d="M363.71,255.15a2,2,0,0,0,.25.32.84.84,0,0,0,1.18,0,.86.86,0,0,0,0-1.18,1.61,1.61,0,0,0-.32-.25.82.82,0,0,0-1,.15A.85.85,0,0,0,363.71,255.15Z"/><path class="cls-1" d="M386.87,261.25a.64.64,0,0,0,.34.33c.39.18,1-.15.79-.62a.87.87,0,0,0-.38-.48.54.54,0,0,0-.56,0s-.09.05-.11.09A.58.58,0,0,0,386.87,261.25Z"/><path class="cls-1" d="M385.74,256.05c.49.52,1.26-.28.77-.8S385.25,255.53,385.74,256.05Z"/><path class="cls-1" d="M373.76,263.25a1,1,0,0,0-.06,1.25.93.93,0,0,0,1.22.23l.14-.11a1,1,0,0,0,.44-1.09.91.91,0,0,0-.46-.59,1,1,0,0,0-1.16.18Z"/><path class="cls-1" d="M376,252.41a0,0,0,1,0,0,0S376,252.38,376,252.41Z"/><path class="cls-1" d="M395.68,236.34c-.35,0-.36.51-.05.6.63.21,1.25-.59,1.05-1.17a.59.59,0,1,0-1,.57Z"/><path class="cls-1" d="M390.31,217.55l.35.4a.49.49,0,0,0,.8-.23l.08-.53a.74.74,0,1,0-1.23.36Z"/><path class="cls-1" d="M384.55,219.13a1.14,1.14,0,0,0,.35.78,1.78,1.78,0,0,0,.94.66,1.43,1.43,0,0,0,1.41-.4l.11-.15a1.27,1.27,0,0,0,.18-1.49l-.08-.14a1.52,1.52,0,0,0-1.67-.67,1.67,1.67,0,0,0-.7.4A1.2,1.2,0,0,0,384.55,219.13Z"/><path class="cls-1" d="M355.29,208.69l.24.19c.3.24.82-.08.57-.44l-.2-.29a.5.5,0,0,0-.85-.27A.49.49,0,0,0,355.29,208.69Z"/><path class="cls-1" d="M356.94,189.57l.44.29c.46.31,1-.31.72-.74l-.27-.47a.66.66,0,1,0-.89.92Z"/><path class="cls-1" d="M372.05,251a.73.73,0,0,0,.89,1.13.83.83,0,0,0,.32-1.19A.79.79,0,0,0,372.05,251Z"/><path class="cls-1" d="M348.17,270.58c.5.84,2,.26,1.61-.68l0-.07a.43.43,0,0,0,0-.07.6.6,0,0,0-.31-.37A.89.89,0,0,0,348.17,270.58Z"/><path class="cls-1" d="M404.31,64a1.33,1.33,0,0,0,1.33-.53.91.91,0,0,0,.17-.39,1.23,1.23,0,0,0,.24-.7,1.4,1.4,0,0,0-1.29-1.43,1.55,1.55,0,0,0-1.59,2A1.46,1.46,0,0,0,404.31,64Z"/><path class="cls-1" d="M395.12,80.16c.42-1.07-1.28-1.63-1.7-.56S394.7,81.23,395.12,80.16Z"/><path class="cls-1" d="M372.11,50a1.19,1.19,0,0,0-.24-1.16,1.27,1.27,0,0,0-1.15-.39.4.4,0,0,0-.15,0,1.12,1.12,0,0,0-.76,1.57,2.45,2.45,0,0,0,.26.37A1.21,1.21,0,0,0,372.11,50Z"/><path class="cls-1" d="M329.19,44.15a.92.92,0,0,0,.92-.5.86.86,0,0,0-.19-1,.91.91,0,1,0-.73,1.51Z"/><path class="cls-1" d="M335.15,40.44l0-.26c.05-.35-.44-.47-.63-.21l-.15.22C334,40.71,335.06,41.16,335.15,40.44Z"/><path class="cls-1" d="M387.36,108.16c.55-1.4-1.67-2.14-2.22-.74S386.82,109.56,387.36,108.16Z"/><path class="cls-1" d="M397.12,74.66a1.76,1.76,0,0,1,.14-.23.6.6,0,0,0,.06-.83l0,0a.49.49,0,0,0-.48-.16h-.06a.58.58,0,0,0-.45.6l-.05.23a.5.5,0,0,0,.25.59A.48.48,0,0,0,397.12,74.66Z"/><path class="cls-1" d="M372.94,90.26a0,0,0,1,0-.05,0A0,0,0,1,0,372.94,90.26Z"/><path class="cls-1" d="M377.57,91.75l.22,0a.8.8,0,0,0,.43-1.29l-.14-.2a.94.94,0,1,0-.51,1.54Z"/><path class="cls-1" d="M399.84,98.74l0-.52a.75.75,0,0,0-1.38-.46l-.36.41a.94.94,0,1,0,1.72.57Z"/><path class="cls-1" d="M303,66.49a.6.6,0,0,0,.31-.65v-.1a.55.55,0,0,0-.34-.42l0,0c-.28-.26-.85-.16-.84.29a.17.17,0,0,0,0,.1.6.6,0,0,0,.12.61l.06.06A.61.61,0,0,0,303,66.49Z"/><path class="cls-1" d="M337.93,54.23c.31-.78-.93-1.19-1.23-.41S337.63,55,337.93,54.23Z"/><path class="cls-1" d="M316.38,29.1l0-.41a.78.78,0,0,0-.54-.8.83.83,0,0,0-.92.31l-.25.34a.91.91,0,1,0,1.67.56Z"/><path class="cls-1" d="M351.12,33c.26-.66-.79-1-1.05-.35S350.86,33.71,351.12,33Z"/><path class="cls-1" d="M353.89,37.89c.64-1.63-1.94-2.49-2.58-.86S353.25,39.52,353.89,37.89Z"/><path class="cls-1" d="M383.54,45.38l.17,0a.72.72,0,0,0,.44-1.32L384,44a.76.76,0,1,0-.46,1.38Z"/><path class="cls-1" d="M396.09,29.85a1.49,1.49,0,0,0,.23-.27.75.75,0,0,0-.38-1.12.77.77,0,0,0-1,.67,1.37,1.37,0,0,0,0,.35A.7.7,0,0,0,396.09,29.85Z"/><path class="cls-1" d="M390.81,29.59a1.06,1.06,0,0,0-.87-.07.45.45,0,0,0-.2.59c.12.31.45.39.73.52C391.1,30.92,391.5,29.82,390.81,29.59Z"/><path class="cls-1" d="M426.26,75a.83.83,0,0,0-.09-1.29,2.38,2.38,0,0,0-.66-.37.63.63,0,0,0-.81.72,2.8,2.8,0,0,0,.29.69A.83.83,0,0,0,426.26,75Z"/><path class="cls-1" d="M410.54,79.45a.73.73,0,0,0,.08-1.24l-.26-.19a.53.53,0,0,0-.82.41l0,.34A.72.72,0,0,0,410.54,79.45Z"/><path class="cls-1" d="M394,123.1a1.84,1.84,0,0,0,.1-.56A5,5,0,0,0,394,122a.5.5,0,0,0-1-.06,5.59,5.59,0,0,0-.12.56,1.83,1.83,0,0,0,0,.57A.52.52,0,0,0,394,123.1Z"/><path class="cls-1" d="M380.07,138.14c.33-.82-1-1.26-1.31-.43S379.75,139,380.07,138.14Z"/><path class="cls-1" d="M386.76,112.94a.67.67,0,0,0,.39-1,1.72,1.72,0,0,0-.46-.51.56.56,0,0,0-.86.44,1.52,1.52,0,0,0,0,.52A.69.69,0,0,0,386.76,112.94Z"/><path class="cls-1" d="M419.6,35.41a3,3,0,0,0,.18-.36.83.83,0,1,0-1.58-.53,1.83,1.83,0,0,0-.09.39.81.81,0,0,0,.55.82A.87.87,0,0,0,419.6,35.41Z"/><path class="cls-1" d="M415.07,11.89a.72.72,0,0,0,.15-.45c0-.43-.55-.8-.91-.44a.89.89,0,0,0-.26.55.53.53,0,0,0,.25.5l.13.06A.57.57,0,0,0,415.07,11.89Z"/><path class="cls-1" d="M410.87,15.16c.26-.66-.79-1-1.05-.35S410.61,15.83,410.87,15.16Z"/><path class="cls-1" d="M422.55,22.84a1,1,0,0,0,.83-1.69l-.16-.08a1,1,0,0,0-1.18.08.93.93,0,0,0-.32.68,1,1,0,0,0,.66,1Z"/><path class="cls-1" d="M411.81,25.52s0-.05-.06,0S411.8,25.56,411.81,25.52Z"/><path class="cls-1" d="M388.8,14.74c.15.31.61.1.57-.22a.94.94,0,0,0-1.52-.44.6.6,0,0,0,.13,1A.61.61,0,0,0,388.8,14.74Z"/><path class="cls-1" d="M374.18,27.71l.21-.49a.48.48,0,0,0-.55-.62l-.51.15a.74.74,0,1,0,.85,1Z"/><path class="cls-1" d="M378.11,32.22a1.22,1.22,0,0,0,.55-.66,1.8,1.8,0,0,0,.19-1.13,1.41,1.41,0,0,0-1-1.09l-.18-.05a1.28,1.28,0,0,0-1.42.49l-.09.13a1.51,1.51,0,0,0,.78,2.25A1.21,1.21,0,0,0,378.11,32.22Z"/><path class="cls-1" d="M381.36,63.11l.07-.3c.09-.37-.43-.7-.65-.32l-.17.31a.5.5,0,0,0,.12.88A.49.49,0,0,0,381.36,63.11Z"/><path class="cls-1" d="M363.41,69.9l.07-.52c.08-.55-.7-.73-1-.33l-.3.44a.66.66,0,1,0,1.21.41Z"/><path class="cls-1" d="M412.23,29.69a.72.72,0,0,0,.88-.37.71.71,0,0,0-.24-.92.83.83,0,0,0-1.21.23A.79.79,0,0,0,412.23,29.69Z"/><path class="cls-1" d="M440.23,42.73c.54-.8-.63-1.91-1.31-1.15l-.05.06-.05.07a.67.67,0,0,0-.2.43A.89.89,0,0,0,440.23,42.73Z"/><path class="cls-1" d="M312,142.66a1.34,1.34,0,0,0-.09,1.43.88.88,0,0,0,.28.33,1.22,1.22,0,0,0,.52.51,1.4,1.4,0,0,0,1.85-.54,1.55,1.55,0,0,0-1.08-2.28A1.46,1.46,0,0,0,312,142.66Z"/><path class="cls-1" d="M301.41,127.37c.78.84,2-.45,1.24-1.28S300.63,126.53,301.41,127.37Z"/><path class="cls-1" d="M338.54,119.67a1.19,1.19,0,0,0,1.15.29,1.24,1.24,0,0,0,.85-.87.57.57,0,0,0,0-.14c.11-.64-.35-1.46-1.09-1.37a3.11,3.11,0,0,0-.44.07A1.21,1.21,0,0,0,338.54,119.67Z"/><path class="cls-1" d="M362.41,83.53a.92.92,0,0,0,0,1,.87.87,0,0,0,1,.27.91.91,0,1,0-1-1.31Z"/><path class="cls-1" d="M363.17,90.51l.22.14c.3.19.62-.2.46-.48l-.12-.24C363.42,89.37,362.56,90.11,363.17,90.51Z"/><path class="cls-1" d="M279.52,108.26c1,1.1,2.66-.58,1.63-1.68S278.5,107.16,279.52,108.26Z"/><path class="cls-1" d="M305.5,131.55a1.82,1.82,0,0,1,.15.23.59.59,0,0,0,.72.41h.05a.46.46,0,0,0,.35-.36l0,0a.58.58,0,0,0-.35-.67l-.18-.15a.5.5,0,0,0-.64,0A.48.48,0,0,0,305.5,131.55Z"/><path class="cls-1" d="M301.9,103s.06,0,0,0S301.88,103,301.9,103Z"/><path class="cls-1" d="M298.56,106.53l-.05.22a.79.79,0,0,0,1,1l.24,0a.94.94,0,1,0-1.16-1.13Z"/><path class="cls-1" d="M282.62,123.59l.45.24a.76.76,0,0,0,1-1l-.21-.5a.94.94,0,1,0-1.26,1.31Z"/><path class="cls-1" d="M353.6,50.26a.63.63,0,0,0,.45.57l.09,0a.57.57,0,0,0,.53-.12l0,0a.49.49,0,0,0,.1-.88l-.09,0a.6.6,0,0,0-.6-.15l-.09,0A.59.59,0,0,0,353.6,50.26Z"/><path class="cls-1" d="M349.54,87c.57.62,1.47-.32.9-.93S349,86.43,349.54,87Z"/><path class="cls-1" d="M381.52,78.49l.35.22a.8.8,0,0,0,1-.14.85.85,0,0,0,.12-1l-.2-.37a.91.91,0,1,0-1.23,1.26Z"/><path class="cls-1" d="M362.93,108.1c.49.53,1.26-.27.77-.79S362.44,107.58,362.93,108.1Z"/><path class="cls-1" d="M357.36,108.5c1.19,1.29,3.08-.67,1.89-2S356.17,107.22,357.36,108.5Z"/><path class="cls-1" d="M337.77,132l-.1.14a.72.72,0,0,0,.13.86.73.73,0,0,0,.86.1l.16-.09a.76.76,0,1,0-1.05-1Z"/><path class="cls-1" d="M346.34,150a1.36,1.36,0,0,0,.14.33.75.75,0,1,0,1-1,1,1,0,0,0-.32-.14C346.66,149,346.23,149.55,346.34,150Z"/><path class="cls-1" d="M348.86,145.38c.22-.23.45-.42.44-.76a.45.45,0,0,0-.44-.44c-.34,0-.55.24-.79.44C347.54,145.06,348.36,145.9,348.86,145.38Z"/><path class="cls-1" d="M292.6,157.68a.83.83,0,0,0,1.2.48,2.65,2.65,0,0,0,.62-.43.63.63,0,0,0-.3-1,2.37,2.37,0,0,0-.75,0A.82.82,0,0,0,292.6,157.68Z"/><path class="cls-1" d="M295.37,141.58a.73.73,0,0,0,1.09.61l.28-.16a.53.53,0,0,0,0-.91l-.29-.19A.73.73,0,0,0,295.37,141.58Z"/><path class="cls-1" d="M263.18,107.78a2.21,2.21,0,0,0,.47.33,4.72,4.72,0,0,0,.53.18.5.5,0,0,0,.46-.83c-.15-.11-.29-.25-.45-.35a1.89,1.89,0,0,0-.53-.21A.52.52,0,0,0,263.18,107.78Z"/><path class="cls-1" d="M255.65,88.71c.61.65,1.57-.35,1-1S255.05,88.06,255.65,88.71Z"/><path class="cls-1" d="M275.47,105.65c0,.36.28.82.69.76a1.86,1.86,0,0,0,.66-.19.56.56,0,0,0,0-1,1.49,1.49,0,0,0-.49-.2A.7.7,0,0,0,275.47,105.65Z"/><path class="cls-1" d="M331.16,168.81a1.78,1.78,0,0,0,.24.32.85.85,0,0,0,1.18,0,.85.85,0,0,0,0-1.18,1.89,1.89,0,0,0-.31-.25.82.82,0,0,0-1,.15A.83.83,0,0,0,331.16,168.81Z"/><path class="cls-1" d="M354.31,174.91a.75.75,0,0,0,.35.33c.38.17,1-.15.78-.63a.86.86,0,0,0-.38-.48.54.54,0,0,0-.55,0,.58.58,0,0,0-.12.1A.57.57,0,0,0,354.31,174.91Z"/><path class="cls-1" d="M353.18,169.71c.49.52,1.26-.28.78-.8S352.7,169.18,353.18,169.71Z"/><path class="cls-1" d="M341.2,176.91a1,1,0,0,0,1.17,1.48l.14-.11a1,1,0,0,0,.44-1.09.93.93,0,0,0-.47-.59,1,1,0,0,0-1.16.17Z"/><path class="cls-1" d="M343.44,166.07s.06,0,0,0A0,0,0,1,0,343.44,166.07Z"/><path class="cls-1" d="M363.12,150c-.35,0-.36.5-.05.6.64.21,1.26-.59,1.06-1.18a.6.6,0,0,0-.94-.3A.61.61,0,0,0,363.12,150Z"/><path class="cls-1" d="M357.76,131.2l.34.4a.48.48,0,0,0,.8-.23l.09-.52a.74.74,0,1,0-1.23.35Z"/><path class="cls-1" d="M352,132.79a1.2,1.2,0,0,0,.35.78,1.78,1.78,0,0,0,.94.66,1.41,1.41,0,0,0,1.41-.41l.12-.15a1.27,1.27,0,0,0,.18-1.48l-.09-.14a1.52,1.52,0,0,0-1.67-.67,1.45,1.45,0,0,0-.69.4A1.2,1.2,0,0,0,352,132.79Z"/><path class="cls-1" d="M322.74,122.35l.23.19c.3.24.82-.08.57-.45l-.2-.28a.5.5,0,0,0-.84-.28A.49.49,0,0,0,322.74,122.35Z"/><path class="cls-1" d="M324.39,103.23l.43.29c.46.31,1-.32.72-.75l-.26-.46a.67.67,0,0,0-1-.12A.68.68,0,0,0,324.39,103.23Z"/><path class="cls-1" d="M339.49,164.64a.76.76,0,0,0,0,1,.73.73,0,0,0,.94.18.84.84,0,0,0,.31-1.2A.8.8,0,0,0,339.49,164.64Z"/><path class="cls-1" d="M315.62,184.24c.49.83,2,.26,1.61-.69l0-.07a.43.43,0,0,1,0-.07.7.7,0,0,0-.31-.37A.89.89,0,0,0,315.62,184.24Z"/></g></g></svg>