<svg xmlns="http://www.w3.org/2000/svg" viewBox="0 0 146.72 146.97"><defs><style>.cls-1{isolation:isolate;}.cls-2{mix-blend-mode:multiply;}.cls-3{fill:#d1d3d4;}.cls-4{fill:#006fc7;}</style></defs><g class="cls-1"><g id="Слой_2" data-name="Слой 2"><g id="Artwork"><g class="cls-2"><path class="cls-3" d="M134.52,65.53c-4.75-1.39-9.8-.58-13.2,3.17-1.3,1.43-2.41,3-4.39,3.49-2.25.6-4.25-.36-6-1.67-1.94-1.43-3.7-3.23-6.14-3.78s-4.15.5-5.72,2.25c-1.18,1.32-2.35,2.91-4.32,3A3.17,3.17,0,0,1,91.57,68c2.6,1.54,5.36.2,7.6-1.48s4-3,6.77-2.66c2,.26,3.78,1.15,5.76,1.33,3.28.3,5.59-1.73,7.54-4.12a43,43,0,0,0,5.36-8.54,42.91,42.91,0,0,0-9.82-2.24c-3.08-.31-6.15-.11-8.25,2.42-1.27,1.53-1.93,3.44-3.14,5-1.73,2.25-4,2.53-6.66,2.91C94,61,91.06,62,90.31,65a3.16,3.16,0,0,1-.55-5c1.42-1.35,3.37-1.06,5.14-1,2.35.12,4.31-.37,5.63-2.46s1.31-4.63,1.67-7c.33-2.17,1.07-4.27,3.08-5.44,1.77-1,3.65-.73,5.58-.63,5,.25,9.2-2.75,11.57-7.1S125,27,124.79,22.19c-4.84-.17-9.87,0-14.16,2.35s-7.35,6.52-7.09,11.58c.09,1.93.4,3.8-.63,5.57-1.18,2-3.27,2.75-5.45,3.08-2.39.36-4.9.33-7,1.67S87.86,49.73,88,52.08c.1,1.77.39,3.72-1,5.14a3.17,3.17,0,0,1-5-.55c2.94-.75,3.93-3.65,4.33-6.42.37-2.62.66-4.93,2.91-6.67,1.56-1.2,3.48-1.86,5-3.13,2.54-2.11,2.74-5.18,2.43-8.25a43.55,43.55,0,0,0-2.25-9.83,43.69,43.69,0,0,0-8.53,5.36c-2.4,2-4.42,4.27-4.12,7.55.18,2,1.07,3.8,1.32,5.76.37,2.81-1.07,4.65-2.65,6.77s-3,5-1.49,7.6A3.18,3.18,0,0,1,75,52.25c0-2,1.64-3.13,3-4.32,1.75-1.57,2.78-3.31,2.24-5.72S77.89,38,76.45,36.07c-1.3-1.77-2.26-3.78-1.67-6,.52-2,2.07-3.09,3.5-4.39,3.75-3.39,4.56-8.45,3.16-13.2S76.64,4.08,73.1.77c-3.54,3.31-7,7-8.34,11.68s-.59,9.81,3.16,13.2c1.43,1.3,3,2.41,3.5,4.39.59,2.25-.37,4.26-1.67,6-1.44,2-3.23,3.7-3.78,6.14s.49,4.15,2.24,5.72c1.32,1.19,2.91,2.36,3,4.32a3.18,3.18,0,0,1-3.93,3.16c1.54-2.61.19-5.37-1.49-7.6s-3-4-2.65-6.77c.25-2,1.14-3.78,1.32-5.76.3-3.28-1.72-5.59-4.12-7.55a43.69,43.69,0,0,0-8.53-5.36,43.55,43.55,0,0,0-2.25,9.83c-.31,3.07-.11,6.14,2.43,8.25,1.52,1.27,3.44,1.93,5,3.13,2.25,1.74,2.54,4.05,2.91,6.67.4,2.77,1.39,5.67,4.33,6.42a3.17,3.17,0,0,1-5,.55c-1.36-1.42-1.06-3.37-1-5.14.13-2.35-.37-4.31-2.46-5.64s-4.62-1.31-7-1.67c-2.18-.33-4.27-1.07-5.45-3.08-1-1.77-.72-3.64-.63-5.57.26-5.06-2.75-9.2-7.09-11.58S26.25,22,21.41,22.19c-.16,4.83,0,9.86,2.36,14.15s6.52,7.35,11.57,7.1c1.93-.1,3.81-.4,5.58.63,2,1.17,2.75,3.27,3.08,5.44.36,2.39.33,4.9,1.67,7S49,59.11,51.3,59c1.77-.1,3.72-.39,5.14,1a3.16,3.16,0,0,1-.55,5C55.14,62,52.24,61,49.47,60.64c-2.61-.38-4.93-.66-6.66-2.91-1.21-1.57-1.87-3.48-3.14-5-2.1-2.53-5.17-2.73-8.25-2.42a42.91,42.91,0,0,0-9.82,2.24A43,43,0,0,0,27,61.08c1.95,2.39,4.27,4.42,7.54,4.12,2-.18,3.8-1.07,5.76-1.33,2.82-.36,4.66,1.07,6.77,2.66s5,3,7.6,1.48a3.17,3.17,0,0,1-3.15,3.93c-2,0-3.14-1.63-4.32-3-1.57-1.75-3.31-2.79-5.72-2.25s-4.2,2.35-6.14,3.78c-1.78,1.31-3.78,2.27-6,1.67-2-.52-3.09-2.06-4.39-3.49-3.4-3.75-8.45-4.56-13.2-3.17S3.3,70.34,0,73.87c3.3,3.54,7,7,11.68,8.35s9.8.58,13.2-3.17c1.3-1.43,2.41-3,4.39-3.49,2.25-.6,4.25.36,6,1.67,1.94,1.43,3.7,3.23,6.14,3.77s4.15-.49,5.72-2.24c1.18-1.32,2.35-2.91,4.32-3a3.17,3.17,0,0,1,3.15,3.93c-2.6-1.54-5.36-.2-7.6,1.48s-4,3-6.77,2.66c-2-.26-3.78-1.15-5.76-1.33-3.27-.3-5.59,1.73-7.54,4.12a43,43,0,0,0-5.36,8.54,42.91,42.91,0,0,0,9.82,2.24c3.08.31,6.15.11,8.25-2.42,1.27-1.53,1.93-3.44,3.14-5,1.73-2.25,4-2.53,6.66-2.91,2.77-.39,5.67-1.39,6.42-4.32a3.16,3.16,0,0,1,.55,5c-1.42,1.35-3.37,1.06-5.14,1-2.34-.13-4.31.37-5.63,2.46s-1.31,4.63-1.67,7c-.33,2.17-1.07,4.27-3.08,5.44-1.77,1-3.65.73-5.58.63-5.05-.25-9.2,2.75-11.57,7.1s-2.52,9.32-2.36,14.15c4.84.17,9.87,0,14.16-2.35s7.35-6.52,7.09-11.58c-.09-1.93-.4-3.8.63-5.57,1.18-2,3.27-2.75,5.45-3.08,2.39-.36,4.9-.33,7-1.67s2.59-3.29,2.46-5.64c-.09-1.77-.39-3.72,1-5.14a3.17,3.17,0,0,1,5,.55c-2.94.75-3.93,3.65-4.33,6.42s-.66,4.93-2.91,6.67c-1.56,1.2-3.48,1.86-5,3.13-2.54,2.11-2.74,5.18-2.43,8.25a43.55,43.55,0,0,0,2.25,9.83A43.69,43.69,0,0,0,60.3,120c2.4-2,4.42-4.27,4.12-7.55-.18-2-1.07-3.8-1.32-5.76-.37-2.81,1.07-4.65,2.65-6.77s3-5,1.49-7.6a3.18,3.18,0,0,1,3.93,3.16c0,2-1.64,3.13-3,4.32-1.75,1.56-2.78,3.31-2.24,5.72s2.34,4.19,3.78,6.14c1.3,1.77,2.26,3.78,1.67,6-.52,2-2.07,3.09-3.5,4.39-3.75,3.39-4.56,8.45-3.16,13.2s4.8,8.37,8.34,11.67c3.54-3.3,7-7,8.34-11.67s.59-9.81-3.16-13.2c-1.43-1.3-3-2.41-3.5-4.39-.59-2.25.37-4.26,1.67-6,1.44-2,3.23-3.7,3.78-6.14s-.49-4.16-2.24-5.72c-1.32-1.19-2.91-2.36-3-4.32A3.18,3.18,0,0,1,79,92.34c-1.54,2.61-.19,5.37,1.49,7.6s3,4,2.65,6.77c-.25,2-1.14,3.78-1.32,5.76-.3,3.28,1.72,5.59,4.12,7.55a43.69,43.69,0,0,0,8.53,5.36,43.55,43.55,0,0,0,2.25-9.83c.31-3.07.11-6.14-2.43-8.25-1.52-1.27-3.44-1.93-5-3.13-2.25-1.74-2.54-4-2.91-6.67S85,91.83,82,91.08a3.17,3.17,0,0,1,5-.55c1.36,1.42,1.07,3.37,1,5.14-.13,2.35.37,4.31,2.46,5.64s4.62,1.31,7,1.67c2.18.33,4.27,1.07,5.45,3.08,1,1.77.72,3.64.63,5.57-.26,5.06,2.75,9.2,7.09,11.58s9.32,2.52,14.16,2.35c.16-4.83,0-9.86-2.36-14.15s-6.52-7.35-11.57-7.1c-1.93.1-3.81.4-5.58-.63-2-1.17-2.75-3.27-3.08-5.44-.36-2.39-.33-4.9-1.67-7s-3.28-2.59-5.63-2.46c-1.77.1-3.72.39-5.14-1a3.16,3.16,0,0,1,.55-5c.75,2.93,3.65,3.93,6.42,4.32,2.61.38,4.93.66,6.66,2.91,1.21,1.57,1.87,3.48,3.14,5,2.1,2.53,5.17,2.73,8.25,2.42a42.91,42.91,0,0,0,9.82-2.24,43,43,0,0,0-5.36-8.54c-1.95-2.39-4.26-4.42-7.54-4.12-2,.18-3.8,1.07-5.76,1.33-2.82.36-4.66-1.07-6.77-2.66s-5-3-7.6-1.48a3.17,3.17,0,0,1,3.15-3.93c2,0,3.14,1.63,4.32,3,1.57,1.75,3.31,2.79,5.72,2.24s4.2-2.34,6.14-3.77c1.78-1.31,3.78-2.27,6-1.67,2,.52,3.09,2.06,4.39,3.49,3.4,3.75,8.45,4.56,13.2,3.17s8.38-4.81,11.68-8.35C142.9,70.34,139.21,66.91,134.52,65.53ZM101,60.85c2.32-.89,3.53-2.83,4.7-4.91,1-1.76,2.06-3.62,4.08-4.34a12.6,12.6,0,0,1,5.73-.19,42.15,42.15,0,0,1,7.69,1.73A42.5,42.5,0,0,1,119,59.8a12.61,12.61,0,0,1-4.18,3.91c-2,.92-4,.35-6-.19-2.29-.64-4.52-1.16-6.79-.14-3.09,1.38-6.26,6-10,3.71a3.29,3.29,0,0,1,.89-.79.51.51,0,0,0,.19-.71.53.53,0,0,0-.64-.38,3.06,3.06,0,0,1-1.19.08C92.28,61,97.81,62.06,101,60.85Zm-9.64,5.47a3.81,3.81,0,0,0-.79,3.42,17.37,17.37,0,0,0-4.08.08l1.08-1.93-2.12-.59a18.33,18.33,0,0,0,2.94-2.84A3.75,3.75,0,0,0,91.33,66.32Zm-9,21.35A16.47,16.47,0,0,1,77.24,78a16.5,16.5,0,0,1,9.65,5.13,30.18,30.18,0,0,0-4.56,0A29.07,29.07,0,0,0,82.37,87.67Zm2.07-7.94A17.55,17.55,0,0,0,77.09,77a.66.66,0,0,0-.15-.22l-3.17-2.6,4.08.4a.47.47,0,0,0,.26,0,17.46,17.46,0,0,0,7.15,3.25.59.59,0,0,0,.07.25L86,79.22l-1.34.38A.63.63,0,0,0,84.44,79.73ZM82.33,64.65a30.18,30.18,0,0,0,4.56,0,16.43,16.43,0,0,1-9.65,5.12,16.48,16.48,0,0,1,5.13-9.65A29.06,29.06,0,0,0,82.33,64.65ZM84.44,68a.53.53,0,0,0,.23.14l1.34.38-.68,1.22a.59.59,0,0,0-.07.25,17.34,17.34,0,0,0-7.15,3.25.47.47,0,0,0-.26,0l-4.08.4L76.94,71a.66.66,0,0,0,.15-.22A17.43,17.43,0,0,0,84.44,68ZM79,73.87a16.56,16.56,0,0,1,10.45-3.2,31.68,31.68,0,0,0-3.25,3.2,29.75,29.75,0,0,0,3.25,3.2A16.44,16.44,0,0,1,79,73.87Zm4.52-14.73.08-.07a4.24,4.24,0,0,0,4.37-1.34c1.83-2.06.86-4.56,1.07-7,.46-5.34,6.89-4.26,10.55-5.33A6.94,6.94,0,0,0,104.61,40a20.24,20.24,0,0,0-.08-4.19,9.88,9.88,0,0,1,1.74-6c3.93-5.8,11-6.62,17.51-6.52.09,6.54-.73,13.58-6.53,17.51a9.92,9.92,0,0,1-6,1.73,20.15,20.15,0,0,0-4.18-.07,6.94,6.94,0,0,0-5.44,5.06c-1.07,3.66,0,10.1-5.33,10.56-2.46.21-5-.76-7,1.07a4.2,4.2,0,0,0-1.33,4.36l-.07.08h0a28.61,28.61,0,0,1-4.53.18,28.62,28.62,0,0,1,.19-4.53ZM83.6,45c1-2.26.49-4.49-.15-6.79-.54-1.95-1.1-4-.18-5.95A12.53,12.53,0,0,1,87.18,28a43.19,43.19,0,0,1,6.66-4.21,42.8,42.8,0,0,1,1.73,7.69,12.55,12.55,0,0,1-.2,5.72c-.72,2-2.58,3.08-4.34,4.08-2.07,1.17-4,2.38-4.9,4.7-1.21,3.17-.17,8.69-4.44,9.69a3.07,3.07,0,0,1,.07-1.19.52.52,0,0,0-.37-.63.53.53,0,0,0-.72.18,3,3,0,0,1-.79.9C77.57,51.22,82.21,48.05,83.6,45ZM77.23,56.43a3.77,3.77,0,0,0,3.42-.79,3.81,3.81,0,0,0,1.86,3,17.86,17.86,0,0,0-2.83,2.94l-.6-2.12-1.92,1.07A17.91,17.91,0,0,0,77.23,56.43Zm0,5.22L78.45,61c.13.45.25.9.38,1.35a.45.45,0,0,0,.13.22,17.41,17.41,0,0,0-2.76,7.36A.42.42,0,0,0,76,70l-2.6,3.16c.13-1.36.27-2.71.4-4.07a.55.55,0,0,0,0-.26A17.56,17.56,0,0,0,77,61.71.61.61,0,0,0,77.23,61.65ZM70,56a4.2,4.2,0,0,0,2.14-4c-.16-2.75-2.62-3.83-4.2-5.71-3.45-4.1,1.86-7.89,3.69-11.24a6.93,6.93,0,0,0-.26-7.43,20.22,20.22,0,0,0-3-2.9,10,10,0,0,1-3-5.5C64,12.32,68.4,6.77,73.1,2.21c4.7,4.56,9.09,10.11,7.77,17a10,10,0,0,1-3,5.5,20.22,20.22,0,0,0-3,2.9A6.93,6.93,0,0,0,74.55,35c1.83,3.35,7.14,7.14,3.69,11.24-1.58,1.88-4,3-4.2,5.71a4.2,4.2,0,0,0,2.14,4,.41.41,0,0,0,0,.11h0a30.38,30.38,0,0,1-3.08,3.33A29.34,29.34,0,0,1,70,56.13h0A.41.41,0,0,0,70,56Zm3.08,4.82a30.78,30.78,0,0,0,3.2-3.26A16.44,16.44,0,0,1,73.1,68a16.44,16.44,0,0,1-3.2-10.45A30.78,30.78,0,0,0,73.1,60.83Zm-.63,8a.55.55,0,0,0,0,.26c.13,1.36.27,2.71.4,4.07L70.22,70a.42.42,0,0,0-.22-.15,17.41,17.41,0,0,0-2.76-7.36.45.45,0,0,0,.13-.22c.13-.45.25-.9.38-1.35l1.22.69a.61.61,0,0,0,.25.06A17.56,17.56,0,0,0,72.47,68.87ZM63.87,83.1a30.18,30.18,0,0,0-4.56,0A16.5,16.5,0,0,1,69,78a16.47,16.47,0,0,1-5.13,9.66A29.07,29.07,0,0,0,63.87,83.1Zm-2.11-3.37a.63.63,0,0,0-.23-.13l-1.34-.38L60.87,78a.47.47,0,0,0,.07-.25,17.46,17.46,0,0,0,7.15-3.25.47.47,0,0,0,.26,0l4.08-.4-3.17,2.6a.66.66,0,0,0-.15.22A17.55,17.55,0,0,0,61.76,79.73Zm2.07-19.65A16.48,16.48,0,0,1,69,69.73a16.43,16.43,0,0,1-9.65-5.12,30.18,30.18,0,0,0,4.56,0A29.06,29.06,0,0,0,63.83,60.08ZM61.76,68a17.43,17.43,0,0,0,7.35,2.77.66.66,0,0,0,.15.22l3.17,2.6-4.08-.4a.47.47,0,0,0-.26,0A17.34,17.34,0,0,0,60.94,70a.47.47,0,0,0-.07-.25l-.68-1.22,1.34-.38A.53.53,0,0,0,61.76,68Zm5.49,5.86a16.44,16.44,0,0,1-10.45,3.2,29.75,29.75,0,0,0,3.25-3.2,31.68,31.68,0,0,0-3.25-3.2A16.56,16.56,0,0,1,67.25,73.87ZM60.07,46c-.88-2.32-2.83-3.53-4.9-4.7-1.76-1-3.62-2-4.34-4.08a12.55,12.55,0,0,1-.2-5.72,43.68,43.68,0,0,1,1.73-7.69A43.19,43.19,0,0,1,59,28a12.53,12.53,0,0,1,3.91,4.19c.92,1.94.36,4-.18,5.95-.64,2.3-1.16,4.53-.15,6.79,1.39,3.1,6,6.27,3.72,10a3,3,0,0,1-.79-.9.53.53,0,0,0-.72-.18.52.52,0,0,0-.37.63,3.07,3.07,0,0,1,.07,1.19C60.24,54.69,61.28,49.17,60.07,46Zm5.48,9.64a3.77,3.77,0,0,0,3.42.79A17.91,17.91,0,0,0,69,60.51l-1.92-1.07-.6,2.12a17.86,17.86,0,0,0-2.83-2.94A3.81,3.81,0,0,0,65.55,55.64ZM57,59.06c-2.06-1.83-4.56-.86-7-1.07-5.33-.46-4.26-6.9-5.33-10.56a6.94,6.94,0,0,0-5.44-5.06,20.15,20.15,0,0,0-4.18.07,9.92,9.92,0,0,1-6-1.73c-5.8-3.93-6.62-11-6.53-17.51,6.55-.1,13.59.72,17.51,6.52a9.88,9.88,0,0,1,1.74,6A20.24,20.24,0,0,0,41.59,40a6.94,6.94,0,0,0,5.07,5.44c3.66,1.07,10.09,0,10.55,5.33.22,2.45-.76,5,1.07,7a4.24,4.24,0,0,0,4.37,1.34l.08.07s0,0,0,0a29.85,29.85,0,0,1,.18,4.53,28.61,28.61,0,0,1-4.53-.18h0l-.07-.08A4.2,4.2,0,0,0,57,59.06Zm.88,5.4a18.33,18.33,0,0,0,2.94,2.84l-2.12.59,1.08,1.93a17.37,17.37,0,0,0-4.08-.08,3.81,3.81,0,0,0-.79-3.42A3.75,3.75,0,0,0,57.84,64.46Zm-4.11.75a.53.53,0,0,0-.64.38.51.51,0,0,0,.19.71,3.29,3.29,0,0,1,.89.79c-3.73,2.32-6.9-2.33-10-3.71-2.27-1-4.5-.5-6.79.14-2,.54-4,1.11-6,.19a12.61,12.61,0,0,1-4.18-3.91A42.5,42.5,0,0,1,23,53.14a42.15,42.15,0,0,1,7.69-1.73,12.6,12.6,0,0,1,5.73.19c2,.72,3.08,2.58,4.08,4.34,1.17,2.08,2.38,4,4.7,4.91,3.17,1.21,8.69.16,9.69,4.44A3.06,3.06,0,0,1,53.73,65.21Zm-2.52,9.6c-2.75.17-3.83,2.62-5.72,4.2-4.1,3.45-7.89-1.86-11.23-3.69a7,7,0,0,0-7.43.27,19.67,19.67,0,0,0-2.9,3,9.93,9.93,0,0,1-5.5,3C11.55,83,6,78.57,1.43,73.87c4.56-4.69,10.12-9.09,17-7.76a9.93,9.93,0,0,1,5.5,3,19.67,19.67,0,0,0,2.9,3,7,7,0,0,0,7.43.27c3.34-1.83,7.13-7.14,11.23-3.69,1.89,1.58,3,4,5.72,4.2a4.23,4.23,0,0,0,4-2.14h.11a29.51,29.51,0,0,1,3.34,3.07A28.69,28.69,0,0,1,55.35,77h-.11A4.23,4.23,0,0,0,51.21,74.81Zm-6,12.09c-2.32.89-3.53,2.83-4.7,4.91-1,1.76-2.06,3.61-4.08,4.34a12.6,12.6,0,0,1-5.73.19A42.15,42.15,0,0,1,23,94.61,42.5,42.5,0,0,1,27.25,88,12.61,12.61,0,0,1,31.43,84c2-.92,4-.35,6,.19,2.29.63,4.52,1.16,6.79.14,3.09-1.38,6.26-6,10-3.71a3.29,3.29,0,0,1-.89.79.51.51,0,0,0-.19.71.53.53,0,0,0,.64.38,3.06,3.06,0,0,1,1.19-.08C53.92,86.74,48.4,85.69,45.23,86.9Zm9.64-5.47A3.81,3.81,0,0,0,55.66,78a17.92,17.92,0,0,0,4.08-.08l-1.08,1.93,2.12.59a18.26,18.26,0,0,0-2.94,2.83A3.77,3.77,0,0,0,54.87,81.43Zm7.86,7.18-.08.07A4.24,4.24,0,0,0,58.28,90c-1.83,2.06-.85,4.56-1.07,7-.46,5.34-6.89,4.26-10.55,5.33a6.94,6.94,0,0,0-5.07,5.44,20.24,20.24,0,0,0,.08,4.19,9.88,9.88,0,0,1-1.74,6c-3.92,5.8-11,6.62-17.51,6.52C22.33,118,23.15,111,29,107a10,10,0,0,1,6-1.74,19.48,19.48,0,0,0,4.18.08,6.94,6.94,0,0,0,5.44-5.07c1.07-3.65,0-10.09,5.33-10.55,2.46-.21,5,.76,7-1.07a4.2,4.2,0,0,0,1.33-4.36l.07-.08h0a28.61,28.61,0,0,1,4.53-.18,29.85,29.85,0,0,1-.18,4.53S62.73,88.61,62.73,88.61Zm-.13,14.18c-1,2.27-.49,4.5.15,6.8.54,2,1.1,4,.18,6A12.53,12.53,0,0,1,59,119.73a43.19,43.19,0,0,1-6.66,4.21,43.68,43.68,0,0,1-1.73-7.69,12.55,12.55,0,0,1,.2-5.72c.72-2,2.58-3.08,4.34-4.08,2.07-1.17,4-2.38,4.9-4.7,1.21-3.17.17-8.69,4.44-9.69a3.07,3.07,0,0,1-.07,1.19.52.52,0,0,0,.37.63.53.53,0,0,0,.72-.18,3,3,0,0,1,.79-.9C68.63,96.53,64,99.7,62.6,102.79ZM69,91.32a3.74,3.74,0,0,0-3.42.79,3.81,3.81,0,0,0-1.86-3,17.86,17.86,0,0,0,2.83-2.94l.6,2.12L69,87.24A17.91,17.91,0,0,0,69,91.32Zm0-5.22-1.22.69c-.13-.45-.25-.9-.38-1.35a.45.45,0,0,0-.13-.22A17.41,17.41,0,0,0,70,77.86a.48.48,0,0,0,.22-.15l2.6-3.16c-.13,1.36-.27,2.71-.4,4.07a.55.55,0,0,0,0,.26A17.56,17.56,0,0,0,69.22,86,.61.61,0,0,0,69,86.1Zm7.21,5.63a4.23,4.23,0,0,0-2.14,4c.16,2.75,2.62,3.83,4.2,5.71,3.45,4.1-1.86,7.89-3.69,11.23a7,7,0,0,0,.26,7.44,20.22,20.22,0,0,0,3,2.9,10,10,0,0,1,3,5.5c1.32,6.88-3.07,12.43-7.77,17-4.7-4.56-9.09-10.11-7.77-17a10,10,0,0,1,3-5.5,20.22,20.22,0,0,0,3-2.9,7,7,0,0,0,.26-7.44c-1.83-3.34-7.14-7.13-3.69-11.23,1.58-1.88,4-3,4.2-5.71a4.23,4.23,0,0,0-2.14-4,.38.38,0,0,0,0-.1h0a29.34,29.34,0,0,1,3.07-3.33,30.38,30.38,0,0,1,3.08,3.33h0A.38.38,0,0,0,76.18,91.73ZM73.1,86.92a30.78,30.78,0,0,0-3.2,3.26,16.44,16.44,0,0,1,3.2-10.45,16.44,16.44,0,0,1,3.2,10.45A30.78,30.78,0,0,0,73.1,86.92Zm.63-8a.55.55,0,0,0,0-.26c-.13-1.36-.27-2.71-.4-4.07L76,77.71a.48.48,0,0,0,.22.15A17.41,17.41,0,0,0,79,85.22a.45.45,0,0,0-.13.22c-.13.45-.25.9-.38,1.35l-1.22-.69A.61.61,0,0,0,77,86,17.56,17.56,0,0,0,73.73,78.88Zm12.4,22.87c.88,2.32,2.83,3.53,4.9,4.7,1.76,1,3.62,2,4.34,4.08a12.55,12.55,0,0,1,.2,5.72,42.8,42.8,0,0,1-1.73,7.69,43.19,43.19,0,0,1-6.66-4.21,12.53,12.53,0,0,1-3.91-4.19c-.92-1.94-.36-4,.18-6,.64-2.3,1.16-4.53.15-6.8-1.39-3.09-6-6.26-3.72-10a3,3,0,0,1,.79.9.53.53,0,0,0,.72.18.52.52,0,0,0,.37-.63,3.07,3.07,0,0,1-.07-1.19C86,93.06,84.92,98.58,86.13,101.75Zm-5.48-9.64a3.74,3.74,0,0,0-3.42-.79,17.91,17.91,0,0,0-.07-4.08l1.92,1.07.6-2.12a17.86,17.86,0,0,0,2.83,2.94A3.81,3.81,0,0,0,80.65,92.11Zm8.59-3.42c2.06,1.83,4.56.86,7,1.07,5.33.46,4.26,6.9,5.33,10.55a6.94,6.94,0,0,0,5.44,5.07,19.48,19.48,0,0,0,4.18-.08,10,10,0,0,1,6,1.74c5.8,3.93,6.62,11,6.53,17.51-6.55.1-13.58-.72-17.51-6.52a9.88,9.88,0,0,1-1.74-6,20.24,20.24,0,0,0,.08-4.19,6.94,6.94,0,0,0-5.07-5.44c-3.66-1.07-10.09,0-10.55-5.33-.21-2.45.76-5-1.07-7a4.24,4.24,0,0,0-4.37-1.34l-.08-.07h0a28.62,28.62,0,0,1-.19-4.53,28.61,28.61,0,0,1,4.53.18h0l.07.08A4.2,4.2,0,0,0,89.24,88.69Zm-.88-5.41a18.26,18.26,0,0,0-2.94-2.83l2.12-.59-1.08-1.93a17.92,17.92,0,0,0,4.08.08,3.81,3.81,0,0,0,.79,3.42A3.77,3.77,0,0,0,88.36,83.28Zm4.11-.74a.53.53,0,0,0,.64-.38.51.51,0,0,0-.19-.71,3.29,3.29,0,0,1-.89-.79c3.73-2.32,6.9,2.33,10,3.71,2.27,1,4.5.49,6.79-.14,2-.54,4-1.11,6-.19A12.61,12.61,0,0,1,119,88a42.5,42.5,0,0,1,4.22,6.66,42.15,42.15,0,0,1-7.69,1.73,12.6,12.6,0,0,1-5.73-.19c-2-.73-3.08-2.58-4.08-4.34-1.17-2.08-2.38-4-4.7-4.91-3.16-1.21-8.69-.16-9.69-4.44A3.06,3.06,0,0,1,92.47,82.54Zm35.3-.9a9.93,9.93,0,0,1-5.5-3,19.67,19.67,0,0,0-2.9-3,7,7,0,0,0-7.43-.27c-3.34,1.83-7.13,7.14-11.23,3.69-1.89-1.58-3-4-5.72-4.2A4.23,4.23,0,0,0,91,77h-.11a28.69,28.69,0,0,1-3.34-3.08,29.51,29.51,0,0,1,3.34-3.07H91a4.23,4.23,0,0,0,4,2.14c2.75-.17,3.83-2.62,5.72-4.2,4.1-3.45,7.89,1.86,11.23,3.69a7,7,0,0,0,7.43-.27,19.67,19.67,0,0,0,2.9-3,9.93,9.93,0,0,1,5.5-3c6.88-1.33,12.44,3.07,17,7.76C140.21,78.57,134.65,83,127.77,81.64Z"/><path class="cls-3" d="M54.82,118a7.57,7.57,0,0,0,4.89-11.82A7.56,7.56,0,0,0,54.82,118Zm.48-1.16a6.51,6.51,0,0,1,3.93-9.49A6.51,6.51,0,0,1,55.3,116.86Z"/><path class="cls-3" d="M54.82,29.73a7.56,7.56,0,0,0,4.89,11.82A7.57,7.57,0,0,0,54.82,29.73Zm4.41,10.65a6.51,6.51,0,0,1-3.93-9.49A6.51,6.51,0,0,1,59.23,40.38Z"/><path class="cls-3" d="M29,92.16a7.57,7.57,0,0,0,11.82-4.9A7.57,7.57,0,0,0,29,92.16ZM39.6,87.75a6.5,6.5,0,0,1-9.48,3.93A6.5,6.5,0,0,1,39.6,87.75Z"/><path class="cls-3" d="M91.38,29.73a7.57,7.57,0,0,0-4.89,11.82A7.56,7.56,0,0,0,91.38,29.73Zm-.48,1.16A6.51,6.51,0,0,1,87,40.38,6.51,6.51,0,0,1,90.9,30.89Z"/><path class="cls-3" d="M117.24,92.16a7.57,7.57,0,0,0-11.82-4.9A7.57,7.57,0,0,0,117.24,92.16Zm-1.16-.48a6.5,6.5,0,0,1-9.48-3.93A6.5,6.5,0,0,1,116.08,91.68Z"/><path class="cls-3" d="M91.38,118a7.56,7.56,0,0,0-4.89-11.82A7.57,7.57,0,0,0,91.38,118ZM87,107.37a6.51,6.51,0,0,1,3.93,9.49A6.51,6.51,0,0,1,87,107.37Z"/><path class="cls-3" d="M29,55.59a7.57,7.57,0,0,0,11.82,4.9A7.57,7.57,0,0,0,29,55.59Zm1.16.48A6.5,6.5,0,0,1,39.6,60,6.5,6.5,0,0,1,30.12,56.07Z"/><path class="cls-3" d="M117.24,55.59a7.57,7.57,0,0,0-11.82,4.9A7.57,7.57,0,0,0,117.24,55.59ZM106.6,60a6.5,6.5,0,0,1,9.48-3.93A6.5,6.5,0,0,1,106.6,60Z"/><path class="cls-3" d="M48.33,49.1a5.13,5.13,0,0,0,6.45,6.46A5.13,5.13,0,0,0,48.33,49.1ZM54,54.73a4.09,4.09,0,0,1-4.79-4.79A4.09,4.09,0,0,1,54,54.73Z"/><path class="cls-3" d="M99,73.87a5.13,5.13,0,0,0,9.13,0A5.14,5.14,0,0,0,99,73.87Zm1.17,0a4.09,4.09,0,0,1,6.77,0A4.08,4.08,0,0,1,100.18,73.87Z"/><path class="cls-3" d="M38.06,73.87a5.13,5.13,0,0,0,9.13,0A5.14,5.14,0,0,0,38.06,73.87Zm1.19,0a4.09,4.09,0,0,1,6.77,0A4.08,4.08,0,0,1,39.25,73.87Z"/><path class="cls-3" d="M73.1,108.91a5.13,5.13,0,0,0,0-9.13A5.13,5.13,0,0,0,73.1,108.91Zm0-1.18a4.08,4.08,0,0,1,0-6.77A4.08,4.08,0,0,1,73.1,107.73Z"/><path class="cls-3" d="M97.88,49.1a5.13,5.13,0,0,0-6.46,6.46A5.14,5.14,0,0,0,97.88,49.1Zm-.84.84a4.09,4.09,0,0,1-4.79,4.79A4.09,4.09,0,0,1,97,49.94Z"/><path class="cls-3" d="M73.1,38.84a5.13,5.13,0,0,0,0,9.13A5.13,5.13,0,0,0,73.1,38.84Zm0,1.18a4.08,4.08,0,0,1,0,6.77A4.08,4.08,0,0,1,73.1,40Z"/><path class="cls-3" d="M48.33,98.65a5.13,5.13,0,0,0,6.45-6.46A5.13,5.13,0,0,0,48.33,98.65Zm.83-.84A4.09,4.09,0,0,1,54,93,4.09,4.09,0,0,1,49.16,97.81Z"/><path class="cls-3" d="M97.88,98.65a5.14,5.14,0,0,0-6.46-6.46A5.13,5.13,0,0,0,97.88,98.65ZM92.25,93A4.09,4.09,0,0,1,97,97.81,4.09,4.09,0,0,1,92.25,93Z"/><path class="cls-3" d="M131.4,68.59c-.48,0-.78.71-.31.94a4.9,4.9,0,0,1,0,8.69c-.47.23-.17,1,.31.94a14.1,14.1,0,0,0,10.07-5.29A14.13,14.13,0,0,0,131.4,68.59Zm1.9,9.24a6.22,6.22,0,0,0,0-7.91,13.14,13.14,0,0,1,6.82,4A13.09,13.09,0,0,1,133.3,77.83Z"/><path class="cls-3" d="M35.17,118a4.51,4.51,0,0,1-4.93-1.21A4.51,4.51,0,0,1,29,111.81c.17-.5-.57-.81-.88-.45a14.13,14.13,0,0,0-3.38,10.86,14.12,14.12,0,0,0,10.85-3.39C36,118.52,35.66,117.78,35.17,118Zm-9.46,3.32a13,13,0,0,1,2-7.62,5.48,5.48,0,0,0,1.79,3.8,5.5,5.5,0,0,0,3.79,1.79A13.16,13.16,0,0,1,25.71,121.27Z"/><path class="cls-3" d="M73.1,13.26a4.5,4.5,0,0,1,4.34,2.63c.24.46,1,.16.94-.31A14.15,14.15,0,0,0,73.1,5.5a14.15,14.15,0,0,0-5.28,10.08c0,.47.7.77.94.31A4.5,4.5,0,0,1,73.1,13.26Zm0-6.41a13.11,13.11,0,0,1,4,6.82,6.2,6.2,0,0,0-7.9,0A13.11,13.11,0,0,1,73.1,6.85Z"/><path class="cls-3" d="M15.11,78.22a4.9,4.9,0,0,1,0-8.69c.47-.23.17-1-.31-.94A14.13,14.13,0,0,0,4.73,73.87,14.1,14.1,0,0,0,14.8,79.16C15.28,79.19,15.58,78.45,15.11,78.22Zm-9-4.35a13.14,13.14,0,0,1,6.82-4,6.22,6.22,0,0,0,0,7.91A13.09,13.09,0,0,1,6.08,73.87Z"/><path class="cls-3" d="M111,118c-.49-.17-.81.57-.44.88a14.12,14.12,0,0,0,10.85,3.39,14.13,14.13,0,0,0-3.38-10.86c-.31-.36-1,0-.88.45A4.91,4.91,0,0,1,111,118Zm7.43-4.3a13,13,0,0,1,2,7.62,13.16,13.16,0,0,1-7.61-2,6.21,6.21,0,0,0,5.58-5.59Z"/><path class="cls-3" d="M73.1,134.49a4.5,4.5,0,0,1-4.34-2.63c-.24-.46-1-.17-.94.31a14.11,14.11,0,0,0,5.28,10.07,14.11,14.11,0,0,0,5.28-10.07c0-.48-.7-.77-.94-.31A4.5,4.5,0,0,1,73.1,134.49Zm0,6.4a13,13,0,0,1-3.95-6.81,6.2,6.2,0,0,0,7.9,0A13,13,0,0,1,73.1,140.89Z"/><path class="cls-3" d="M35.17,29.8c.49.17.81-.57.44-.88a14.12,14.12,0,0,0-10.85-3.39,14.13,14.13,0,0,0,3.38,10.86c.31.36,1.05,0,.88-.45A4.51,4.51,0,0,1,30.24,31,4.5,4.5,0,0,1,35.17,29.8Zm-7.43,4.3a13,13,0,0,1-2-7.62,13.16,13.16,0,0,1,7.61,2,5.5,5.5,0,0,0-3.79,1.79A5.48,5.48,0,0,0,27.74,34.1Z"/><path class="cls-3" d="M111,29.8A4.5,4.5,0,0,1,116,31a4.51,4.51,0,0,1,1.22,4.93c-.17.5.57.81.88.45a14.13,14.13,0,0,0,3.38-10.86,14.12,14.12,0,0,0-10.85,3.39C110.22,29.23,110.54,30,111,29.8Zm9.46-3.32a13,13,0,0,1-2,7.62,5.48,5.48,0,0,0-1.79-3.8,5.5,5.5,0,0,0-3.79-1.79A13.16,13.16,0,0,1,120.49,26.48Z"/><path class="cls-3" d="M113.34,38.84c2-1.6,2-4.17,1.12-6.32-2.15-.91-4.72-.85-6.33,1.11a3.69,3.69,0,0,0,5.21,5.21Zm-3.54-5.33a4.38,4.38,0,0,1,3.88-.21,4.4,4.4,0,0,1-.22,3.87,2.76,2.76,0,1,1-3.66-3.66Z"/><path class="cls-3" d="M69.42,127.1c-.25,2.52,1.52,4.39,3.68,5.26,2.17-.87,3.93-2.74,3.68-5.26a3.69,3.69,0,0,0-7.36,0Zm6.27,1.27a4.4,4.4,0,0,1-2.59,2.89,4.4,4.4,0,0,1-2.59-2.89,2.76,2.76,0,1,1,5.18,0Z"/><path class="cls-3" d="M31.74,32.52c-.91,2.15-.84,4.72,1.12,6.32a3.69,3.69,0,0,0,5.21-5.21C36.46,31.67,33.89,31.61,31.74,32.52ZM37.19,38a2.92,2.92,0,0,1-4.45-.8,4.4,4.4,0,0,1-.22-3.87,4.38,4.38,0,0,1,3.88.21A2.93,2.93,0,0,1,37.19,38Z"/><path class="cls-3" d="M126.33,70.19a3.69,3.69,0,0,0,0,7.37c2.52.25,4.38-1.52,5.26-3.69C130.71,71.71,128.85,69.94,126.33,70.19Zm1.26,6.27a2.76,2.76,0,1,1,0-5.17,4.36,4.36,0,0,1,2.89,2.58A4.35,4.35,0,0,1,127.59,76.46Z"/><path class="cls-3" d="M19.87,70.19c-2.52-.25-4.38,1.52-5.26,3.68.88,2.17,2.74,3.94,5.26,3.69a3.69,3.69,0,0,0,0-7.37Zm-1.26,6.27a4.35,4.35,0,0,1-2.89-2.59,4.36,4.36,0,0,1,2.89-2.58,2.76,2.76,0,1,1,0,5.17Z"/><path class="cls-3" d="M114.46,115.23c.91-2.15.84-4.72-1.12-6.32a3.69,3.69,0,0,0-5.21,5.21C109.74,116.08,112.31,116.14,114.46,115.23ZM109,109.78a2.92,2.92,0,0,1,4.45.8,4.39,4.39,0,0,1,.22,3.87,4.38,4.38,0,0,1-3.88-.21A2.93,2.93,0,0,1,109,109.78Z"/><path class="cls-3" d="M32.86,108.91c-2,1.6-2,4.17-1.12,6.32,2.15.91,4.72.85,6.33-1.11a3.69,3.69,0,0,0-5.21-5.21Zm3.54,5.33a4.38,4.38,0,0,1-3.88.21,4.39,4.39,0,0,1,.22-3.87,2.76,2.76,0,1,1,3.66,3.66Z"/><path class="cls-3" d="M76.78,20.65c.25-2.52-1.51-4.39-3.68-5.26-2.16.87-3.93,2.74-3.68,5.26a3.69,3.69,0,0,0,7.36,0Zm-6.27-1.27a4.4,4.4,0,0,1,2.59-2.89,4.4,4.4,0,0,1,2.59,2.89,2.76,2.76,0,1,1-5.18,0Z"/><path class="cls-3" d="M78.18,28.88l-.07,0H78a2.34,2.34,0,1,0,.16,0Zm.64,3.56a1.35,1.35,0,0,1-1.53-1,1.37,1.37,0,0,1,1-1.54,1.4,1.4,0,0,1,1.52.89A1.35,1.35,0,0,1,78.82,32.44Z"/><path class="cls-3" d="M48.11,37.93a2.41,2.41,0,0,0-3.24.54l0,.07-.06.06a2.32,2.32,0,1,0,3.33-.67Zm-.26,2.6a1.3,1.3,0,0,1-2.18-1.41,1.38,1.38,0,0,1,1.7-.44A1.35,1.35,0,0,1,47.85,40.53Z"/><path class="cls-3" d="M28.14,69a2.36,2.36,0,1,0,0-.16.25.25,0,0,0,0,.07A.28.28,0,0,0,28.14,69ZM30,67.18a1.3,1.3,0,1,1,.65,2.51,1.36,1.36,0,0,1-1.54-1A1.38,1.38,0,0,1,30,67.18Z"/><path class="cls-3" d="M37.76,102.13s0,.05.07.06a2.28,2.28,0,1,0-.14-.09Zm.14-2.53a1.3,1.3,0,1,1,2.24,1.32,1.37,1.37,0,0,1-1.8.38A1.4,1.4,0,0,1,37.9,99.6Z"/><path class="cls-3" d="M68,118.87l.07,0h.09a2.34,2.34,0,1,0-.16,0Zm-.64-3.56a1.35,1.35,0,0,1,1.53,1,1.37,1.37,0,0,1-1,1.54A1.4,1.4,0,0,1,66.4,117,1.35,1.35,0,0,1,67.38,115.31Z"/><path class="cls-3" d="M98.09,109.82a2.41,2.41,0,0,0,3.24-.54l0-.07.06-.07a2.32,2.32,0,1,0-3.33.68Zm.27-2.6a1.34,1.34,0,0,1,1.78-.38,1.29,1.29,0,0,1-1.31,2.23A1.34,1.34,0,0,1,98.36,107.22Z"/><path class="cls-3" d="M118.06,78.79a2.23,2.23,0,1,0,0,.16l0-.07A.28.28,0,0,0,118.06,78.79Zm-1.88,1.78a1.3,1.3,0,1,1-.65-2.51,1.36,1.36,0,0,1,1.54,1A1.38,1.38,0,0,1,116.18,80.57Z"/><path class="cls-3" d="M108.44,45.62s0,0-.07-.06a2.28,2.28,0,1,0,.14.09Zm-.14,2.53a1.3,1.3,0,1,1-2.24-1.32,1.37,1.37,0,0,1,1.8-.38A1.4,1.4,0,0,1,108.3,48.15Z"/><path class="cls-3" d="M101.36,38.54l0-.07a2.28,2.28,0,1,0,.09.13Zm-1.22,2.37a1.29,1.29,0,1,1-1.31-2.23,1.29,1.29,0,0,1,1.31,2.23Z"/><path class="cls-3" d="M67.19,33.45a2.32,2.32,0,0,0,1-4.54h-.09l-.07,0a2.32,2.32,0,0,0-.83,4.57Zm-.79-2.66a1.4,1.4,0,0,1,1.52-.89,1.37,1.37,0,0,1,1,1.54,1.3,1.3,0,1,1-2.51-.65Z"/><path class="cls-3" d="M40.33,49.47a2.32,2.32,0,0,0-2.5-3.91s0,0-.07.06l-.07,0a2.32,2.32,0,0,0,2.64,3.82Zm-2-3a1.37,1.37,0,0,1,1.8.38,1.3,1.3,0,1,1-2.24,1.32A1.4,1.4,0,0,1,38.34,46.45Z"/><path class="cls-3" d="M30,81.62a2.32,2.32,0,1,0-1.87-2.83.28.28,0,0,0,0,.09.19.19,0,0,0,0,.07A2.4,2.4,0,0,0,30,81.62Zm-.88-2.56a1.29,1.29,0,1,1,2.53.54,1.34,1.34,0,0,1-1.64,1A1.38,1.38,0,0,1,29.13,79.06Z"/><path class="cls-3" d="M44.84,109.21l0,.07a2.36,2.36,0,1,0-.09-.14Zm1.22-2.37a1.29,1.29,0,1,1,1.31,2.23,1.38,1.38,0,0,1-1.7-.44A1.36,1.36,0,0,1,46.06,106.84Z"/><path class="cls-3" d="M79,114.3a2.32,2.32,0,0,0-1,4.54h.09l.07,0A2.32,2.32,0,0,0,79,114.3ZM79.8,117a1.4,1.4,0,0,1-1.52.89,1.37,1.37,0,0,1-1-1.54,1.3,1.3,0,1,1,2.51.65Z"/><path class="cls-3" d="M105.87,98.28a2.32,2.32,0,0,0,2.5,3.91s0,0,.07-.06l.07,0a2.32,2.32,0,0,0-2.64-3.82Zm2,3a1.37,1.37,0,0,1-1.8-.38,1.3,1.3,0,1,1,2.24-1.32A1.4,1.4,0,0,1,107.86,101.3Z"/><path class="cls-3" d="M116.19,66.13A2.32,2.32,0,1,0,118.06,69a.28.28,0,0,0,0-.09l0-.07A2.41,2.41,0,0,0,116.19,66.13Zm.88,2.56a1.29,1.29,0,1,1-2.53-.54,1.34,1.34,0,0,1,1.64-1A1.38,1.38,0,0,1,117.07,68.69Z"/><path class="cls-3" d="M81.11,26.16a2,2,0,0,0,2.21,1.72,2.42,2.42,0,0,0,1.93-2.35,1.58,1.58,0,0,0-1.89-1.8l0,0a.52.52,0,0,0-.37-.05A2.28,2.28,0,0,0,81.11,26.16Zm1-.49a1.35,1.35,0,0,1,1.13-1s0,0,0,0a.51.51,0,0,0,.37,0c.65-.16.58.9.46,1.26a1.19,1.19,0,0,1-1.29.9A1,1,0,0,1,82.14,25.67Z"/><path class="cls-3" d="M45,34.47a2,2,0,0,0,2.77-.35,2.41,2.41,0,0,0-.29-3,1.58,1.58,0,0,0-2.61.07s0,0,0,0a.48.48,0,0,0-.29.22A2.29,2.29,0,0,0,45,34.47Zm.47-2.57,0,0a.46.46,0,0,0,.29-.23c.35-.57,1,.23,1.22.57a1.19,1.19,0,0,1-.28,1.55,1,1,0,0,1-1.34-.35A1.35,1.35,0,0,1,45.5,31.9Z"/><path class="cls-3" d="M22.93,64a2.29,2.29,0,0,0,2.46,1.83,2,2,0,0,0,1.72-2.21,2.43,2.43,0,0,0-2.35-1.92A1.57,1.57,0,0,0,23,63.62s0,0,0,.05A.53.53,0,0,0,22.93,64Zm1-.74c-.16-.65.89-.57,1.25-.46a1.19,1.19,0,0,1,.9,1.3,1,1,0,0,1-1.19.7,1.34,1.34,0,0,1-1-1.12l0-.05A.46.46,0,0,0,23.93,63.29Z"/><path class="cls-3" d="M30.45,102.1a.51.51,0,0,0,.22.29,2.27,2.27,0,0,0,3-.44,2,2,0,0,0-.34-2.78,2.42,2.42,0,0,0-3,.3,1.58,1.58,0,0,0,.06,2.61Zm1-2.15a1.18,1.18,0,0,1,1.55.28,1,1,0,0,1-.34,1.34,1.33,1.33,0,0,1-1.49-.1l-.05,0a.53.53,0,0,0-.23-.29C30.27,100.82,31.07,100.12,31.41,100Z"/><path class="cls-3" d="M65.09,121.59a2,2,0,0,0-2.21-1.72A2.42,2.42,0,0,0,61,122.22a1.58,1.58,0,0,0,1.89,1.8l0,0a.52.52,0,0,0,.37.05A2.28,2.28,0,0,0,65.09,121.59Zm-1,.49a1.35,1.35,0,0,1-1.13,1,.05.05,0,0,0,0,0,.57.57,0,0,0-.37,0c-.65.17-.58-.89-.46-1.25a1.2,1.2,0,0,1,1.3-.9A1,1,0,0,1,64.06,122.08Z"/><path class="cls-3" d="M101.17,113.28a2,2,0,0,0-2.77.34,2.42,2.42,0,0,0,.29,3,1.58,1.58,0,0,0,2.61-.07l0,0a.52.52,0,0,0,.29-.22A2.29,2.29,0,0,0,101.17,113.28Zm-.47,2.57,0,.05a.48.48,0,0,0-.29.22c-.35.58-1-.22-1.21-.56a1.19,1.19,0,0,1,.28-1.55,1,1,0,0,1,1.33.35A1.35,1.35,0,0,1,100.7,115.85Z"/><path class="cls-3" d="M123.27,83.72a2.28,2.28,0,0,0-2.45-1.83,2,2,0,0,0-1.73,2.21A2.43,2.43,0,0,0,121.44,86a1.57,1.57,0,0,0,1.8-1.89s0,0,0,0A.53.53,0,0,0,123.27,83.72Zm-1,.74c.16.65-.89.57-1.25.45a1.17,1.17,0,0,1-.9-1.29,1,1,0,0,1,1.19-.7,1.33,1.33,0,0,1,1,1.12l0,0A.46.46,0,0,0,122.27,84.46Z"/><path class="cls-3" d="M115.75,45.65a.51.51,0,0,0-.22-.29,2.27,2.27,0,0,0-3,.44,2,2,0,0,0,.34,2.78,2.42,2.42,0,0,0,3-.3,1.58,1.58,0,0,0-.06-2.61Zm-1,2.15a1.18,1.18,0,0,1-1.55-.28,1,1,0,0,1,.34-1.34,1.33,1.33,0,0,1,1.49.1l.05,0a.58.58,0,0,0,.23.29C115.93,46.93,115.13,47.63,114.79,47.8Z"/><path class="cls-3" d="M98.69,31.1a2.41,2.41,0,0,0-.29,3,2,2,0,0,0,2.77.35,2.29,2.29,0,0,0,.44-3,.48.48,0,0,0-.29-.22s0,0,0,0A1.58,1.58,0,0,0,98.69,31.1Zm1.7.52a.46.46,0,0,0,.29.23l0,0a1.35,1.35,0,0,1,.09,1.49,1,1,0,0,1-1.33.35,1.19,1.19,0,0,1-.28-1.55C99.35,31.85,100,31.05,100.39,31.62Z"/><path class="cls-3" d="M62.88,27.88a2,2,0,0,0,2.21-1.72,2.28,2.28,0,0,0-1.83-2.45.52.52,0,0,0-.37.05l0,0A1.58,1.58,0,0,0,61,25.53,2.42,2.42,0,0,0,62.88,27.88Zm-.36-3.18a.51.51,0,0,0,.37,0s0,0,0,0a1.35,1.35,0,0,1,1.13,1,1,1,0,0,1-.7,1.19,1.2,1.2,0,0,1-1.3-.9C61.94,25.6,61.87,24.54,62.52,24.7Z"/><path class="cls-3" d="M33.35,48.58a2,2,0,0,0,.34-2.78,2.27,2.27,0,0,0-3-.44.51.51,0,0,0-.22.29l-.06,0a1.58,1.58,0,0,0-.06,2.61A2.42,2.42,0,0,0,33.35,48.58Zm-1.94-.78c-.34-.17-1.14-.87-.56-1.21a.53.53,0,0,0,.23-.29l.05,0a1.33,1.33,0,0,1,1.49-.1A1,1,0,0,1,33,47.52,1.18,1.18,0,0,1,31.41,47.8Z"/><path class="cls-3" d="M24.76,86a2.43,2.43,0,0,0,2.35-1.92,2,2,0,0,0-1.72-2.21,2.29,2.29,0,0,0-2.46,1.83.53.53,0,0,0,.05.36s0,0,0,0A1.57,1.57,0,0,0,24.76,86Zm-.85-2a1.33,1.33,0,0,1,1-1.12,1,1,0,0,1,1.19.7,1.17,1.17,0,0,1-.9,1.29c-.36.12-1.41.2-1.25-.45a.46.46,0,0,0-.05-.37Z"/><path class="cls-3" d="M47.51,116.65a2.42,2.42,0,0,0,.29-3,2,2,0,0,0-2.77-.34,2.29,2.29,0,0,0-.44,3,.52.52,0,0,0,.29.22l0,0A1.58,1.58,0,0,0,47.51,116.65Zm-1.7-.53a.48.48,0,0,0-.29-.22l0-.05a1.35,1.35,0,0,1-.09-1.49,1,1,0,0,1,1.34-.35,1.19,1.19,0,0,1,.28,1.55C46.86,115.9,46.16,116.7,45.81,116.12Z"/><path class="cls-3" d="M83.32,119.87a2,2,0,0,0-2.21,1.72A2.28,2.28,0,0,0,82.94,124a.52.52,0,0,0,.37-.05l0,0a1.58,1.58,0,0,0,1.89-1.8A2.42,2.42,0,0,0,83.32,119.87Zm.36,3.17a.57.57,0,0,0-.37,0,.05.05,0,0,0,0,0,1.35,1.35,0,0,1-1.13-1,1,1,0,0,1,.71-1.19,1.19,1.19,0,0,1,1.29.9C84.26,122.15,84.33,123.21,83.68,123Z"/><path class="cls-3" d="M112.85,99.17a2,2,0,0,0-.34,2.78,2.27,2.27,0,0,0,3,.44.51.51,0,0,0,.22-.29l.06,0a1.58,1.58,0,0,0,.06-2.61A2.42,2.42,0,0,0,112.85,99.17Zm1.94.78c.34.17,1.14.87.56,1.21a.58.58,0,0,0-.23.29l-.05,0a1.33,1.33,0,0,1-1.49.1,1,1,0,0,1-.34-1.34A1.18,1.18,0,0,1,114.79,100Z"/><path class="cls-3" d="M121.44,61.73a2.43,2.43,0,0,0-2.35,1.92,2,2,0,0,0,1.73,2.21A2.28,2.28,0,0,0,123.27,64a.53.53,0,0,0,0-.36s0,0,0-.05A1.57,1.57,0,0,0,121.44,61.73Zm.85,2a1.34,1.34,0,0,1-1,1.12,1,1,0,0,1-1.19-.7,1.19,1.19,0,0,1,.9-1.3c.36-.11,1.41-.19,1.25.46a.46.46,0,0,0,0,.37Z"/><path class="cls-3" d="M89.24,23.9a2.14,2.14,0,0,0,1-2.73,1.91,1.91,0,0,0-2.62-.86.4.4,0,0,0-.16.12,1.88,1.88,0,0,0-1,2.49A2.06,2.06,0,0,0,89.24,23.9ZM88,21.31a.39.39,0,0,0,.25-.17c1.08-.43,1.53,1.34.54,1.84C87.56,23.61,86.6,21.69,88,21.31Z"/><path class="cls-3" d="M46.49,28.43a2.07,2.07,0,0,0,2.69-1.3A2.14,2.14,0,0,0,48,24.48a1.93,1.93,0,0,0-2.47,1.24.47.47,0,0,0,0,.2A1.9,1.9,0,0,0,46.49,28.43Zm0-2.26a.42.42,0,0,0,.05-.3c.46-1.08,2-.14,1.68.92C47.78,28.11,45.75,27.42,46.48,26.17Z"/><path class="cls-3" d="M19.53,59.35a.61.61,0,0,0,.12.15,1.89,1.89,0,0,0,2.5,1,2.06,2.06,0,0,0,1-2.82,2.13,2.13,0,0,0-2.73-1A1.92,1.92,0,0,0,19.53,59.35Zm2.68-1.17c.63,1.24-1.3,2.19-1.67.78a.51.51,0,0,0-.17-.25C19.93,57.63,21.7,57.19,22.21,58.18Z"/><path class="cls-3" d="M25,101.48a.44.44,0,0,0,.19,0,1.89,1.89,0,0,0,2.51-1,2.05,2.05,0,0,0-1.3-2.68A2.13,2.13,0,0,0,23.71,99,1.91,1.91,0,0,0,25,101.48ZM26,98.76c1.31.43.63,2.47-.63,1.74a.48.48,0,0,0-.3-.06C24,100,25,98.42,26,98.76Z"/><path class="cls-3" d="M57,123.85a2.14,2.14,0,0,0-1,2.73,1.92,1.92,0,0,0,2.62.86.4.4,0,0,0,.16-.12,1.88,1.88,0,0,0,1.05-2.49A2.06,2.06,0,0,0,57,123.85Zm1.23,2.59a.39.39,0,0,0-.25.17c-1.08.43-1.53-1.34-.53-1.84C58.64,124.14,59.6,126.06,58.19,126.44Z"/><path class="cls-3" d="M99.71,119.32a2.07,2.07,0,0,0-2.69,1.3,2.14,2.14,0,0,0,1.22,2.65,1.93,1.93,0,0,0,2.47-1.24.47.47,0,0,0,0-.2A1.9,1.9,0,0,0,99.71,119.32Zm0,2.26a.42.42,0,0,0,0,.3c-.46,1.08-2,.14-1.68-.92C98.42,119.64,100.45,120.32,99.72,121.58Z"/><path class="cls-3" d="M126.67,88.4a.47.47,0,0,0-.12-.15,1.89,1.89,0,0,0-2.5-1,2.06,2.06,0,0,0-1,2.82,2.13,2.13,0,0,0,2.73,1A1.92,1.92,0,0,0,126.67,88.4ZM124,89.57c-.63-1.24,1.3-2.19,1.67-.79a.5.5,0,0,0,.17.26C126.27,90.12,124.5,90.56,124,89.57Z"/><path class="cls-3" d="M121.25,46.27a.44.44,0,0,0-.19,0,1.89,1.89,0,0,0-2.51,1,2.05,2.05,0,0,0,1.3,2.68,2.13,2.13,0,0,0,2.64-1.22A1.91,1.91,0,0,0,121.25,46.27ZM120.18,49c-1.31-.43-.63-2.47.63-1.74a.49.49,0,0,0,.3.06C122.18,47.77,121.24,49.33,120.18,49Z"/><path class="cls-3" d="M97,27.13a2.07,2.07,0,0,0,2.69,1.3,1.9,1.9,0,0,0,1-2.51.47.47,0,0,0,0-.2,1.93,1.93,0,0,0-2.47-1.24A2.14,2.14,0,0,0,97,27.13Zm2.65-1.26a.42.42,0,0,0,0,.3c.73,1.25-1.3,1.94-1.73.62C97.64,25.73,99.21,24.79,99.67,25.87Z"/><path class="cls-3" d="M57,23.9a2.06,2.06,0,0,0,2.82-1,1.88,1.88,0,0,0-1.05-2.49.4.4,0,0,0-.16-.12,1.91,1.91,0,0,0-2.62.86A2.14,2.14,0,0,0,57,23.9Zm1-2.76a.39.39,0,0,0,.25.17c1.41.38.45,2.3-.78,1.67C56.41,22.48,56.86,20.71,57.94,21.14Z"/><path class="cls-3" d="M26.35,50a2.05,2.05,0,0,0,1.3-2.68,1.89,1.89,0,0,0-2.51-1,.44.44,0,0,0-.19,0,1.91,1.91,0,0,0-1.24,2.46A2.13,2.13,0,0,0,26.35,50Zm-1.26-2.64a.48.48,0,0,0,.3-.06c1.26-.73,1.94,1.31.63,1.74C25,49.33,24,47.77,25.09,47.31Z"/><path class="cls-3" d="M23.13,90a2.06,2.06,0,0,0-1-2.82,1.89,1.89,0,0,0-2.5,1,.47.47,0,0,0-.12.15A1.92,1.92,0,0,0,20.4,91,2.13,2.13,0,0,0,23.13,90Zm-.92-.45c-.51,1-2.28.55-1.84-.53a.5.5,0,0,0,.17-.26C20.91,87.38,22.84,88.33,22.21,89.57Z"/><path class="cls-3" d="M49.18,120.62a2.07,2.07,0,0,0-2.69-1.3,1.9,1.9,0,0,0-1,2.51.47.47,0,0,0,0,.2A1.93,1.93,0,0,0,48,123.27,2.14,2.14,0,0,0,49.18,120.62Zm-2.65,1.26a.42.42,0,0,0-.05-.3c-.73-1.26,1.3-1.94,1.73-.62C48.56,122,47,123,46.53,121.88Z"/><path class="cls-3" d="M89.24,123.85a2.06,2.06,0,0,0-2.82,1,1.88,1.88,0,0,0,1,2.49.4.4,0,0,0,.16.12,1.92,1.92,0,0,0,2.62-.86A2.14,2.14,0,0,0,89.24,123.85Zm-1,2.76a.39.39,0,0,0-.25-.17c-1.41-.38-.45-2.3.79-1.67C89.79,125.27,89.34,127,88.26,126.61Z"/><path class="cls-3" d="M119.85,97.8a2.05,2.05,0,0,0-1.3,2.68,1.89,1.89,0,0,0,2.51,1,.44.44,0,0,0,.19,0A1.91,1.91,0,0,0,122.49,99,2.13,2.13,0,0,0,119.85,97.8Zm1.26,2.64a.49.49,0,0,0-.3.06c-1.26.73-1.94-1.31-.63-1.74C121.24,98.42,122.18,100,121.11,100.44Z"/><path class="cls-3" d="M123.07,57.73a2.06,2.06,0,0,0,1,2.82,1.89,1.89,0,0,0,2.5-1,.61.61,0,0,0,.12-.15,1.92,1.92,0,0,0-.87-2.62A2.13,2.13,0,0,0,123.07,57.73Zm.92.45c.51-1,2.28-.55,1.84.53a.51.51,0,0,0-.17.25C125.29,60.37,123.36,59.42,124,58.18Z"/><path class="cls-3" d="M126.63,52.24a3.58,3.58,0,0,0,4.29-.09,2.12,2.12,0,0,0-1.58-3.8,3.58,3.58,0,0,0-3.09,3,2.8,2.8,0,0,0,.38.92Zm2.48-2.83a1.17,1.17,0,1,1,.89,2.16,2.6,2.6,0,0,1-2.72-.14A2.61,2.61,0,0,1,129.11,49.41Z"/><path class="cls-3" d="M95.65,127a.43.43,0,0,0-.47.15.44.44,0,0,0-.44.23,3.57,3.57,0,0,0,.08,4.29,2.12,2.12,0,0,0,3.81-1.57A3.62,3.62,0,0,0,95.65,127Zm1.3,4.43a1.44,1.44,0,0,1-1.54-.67,2.61,2.61,0,0,1,.13-2.73,2.61,2.61,0,0,1,2,1.83A1.45,1.45,0,0,1,97,131.45Z"/><path class="cls-3" d="M50.55,20.73a.43.43,0,0,0,.47-.15.44.44,0,0,0,.44-.23,3.57,3.57,0,0,0-.08-4.29,2.47,2.47,0,0,0-2.53-.72,2.49,2.49,0,0,0-1.28,2.29A3.62,3.62,0,0,0,50.55,20.73Zm-1.3-4.43a1.44,1.44,0,0,1,1.54.67,2.61,2.61,0,0,1-.13,2.73,2.6,2.6,0,0,1-2-1.84A1.44,1.44,0,0,1,49.25,16.3Z"/><path class="cls-3" d="M51,127.17a.43.43,0,0,0-.47-.15,3.62,3.62,0,0,0-3,3.1,2.49,2.49,0,0,0,1.28,2.29,2.47,2.47,0,0,0,2.53-.72,3.57,3.57,0,0,0,.08-4.29A.44.44,0,0,0,51,127.17Zm-.23,3.61a1.17,1.17,0,1,1-2.15-.9,2.61,2.61,0,0,1,2-1.83A2.61,2.61,0,0,1,50.79,130.78Z"/><path class="cls-3" d="M126.63,95.51a2.8,2.8,0,0,0-.38.92,3.58,3.58,0,0,0,3.09,3,2.12,2.12,0,0,0,1.58-3.8A3.58,3.58,0,0,0,126.63,95.51Zm4,2.21a1.44,1.44,0,0,1-1.56.62,2.61,2.61,0,0,1-1.83-2,2.6,2.6,0,0,1,2.72-.14A1.44,1.44,0,0,1,130.67,97.72Z"/><path class="cls-3" d="M19.57,52.24a.45.45,0,0,0,.24-.44.45.45,0,0,0,.14-.48,3.58,3.58,0,0,0-3.09-3,2.46,2.46,0,0,0-2.29,1.28,2.47,2.47,0,0,0,.71,2.52A3.58,3.58,0,0,0,19.57,52.24Zm-4-2.21a1.44,1.44,0,0,1,1.56-.62,2.61,2.61,0,0,1,1.83,2,2.6,2.6,0,0,1-2.72.14A1.44,1.44,0,0,1,15.53,50Z"/><path class="cls-3" d="M95.18,20.58a.43.43,0,0,0,.47.15,3.62,3.62,0,0,0,3-3.1,2.49,2.49,0,0,0-1.28-2.29,2.47,2.47,0,0,0-2.53.72,3.57,3.57,0,0,0-.08,4.29A.44.44,0,0,0,95.18,20.58ZM95.41,17A1.44,1.44,0,0,1,97,16.3a1.44,1.44,0,0,1,.61,1.56,2.6,2.6,0,0,1-2,1.84A2.61,2.61,0,0,1,95.41,17Z"/><path class="cls-3" d="M19.57,95.51a3.58,3.58,0,0,0-4.29.09,2.46,2.46,0,0,0-.71,2.52,2.46,2.46,0,0,0,2.29,1.28,3.58,3.58,0,0,0,3.09-3,.45.45,0,0,0-.14-.48A.45.45,0,0,0,19.57,95.51Zm-2.48,2.83a1.44,1.44,0,0,1-1.56-.62,1.44,1.44,0,0,1,.67-1.54,2.6,2.6,0,0,1,2.72.14A2.61,2.61,0,0,1,17.09,98.34Z"/></g><path class="cls-4" d="M135.05,64.76c-4.75-1.4-9.81-.59-13.2,3.16-1.3,1.43-2.41,3-4.39,3.5-2.25.59-4.26-.37-6-1.67-2-1.44-3.7-3.23-6.14-3.78s-4.16.49-5.72,2.24c-1.19,1.32-2.36,2.91-4.32,3a3.18,3.18,0,0,1-3.16-3.93c2.61,1.54,5.37.19,7.6-1.49s4-3,6.77-2.65c2,.25,3.78,1.14,5.76,1.32,3.28.3,5.59-1.72,7.55-4.12a43.69,43.69,0,0,0,5.36-8.53,43.55,43.55,0,0,0-9.83-2.25c-3.07-.31-6.14-.11-8.25,2.43-1.27,1.52-1.93,3.44-3.13,5-1.74,2.25-4,2.54-6.67,2.91s-5.67,1.39-6.42,4.33a3.17,3.17,0,0,1-.55-5c1.42-1.36,3.37-1.06,5.14-1,2.35.13,4.31-.37,5.64-2.46s1.31-4.62,1.67-7c.33-2.18,1.07-4.27,3.08-5.45,1.77-1,3.64-.72,5.57-.63,5.06.26,9.2-2.75,11.58-7.09s2.52-9.32,2.35-14.16c-4.83-.16-9.86,0-14.15,2.36s-7.35,6.52-7.1,11.57c.1,1.93.4,3.81-.63,5.58-1.17,2-3.27,2.75-5.44,3.08-2.39.36-4.9.33-7,1.67S88.38,49,88.51,51.3c.1,1.77.39,3.72-1,5.14a3.16,3.16,0,0,1-5-.55c2.93-.75,3.93-3.65,4.32-6.42.38-2.61.66-4.93,2.91-6.66,1.57-1.21,3.48-1.87,5-3.14,2.53-2.1,2.73-5.17,2.42-8.25A42.91,42.91,0,0,0,95,21.6,43,43,0,0,0,86.42,27C84,28.91,82,31.23,82.3,34.5c.18,2,1.07,3.8,1.33,5.76C84,43.08,82.56,44.92,81,47s-3,5-1.48,7.6a3.17,3.17,0,0,1-3.93-3.15c0-2,1.63-3.14,3-4.32,1.75-1.57,2.79-3.31,2.24-5.72S78.41,37.24,77,35.3c-1.31-1.78-2.27-3.78-1.67-6,.52-2,2.06-3.09,3.49-4.39,3.75-3.4,4.56-8.45,3.17-13.2S77.16,3.3,73.62,0c-3.53,3.3-7,7-8.34,11.68s-.58,9.8,3.17,13.2c1.43,1.3,3,2.41,3.49,4.39.6,2.25-.36,4.25-1.67,6C68.84,37.24,67,39,66.49,41.44s.5,4.15,2.25,5.72c1.32,1.18,2.91,2.35,3,4.32a3.17,3.17,0,0,1-3.93,3.15c1.54-2.6.2-5.36-1.48-7.6s-3-4-2.66-6.77c.26-2,1.15-3.78,1.33-5.76.3-3.27-1.73-5.59-4.12-7.54a43,43,0,0,0-8.54-5.36,42.91,42.91,0,0,0-2.24,9.82c-.31,3.08-.11,6.15,2.42,8.25,1.53,1.27,3.44,1.93,5,3.14,2.25,1.73,2.53,4,2.91,6.66.39,2.77,1.39,5.67,4.32,6.42a3.16,3.16,0,0,1-5,.55c-1.35-1.42-1.06-3.37-1-5.14.13-2.34-.37-4.31-2.46-5.63s-4.63-1.31-7-1.67c-2.17-.33-4.27-1.07-5.44-3.08-1-1.77-.73-3.65-.63-5.58.25-5.05-2.75-9.2-7.1-11.57s-9.32-2.52-14.15-2.36c-.17,4.84,0,9.87,2.35,14.16s6.52,7.35,11.58,7.09c1.93-.09,3.8-.4,5.57.63,2,1.18,2.75,3.27,3.08,5.45.36,2.39.33,4.9,1.67,7s3.29,2.59,5.64,2.46c1.77-.09,3.72-.39,5.14,1a3.17,3.17,0,0,1-.55,5c-.75-2.94-3.65-3.93-6.42-4.33-2.62-.37-4.93-.66-6.67-2.91-1.2-1.56-1.86-3.48-3.13-5C38.09,49.41,35,49.21,32,49.52a43.55,43.55,0,0,0-9.83,2.25,43.69,43.69,0,0,0,5.36,8.53c2,2.4,4.27,4.42,7.55,4.12,2-.18,3.8-1.07,5.76-1.32,2.81-.37,4.65,1.07,6.77,2.65s5,3,7.6,1.49A3.18,3.18,0,0,1,52,71.17c-2,0-3.13-1.64-4.32-3C46.11,66.46,44.37,65.43,42,66s-4.19,2.34-6.14,3.78c-1.77,1.3-3.78,2.26-6,1.67-2-.52-3.09-2.07-4.39-3.5C22,64.17,17,63.36,12.2,64.76S3.83,69.56.52,73.1c3.31,3.54,7,7,11.68,8.34S22,82,25.4,78.28c1.3-1.43,2.41-3,4.39-3.5,2.25-.59,4.26.37,6,1.67,2,1.44,3.7,3.23,6.14,3.78s4.15-.49,5.72-2.24C48.87,76.67,50,75.08,52,75A3.18,3.18,0,0,1,55.16,79c-2.61-1.54-5.37-.19-7.6,1.49s-4,3-6.77,2.65C38.83,82.85,37,82,35,81.78c-3.28-.3-5.59,1.72-7.55,4.12a43.69,43.69,0,0,0-5.36,8.53A43.55,43.55,0,0,0,32,96.68c3.07.31,6.14.11,8.25-2.43,1.27-1.52,1.93-3.44,3.13-5C45.07,87,47.38,86.71,50,86.34c2.77-.4,5.67-1.39,6.42-4.33A3.17,3.17,0,0,1,57,87c-1.42,1.36-3.37,1.07-5.14,1-2.35-.13-4.31.37-5.64,2.46s-1.31,4.62-1.67,7c-.33,2.18-1.07,4.28-3.08,5.45-1.77,1-3.64.72-5.57.63-5.06-.26-9.2,2.75-11.58,7.09s-2.52,9.32-2.35,14.16c4.83.16,9.86,0,14.15-2.36s7.35-6.52,7.1-11.57c-.1-1.93-.4-3.81.63-5.58,1.17-2,3.27-2.75,5.44-3.08,2.39-.36,4.9-.33,7-1.67s2.59-3.28,2.46-5.63c-.1-1.77-.39-3.72,1-5.14a3.16,3.16,0,0,1,5,.55c-2.93.75-3.93,3.65-4.32,6.42-.38,2.61-.66,4.93-2.91,6.66-1.57,1.21-3.48,1.87-5,3.14-2.53,2.1-2.73,5.17-2.42,8.25a42.91,42.91,0,0,0,2.24,9.82,43,43,0,0,0,8.54-5.36c2.39-1.95,4.42-4.26,4.12-7.54-.18-2-1.07-3.8-1.33-5.76-.36-2.82,1.07-4.66,2.66-6.77s3-5,1.48-7.6a3.17,3.17,0,0,1,3.93,3.15c0,2-1.63,3.14-3,4.32-1.75,1.57-2.79,3.31-2.25,5.72s2.35,4.2,3.78,6.14c1.31,1.78,2.27,3.78,1.67,6-.52,2-2.06,3.09-3.49,4.39-3.75,3.4-4.57,8.45-3.17,13.2s4.81,8.38,8.34,11.68c3.54-3.3,7-7,8.35-11.68s.58-9.8-3.17-13.2c-1.43-1.3-3-2.41-3.49-4.39-.6-2.25.36-4.25,1.67-6,1.43-1.94,3.23-3.7,3.77-6.14s-.49-4.15-2.24-5.72c-1.32-1.18-2.91-2.35-3-4.32a3.17,3.17,0,0,1,3.93-3.15c-1.54,2.6-.2,5.36,1.48,7.6s3,4,2.66,6.77c-.26,2-1.15,3.78-1.33,5.76-.3,3.28,1.73,5.59,4.12,7.54A43,43,0,0,0,95,124.6a42.91,42.91,0,0,0,2.24-9.82c.31-3.08.11-6.15-2.42-8.25-1.53-1.27-3.44-1.93-5-3.14-2.25-1.73-2.53-4-2.91-6.66-.39-2.77-1.39-5.67-4.32-6.42a3.16,3.16,0,0,1,5-.55c1.35,1.42,1.06,3.37,1,5.14-.13,2.35.37,4.31,2.46,5.63s4.63,1.31,7,1.67c2.17.33,4.27,1.07,5.44,3.08,1,1.77.73,3.65.63,5.58-.25,5,2.75,9.2,7.1,11.57s9.32,2.52,14.15,2.36c.17-4.84,0-9.87-2.35-14.16s-6.52-7.35-11.58-7.09c-1.93.09-3.8.4-5.57-.63-2-1.17-2.75-3.27-3.08-5.45-.36-2.39-.34-4.9-1.67-7S97.77,87.86,95.42,88c-1.77.1-3.72.39-5.14-1a3.17,3.17,0,0,1,.55-5c.75,2.94,3.65,3.93,6.42,4.33s4.93.66,6.67,2.91c1.2,1.56,1.86,3.48,3.13,5,2.11,2.54,5.18,2.74,8.25,2.43a43.55,43.55,0,0,0,9.83-2.25,43.69,43.69,0,0,0-5.36-8.53c-2-2.4-4.27-4.42-7.55-4.12-2,.18-3.8,1.07-5.76,1.32-2.82.37-4.65-1.07-6.77-2.65s-5-3-7.6-1.49A3.18,3.18,0,0,1,95.25,75c2,0,3.13,1.64,4.32,3,1.56,1.75,3.31,2.78,5.72,2.24s4.19-2.34,6.14-3.78c1.77-1.3,3.78-2.26,6-1.67,2,.52,3.09,2.07,4.39,3.5,3.39,3.75,8.45,4.56,13.2,3.16s8.37-4.8,11.67-8.34C143.42,69.56,139.74,66.13,135.05,64.76ZM101.5,60.07c2.32-.88,3.53-2.83,4.7-4.9,1-1.76,2-3.62,4.08-4.34a12.55,12.55,0,0,1,5.72-.2,43.68,43.68,0,0,1,7.69,1.73A43.19,43.19,0,0,1,119.48,59a12.53,12.53,0,0,1-4.19,3.91c-1.94.92-4,.36-6-.18-2.3-.64-4.53-1.16-6.8-.15-3.09,1.39-6.26,6-10,3.72a3,3,0,0,1,.9-.79.53.53,0,0,0,.18-.72.52.52,0,0,0-.63-.37,3.07,3.07,0,0,1-1.19.07C92.81,60.24,98.33,61.28,101.5,60.07Zm-9.64,5.48A3.74,3.74,0,0,0,91.07,69,17.91,17.91,0,0,0,87,69l1.07-1.92-2.12-.6a17.86,17.86,0,0,0,2.94-2.83A3.81,3.81,0,0,0,91.86,65.55Zm-9,21.34a16.47,16.47,0,0,1-5.13-9.65,16.47,16.47,0,0,1,9.66,5.13,29.07,29.07,0,0,0-4.57,0A30.18,30.18,0,0,0,82.89,86.89ZM85,79a17.41,17.41,0,0,0-7.36-2.76.48.48,0,0,0-.15-.22l-3.16-2.6,4.07.4a.55.55,0,0,0,.26,0A17.56,17.56,0,0,0,85.79,77a.61.61,0,0,0,.06.25l.69,1.22-1.35.38A.45.45,0,0,0,85,79ZM82.85,63.87a29.07,29.07,0,0,0,4.57,0A16.47,16.47,0,0,1,77.76,69a16.5,16.5,0,0,1,5.13-9.65A30.18,30.18,0,0,0,82.85,63.87ZM85,67.24a.45.45,0,0,0,.22.13l1.35.38L85.85,69a.61.61,0,0,0-.06.25,17.56,17.56,0,0,0-7.16,3.25.55.55,0,0,0-.26,0l-4.07.4,3.16-2.6a.48.48,0,0,0,.15-.22A17.41,17.41,0,0,0,85,67.24ZM79.48,73.1a16.44,16.44,0,0,1,10.45-3.2,30.78,30.78,0,0,0-3.26,3.2,30.78,30.78,0,0,0,3.26,3.2A16.44,16.44,0,0,1,79.48,73.1ZM84,58.36l.08-.07A4.2,4.2,0,0,0,88.44,57c1.83-2.06.86-4.56,1.07-7,.46-5.33,6.9-4.26,10.55-5.33a6.94,6.94,0,0,0,5.07-5.44,19.48,19.48,0,0,0-.08-4.18,10,10,0,0,1,1.74-6c3.93-5.8,11-6.62,17.51-6.53.1,6.55-.72,13.59-6.52,17.51a9.88,9.88,0,0,1-6,1.74,20.24,20.24,0,0,0-4.19-.08,6.94,6.94,0,0,0-5.44,5.07c-1.07,3.66,0,10.09-5.33,10.55-2.45.22-5-.76-7,1.07a4.24,4.24,0,0,0-1.34,4.37l-.07.08h0a29.85,29.85,0,0,1-4.53.18A28.61,28.61,0,0,1,84,58.38Zm.12-14.18c1-2.27.49-4.5-.14-6.79-.54-2-1.11-4-.19-6a12.61,12.61,0,0,1,3.91-4.18A42.5,42.5,0,0,1,94.36,23a42.15,42.15,0,0,1,1.73,7.69,12.6,12.6,0,0,1-.19,5.73c-.73,2-2.58,3.08-4.34,4.08-2.08,1.17-4,2.38-4.91,4.7-1.21,3.17-.16,8.69-4.44,9.69a3.06,3.06,0,0,1,.08-1.19.53.53,0,0,0-.38-.64.51.51,0,0,0-.71.19,3.29,3.29,0,0,1-.79.89C78.09,50.44,82.74,47.27,84.12,44.18ZM77.76,55.66a3.81,3.81,0,0,0,3.42-.79,3.77,3.77,0,0,0,1.85,3,18.26,18.26,0,0,0-2.83,2.94c-.2-.7-.4-1.41-.59-2.12l-1.93,1.08A17.92,17.92,0,0,0,77.76,55.66Zm0,5.21L79,60.19c.13.45.26.9.38,1.34a.63.63,0,0,0,.13.23,17.55,17.55,0,0,0-2.76,7.35.66.66,0,0,0-.22.15c-.86,1.06-1.73,2.11-2.6,3.17.14-1.36.27-2.72.4-4.08a.47.47,0,0,0,0-.26,17.46,17.46,0,0,0,3.25-7.15A.59.59,0,0,0,77.75,60.87Zm-7.2-5.63a4.23,4.23,0,0,0,2.14-4c-.17-2.75-2.62-3.83-4.2-5.72-3.45-4.1,1.86-7.89,3.69-11.23a7,7,0,0,0-.27-7.43,19.67,19.67,0,0,0-3-2.9,9.93,9.93,0,0,1-3-5.5c-1.33-6.88,3.07-12.44,7.76-17,4.7,4.56,9.1,10.12,7.77,17a10,10,0,0,1-3,5.5,19.67,19.67,0,0,0-3,2.9,7,7,0,0,0-.27,7.43c1.83,3.34,7.14,7.13,3.69,11.23-1.58,1.89-4,3-4.2,5.72a4.23,4.23,0,0,0,2.14,4,.34.34,0,0,1,0,.1h0a28.69,28.69,0,0,1-3.08,3.34,29.51,29.51,0,0,1-3.07-3.34h0A.34.34,0,0,1,70.55,55.24Zm3.07,4.81a29.75,29.75,0,0,0,3.2-3.25,16.44,16.44,0,0,1-3.2,10.45,16.56,16.56,0,0,1-3.2-10.45A31.68,31.68,0,0,0,73.62,60.05Zm-.62,8a.47.47,0,0,0,0,.26c.13,1.36.26,2.72.4,4.08-.87-1.06-1.74-2.11-2.6-3.17a.66.66,0,0,0-.22-.15,17.57,17.57,0,0,0-2.77-7.35.53.53,0,0,0,.14-.23c.12-.44.25-.89.38-1.34l1.22.68a.59.59,0,0,0,.25.07A17.34,17.34,0,0,0,73,68.09ZM64.4,82.33a29.06,29.06,0,0,0-4.57,0,16.48,16.48,0,0,1,9.65-5.13,16.41,16.41,0,0,1-5.12,9.65A30.18,30.18,0,0,0,64.4,82.33ZM62.28,79a.45.45,0,0,0-.22-.13l-1.35-.38.69-1.22a.61.61,0,0,0,.06-.25,17.56,17.56,0,0,0,7.16-3.25.55.55,0,0,0,.26,0l4.07-.4L69.79,76a.42.42,0,0,0-.15.22A17.41,17.41,0,0,0,62.28,79Zm2.08-19.65A16.43,16.43,0,0,1,69.48,69a16.48,16.48,0,0,1-9.65-5.13,29.06,29.06,0,0,0,4.57,0A30.18,30.18,0,0,0,64.36,59.31Zm-2.08,7.93A17.41,17.41,0,0,0,69.64,70a.42.42,0,0,0,.15.22L73,72.82l-4.07-.4a.55.55,0,0,0-.26,0,17.56,17.56,0,0,0-7.16-3.25A.61.61,0,0,0,61.4,69l-.69-1.22,1.35-.38A.45.45,0,0,0,62.28,67.24Zm5.49,5.86a16.44,16.44,0,0,1-10.45,3.2,30.78,30.78,0,0,0,3.26-3.2,30.78,30.78,0,0,0-3.26-3.2A16.44,16.44,0,0,1,67.77,73.1ZM60.6,45.23c-.89-2.32-2.83-3.53-4.91-4.7-1.76-1-3.62-2.06-4.34-4.08a12.6,12.6,0,0,1-.19-5.73A42.15,42.15,0,0,1,52.89,23a42.5,42.5,0,0,1,6.66,4.22,12.61,12.61,0,0,1,3.91,4.18c.92,2,.35,4-.19,6-.64,2.29-1.16,4.52-.14,6.79,1.38,3.09,6,6.26,3.71,10a3.29,3.29,0,0,1-.79-.89.51.51,0,0,0-.71-.19.53.53,0,0,0-.38.64A3.06,3.06,0,0,1,65,54.92C60.76,53.92,61.81,48.4,60.6,45.23Zm5.47,9.64a3.81,3.81,0,0,0,3.42.79,17.37,17.37,0,0,0,.08,4.08l-1.93-1.08c-.2.71-.39,1.42-.59,2.12a18.33,18.33,0,0,0-2.84-2.94A3.75,3.75,0,0,0,66.07,54.87Zm-8.59,3.41c-2.06-1.83-4.56-.85-7-1.07-5.34-.46-4.26-6.89-5.33-10.55a6.94,6.94,0,0,0-5.44-5.07,20.24,20.24,0,0,0-4.19.08,9.88,9.88,0,0,1-6-1.74C23.67,36,22.85,29,23,22.42c6.54-.09,13.58.73,17.51,6.53a9.92,9.92,0,0,1,1.73,6,20.15,20.15,0,0,0-.07,4.18,6.94,6.94,0,0,0,5.07,5.44c3.65,1.07,10.09,0,10.55,5.33.21,2.46-.76,5,1.07,7a4.2,4.2,0,0,0,4.36,1.33l.08.07v0a28.61,28.61,0,0,1,.18,4.53,29.85,29.85,0,0,1-4.53-.18h0l-.07-.08A4.24,4.24,0,0,0,57.48,58.28Zm.89,5.41a17.86,17.86,0,0,0,2.94,2.83l-2.12.6c.35.64.71,1.28,1.07,1.92A17.91,17.91,0,0,0,56.18,69a3.77,3.77,0,0,0-.79-3.42A3.81,3.81,0,0,0,58.37,63.69Zm-4.12.75a.52.52,0,0,0-.63.37.53.53,0,0,0,.18.72,3,3,0,0,1,.9.79C51,68.63,47.8,64,44.7,62.6c-2.26-1-4.49-.49-6.79.15-1.95.54-4,1.1-5.95.18A12.53,12.53,0,0,1,27.77,59a43.19,43.19,0,0,1-4.21-6.66,43.68,43.68,0,0,1,7.69-1.73,12.55,12.55,0,0,1,5.72.2c2,.72,3.08,2.58,4.08,4.34,1.17,2.07,2.38,4,4.7,4.9,3.17,1.21,8.69.17,9.69,4.44A3.07,3.07,0,0,1,54.25,64.44ZM51.73,74C49,74.2,47.9,76.66,46,78.24c-4.1,3.45-7.89-1.86-11.24-3.69a6.93,6.93,0,0,0-7.43.26,20.22,20.22,0,0,0-2.9,3,10,10,0,0,1-5.5,3C12.07,82.19,6.52,77.8,2,73.1,6.52,68.4,12.07,64,19,65.33a9.91,9.91,0,0,1,5.5,3,20.65,20.65,0,0,0,2.9,3,6.93,6.93,0,0,0,7.43.26C38.13,69.82,41.92,64.51,46,68c1.88,1.58,3,4,5.71,4.2a4.2,4.2,0,0,0,4-2.14h.11v0a29.34,29.34,0,0,1,3.33,3.07,30.38,30.38,0,0,1-3.33,3.08h-.12A4.2,4.2,0,0,0,51.73,74Zm-6,12.09C43.43,87,42.22,89,41.05,91c-1,1.76-2,3.62-4.08,4.34a12.55,12.55,0,0,1-5.72.2,42.8,42.8,0,0,1-7.69-1.73,43.19,43.19,0,0,1,4.21-6.66A12.53,12.53,0,0,1,32,83.27c1.94-.92,4-.36,5.95.18,2.3.64,4.53,1.16,6.79.15,3.1-1.39,6.27-6,10-3.72a3,3,0,0,1-.9.79.53.53,0,0,0-.18.72.52.52,0,0,0,.63.37,3.07,3.07,0,0,1,1.19-.07C54.44,86,48.92,84.92,45.75,86.13Zm9.64-5.48a3.77,3.77,0,0,0,.79-3.42,17.91,17.91,0,0,0,4.08-.07c-.36.64-.72,1.28-1.07,1.92l2.12.6a17.86,17.86,0,0,0-2.94,2.83A3.81,3.81,0,0,0,55.39,80.65Zm7.86,7.19-.08.07a4.2,4.2,0,0,0-4.36,1.33c-1.83,2.06-.86,4.56-1.07,7-.46,5.33-6.9,4.26-10.55,5.33A6.94,6.94,0,0,0,42.12,107a20.15,20.15,0,0,0,.07,4.18,9.92,9.92,0,0,1-1.73,6c-3.93,5.8-11,6.62-17.51,6.53-.1-6.55.72-13.58,6.52-17.51a9.88,9.88,0,0,1,6-1.74,20.24,20.24,0,0,0,4.19.08,6.94,6.94,0,0,0,5.44-5.07c1.07-3.66,0-10.09,5.33-10.55,2.45-.21,5,.76,7-1.07a4.24,4.24,0,0,0,1.34-4.37l.07-.08h0a28.62,28.62,0,0,1,4.53-.19,28.61,28.61,0,0,1-.18,4.53ZM63.13,102c-1,2.27-.5,4.5.14,6.79.54,2,1.11,4,.19,6A12.61,12.61,0,0,1,59.55,119a42.5,42.5,0,0,1-6.66,4.22,42.15,42.15,0,0,1-1.73-7.69,12.6,12.6,0,0,1,.19-5.73c.72-2,2.58-3.08,4.34-4.08,2.08-1.17,4-2.38,4.91-4.7,1.21-3.16.16-8.69,4.44-9.69A3.06,3.06,0,0,1,65,92.47a.53.53,0,0,0,.38.64.51.51,0,0,0,.71-.19,3.29,3.29,0,0,1,.79-.89C69.16,95.76,64.51,98.93,63.13,102Zm6.36-11.48a3.81,3.81,0,0,0-3.42.79,3.75,3.75,0,0,0-1.86-3,18.33,18.33,0,0,0,2.84-2.94c.2.7.39,1.41.59,2.12l1.93-1.08A17.37,17.37,0,0,0,69.49,90.54Zm0-5.21L68.28,86c-.13-.45-.26-.89-.38-1.34a.53.53,0,0,0-.14-.23,17.57,17.57,0,0,0,2.77-7.35.66.66,0,0,0,.22-.15c.86-1.06,1.73-2.11,2.6-3.17-.14,1.36-.27,2.72-.4,4.08a.47.47,0,0,0,0,.26,17.34,17.34,0,0,0-3.25,7.15A.59.59,0,0,0,69.5,85.33ZM76.7,91a4.23,4.23,0,0,0-2.14,4c.17,2.75,2.62,3.83,4.2,5.72,3.45,4.1-1.86,7.89-3.69,11.23a7,7,0,0,0,.27,7.43,19.67,19.67,0,0,0,3,2.9,10,10,0,0,1,3,5.5c1.33,6.88-3.07,12.44-7.77,17-4.69-4.56-9.09-10.12-7.76-17a9.93,9.93,0,0,1,3-5.5,19.67,19.67,0,0,0,3-2.9,7,7,0,0,0,.27-7.43c-1.83-3.34-7.14-7.13-3.69-11.23,1.58-1.89,4-3,4.2-5.72a4.23,4.23,0,0,0-2.14-4,.34.34,0,0,1,0-.1h0a29.51,29.51,0,0,1,3.07-3.34,28.69,28.69,0,0,1,3.08,3.34h0A.34.34,0,0,1,76.7,91Zm-3.08-4.81a31.68,31.68,0,0,0-3.2,3.25A16.56,16.56,0,0,1,73.62,79a16.44,16.44,0,0,1,3.2,10.45A29.75,29.75,0,0,0,73.62,86.15Zm.63-8a.47.47,0,0,0,0-.26c-.13-1.36-.26-2.72-.4-4.08.87,1.06,1.74,2.11,2.6,3.17a.66.66,0,0,0,.22.15,17.55,17.55,0,0,0,2.76,7.35.63.63,0,0,0-.13.23c-.12.45-.25.89-.38,1.34l-1.22-.68a.59.59,0,0,0-.25-.07A17.46,17.46,0,0,0,74.25,78.11ZM86.65,101c.89,2.32,2.83,3.53,4.91,4.7,1.76,1,3.61,2.06,4.34,4.08a12.6,12.6,0,0,1,.19,5.73,42.15,42.15,0,0,1-1.73,7.69A42.5,42.5,0,0,1,87.7,119a12.61,12.61,0,0,1-3.91-4.18c-.92-2-.35-4,.19-6,.63-2.29,1.16-4.52.14-6.79-1.38-3.09-6-6.26-3.71-10a3.29,3.29,0,0,1,.79.89.51.51,0,0,0,.71.19.53.53,0,0,0,.38-.64,3.06,3.06,0,0,1-.08-1.19C86.49,92.28,85.44,97.81,86.65,101Zm-5.47-9.64a3.81,3.81,0,0,0-3.42-.79,17.92,17.92,0,0,0-.08-4.08l1.93,1.08c.19-.71.39-1.42.59-2.12A18.26,18.26,0,0,0,83,88.36,3.77,3.77,0,0,0,81.18,91.33Zm8.59-3.41c2.06,1.83,4.56.86,7,1.07,5.34.46,4.26,6.89,5.33,10.55a6.94,6.94,0,0,0,5.44,5.07,20.24,20.24,0,0,0,4.19-.08,9.88,9.88,0,0,1,6,1.74c5.8,3.93,6.62,11,6.52,17.51-6.54.09-13.58-.73-17.51-6.53a10,10,0,0,1-1.74-6,19.48,19.48,0,0,0,.08-4.18,6.94,6.94,0,0,0-5.07-5.44c-3.65-1.07-10.09,0-10.55-5.33-.21-2.46.76-5-1.07-7a4.2,4.2,0,0,0-4.36-1.33L84,87.84v0a28.61,28.61,0,0,1-.18-4.53,28.62,28.62,0,0,1,4.53.19h0l.07.08A4.24,4.24,0,0,0,89.77,87.92Zm-.89-5.41a17.86,17.86,0,0,0-2.94-2.83l2.12-.6L87,77.16a17.91,17.91,0,0,0,4.08.07,3.74,3.74,0,0,0,.79,3.42A3.81,3.81,0,0,0,88.88,82.51ZM93,81.76a.52.52,0,0,0,.63-.37.53.53,0,0,0-.18-.72,3,3,0,0,1-.9-.79c3.73-2.31,6.9,2.33,10,3.72,2.27,1,4.5.49,6.8-.15,2-.54,4-1.1,6-.18a12.53,12.53,0,0,1,4.19,3.91,43.19,43.19,0,0,1,4.21,6.66A42.8,42.8,0,0,1,116,95.57a12.55,12.55,0,0,1-5.72-.2c-2-.72-3.08-2.58-4.08-4.34-1.17-2.07-2.38-4-4.7-4.9-3.17-1.21-8.69-.17-9.69-4.44A3.07,3.07,0,0,1,93,81.76Zm35.3-.89a10,10,0,0,1-5.5-3,20.22,20.22,0,0,0-2.9-3,7,7,0,0,0-7.44-.26c-3.34,1.83-7.13,7.14-11.23,3.69-1.88-1.58-3-4-5.71-4.2a4.23,4.23,0,0,0-4,2.14h-.11A30.38,30.38,0,0,1,88,73.1,29.34,29.34,0,0,1,91.37,70v0h.1a4.23,4.23,0,0,0,4,2.14c2.75-.16,3.83-2.62,5.71-4.2,4.1-3.45,7.89,1.86,11.23,3.69a7,7,0,0,0,7.44-.26,20.65,20.65,0,0,0,2.9-3,9.91,9.91,0,0,1,5.5-3c6.88-1.32,12.43,3.07,17,7.77C140.73,77.8,135.18,82.19,128.3,80.87Z"/><path class="cls-4" d="M55.34,117.24a7.57,7.57,0,0,0,4.9-11.82A7.57,7.57,0,0,0,55.34,117.24Zm.48-1.16a6.5,6.5,0,0,1,3.93-9.48A6.5,6.5,0,0,1,55.82,116.08Z"/><path class="cls-4" d="M55.34,29a7.57,7.57,0,0,0,4.9,11.82A7.57,7.57,0,0,0,55.34,29ZM59.75,39.6a6.5,6.5,0,0,1-3.93-9.48A6.5,6.5,0,0,1,59.75,39.6Z"/><path class="cls-4" d="M29.48,91.38A7.56,7.56,0,0,0,41.3,86.49,7.57,7.57,0,0,0,29.48,91.38ZM40.13,87a6.51,6.51,0,0,1-9.49,3.93A6.51,6.51,0,0,1,40.13,87Z"/><path class="cls-4" d="M91.91,29A7.57,7.57,0,0,0,87,40.78,7.57,7.57,0,0,0,91.91,29Zm-.48,1.16A6.5,6.5,0,0,1,87.5,39.6,6.5,6.5,0,0,1,91.43,30.12Z"/><path class="cls-4" d="M117.77,91.38A7.57,7.57,0,0,0,106,86.49,7.56,7.56,0,0,0,117.77,91.38Zm-1.16-.48A6.51,6.51,0,0,1,107.12,87,6.51,6.51,0,0,1,116.61,90.9Z"/><path class="cls-4" d="M91.91,117.24A7.57,7.57,0,0,0,87,105.42,7.57,7.57,0,0,0,91.91,117.24ZM87.5,106.6a6.5,6.5,0,0,1,3.93,9.48A6.5,6.5,0,0,1,87.5,106.6Z"/><path class="cls-4" d="M29.48,54.82A7.57,7.57,0,0,0,41.3,59.71,7.56,7.56,0,0,0,29.48,54.82Zm1.16.48a6.51,6.51,0,0,1,9.49,3.93A6.51,6.51,0,0,1,30.64,55.3Z"/><path class="cls-4" d="M117.77,54.82A7.56,7.56,0,0,0,106,59.71,7.57,7.57,0,0,0,117.77,54.82Zm-10.65,4.41a6.51,6.51,0,0,1,9.49-3.93A6.51,6.51,0,0,1,107.12,59.23Z"/><path class="cls-4" d="M48.85,48.32a5.13,5.13,0,0,0,6.46,6.46A5.14,5.14,0,0,0,48.85,48.32ZM54.48,54a4.09,4.09,0,0,1-4.79-4.79A4.09,4.09,0,0,1,54.48,54Z"/><path class="cls-4" d="M99.53,73.1a5.13,5.13,0,0,0,9.13,0A5.13,5.13,0,0,0,99.53,73.1Zm1.18,0a4.08,4.08,0,0,1,6.77,0A4.08,4.08,0,0,1,100.71,73.1Z"/><path class="cls-4" d="M38.59,73.1a5.13,5.13,0,0,0,9.13,0A5.13,5.13,0,0,0,38.59,73.1Zm1.18,0a4.08,4.08,0,0,1,6.77,0A4.08,4.08,0,0,1,39.77,73.1Z"/><path class="cls-4" d="M73.62,108.14a5.13,5.13,0,0,0,0-9.13A5.14,5.14,0,0,0,73.62,108.14Zm0-1.19a4.09,4.09,0,0,1,0-6.77A4.08,4.08,0,0,1,73.62,107Z"/><path class="cls-4" d="M98.4,48.32a5.14,5.14,0,0,0-6.46,6.46A5.13,5.13,0,0,0,98.4,48.32Zm-.84.84A4.09,4.09,0,0,1,92.77,54,4.09,4.09,0,0,1,97.56,49.16Z"/><path class="cls-4" d="M73.62,38.06a5.14,5.14,0,0,0,0,9.13A5.13,5.13,0,0,0,73.62,38.06Zm0,1.19a4.08,4.08,0,0,1,0,6.77A4.09,4.09,0,0,1,73.62,39.25Z"/><path class="cls-4" d="M48.85,97.88a5.14,5.14,0,0,0,6.46-6.46A5.13,5.13,0,0,0,48.85,97.88Zm.84-.84a4.09,4.09,0,0,1,4.79-4.79A4.09,4.09,0,0,1,49.69,97Z"/><path class="cls-4" d="M98.4,97.88a5.13,5.13,0,0,0-6.46-6.46A5.14,5.14,0,0,0,98.4,97.88Zm-5.63-5.63A4.09,4.09,0,0,1,97.56,97,4.09,4.09,0,0,1,92.77,92.25Z"/><path class="cls-4" d="M131.92,67.82c-.48,0-.77.7-.31.94a4.9,4.9,0,0,1,0,8.68c-.46.24-.17,1,.31.94A14.11,14.11,0,0,0,142,73.1,14.11,14.11,0,0,0,131.92,67.82Zm1.91,9.23a6.2,6.2,0,0,0,0-7.9,13,13,0,0,1,6.81,3.95A13,13,0,0,1,133.83,77.05Z"/><path class="cls-4" d="M35.69,117.18A4.51,4.51,0,0,1,30.76,116,4.51,4.51,0,0,1,29.55,111c.17-.49-.57-.81-.88-.44a14.12,14.12,0,0,0-3.39,10.85,14.13,14.13,0,0,0,10.86-3.38C36.5,117.75,36.19,117,35.69,117.18Zm-9.46,3.31a13.16,13.16,0,0,1,2-7.61,5.5,5.5,0,0,0,1.79,3.79,5.48,5.48,0,0,0,3.8,1.79A13,13,0,0,1,26.23,120.49Z"/><path class="cls-4" d="M73.62,12.48A4.51,4.51,0,0,1,78,15.11c.23.47,1,.17.94-.31A14.1,14.1,0,0,0,73.62,4.73,14.13,14.13,0,0,0,68.34,14.8c0,.48.71.78.94.31A4.5,4.5,0,0,1,73.62,12.48Zm0-6.4a13.09,13.09,0,0,1,4,6.82,6.22,6.22,0,0,0-7.91,0A13.14,13.14,0,0,1,73.62,6.08Z"/><path class="cls-4" d="M15.64,77.44a4.9,4.9,0,0,1,0-8.68c.46-.24.16-1-.31-.94A14.15,14.15,0,0,0,5.25,73.1a14.15,14.15,0,0,0,10.08,5.28C15.8,78.42,16.1,77.68,15.64,77.44Zm-9-4.34a13.11,13.11,0,0,1,6.82-3.95,6.2,6.2,0,0,0,0,7.9A13.11,13.11,0,0,1,6.6,73.1Z"/><path class="cls-4" d="M111.56,117.18c-.5-.17-.81.57-.45.88A14.13,14.13,0,0,0,122,121.44a14.12,14.12,0,0,0-3.39-10.85c-.31-.37-1,0-.88.44a4.91,4.91,0,0,1-6.14,6.15Zm7.43-4.3a13.16,13.16,0,0,1,2,7.61,13,13,0,0,1-7.62-2,6.21,6.21,0,0,0,5.59-5.58Z"/><path class="cls-4" d="M73.62,133.72a4.5,4.5,0,0,1-4.34-2.63c-.23-.47-1-.17-.94.31a14.13,14.13,0,0,0,5.28,10.07,14.1,14.1,0,0,0,5.29-10.07c0-.48-.71-.78-.94-.31A4.51,4.51,0,0,1,73.62,133.72Zm0,6.4a13.14,13.14,0,0,1-4-6.82,6.22,6.22,0,0,0,7.91,0A13.09,13.09,0,0,1,73.62,140.12Z"/><path class="cls-4" d="M35.69,29c.5.17.81-.57.45-.88a14.13,14.13,0,0,0-10.86-3.38,14.12,14.12,0,0,0,3.39,10.85c.31.37,1,0,.88-.44a4.51,4.51,0,0,1,1.21-4.93A4.51,4.51,0,0,1,35.69,29Zm-7.43,4.3a13.16,13.16,0,0,1-2-7.61,13,13,0,0,1,7.62,2,5.48,5.48,0,0,0-3.8,1.79A5.5,5.5,0,0,0,28.26,33.32Z"/><path class="cls-4" d="M111.56,29a4.51,4.51,0,0,1,4.93,1.22,4.51,4.51,0,0,1,1.21,4.93c-.17.49.57.81.88.44A14.12,14.12,0,0,0,122,24.76a14.13,14.13,0,0,0-10.86,3.38C110.75,28.45,111.06,29.19,111.56,29ZM121,25.71a13.16,13.16,0,0,1-2,7.61,5.5,5.5,0,0,0-1.79-3.79,5.48,5.48,0,0,0-3.8-1.79A13,13,0,0,1,121,25.71Z"/><path class="cls-4" d="M113.87,38.07c2-1.61,2-4.18,1.11-6.33-2.15-.91-4.72-.84-6.32,1.12a3.69,3.69,0,0,0,5.21,5.21Zm-3.54-5.33a4.39,4.39,0,0,1,3.87-.22A4.38,4.38,0,0,1,114,36.4a2.76,2.76,0,1,1-3.66-3.66Z"/><path class="cls-4" d="M69.94,126.33c-.25,2.52,1.52,4.38,3.68,5.26,2.17-.88,3.94-2.74,3.69-5.26a3.69,3.69,0,0,0-7.37,0Zm6.27,1.26a4.35,4.35,0,0,1-2.59,2.89A4.36,4.36,0,0,1,71,127.59a2.76,2.76,0,1,1,5.17,0Z"/><path class="cls-4" d="M32.27,31.74c-.91,2.15-.85,4.72,1.11,6.33a3.69,3.69,0,0,0,5.21-5.21C37,30.9,34.42,30.83,32.27,31.74Zm5.45,5.45a2.93,2.93,0,0,1-4.46-.79,4.38,4.38,0,0,1-.21-3.88,4.4,4.4,0,0,1,3.87.22A2.92,2.92,0,0,1,37.72,37.19Z"/><path class="cls-4" d="M126.85,69.42a3.69,3.69,0,0,0,0,7.36c2.52.25,4.39-1.51,5.26-3.68C131.24,70.94,129.37,69.17,126.85,69.42Zm1.27,6.27a2.76,2.76,0,1,1,0-5.18A4.4,4.4,0,0,1,131,73.1,4.4,4.4,0,0,1,128.12,75.69Z"/><path class="cls-4" d="M20.4,69.42c-2.52-.25-4.39,1.52-5.26,3.68C16,75.27,17.88,77,20.4,76.78a3.69,3.69,0,0,0,0-7.36Zm-1.27,6.27a4.4,4.4,0,0,1-2.89-2.59,4.4,4.4,0,0,1,2.89-2.59,2.76,2.76,0,1,1,0,5.18Z"/><path class="cls-4" d="M115,114.46c.91-2.15.85-4.72-1.11-6.33a3.69,3.69,0,0,0-5.21,5.21C110.26,115.3,112.83,115.37,115,114.46ZM109.53,109a2.93,2.93,0,0,1,4.46.79,4.38,4.38,0,0,1,.21,3.88,4.39,4.39,0,0,1-3.87-.22A2.92,2.92,0,0,1,109.53,109Z"/><path class="cls-4" d="M33.38,108.13c-2,1.61-2,4.18-1.11,6.33,2.15.91,4.72.84,6.32-1.12a3.69,3.69,0,0,0-5.21-5.21Zm3.54,5.33a4.4,4.4,0,0,1-3.87.22,4.38,4.38,0,0,1,.21-3.88,2.76,2.76,0,1,1,3.66,3.66Z"/><path class="cls-4" d="M77.31,19.87c.25-2.52-1.52-4.38-3.69-5.26-2.16.88-3.93,2.74-3.68,5.26a3.69,3.69,0,0,0,7.37,0ZM71,18.61a4.36,4.36,0,0,1,2.58-2.89,4.35,4.35,0,0,1,2.59,2.89,2.76,2.76,0,1,1-5.17,0Z"/><path class="cls-4" d="M78.7,28.1l-.07,0h-.09a2.23,2.23,0,1,0,.16,0Zm.65,3.56a1.29,1.29,0,1,1-.54-2.53,1.38,1.38,0,0,1,1.51.89A1.34,1.34,0,0,1,79.35,31.66Z"/><path class="cls-4" d="M48.63,37.16a2.39,2.39,0,0,0-3.23.53.36.36,0,0,0,0,.07s0,0-.06.07a2.32,2.32,0,1,0,3.32-.67Zm-.26,2.59a1.35,1.35,0,0,1-1.79.39,1.37,1.37,0,0,1-.38-1.8,1.4,1.4,0,0,1,1.7-.44A1.34,1.34,0,0,1,48.37,39.75Z"/><path class="cls-4" d="M28.66,68.18a2.34,2.34,0,1,0,0-.16s0,0,0,.07S28.65,68.15,28.66,68.18Zm1.88-1.78a1.3,1.3,0,1,1,.65,2.51,1.37,1.37,0,0,1-1.54-1A1.4,1.4,0,0,1,30.54,66.4Z"/><path class="cls-4" d="M38.29,101.36l.06.06a2.37,2.37,0,1,0-.13-.09Zm.14-2.53a1.29,1.29,0,1,1,2.23,1.31,1.29,1.29,0,0,1-2.23-1.31Z"/><path class="cls-4" d="M68.55,118.1l.07,0h.09a2.23,2.23,0,1,0-.16,0Zm-.65-3.56a1.29,1.29,0,1,1,.54,2.53,1.38,1.38,0,0,1-1.51-.89A1.34,1.34,0,0,1,67.9,114.54Z"/><path class="cls-4" d="M98.62,109a2.39,2.39,0,0,0,3.23-.53.36.36,0,0,0,0-.07s.05,0,.06-.07a2.32,2.32,0,1,0-3.32.67Zm.26-2.59a1.35,1.35,0,0,1,1.79-.39,1.37,1.37,0,0,1,.38,1.8,1.4,1.4,0,0,1-1.7.44A1.34,1.34,0,0,1,98.88,106.45Z"/><path class="cls-4" d="M118.59,78a2.34,2.34,0,1,0,0,.16s0-.05,0-.07S118.6,78.05,118.59,78Zm-1.88,1.78a1.3,1.3,0,1,1-.65-2.51,1.37,1.37,0,0,1,1.54,1A1.4,1.4,0,0,1,116.71,79.8Z"/><path class="cls-4" d="M109,44.84l-.07-.06a2.29,2.29,0,1,0,.14.09Zm-.14,2.53a1.29,1.29,0,1,1-2.23-1.31,1.36,1.36,0,0,1,1.79-.39A1.38,1.38,0,0,1,108.82,47.37Z"/><path class="cls-4" d="M101.88,37.76a.36.36,0,0,0,0-.07,2.36,2.36,0,1,0,.09.14S101.9,37.79,101.88,37.76Zm-1.21,2.38a1.3,1.3,0,1,1-1.32-2.24,1.4,1.4,0,0,1,1.7.44A1.37,1.37,0,0,1,100.67,40.14Z"/><path class="cls-4" d="M67.71,32.67a2.32,2.32,0,0,0,1-4.53h-.09l-.07,0a2.32,2.32,0,0,0-.84,4.57ZM66.93,30a1.38,1.38,0,0,1,1.51-.89,1.29,1.29,0,1,1-.54,2.53A1.34,1.34,0,0,1,66.93,30Z"/><path class="cls-4" d="M40.86,48.69a2.32,2.32,0,0,0-2.51-3.91l-.06.06-.07,0a2.32,2.32,0,0,0,2.64,3.82Zm-2-3a1.36,1.36,0,0,1,1.79.39,1.29,1.29,0,1,1-2.23,1.31A1.38,1.38,0,0,1,38.87,45.67Z"/><path class="cls-4" d="M30.54,80.84A2.32,2.32,0,1,0,28.66,78s0,.06,0,.09,0,0,0,.07A2.39,2.39,0,0,0,30.54,80.84Zm-.89-2.56a1.37,1.37,0,0,1,1.54-1,1.3,1.3,0,1,1-.65,2.51A1.4,1.4,0,0,1,29.65,78.28Z"/><path class="cls-4" d="M45.37,108.44a.36.36,0,0,0,0,.07,2.36,2.36,0,1,0-.09-.14S45.35,108.42,45.37,108.44Zm1.21-2.38a1.3,1.3,0,1,1,1.32,2.24,1.4,1.4,0,0,1-1.7-.44A1.37,1.37,0,0,1,46.58,106.06Z"/><path class="cls-4" d="M79.54,113.53a2.32,2.32,0,0,0-1,4.53h.09l.07,0a2.32,2.32,0,0,0,.84-4.57Zm.78,2.65a1.38,1.38,0,0,1-1.51.89,1.29,1.29,0,1,1,.54-2.53A1.34,1.34,0,0,1,80.32,116.18Z"/><path class="cls-4" d="M106.39,97.51a2.32,2.32,0,0,0,2.5,3.91l.07-.06.07,0a2.32,2.32,0,0,0-2.64-3.82Zm2,3a1.36,1.36,0,0,1-1.79-.39,1.29,1.29,0,1,1,2.23-1.31A1.38,1.38,0,0,1,108.38,100.53Z"/><path class="cls-4" d="M116.71,65.36a2.32,2.32,0,1,0,1.88,2.82s0-.06,0-.09,0,0,0-.07A2.39,2.39,0,0,0,116.71,65.36Zm.89,2.56a1.37,1.37,0,0,1-1.54,1,1.3,1.3,0,1,1,.65-2.51A1.4,1.4,0,0,1,117.6,67.92Z"/><path class="cls-4" d="M81.64,25.39a2,2,0,0,0,2.21,1.72,2.43,2.43,0,0,0,1.92-2.35A1.57,1.57,0,0,0,83.88,23l0,0a.53.53,0,0,0-.36-.05A2.29,2.29,0,0,0,81.64,25.39Zm1-.5a1.33,1.33,0,0,1,1.12-1l0,0a.46.46,0,0,0,.37.05c.65-.16.57.89.45,1.25a1.17,1.17,0,0,1-1.29.9A1,1,0,0,1,82.67,24.89Z"/><path class="cls-4" d="M45.55,33.69a2,2,0,0,0,2.78-.34,2.42,2.42,0,0,0-.3-3,1.58,1.58,0,0,0-2.61.06s0,0,0,.06a.51.51,0,0,0-.29.22A2.27,2.27,0,0,0,45.55,33.69ZM46,31.13s0,0,0-.05a.53.53,0,0,0,.29-.23c.34-.58,1,.22,1.21.56A1.18,1.18,0,0,1,47.27,33a1,1,0,0,1-1.34-.34A1.33,1.33,0,0,1,46,31.13Z"/><path class="cls-4" d="M23.46,63.26a2.28,2.28,0,0,0,2.45,1.83,2,2,0,0,0,1.72-2.21A2.42,2.42,0,0,0,25.28,61a1.58,1.58,0,0,0-1.8,1.89l0,0A.52.52,0,0,0,23.46,63.26Zm1-.74c-.16-.65.9-.58,1.26-.46a1.2,1.2,0,0,1,.9,1.3,1,1,0,0,1-1.19.7,1.35,1.35,0,0,1-1-1.13s0,0,0,0A.51.51,0,0,0,24.45,62.52Z"/><path class="cls-4" d="M31,101.32a.48.48,0,0,0,.22.29,2.29,2.29,0,0,0,3-.44,2,2,0,0,0-.35-2.77,2.41,2.41,0,0,0-3,.29,1.58,1.58,0,0,0,.07,2.61Zm1-2.15a1.2,1.2,0,0,1,1.55.29,1,1,0,0,1-.35,1.33,1.35,1.35,0,0,1-1.49-.09l0,0a.46.46,0,0,0-.23-.29C30.8,100,31.6,99.35,31.94,99.17Z"/><path class="cls-4" d="M65.61,120.82a2,2,0,0,0-2.21-1.73,2.43,2.43,0,0,0-1.92,2.35,1.57,1.57,0,0,0,1.89,1.8l.05,0a.53.53,0,0,0,.36,0A2.28,2.28,0,0,0,65.61,120.82Zm-1,.49a1.34,1.34,0,0,1-1.12,1l-.05,0a.46.46,0,0,0-.37,0c-.65.16-.57-.89-.46-1.25a1.19,1.19,0,0,1,1.3-.9A1,1,0,0,1,64.58,121.31Z"/><path class="cls-4" d="M101.7,112.51a2,2,0,0,0-2.78.34,2.42,2.42,0,0,0,.3,3,1.58,1.58,0,0,0,2.61-.06s0,0,0-.06a.51.51,0,0,0,.29-.22A2.28,2.28,0,0,0,101.7,112.51Zm-.48,2.56s0,0,0,.05a.58.58,0,0,0-.29.23c-.34.58-1-.22-1.21-.56a1.18,1.18,0,0,1,.28-1.55,1,1,0,0,1,1.34.34A1.33,1.33,0,0,1,101.22,115.07Z"/><path class="cls-4" d="M123.79,82.94a2.28,2.28,0,0,0-2.45-1.83,2,2,0,0,0-1.72,2.21A2.42,2.42,0,0,0,122,85.25a1.58,1.58,0,0,0,1.8-1.89l0,0A.52.52,0,0,0,123.79,82.94Zm-1,.74c.17.65-.89.58-1.25.46a1.19,1.19,0,0,1-.9-1.29,1,1,0,0,1,1.19-.71,1.35,1.35,0,0,1,1,1.13.05.05,0,0,0,0,0A.57.57,0,0,0,122.79,83.68Z"/><path class="cls-4" d="M116.28,44.88a.52.52,0,0,0-.22-.29,2.29,2.29,0,0,0-3,.44,2,2,0,0,0,.34,2.77,2.42,2.42,0,0,0,3-.29,1.58,1.58,0,0,0-.07-2.61Zm-1,2.15a1.18,1.18,0,0,1-1.55-.29,1,1,0,0,1,.35-1.33,1.35,1.35,0,0,1,1.49.09l.05,0a.48.48,0,0,0,.22.29C116.45,46.16,115.65,46.86,115.31,47Z"/><path class="cls-4" d="M99.22,30.33a2.42,2.42,0,0,0-.3,3,2,2,0,0,0,2.78.34,2.28,2.28,0,0,0,.44-3,.51.51,0,0,0-.29-.22s0,0,0-.06A1.58,1.58,0,0,0,99.22,30.33Zm1.69.52a.53.53,0,0,0,.29.23s0,0,0,.05a1.33,1.33,0,0,1,.1,1.49A1,1,0,0,1,100,33a1.18,1.18,0,0,1-.28-1.55C99.87,31.07,100.57,30.27,100.91,30.85Z"/><path class="cls-4" d="M63.4,27.11a2,2,0,0,0,2.21-1.72,2.29,2.29,0,0,0-1.83-2.46.53.53,0,0,0-.36.05l-.05,0a1.57,1.57,0,0,0-1.89,1.8A2.43,2.43,0,0,0,63.4,27.11ZM63,23.93a.46.46,0,0,0,.37-.05l.05,0a1.34,1.34,0,0,1,1.12,1,1,1,0,0,1-.7,1.19,1.19,1.19,0,0,1-1.3-.9C62.47,24.82,62.39,23.77,63,23.93Z"/><path class="cls-4" d="M33.87,47.8A2,2,0,0,0,34.22,45a2.29,2.29,0,0,0-3-.44.48.48,0,0,0-.22.29l0,0a1.58,1.58,0,0,0-.07,2.61A2.41,2.41,0,0,0,33.87,47.8ZM31.94,47c-.34-.17-1.14-.87-.57-1.22a.46.46,0,0,0,.23-.29l0,0a1.35,1.35,0,0,1,1.49-.09,1,1,0,0,1,.35,1.33A1.18,1.18,0,0,1,31.94,47Z"/><path class="cls-4" d="M25.28,85.25a2.42,2.42,0,0,0,2.35-1.93,2,2,0,0,0-1.72-2.21,2.28,2.28,0,0,0-2.45,1.83.52.52,0,0,0,.05.37l0,0A1.58,1.58,0,0,0,25.28,85.25Zm-.85-2a1.35,1.35,0,0,1,1-1.13,1,1,0,0,1,1.19.71,1.19,1.19,0,0,1-.9,1.29c-.36.12-1.42.19-1.26-.46a.51.51,0,0,0,0-.37S24.43,83.29,24.43,83.27Z"/><path class="cls-4" d="M48,115.87a2.42,2.42,0,0,0,.3-3,2,2,0,0,0-2.78-.34,2.27,2.27,0,0,0-.44,3,.51.51,0,0,0,.29.22s0,0,0,.06A1.58,1.58,0,0,0,48,115.87Zm-1.69-.52a.58.58,0,0,0-.29-.23s0,0,0-.05a1.33,1.33,0,0,1-.1-1.49,1,1,0,0,1,1.34-.34,1.18,1.18,0,0,1,.28,1.55C47.38,115.13,46.68,115.93,46.34,115.35Z"/><path class="cls-4" d="M83.85,119.09a2,2,0,0,0-2.21,1.73,2.28,2.28,0,0,0,1.83,2.45.53.53,0,0,0,.36,0l0,0a1.57,1.57,0,0,0,1.89-1.8A2.43,2.43,0,0,0,83.85,119.09Zm.36,3.18a.46.46,0,0,0-.37,0l0,0a1.33,1.33,0,0,1-1.12-1,1,1,0,0,1,.7-1.19,1.17,1.17,0,0,1,1.29.9C84.78,121.38,84.86,122.43,84.21,122.27Z"/><path class="cls-4" d="M113.37,98.4a2,2,0,0,0-.34,2.77,2.29,2.29,0,0,0,3,.44.52.52,0,0,0,.22-.29l0,0a1.58,1.58,0,0,0,.07-2.61A2.42,2.42,0,0,0,113.37,98.4Zm1.94.77c.34.18,1.14.87.56,1.22a.48.48,0,0,0-.22.29l-.05,0a1.35,1.35,0,0,1-1.49.09,1,1,0,0,1-.35-1.33A1.2,1.2,0,0,1,115.31,99.17Z"/><path class="cls-4" d="M122,61a2.42,2.42,0,0,0-2.35,1.93,2,2,0,0,0,1.72,2.21,2.28,2.28,0,0,0,2.45-1.83.52.52,0,0,0-.05-.37l0,0A1.58,1.58,0,0,0,122,61Zm.85,2a1.35,1.35,0,0,1-1,1.13,1,1,0,0,1-1.19-.7,1.2,1.2,0,0,1,.9-1.3c.36-.12,1.42-.19,1.25.46a.57.57,0,0,0,0,.37A.05.05,0,0,0,122.82,62.93Z"/><path class="cls-4" d="M89.77,23.13a2.13,2.13,0,0,0,1-2.73,1.92,1.92,0,0,0-2.62-.87.47.47,0,0,0-.15.12,1.89,1.89,0,0,0-1,2.5A2.06,2.06,0,0,0,89.77,23.13Zm-1.24-2.59a.5.5,0,0,0,.26-.17c1.08-.44,1.52,1.33.53,1.84C88.08,22.84,87.13,20.91,88.53,20.54Z"/><path class="cls-4" d="M47,27.65a2.05,2.05,0,0,0,2.68-1.3,2.13,2.13,0,0,0-1.22-2.64A1.91,1.91,0,0,0,46,25a.44.44,0,0,0,0,.19A1.89,1.89,0,0,0,47,27.65Zm0-2.26a.49.49,0,0,0,.06-.3c.46-1.07,2-.13,1.68.93C48.31,27.33,46.27,26.65,47,25.39Z"/><path class="cls-4" d="M20.06,58.57a.4.4,0,0,0,.12.16,1.88,1.88,0,0,0,2.49,1.05,2.06,2.06,0,0,0,1-2.82,2.14,2.14,0,0,0-2.73-1A1.91,1.91,0,0,0,20.06,58.57Zm2.67-1.16c.63,1.23-1.29,2.19-1.67.78a.39.39,0,0,0-.17-.25C20.46,56.86,22.23,56.41,22.73,57.41Z"/><path class="cls-4" d="M25.47,100.71a.47.47,0,0,0,.2,0,1.9,1.9,0,0,0,2.51-1A2.07,2.07,0,0,0,26.88,97a2.14,2.14,0,0,0-2.65,1.22A1.93,1.93,0,0,0,25.47,100.71ZM26.54,98c1.32.43.64,2.46-.62,1.73a.42.42,0,0,0-.3,0C24.54,99.21,25.48,97.64,26.54,98Z"/><path class="cls-4" d="M57.48,123.07a2.13,2.13,0,0,0-1,2.73,1.91,1.91,0,0,0,2.62.87.61.61,0,0,0,.15-.12,1.89,1.89,0,0,0,1-2.5A2.06,2.06,0,0,0,57.48,123.07Zm1.23,2.59a.51.51,0,0,0-.25.17c-1.08.44-1.52-1.33-.53-1.84C59.17,123.36,60.12,125.29,58.71,125.66Z"/><path class="cls-4" d="M100.23,118.55a2.05,2.05,0,0,0-2.68,1.3,2.13,2.13,0,0,0,1.22,2.64,1.91,1.91,0,0,0,2.46-1.24.44.44,0,0,0,0-.19A1.89,1.89,0,0,0,100.23,118.55Zm0,2.26a.49.49,0,0,0-.06.3c-.46,1.07-2,.13-1.68-.93C98.94,118.87,101,119.55,100.25,120.81Z"/><path class="cls-4" d="M127.19,87.63a.4.4,0,0,0-.12-.16,1.88,1.88,0,0,0-2.49-1,2.06,2.06,0,0,0-1,2.82,2.14,2.14,0,0,0,2.73,1A1.92,1.92,0,0,0,127.19,87.63Zm-2.67,1.17c-.63-1.24,1.29-2.2,1.66-.79a.44.44,0,0,0,.18.25C126.79,89.34,125,89.79,124.52,88.8Z"/><path class="cls-4" d="M121.78,45.49a.47.47,0,0,0-.2,0,1.9,1.9,0,0,0-2.51,1,2.07,2.07,0,0,0,1.3,2.69A2.14,2.14,0,0,0,123,48,1.93,1.93,0,0,0,121.78,45.49Zm-1.07,2.72c-1.32-.43-.64-2.46.62-1.73a.42.42,0,0,0,.3.05C122.71,47,121.77,48.56,120.71,48.21Z"/><path class="cls-4" d="M97.55,26.35a2.05,2.05,0,0,0,2.68,1.3,1.89,1.89,0,0,0,1-2.51.44.44,0,0,0,0-.19,1.91,1.91,0,0,0-2.46-1.24A2.13,2.13,0,0,0,97.55,26.35Zm2.64-1.26a.49.49,0,0,0,.06.3c.73,1.26-1.31,1.94-1.74.63C98.17,25,99.73,24,100.19,25.09Z"/><path class="cls-4" d="M57.48,23.13a2.06,2.06,0,0,0,2.82-1,1.89,1.89,0,0,0-1-2.5.61.61,0,0,0-.15-.12,1.92,1.92,0,0,0-2.62.87A2.13,2.13,0,0,0,57.48,23.13Zm1-2.76a.51.51,0,0,0,.25.17c1.41.37.46,2.3-.78,1.67C56.94,21.7,57.38,19.93,58.46,20.37Z"/><path class="cls-4" d="M26.88,49.18a2.07,2.07,0,0,0,1.3-2.69,1.9,1.9,0,0,0-2.51-1,.47.47,0,0,0-.2,0A1.93,1.93,0,0,0,24.23,48,2.14,2.14,0,0,0,26.88,49.18Zm-1.26-2.65a.42.42,0,0,0,.3-.05c1.26-.73,1.94,1.3.62,1.73C25.48,48.56,24.54,47,25.62,46.53Z"/><path class="cls-4" d="M23.65,89.24a2.06,2.06,0,0,0-1-2.82,1.88,1.88,0,0,0-2.49,1,.4.4,0,0,0-.12.16,1.91,1.91,0,0,0,.86,2.62A2.14,2.14,0,0,0,23.65,89.24Zm-.92-.44c-.5,1-2.27.54-1.84-.54a.39.39,0,0,0,.17-.25C21.44,86.6,23.36,87.56,22.73,88.8Z"/><path class="cls-4" d="M49.7,119.85a2.05,2.05,0,0,0-2.68-1.3,1.89,1.89,0,0,0-1,2.51.44.44,0,0,0,0,.19,1.91,1.91,0,0,0,2.46,1.24A2.13,2.13,0,0,0,49.7,119.85Zm-2.64,1.26a.49.49,0,0,0-.06-.3c-.73-1.26,1.31-1.94,1.74-.63C49.08,121.24,47.52,122.18,47.06,121.11Z"/><path class="cls-4" d="M89.77,123.07a2.06,2.06,0,0,0-2.82,1,1.89,1.89,0,0,0,1,2.5.47.47,0,0,0,.15.12,1.91,1.91,0,0,0,2.62-.87A2.13,2.13,0,0,0,89.77,123.07Zm-1,2.76a.5.5,0,0,0-.26-.17c-1.4-.37-.45-2.3.79-1.67C90.31,124.5,89.87,126.27,88.79,125.83Z"/><path class="cls-4" d="M120.37,97a2.07,2.07,0,0,0-1.3,2.69,1.9,1.9,0,0,0,2.51,1,.47.47,0,0,0,.2,0A1.93,1.93,0,0,0,123,98.24,2.14,2.14,0,0,0,120.37,97Zm1.26,2.65a.42.42,0,0,0-.3,0c-1.26.73-1.94-1.3-.62-1.73C121.77,97.64,122.71,99.21,121.63,99.67Z"/><path class="cls-4" d="M123.6,57a2.06,2.06,0,0,0,1,2.82,1.88,1.88,0,0,0,2.49-1.05.4.4,0,0,0,.12-.16,1.92,1.92,0,0,0-.86-2.62A2.14,2.14,0,0,0,123.6,57Zm.92.45c.5-1,2.27-.55,1.84.53a.44.44,0,0,0-.18.25C125.81,59.6,123.89,58.64,124.52,57.41Z"/><path class="cls-4" d="M127.15,51.46a3.57,3.57,0,0,0,4.29-.08,2.47,2.47,0,0,0,.72-2.53,2.49,2.49,0,0,0-2.29-1.28,3.62,3.62,0,0,0-3.1,3,.43.43,0,0,0,.15.47A.44.44,0,0,0,127.15,51.46Zm2.48-2.82a1.17,1.17,0,1,1,.9,2.15,2.61,2.61,0,0,1-2.73-.13A2.61,2.61,0,0,1,129.63,48.64Z"/><path class="cls-4" d="M96.18,126.25a2.8,2.8,0,0,0-.92.38,3.58,3.58,0,0,0,.09,4.29,2.12,2.12,0,0,0,3.8-1.58A3.58,3.58,0,0,0,96.18,126.25Zm1.29,4.42a1.44,1.44,0,0,1-1.54-.67,2.6,2.6,0,0,1,.14-2.72,2.61,2.61,0,0,1,2,1.83A1.44,1.44,0,0,1,97.47,130.67Z"/><path class="cls-4" d="M51.07,20a.45.45,0,0,0,.48-.14.45.45,0,0,0,.44-.24,3.58,3.58,0,0,0-.09-4.29,2.47,2.47,0,0,0-2.52-.71,2.46,2.46,0,0,0-1.28,2.29A3.58,3.58,0,0,0,51.07,20Zm-1.29-4.42a1.44,1.44,0,0,1,1.54.67,2.6,2.6,0,0,1-.14,2.72,2.61,2.61,0,0,1-2-1.83A1.44,1.44,0,0,1,49.78,15.53Z"/><path class="cls-4" d="M51.55,126.4a.43.43,0,0,0-.48-.15,3.58,3.58,0,0,0-3,3.09,2.12,2.12,0,0,0,3.8,1.58,3.58,3.58,0,0,0,.09-4.29A.43.43,0,0,0,51.55,126.4Zm-.23,3.6a1.17,1.17,0,1,1-2.16-.89,2.61,2.61,0,0,1,2-1.83A2.6,2.6,0,0,1,51.32,130Z"/><path class="cls-4" d="M127.15,94.74a.44.44,0,0,0-.23.44.43.43,0,0,0-.15.47,3.62,3.62,0,0,0,3.1,3,2.12,2.12,0,0,0,1.57-3.81A3.57,3.57,0,0,0,127.15,94.74Zm4,2.21a1.45,1.45,0,0,1-1.57.61,2.61,2.61,0,0,1-1.83-2,2.61,2.61,0,0,1,2.73-.13A1.44,1.44,0,0,1,131.2,97Z"/><path class="cls-4" d="M20.1,51.46a.44.44,0,0,0,.23-.44.43.43,0,0,0,.15-.47,3.62,3.62,0,0,0-3.1-3,2.49,2.49,0,0,0-2.29,1.28,2.47,2.47,0,0,0,.72,2.53A3.57,3.57,0,0,0,20.1,51.46Zm-4.05-2.21a1.44,1.44,0,0,1,1.56-.61,2.6,2.6,0,0,1,1.84,2,2.61,2.61,0,0,1-2.73.13A1.44,1.44,0,0,1,16.05,49.25Z"/><path class="cls-4" d="M95.7,19.81a.45.45,0,0,0,.48.14,3.58,3.58,0,0,0,3-3.09,2.46,2.46,0,0,0-1.28-2.29,2.47,2.47,0,0,0-2.52.71,3.58,3.58,0,0,0-.09,4.29A.45.45,0,0,0,95.7,19.81Zm.23-3.61a1.44,1.44,0,0,1,1.54-.67,1.44,1.44,0,0,1,.62,1.56,2.61,2.61,0,0,1-2,1.83A2.6,2.6,0,0,1,95.93,16.2Z"/><path class="cls-4" d="M20.1,94.74a3.57,3.57,0,0,0-4.29.08,2.47,2.47,0,0,0-.72,2.53,2.49,2.49,0,0,0,2.29,1.28,3.62,3.62,0,0,0,3.1-3,.43.43,0,0,0-.15-.47A.44.44,0,0,0,20.1,94.74Zm-2.49,2.82A1.44,1.44,0,0,1,16.05,97a1.44,1.44,0,0,1,.67-1.54,2.61,2.61,0,0,1,2.73.13A2.6,2.6,0,0,1,17.61,97.56Z"/></g></g></g></svg>