<?xml version="1.0" ?><svg viewBox="0 0 64 64" xmlns="http://www.w3.org/2000/svg"><title/><g id="Sun"><path d="M62.2039,28.7528a.9987.9987,0,0,0-.3857-.6743l-6.0967-4.6548,1.4766-7.5273a1.0009,1.0009,0,0,0-.8135-1.1782L48.8231,13.43l-2.19-7.3516a1,1,0,0,0-1.268-.665L38.07,7.7865,32.7142,2.2948a1.03,1.03,0,0,0-1.4317,0L25.9266,7.7865,18.6322,5.413a1,1,0,0,0-1.2681.665l-2.19,7.3516L7.6121,14.7182a1.0009,1.0009,0,0,0-.8134,1.1782l1.4765,7.5273L2.1785,28.0785A1,1,0,0,0,2.0062,29.5l4.8056,5.979L3.5765,42.434a1,1,0,0,0,.5078,1.3389l7.0332,3.06.3677,7.6621a1.0005,1.0005,0,0,0,1.0718.95l7.65-.5591L24.0936,61.5a.9994.9994,0,0,0,1.39.3423l6.5147-4.05,6.5146,4.05a.9971.9971,0,0,0,.5278.1509,1.0236,1.0236,0,0,0,.2393-.0288,1.003,1.003,0,0,0,.6231-.4644l3.8862-6.6138,7.65.5591a1.0007,1.0007,0,0,0,1.0718-.95l.3676-7.6621,7.0332-3.06A1,1,0,0,0,60.42,42.434l-3.2353-6.9551L61.9906,29.5A.9989.9989,0,0,0,62.2039,28.7528Z" style="fill:#f7be16"/><circle cx="31.9984" cy="31.9931" r="18" style="fill:#eef5b2"/><path d="M61.9884,29.5031l-4.8,5.98,3.23,6.95a.9652.9652,0,0,1,.03.78,1.022,1.022,0,0,1-.54.56l-7.03,3.06-.37,7.66a.9893.9893,0,0,1-.33.7,1,1,0,0,1-.74.25l-7.65-.56-3.89,6.62a.9683.9683,0,0,1-.62.46.9817.9817,0,0,1-.24.03,1.0136,1.0136,0,0,1-.53-.15l-6.51-4.05-6.51,4.05a.9939.9939,0,0,1-.77.12.9683.9683,0,0,1-.62-.46l-3.89-6.62-7.65.56a1,1,0,0,1-.74-.25.9893.9893,0,0,1-.33-.7l-.16-3.34c.85.07,1.71.1,2.58.1a36.5663,36.5663,0,0,0,36.52-36.53c0-.34,0-.68-.01-1.02l5.97,1.02a.9721.9721,0,0,1,.65.41,1.0235,1.0235,0,0,1,.16.76l-1.48,7.53,6.1,4.66a1.0288,1.0288,0,0,1,.39.67A1.015,1.015,0,0,1,61.9884,29.5031Z" style="opacity:0.1"/></g></svg>