<?xml version="1.0" encoding="UTF-8"?>
<svg viewBox="0 0 706.38007 529.40076" xmlns="http://www.w3.org/2000/svg" xmlns:xlink="http://www.w3.org/1999/xlink">
 <defs>
  <filter id="af">
   <feGaussianBlur stdDeviation="5.95322"/>
  </filter>
  <filter id="z">
   <feGaussianBlur stdDeviation="2.11446"/>
  </filter>
  <filter id="y">
   <feGaussianBlur stdDeviation="1.33226"/>
  </filter>
  <filter id="x">
   <feGaussianBlur stdDeviation=".73963"/>
  </filter>
  <filter id="j">
   <feGaussianBlur stdDeviation=".34477"/>
  </filter>
  <filter id="s">
   <feGaussianBlur stdDeviation="3.53033"/>
  </filter>
  <filter id="ac">
   <feGaussianBlur stdDeviation="7.86406"/>
  </filter>
  <filter id="ab">
   <feGaussianBlur stdDeviation="5.33094"/>
  </filter>
  <filter id="aa">
   <feGaussianBlur stdDeviation="2.99344"/>
  </filter>
  <filter id="k"/>
  <filter id="ae" x="-.02757" y="-.12324" width="1.0551" height="1.2465">
   <feGaussianBlur stdDeviation="4.96499"/>
  </filter>
  <filter id="ad" x="-.03716" y="-.12196" width="1.0743" height="1.2439">
   <feGaussianBlur stdDeviation="6.48628"/>
  </filter>
  <filter id="a" x="-.18905" y="-.93307" width="1.3781" height="2.8661">
   <feGaussianBlur stdDeviation="34.43472"/>
  </filter>
  <filter id="d" x="-.07965" y="-.1208" width="1.1593" height="1.2416">
   <feGaussianBlur stdDeviation="3.16427"/>
  </filter>
  <filter id="f" x="-.07454" y="-.13483" width="1.1491" height="1.2696">
   <feGaussianBlur stdDeviation="3.45411"/>
  </filter>
  <filter id="w" x="-.06987" y="-.15334" width="1.1397" height="1.3067">
   <feGaussianBlur stdDeviation="3.92849"/>
  </filter>
  <filter id="v" x="-.23072" y="-.10466" width="1.4614" height="1.2093">
   <feGaussianBlur stdDeviation="1.40647"/>
  </filter>
  <filter id="u" x="-.0572" y="-.29836" width="1.1144" height="1.5967">
   <feGaussianBlur stdDeviation="3.11639"/>
  </filter>
  <filter id="e" x="-.05263" y="-.11394" width="1.1052" height="1.2279">
   <feGaussianBlur stdDeviation=".27868"/>
  </filter>
  <filter id="t" x="-.067" y="-.16926" width="1.134" height="1.3385">
   <feGaussianBlur stdDeviation=".50389"/>
  </filter>
  <filter id="b" x="-.14587" y="-.23497" width="1.2917" height="1.47">
   <feGaussianBlur stdDeviation="2.81768"/>
  </filter>
  <linearGradient id="c">
   <stop offset="0"/>
   <stop stop-opacity="0" offset="1"/>
  </linearGradient>
  <linearGradient id="h">
   <stop stop-color="#fff" stop-opacity="0" offset="0"/>
   <stop stop-color="#fff" offset=".3"/>
   <stop stop-color="#fff" stop-opacity="0" offset="1"/>
  </linearGradient>
  <linearGradient id="p" x1="176.85" x2="282.25" y1="630.23" y2="708.05" gradientUnits="userSpaceOnUse">
   <stop stop-color="#fff" stop-opacity="0" offset="0"/>
   <stop stop-color="#fff" offset=".35169"/>
   <stop stop-color="#fff" stop-opacity="0" offset="1"/>
  </linearGradient>
  <linearGradient id="i" x1="282.01" x2="288.68" y1="584.69" y2="581.9" gradientUnits="userSpaceOnUse">
   <stop stop-color="#fff6d5" offset="0"/>
   <stop stop-color="#fff6d5" stop-opacity="0" offset="1"/>
  </linearGradient>
  <linearGradient id="r" x1="-42.739" x2="251.11" y1="848.31" y2="1142.2" gradientUnits="userSpaceOnUse" xlink:href="#h"/>
  <linearGradient id="q" x1="75.329" x2="270.87" y1="730.36" y2="918.04" gradientUnits="userSpaceOnUse" xlink:href="#h"/>
  <linearGradient id="o" x1="86.445" x2="311.43" y1="512.58" y2="461.42" gradientUnits="userSpaceOnUse" xlink:href="#c"/>
  <radialGradient id="n" cx="1067.1" cy="870.93" r="219.07" gradientTransform="matrix(1.1436 0 0 .20443 -153.2 692.88)" gradientUnits="userSpaceOnUse" xlink:href="#c"/>
  <radialGradient id="m" cx="1067.1" cy="870.93" r="219.07" gradientTransform="matrix(1.2756 0 0 .20443 -294.15 692.88)" gradientUnits="userSpaceOnUse" xlink:href="#c"/>
  <radialGradient id="l" cx="1067.1" cy="870.93" r="219.82" gradientTransform="matrix(1.2602 0 0 .20716 -277.71 690.51)" gradientUnits="userSpaceOnUse" xlink:href="#c"/>
  <radialGradient id="g" cx="343.8" cy="531.21" r="5.451" gradientTransform="matrix(1 0 0 .32143 0 360.46)" gradientUnits="userSpaceOnUse" xlink:href="#c"/>
 </defs>
 <g transform="translate(9.3074 -545.18)">
  <path transform="matrix(3.0757 -.38416 .76867 3.5289 -615.36 -850.12)" d="m289.49 512.58c0 23.871-45.453 43.223-101.52 43.223s-101.52-19.351-101.52-43.223 45.453-43.223 101.52-43.223 101.52 19.351 101.52 43.223z" fill="url(#o)" fill-rule="evenodd" filter="url(#s)" opacity=".8"/>
  <g transform="matrix(.67315 0 0 1.103 -198.03 102.36)">
   <path transform="matrix(.06863 0 0 .08468 449.95 403.2)" d="m1285.7 870.93c0 24.458-97.858 44.286-218.57 44.286s-218.57-19.827-218.57-44.286 97.858-44.286 218.57-44.286 218.57 19.827 218.57 44.286z" fill="#ff2a2a" fill-rule="evenodd"/>
   <path d="m508.19 475.56v124h0.21875c-0.13782 0.20428-0.21875 0.41092-0.21875 0.625 0 2.0711 6.7157 3.75 15 3.75s15-1.6789 15-3.75c0-0.2173-0.10808-0.41782-0.25-0.625h0.25v-124h-0.0312c-0.31017 2.0026-6.8823 3.5938-14.969 3.5938-8.0838 0-14.654-1.5921-14.969-3.5938h-0.0312z" fill="#f00" fill-rule="evenodd" stroke="#faa"/>
   <path d="m508.18 596.13c6.5985 0 23.13-4.7471 30-8.7133v5.475c-5.9387 3.4287-21.92 8.7133-30 8.7133z" fill="#ffd5d5" fill-rule="evenodd"/>
   <path d="m508.18 576.13c6.5985 0 23.13-4.7471 30-8.7133v5.475c-5.9387 3.4287-21.92 8.7133-30 8.7133z" fill="#ffd5d5" fill-rule="evenodd"/>
   <path d="m508.18 556.13c6.5985 0 23.13-4.7471 30-8.7133v5.475c-5.9387 3.4287-21.92 8.7133-30 8.7133z" fill="#ffd5d5" fill-rule="evenodd"/>
   <path d="m508.18 536.13c6.5985 0 23.13-4.7471 30-8.7133v5.475c-5.9387 3.4287-21.92 8.7133-30 8.7133z" fill="#ffd5d5" fill-rule="evenodd"/>
   <path d="m508.18 516.13c6.5985 0 23.13-4.7471 30-8.7133v5.475c-5.9387 3.4287-21.92 8.7133-30 8.7133z" fill="#ffd5d5" fill-rule="evenodd"/>
   <path d="m508.18 496.13c6.5985 0 23.13-4.7471 30-8.7133v5.475c-5.9387 3.4287-21.92 8.7133-30 8.7133z" fill="#ffd5d5" fill-rule="evenodd"/>
   <path transform="matrix(.03635 0 0 .04486 484.39 437.88)" d="m1285.7 870.93c0 24.458-97.858 44.286-218.57 44.286s-218.57-19.827-218.57-44.286 97.858-44.286 218.57-44.286 218.57 19.827 218.57 44.286z" fill="#ff8080" fill-rule="evenodd" filter="url(#a)"/>
   <path d="m522.45 476.57c-0.69708-7.7239 1.2871-13.437 5.2906-17.635" fill="none" stroke="#000"/>
  </g>
  <g transform="matrix(.67315 0 0 1.103 -113.23 99.893)">
   <path transform="matrix(.06863 0 0 .08468 449.95 403.2)" d="m1285.7 870.93c0 24.458-97.858 44.286-218.57 44.286s-218.57-19.827-218.57-44.286 97.858-44.286 218.57-44.286 218.57 19.827 218.57 44.286z" fill="#ff2a2a" fill-rule="evenodd"/>
   <path d="m508.19 475.56v124h0.21875c-0.13782 0.20428-0.21875 0.41092-0.21875 0.625 0 2.0711 6.7157 3.75 15 3.75s15-1.6789 15-3.75c0-0.2173-0.10808-0.41782-0.25-0.625h0.25v-124h-0.0312c-0.31017 2.0026-6.8823 3.5938-14.969 3.5938-8.0838 0-14.654-1.5921-14.969-3.5938h-0.0312z" fill="#f00" fill-rule="evenodd" stroke="#faa"/>
   <path d="m508.18 596.13c6.5985 0 23.13-4.7471 30-8.7133v5.475c-5.9387 3.4287-21.92 8.7133-30 8.7133z" fill="#ffd5d5" fill-rule="evenodd"/>
   <path d="m508.18 576.13c6.5985 0 23.13-4.7471 30-8.7133v5.475c-5.9387 3.4287-21.92 8.7133-30 8.7133z" fill="#ffd5d5" fill-rule="evenodd"/>
   <path d="m508.18 556.13c6.5985 0 23.13-4.7471 30-8.7133v5.475c-5.9387 3.4287-21.92 8.7133-30 8.7133z" fill="#ffd5d5" fill-rule="evenodd"/>
   <path d="m508.18 536.13c6.5985 0 23.13-4.7471 30-8.7133v5.475c-5.9387 3.4287-21.92 8.7133-30 8.7133z" fill="#ffd5d5" fill-rule="evenodd"/>
   <path d="m508.18 516.13c6.5985 0 23.13-4.7471 30-8.7133v5.475c-5.9387 3.4287-21.92 8.7133-30 8.7133z" fill="#ffd5d5" fill-rule="evenodd"/>
   <path d="m508.18 496.13c6.5985 0 23.13-4.7471 30-8.7133v5.475c-5.9387 3.4287-21.92 8.7133-30 8.7133z" fill="#ffd5d5" fill-rule="evenodd"/>
   <path transform="matrix(.03635 0 0 .04486 484.39 437.88)" d="m1285.7 870.93c0 24.458-97.858 44.286-218.57 44.286s-218.57-19.827-218.57-44.286 97.858-44.286 218.57-44.286 218.57 19.827 218.57 44.286z" fill="#ff8080" fill-rule="evenodd" filter="url(#a)"/>
   <path d="m522.45 476.57c-0.69708-7.7239 1.2871-13.437 5.2906-17.635" fill="none" stroke="#000"/>
  </g>
  <g transform="matrix(.67315 0 0 1.103 -23.447 97.399)">
   <path transform="matrix(.06863 0 0 .08468 449.95 403.2)" d="m1285.7 870.93c0 24.458-97.858 44.286-218.57 44.286s-218.57-19.827-218.57-44.286 97.858-44.286 218.57-44.286 218.57 19.827 218.57 44.286z" fill="#ff2a2a" fill-rule="evenodd"/>
   <path d="m508.19 475.56v124h0.21875c-0.13782 0.20428-0.21875 0.41092-0.21875 0.625 0 2.0711 6.7157 3.75 15 3.75s15-1.6789 15-3.75c0-0.2173-0.10808-0.41782-0.25-0.625h0.25v-124h-0.0312c-0.31017 2.0026-6.8823 3.5938-14.969 3.5938-8.0838 0-14.654-1.5921-14.969-3.5938h-0.0312z" fill="#f00" fill-rule="evenodd" stroke="#faa"/>
   <path d="m508.18 596.13c6.5985 0 23.13-4.7471 30-8.7133v5.475c-5.9387 3.4287-21.92 8.7133-30 8.7133z" fill="#ffd5d5" fill-rule="evenodd"/>
   <path d="m508.18 576.13c6.5985 0 23.13-4.7471 30-8.7133v5.475c-5.9387 3.4287-21.92 8.7133-30 8.7133z" fill="#ffd5d5" fill-rule="evenodd"/>
   <path d="m508.18 556.13c6.5985 0 23.13-4.7471 30-8.7133v5.475c-5.9387 3.4287-21.92 8.7133-30 8.7133z" fill="#ffd5d5" fill-rule="evenodd"/>
   <path d="m508.18 536.13c6.5985 0 23.13-4.7471 30-8.7133v5.475c-5.9387 3.4287-21.92 8.7133-30 8.7133z" fill="#ffd5d5" fill-rule="evenodd"/>
   <path d="m508.18 516.13c6.5985 0 23.13-4.7471 30-8.7133v5.475c-5.9387 3.4287-21.92 8.7133-30 8.7133z" fill="#ffd5d5" fill-rule="evenodd"/>
   <path d="m508.18 496.13c6.5985 0 23.13-4.7471 30-8.7133v5.475c-5.9387 3.4287-21.92 8.7133-30 8.7133z" fill="#ffd5d5" fill-rule="evenodd"/>
   <path transform="matrix(.03635 0 0 .04486 484.39 437.88)" d="m1285.7 870.93c0 24.458-97.858 44.286-218.57 44.286s-218.57-19.827-218.57-44.286 97.858-44.286 218.57-44.286 218.57 19.827 218.57 44.286z" fill="#ff8080" fill-rule="evenodd" filter="url(#a)"/>
   <path d="m522.45 476.57c-0.69708-7.7239 1.2871-13.437 5.2906-17.635" fill="none" stroke="#000"/>
  </g>
  <g transform="matrix(.67315 0 0 1.103 63.844 102.39)">
   <path transform="matrix(.06863 0 0 .08468 449.95 403.2)" d="m1285.7 870.93c0 24.458-97.858 44.286-218.57 44.286s-218.57-19.827-218.57-44.286 97.858-44.286 218.57-44.286 218.57 19.827 218.57 44.286z" fill="#ff2a2a" fill-rule="evenodd"/>
   <path d="m508.19 475.56v124h0.21875c-0.13782 0.20428-0.21875 0.41092-0.21875 0.625 0 2.0711 6.7157 3.75 15 3.75s15-1.6789 15-3.75c0-0.2173-0.10808-0.41782-0.25-0.625h0.25v-124h-0.0312c-0.31017 2.0026-6.8823 3.5938-14.969 3.5938-8.0838 0-14.654-1.5921-14.969-3.5938h-0.0312z" fill="#f00" fill-rule="evenodd" stroke="#faa"/>
   <path d="m508.18 596.13c6.5985 0 23.13-4.7471 30-8.7133v5.475c-5.9387 3.4287-21.92 8.7133-30 8.7133z" fill="#ffd5d5" fill-rule="evenodd"/>
   <path d="m508.18 576.13c6.5985 0 23.13-4.7471 30-8.7133v5.475c-5.9387 3.4287-21.92 8.7133-30 8.7133z" fill="#ffd5d5" fill-rule="evenodd"/>
   <path d="m508.18 556.13c6.5985 0 23.13-4.7471 30-8.7133v5.475c-5.9387 3.4287-21.92 8.7133-30 8.7133z" fill="#ffd5d5" fill-rule="evenodd"/>
   <path d="m508.18 536.13c6.5985 0 23.13-4.7471 30-8.7133v5.475c-5.9387 3.4287-21.92 8.7133-30 8.7133z" fill="#ffd5d5" fill-rule="evenodd"/>
   <path d="m508.18 516.13c6.5985 0 23.13-4.7471 30-8.7133v5.475c-5.9387 3.4287-21.92 8.7133-30 8.7133z" fill="#ffd5d5" fill-rule="evenodd"/>
   <path d="m508.18 496.13c6.5985 0 23.13-4.7471 30-8.7133v5.475c-5.9387 3.4287-21.92 8.7133-30 8.7133z" fill="#ffd5d5" fill-rule="evenodd"/>
   <path transform="matrix(.03635 0 0 .04486 484.39 437.88)" d="m1285.7 870.93c0 24.458-97.858 44.286-218.57 44.286s-218.57-19.827-218.57-44.286 97.858-44.286 218.57-44.286 218.57 19.827 218.57 44.286z" fill="#ff8080" fill-rule="evenodd" filter="url(#a)"/>
   <path d="m522.45 476.57c-0.69708-7.7239 1.2871-13.437 5.2906-17.635" fill="none" stroke="#000"/>
  </g>
  <path d="m0 827.38v150c0 41.421 134.31 75 300 75s300-33.579 300-75v-150c0 41.421-134.31 75-300 75s-300-33.579-300-75z" fill="#762301" fill-rule="evenodd" stroke="#6e3319" stroke-width="2"/>
  <path d="m5.4062 849.75v127.62c0 7.4314 6.4999 15.998 20.938 24.531s36.013 16.542 62.844 23.25c53.661 13.415 128.34 21.813 210.81 21.813s157.15-8.3973 210.81-21.813c26.831-6.7076 48.406-14.716 62.844-23.25s20.938-17.1 20.938-24.531v-127.62c-4.1662 4.0888-9.3719 7.902-15.406 11.469-15.924 9.4122-38.291 17.573-65.75 24.438-54.918 13.729-130.23 22.125-213.44 22.125s-158.52-8.3956-213.44-22.125c-27.459-6.8647-49.826-15.025-65.75-24.438-6.0344-3.5667-11.24-7.38-15.406-11.469z" fill="#8e320c" fill-rule="evenodd" filter="url(#ac)"/>
  <path d="m0 827.38v150c0 41.421 134.31 75 300 75s300-33.579 300-75v-150c0 41.421-134.31 75-300 75s-300-33.579-300-75z" fill="url(#r)" fill-rule="evenodd" opacity=".6"/>
  <path d="m273.62 757.51c-55.712 1.0371-111.46 6.3119-166.03 17.813-22.469 4.9585-45.054 10.198-66.297 19.229-9.8687 4.3284-19.57 9.3251-28.074 15.998-10.068 8.371-15.756 21.137-16.941 34.03-1.9794 16.187 1.7262 33.113 10.757 46.736 5.5191 7.9518 14.328 12.503 22.076 17.923 5.374 3.5174 10.089 7.9006 14.631 12.408 6.6762 5.7194 14.489 11.231 23.579 11.633 15.268 0.9417 29.586-5.4542 44.441-7.7414 9.0158-1.1112 18.633 0.91553 25.746 6.7674 7.3952 5.323 13.916 12.716 23.207 14.634 10.59 2.1698 21.109-1.5044 31.19-4.3557 8.9648-2.3955 18.312-5.1416 27.654-3.5264 6.402 2.2464 9.8003 8.8002 11.806 14.859 4.0407 11.036 5.1747 23.404 12.283 33.125 3.3007 3.9791 10.296 2.0802 12.092-2.4703 6.3619-10.711 11.564-22.668 21.426-30.737 7.1754-6.0145 17.5-9.4338 26.576-5.9532 8.9622 3.4561 15.021 12.376 24.749 14.16 6.8662 1.2368 13.147-2.8136 18.558-6.5087 8.1493-5.4782 16.694-11.586 26.817-12.304 8.6776 0.10979 15.862 5.6252 22.805 10.17 9.7048 6.3444 19.366 13.752 31.07 15.798 5.5682 0.41286 9.6967-4.0572 13.325-7.63 13.089-12.852 29.926-22.634 48.352-24.811 11.799-1.4428 23.79 2.0236 35.475-0.82219 8.846-1.9779 15.48-8.6411 21.989-14.496 5.2518-4.915 10.812-9.6497 17.385-12.705 10.681-5.8379 22.655-10.305 30.839-19.727 15.847-17.781 19.485-45.699 7.8214-66.621-6.1858-10.544-17.177-17.064-28.241-21.488-47.494-19.257-97.928-30.725-148.84-36.025-43.248-5.0173-86.789-7.1401-130.31-7.396-7.3061-0.068-14.613-0.0183-21.919 0.0337z" fill-rule="evenodd" filter="url(#z)"/>
  <path d="m273.62 756.31c-55.712 1.0371-111.46 6.3119-166.03 17.813-22.469 4.9585-45.054 10.198-66.297 19.229-9.8687 4.3284-19.57 9.3251-28.074 15.998-10.068 8.371-15.756 21.137-16.941 34.03-1.9794 16.187 1.7262 33.113 10.757 46.736 5.5191 7.9518 14.328 12.503 22.076 17.923 5.374 3.5174 10.089 7.9006 14.631 12.408 6.6762 5.7194 14.489 11.231 23.579 11.633 15.268 0.9417 29.586-5.4542 44.441-7.7414 9.0158-1.1112 18.633 0.91553 25.746 6.7674 7.3952 5.323 13.916 12.716 23.207 14.634 10.59 2.1698 21.109-1.5044 31.19-4.3557 8.9648-2.3955 18.312-5.1416 27.654-3.5264 6.402 2.2464 9.8003 8.8002 11.806 14.859 4.0407 11.036 5.1747 23.404 12.283 33.125 3.3007 3.9791 10.296 2.0802 12.092-2.4703 6.3619-10.711 11.564-22.668 21.426-30.737 7.1754-6.0145 17.5-9.4338 26.576-5.9532 8.9622 3.4561 15.021 12.376 24.749 14.16 6.8662 1.2368 13.147-2.8136 18.558-6.5087 8.1493-5.4782 16.694-11.586 26.817-12.304 8.6776 0.10979 15.862 5.6252 22.805 10.17 9.7048 6.3444 19.366 13.752 31.07 15.798 5.5682 0.41286 9.6967-4.0572 13.325-7.63 13.089-12.852 29.926-22.634 48.352-24.811 11.799-1.4428 23.79 2.0236 35.475-0.82219 8.846-1.9779 15.48-8.6411 21.989-14.496 5.2518-4.915 10.812-9.6497 17.385-12.705 10.681-5.8379 22.655-10.305 30.839-19.727 15.847-17.781 19.485-45.699 7.8214-66.621-6.1858-10.544-17.177-17.064-28.241-21.488-47.494-19.257-97.928-30.725-148.84-36.025-43.248-5.0173-86.789-7.1401-130.31-7.396-7.3061-0.068-14.613-0.0183-21.919 0.0337z" fill="#daaf05" fill-rule="evenodd"/>
  <g transform="matrix(.67315 0 0 1.103 153.63 117.35)">
   <path transform="matrix(.06863 0 0 .08468 449.95 403.2)" d="m1285.7 870.93c0 24.458-97.858 44.286-218.57 44.286s-218.57-19.827-218.57-44.286 97.858-44.286 218.57-44.286 218.57 19.827 218.57 44.286z" fill="#ff2a2a" fill-rule="evenodd"/>
   <path d="m508.19 475.56v124h0.21875c-0.13782 0.20428-0.21875 0.41092-0.21875 0.625 0 2.0711 6.7157 3.75 15 3.75s15-1.6789 15-3.75c0-0.2173-0.10808-0.41782-0.25-0.625h0.25v-124h-0.0312c-0.31017 2.0026-6.8823 3.5938-14.969 3.5938-8.0838 0-14.654-1.5921-14.969-3.5938h-0.0312z" fill="#f00" fill-rule="evenodd" stroke="#faa"/>
   <path d="m508.18 596.13c6.5985 0 23.13-4.7471 30-8.7133v5.475c-5.9387 3.4287-21.92 8.7133-30 8.7133z" fill="#ffd5d5" fill-rule="evenodd"/>
   <path d="m508.18 576.13c6.5985 0 23.13-4.7471 30-8.7133v5.475c-5.9387 3.4287-21.92 8.7133-30 8.7133z" fill="#ffd5d5" fill-rule="evenodd"/>
   <path d="m508.18 556.13c6.5985 0 23.13-4.7471 30-8.7133v5.475c-5.9387 3.4287-21.92 8.7133-30 8.7133z" fill="#ffd5d5" fill-rule="evenodd"/>
   <path d="m508.18 536.13c6.5985 0 23.13-4.7471 30-8.7133v5.475c-5.9387 3.4287-21.92 8.7133-30 8.7133z" fill="#ffd5d5" fill-rule="evenodd"/>
   <path d="m508.18 516.13c6.5985 0 23.13-4.7471 30-8.7133v5.475c-5.9387 3.4287-21.92 8.7133-30 8.7133z" fill="#ffd5d5" fill-rule="evenodd"/>
   <path d="m508.18 496.13c6.5985 0 23.13-4.7471 30-8.7133v5.475c-5.9387 3.4287-21.92 8.7133-30 8.7133z" fill="#ffd5d5" fill-rule="evenodd"/>
   <path transform="matrix(.03635 0 0 .04486 484.39 437.88)" d="m1285.7 870.93c0 24.458-97.858 44.286-218.57 44.286s-218.57-19.827-218.57-44.286 97.858-44.286 218.57-44.286 218.57 19.827 218.57 44.286z" fill="#ff8080" fill-rule="evenodd" filter="url(#a)"/>
   <path d="m522.45 476.57c-0.69708-7.7239 1.2871-13.437 5.2906-17.635" fill="none" stroke="#000"/>
  </g>
  <path d="m295.44 767.94c-7.1424-0.0665-14.335-0.0204-21.594 0.0312h-0.125c-55.047 1.0311-110 6.2348-163.62 17.531l-0.0937 0.0312c-22.312 4.9246-44.062 10.04-64 18.5-9.3201 4.0878-18.058 8.6147-25.344 14.281l-0.03125 0.0312c-7.2278 6.0281-11.813 15.9-12.75 26.094a11.655 11.655 0 0 1 -0.03125 0.34375c-1.6425 13.432 1.5161 27.661 8.8438 38.781 3.4121 4.8309 10.532 8.8953 19.125 14.906l-0.0313 0.0314c6.0727 4.0202 11.066 8.6538 15.562 13.094 0.05322 0.0456 0.10308 0.0797 0.15625 0.125 6.0211 5.132 11.716 8.5142 16.344 8.7188a11.655 11.655 0 0 1 0.21875 0.0312c11.581 0.7143 24.961-5.0425 41.938-7.6562a11.655 11.655 0 0 1 0.34375 -0.0312c11.476-1.4145 23.981 0.96743 33.969 8.875l0.0312-0.0312c0.24323 0.17508 0.35587 0.29536 0.59375 0.46875 8.4975 6.194 13.727 11.342 18.125 12.25 6.5573 1.3434 15.112-1.1965 25.688-4.1875a11.655 11.655 0 0 1 0.15625 -0.0312c8.7919-2.3493 19.864-5.9305 32.656-3.7188a11.655 11.655 0 0 1 1.8438 0.46875c11.683 4.0993 16.421 14.442 18.906 21.844 0.0356 0.10607 0.0903 0.23892 0.125 0.34375 3.1018 8.5605 4.7687 16.035 6.875 22.031 4.844-8.8917 10.181-19.018 20.375-27.406l0.125-0.0937c9.7261-8.0978 23.98-13.206 38.125-7.7812 6.7971 2.6212 11.314 6.5834 14.875 9.25 3.5461 2.6555 5.8555 3.9577 7.75 4.3125h0.0312c1.2982 0.2176 4.7212-1.115 9.9062-4.6562a11.655 11.655 0 0 1 0.0625 -0.0312c7.9446-5.3405 18.179-13.266 32.5-14.281a11.655 11.655 0 0 1 0.96875 -0.0312c13.52 0.17106 22.608 7.8576 29.031 12.062 9.6781 6.3269 17.704 11.899 25.375 13.688 0.0419-0.0289 0.0115 4e-3 0.0625-0.0312 0.86026-0.59675 2.4018-2.088 4.375-4.0312a11.655 11.655 0 0 1 0.0312 0c14.542-14.279 33.494-25.499 55.125-28.062h0.0312c14.964-1.8233 26.314 1.3322 34.094-0.5625a11.655 11.655 0 0 1 0.21875 -0.0625c4.5694-1.0217 9.8136-5.5588 16.562-11.625 0.056-0.0524 0.13134-0.10376 0.1875-0.15625 5.3128-4.965 11.52-10.366 19.562-14.25v-0.0312c0.24696-0.13498 0.44188-0.2107 0.6875-0.34375 11.399-6.1748 21.372-10.405 26.938-16.812a11.655 11.655 0 0 1 0.125 -0.0937c12.372-13.882 15.308-36.896 6.375-53.062-4.2164-7.1087-12.616-12.572-22.438-16.5a11.655 11.655 0 0 1 -0.0625 0c-46.321-18.782-95.707-30.016-145.69-35.219a11.655 11.655 0 0 1 -0.125 -0.03125c-42.734-4.9577-85.842-7.0585-129.03-7.3125a11.655 11.655 0 0 1 -0.0312 0z" fill="#ffd42a" fill-rule="evenodd" filter="url(#af)"/>
  <path transform="matrix(1.1178 0 0 1.3792 -892.88 -373.87)" d="m1285.7 870.93c0 24.458-97.858 44.286-218.57 44.286s-218.57-19.827-218.57-44.286 97.858-44.286 218.57-44.286 218.57 19.827 218.57 44.286z" fill="#fd5" fill-rule="evenodd" stroke="url(#n)" stroke-width="3.1465"/>
  <path transform="matrix(.96653 -.25654 .25654 .96653 295.28 -119.59)" d="m18.436 1004.1c0 7.0489-10.794 12.763-24.108 12.763s-24.108-5.7143-24.108-12.763 10.794-12.763 24.108-12.763 24.108 5.7143 24.108 12.763z" fill-rule="evenodd" filter="url(#b)" opacity=".2"/>
  <g transform="matrix(.67315 0 0 1.103 186.05 202.15)">
   <path transform="matrix(.06863 0 0 .08468 449.95 403.2)" d="m1285.7 870.93c0 24.458-97.858 44.286-218.57 44.286s-218.57-19.827-218.57-44.286 97.858-44.286 218.57-44.286 218.57 19.827 218.57 44.286z" fill="#ff2a2a" fill-rule="evenodd"/>
   <path d="m508.19 475.56v124h0.21875c-0.13782 0.20428-0.21875 0.41092-0.21875 0.625 0 2.0711 6.7157 3.75 15 3.75s15-1.6789 15-3.75c0-0.2173-0.10808-0.41782-0.25-0.625h0.25v-124h-0.0312c-0.31017 2.0026-6.8823 3.5938-14.969 3.5938-8.0838 0-14.654-1.5921-14.969-3.5938h-0.0312z" fill="#f00" fill-rule="evenodd" stroke="#faa"/>
   <path d="m508.18 596.13c6.5985 0 23.13-4.7471 30-8.7133v5.475c-5.9387 3.4287-21.92 8.7133-30 8.7133z" fill="#ffd5d5" fill-rule="evenodd"/>
   <path d="m508.18 576.13c6.5985 0 23.13-4.7471 30-8.7133v5.475c-5.9387 3.4287-21.92 8.7133-30 8.7133z" fill="#ffd5d5" fill-rule="evenodd"/>
   <path d="m508.18 556.13c6.5985 0 23.13-4.7471 30-8.7133v5.475c-5.9387 3.4287-21.92 8.7133-30 8.7133z" fill="#ffd5d5" fill-rule="evenodd"/>
   <path d="m508.18 536.13c6.5985 0 23.13-4.7471 30-8.7133v5.475c-5.9387 3.4287-21.92 8.7133-30 8.7133z" fill="#ffd5d5" fill-rule="evenodd"/>
   <path d="m508.18 516.13c6.5985 0 23.13-4.7471 30-8.7133v5.475c-5.9387 3.4287-21.92 8.7133-30 8.7133z" fill="#ffd5d5" fill-rule="evenodd"/>
   <path d="m508.18 496.13c6.5985 0 23.13-4.7471 30-8.7133v5.475c-5.9387 3.4287-21.92 8.7133-30 8.7133z" fill="#ffd5d5" fill-rule="evenodd"/>
   <path transform="matrix(.03635 0 0 .04486 484.39 437.88)" d="m1285.7 870.93c0 24.458-97.858 44.286-218.57 44.286s-218.57-19.827-218.57-44.286 97.858-44.286 218.57-44.286 218.57 19.827 218.57 44.286z" fill="#ff8080" fill-rule="evenodd" filter="url(#a)"/>
   <path d="m522.45 476.57c-0.69708-7.7239 1.2871-13.437 5.2906-17.635" fill="none" stroke="#000"/>
  </g>
  <path transform="matrix(1.9829 -.15366 .49557 1.4115 -301.13 113.48)" d="m289.49 512.58c0 23.871-45.453 43.223-101.52 43.223s-101.52-19.351-101.52-43.223 45.453-43.223 101.52-43.223 101.52 19.351 101.52 43.223z" fill-rule="evenodd" opacity=".2"/>
  <path d="m98.216 702.36v125.01c0 27.614 89.543 50 200 50s200-22.386 200-50v-125.01c0 27.614-89.543 50-200 50s-200-22.386-200-50z" fill="#ffb380" fill-rule="evenodd" stroke="#ef8f50"/>
  <path d="m105 723.94v103.44c0 3.2334 3.2186 8.1945 12.406 13.625s23.329 10.731 41.031 15.156c35.404 8.8511 85.012 14.438 139.78 14.438s104.38-5.5864 139.78-14.438c17.702-4.4256 31.844-9.7258 41.031-15.156s12.406-10.392 12.406-13.625v-103.44c-1.7579 1.2836-3.4856 2.5778-5.4688 3.75-11.053 6.5334-26.197 12.002-44.688 16.625-36.981 9.2454-87.375 14.844-143.06 14.844s-106.08-5.5984-143.06-14.844c-18.491-4.6227-33.634-10.092-44.688-16.625-1.9831-1.1722-3.7108-2.4664-5.4688-3.75z" fill="#fac099" fill-rule="evenodd" filter="url(#ab)"/>
  <path d="m98.216 702.36v125.01c0 27.614 89.543 50 200 50s200-22.386 200-50v-125.01c0 27.614-89.543 50-200 50s-200-22.386-200-50z" fill="url(#q)" fill-rule="evenodd" opacity=".6"/>
  <path transform="matrix(.91503 0 0 1.129 -680.04 -279.75)" d="m1056.4 827.41c-49.725 0.63538-99.741 3.4293-148.44 14.125-18.651 4.0611-37.428 9.0799-54.062 18.719-4.6333 2.6527-8.9206 6.8115-9.6562 12.344-1.4262 8.042 2.6205 15.805 7.2812 22.062 5.3933 7.4668 12.874 14.15 22.188 15.906 7.0212 1.5107 14.194 0.13297 21.25-0.34375 7.0693-0.6605 14.408-0.5862 21.062 2.1875 12.81 4.5546 24.331 12.959 38.094 14.625 12.228 1.5249 24.042-2.8247 35.75-5.625 10.005-2.1262 21.09-0.32492 29.25 6.0625 8.0725 5.3349 15.535 12.519 25.375 14.344 9.4495 1.7886 19.05-3.6425 24.125-11.469 4.5136-5.4359 12.047-7.4132 18.875-6.625 10.426 0.42866 20.754 2.072 31.125 3.125 13.867 1.8445 28.216 3.8402 41.969 0.15625 9.6274-2.2237 19.122-6.7167 29.219-5.5625 7.1484 0.96472 12.822 5.7464 19.063 8.9062 6.5978 3.0422 15.031 3.2632 20.969-1.375 4.9732-3.7135 8.5557-9.441 14.719-11.406 7.8475-3.0265 16.544-3.0301 24.281-6.4375 12.092-4.6885 22.229-15.225 24.938-28.094 1.5291-6.7623-0.4597-14.319-5.6562-19.031-5.7142-5.2883-13.485-7.1304-20.5-10.031-26.375-10.048-54.222-15.694-82.156-19.25-28.378-3.5751-56.923-5.6152-85.5-6.6875-14.511-0.50835-29.042-0.74885-43.562-0.625z" fill-rule="evenodd" filter="url(#y)"/>
  <path transform="matrix(.91503 0 0 1.129 -680.04 -280.95)" d="m1056.4 827.41c-49.725 0.63538-99.741 3.4293-148.44 14.125-18.651 4.0611-37.428 9.0799-54.062 18.719-4.6333 2.6527-8.9206 6.8115-9.6562 12.344-1.4262 8.042 2.6205 15.805 7.2812 22.062 5.3933 7.4668 12.874 14.15 22.188 15.906 7.0212 1.5107 14.194 0.13297 21.25-0.34375 7.0693-0.6605 14.408-0.5862 21.062 2.1875 12.81 4.5546 24.331 12.959 38.094 14.625 12.228 1.5249 24.042-2.8247 35.75-5.625 10.005-2.1262 21.09-0.32492 29.25 6.0625 8.0725 5.3349 15.535 12.519 25.375 14.344 9.4495 1.7886 19.05-3.6425 24.125-11.469 4.5136-5.4359 12.047-7.4132 18.875-6.625 10.426 0.42866 20.754 2.072 31.125 3.125 13.867 1.8445 28.216 3.8402 41.969 0.15625 9.6274-2.2237 19.122-6.7167 29.219-5.5625 7.1484 0.96472 12.822 5.7464 19.063 8.9062 6.5978 3.0422 15.031 3.2632 20.969-1.375 4.9732-3.7135 8.5557-9.441 14.719-11.406 7.8475-3.0265 16.544-3.0301 24.281-6.4375 12.092-4.6885 22.229-15.225 24.938-28.094 1.5291-6.7623-0.4597-14.319-5.6562-19.031-5.7142-5.2883-13.485-7.1304-20.5-10.031-26.375-10.048-54.222-15.694-82.156-19.25-28.378-3.5751-56.923-5.6152-85.5-6.6875-14.511-0.50835-29.042-0.74885-43.562-0.625z" fill="#714326" fill-rule="evenodd"/>
  <path transform="matrix(.91503 0 0 1.129 -680.04 -280.95)" d="m1056.4 836.44c-49.443 0.6336-98.832 3.4538-146.56 13.938-18.37 4-36.211 8.8464-51.469 17.688a9.0477 9.0477 0 0 1 -0.0312 0.0312c-3.1833 1.8225-4.9792 4.1208-5.1875 5.6875a9.0477 9.0477 0 0 1 -0.0625 0.40625c-0.73761 4.1592 1.6066 9.6669 5.625 15.062a9.0477 9.0477 0 0 1 0.0937 0.0937c4.5686 6.325 10.458 11.199 16.531 12.344a9.0477 9.0477 0 0 1 0.21875 0.0312c4.6279 0.99574 10.8 0.032 18.5-0.5 0.0812-6e-3 0.13719-0.0257 0.21875-0.0312v0.0312c7.5302-0.69031 16.161-0.75548 24.719 2.6875v-0.0312c0.15572 0.0554 0.28261 0.13156 0.4375 0.1875 14.274 5.1556 25.077 12.712 35.719 14a9.0477 9.0477 0 0 1 0.0312 0c9.422 1.175 20.101-2.4957 32.531-5.4688a9.0477 9.0477 0 0 1 0.21875 -0.0312c12.129-2.5774 25.536-0.58518 36.094 7.375l0.031-0.0312c9.0498 5.9808 15.571 11.802 22.031 13a9.0477 9.0477 0 0 1 0.031 0.0312c5.0611 0.95795 11.563-2.472 14.844-7.5312a9.0477 9.0477 0 0 1 0.625 -0.84375c6.8243-8.219 17.083-10.73 26.219-9.8438v-0.0312c0.1071 4e-3 0.2054 0.0266 0.3124 0.0312 0.1125 0.0119 0.2317-0.0129 0.3438 0v0.0312c10.88 0.49628 21.172 2.0959 31 3.0938a9.0477 9.0477 0 0 1 0.2812 0.0312c13.903 1.8494 26.994 3.4406 38.438 0.375a9.0477 9.0477 0 0 1 0.3124 -0.0625c8.2948-1.9159 18.917-7.2778 32.281-5.75a9.0477 9.0477 0 0 1 0.1875 0.0312c10.333 1.3945 16.838 7.1462 21.75 9.6875 4.0644 1.8273 8.9717 1.6625 11.5-0.3125a9.0477 9.0477 0 0 1 0.1562 -0.125c3.0108-2.2482 7.2349-9.2721 16.875-12.562v-0.0312c0.1081-0.0417 0.2048-0.053 0.3126-0.0937 0.072-0.0237 0.1144-0.0705 0.1874-0.0937v0.0312c9.7156-3.6379 18.019-3.7664 23.375-6.125a9.0477 9.0477 0 0 1 0.375 -0.15625c9.4212-3.653 17.398-12.14 19.375-21.531a9.0477 9.0477 0 0 1 0.031 -0.125c0.8371-3.702-0.4248-8.0937-2.9063-10.344a9.0477 9.0477 0 0 1 -0.094 -0.0625c-3.4413-3.1848-9.7467-4.9744-17.562-8.1875l-0.25-0.0937c-25.368-9.6327-52.422-15.168-79.812-18.656h-0.031c-28.034-3.5307-56.304-5.5604-84.656-6.625h-0.031c-14.369-0.50297-28.756-0.74625-43.094-0.625h-0.062z" fill="#8c3e0a" fill-rule="evenodd" filter="url(#ae)"/>
  <path transform="matrix(.71691 0 0 .71691 174.66 244.6)" d="m151.55 732.11c-22.357-2.9916-44.218-7.9286-41.773-30.64 11.255 23.907 24.912 17.475 41.773 30.64z" fill="#fff" filter="url(#f)" opacity=".6"/>
  <path transform="matrix(.61862 0 0 .7633 -361.94 37.58)" d="m1285.7 870.93c0 24.458-97.858 44.286-218.57 44.286s-218.57-19.827-218.57-44.286 97.858-44.286 218.57-44.286 218.57 19.827 218.57 44.286z" fill="#a40" fill-rule="evenodd" stroke="url(#l)" stroke-width="3.3418"/>
  <path transform="matrix(1.2052 -.07764 .3012 .7132 -64.363 339.52)" d="m289.49 512.58c0 23.871-45.453 43.223-101.52 43.223s-101.52-19.351-101.52-43.223 45.453-43.223 101.52-43.223 101.52 19.351 101.52 43.223z" fill-rule="evenodd" opacity=".2"/>
  <path d="m198.22 591.08v111.28c0 13.807 44.772 25 100 25s100-11.193 100-25v-111.28c-0.0664 13.793-44.813 24.969-100 24.969s-99.934-11.176-100-24.969z" fill="#ff8080" fill-rule="evenodd" stroke="#ef6666"/>
  <path d="m204.97 607.78v94.594c0-0.20317 0.4313 1.4644 4.5625 3.9062s10.969 5.0548 19.625 7.2188c17.311 4.3278 41.905 7.125 69.062 7.125s51.751-2.7972 69.062-7.125c8.6556-2.1639 15.494-4.7769 19.625-7.2188s4.5625-4.1094 4.5625-3.9062v-94.594c-5.6594 2.963-12.615 5.4218-20.938 7.5-18.877 4.7138-44.262 7.5-72.312 7.5s-53.435-2.7862-72.312-7.5c-8.3226-2.0782-15.278-4.537-20.938-7.5z" fill="#f89797" fill-rule="evenodd" filter="url(#aa)"/>
  <path d="m198.22 591.08v111.28c0 13.807 44.772 25 100 25s100-11.193 100-25v-111.28c-0.0664 13.793-44.813 24.969-100 24.969s-99.934-11.176-100-24.969z" fill="url(#p)" fill-rule="evenodd" opacity=".6"/>
  <path d="m291.92 569.1c-30.476-0.0328-61.391 4.3331-89.961 18.022-7.1582 3.507-9.0614 16.488-3.8159 23.237 5.9411 8.769 16.155 11.063 21.547 20.573 2.5596 4.0321 3.295 9.1957 4.7024 13.866 2.2562 5.1262 6.6544 7.865 10.047 11.673 2.7085 2.6051 7.0052 3.5146 9.6198 0.2378 3.9922-4.3938 5.8137-11.471 10.865-14.444 5.6594-4.0233 11.399-7.9414 16.579-12.877 2.9714-2.3647 6.622-5.06 10.256-3.6278 4.5927 3.2312 5.2302 10.578 9.062 14.732 4.9472 6.6358 11.365 11.899 18.599 13.709 2.6431-1.1742 4.3928-4.1106 6.717-5.9102 4.8856-5.828 8.9518-13.017 15.207-16.798 5.9239-4.0986 12.528-8.0717 19.509-7.2747 5.3808 0.77716 10.893 1.8599 15.783 4.8618 3.8351 2.7978 7.1884 6.9811 11.626 8.2741 5.3763 0.89678 10.167-3.606 13.217-8.6473 4.3887-6.2147 9.1178-13.019 9.6874-21.607 0.86132-9.0146-3.2439-18.811-10.361-21.918-10.965-5.8502-22.833-8.2995-34.484-11.118-21.269-4.3217-42.886-5.0758-64.401-4.963z" fill-rule="evenodd" filter="url(#x)"/>
  <path d="m291.92 568.2c-30.476-0.0328-61.391 4.3331-89.961 18.022-7.1582 3.507-9.0614 16.488-3.8159 23.237 5.9411 8.769 16.155 11.063 21.547 20.573 2.5596 4.0321 3.295 9.1957 4.7024 13.866 2.2562 5.1262 6.6544 7.865 10.047 11.673 2.7085 2.6051 7.0052 3.5146 9.6198 0.2378 3.9922-4.3938 5.8137-11.471 10.865-14.444 5.6594-4.0233 11.399-7.9414 16.579-12.877 2.9714-2.3647 6.622-5.06 10.256-3.6278 4.5927 3.2312 5.2302 10.578 9.062 14.732 4.9472 6.6358 11.365 11.899 18.599 13.709 2.6431-1.1742 4.3928-4.1106 6.717-5.9102 4.8856-5.828 8.9518-13.017 15.207-16.798 5.9239-4.0986 12.528-8.0717 19.509-7.2747 5.3808 0.77716 10.893 1.8599 15.783 4.8618 3.8351 2.7978 7.1884 6.9811 11.626 8.2741 5.3763 0.89678 10.167-3.606 13.217-8.6473 4.3887-6.2147 9.1178-13.019 9.6874-21.607 0.86132-9.0146-3.2439-18.811-10.361-21.918-10.965-5.8502-22.833-8.2995-34.484-11.118-21.269-4.3217-42.886-5.0758-64.401-4.963z" fill="#fceaa9" fill-rule="evenodd"/>
  <path transform="matrix(.45752 0 0 .56452 -189.39 100.71)" d="m1051.8 843.66c-65.364-0.057-130.97 7.5875-190.91 30.844-4.307 1.7101-6.1225 12.55-2.8438 15.969a15.537 15.537 0 0 1 0.6875 0.78125c4.1101 4.9166 11.036 9.1064 19.906 14.281 8.6876 5.068 19.332 11.302 27.469 22.562l0.0312-0.0312c0.0993 0.12677 0.15256 0.2482 0.25 0.375 0.0807 0.11358 0.16982 0.19789 0.25 0.3125l-0.0312 0.0312c7.7074 10.205 9.5807 20.183 11.719 26.594 2.2782 3.4163 8.7814 7.5845 17.406 15.281 0.37166 0.28971 0.97191 0.46807 1.4688 0.625 2.0957-2.0155 4.7024-5.7505 8.4062-10.844 3.738-5.1402 9.072-11.722 17.594-16.125l-0.03125-0.0625c12.529-7.2188 24.427-13.847 34.5-21.625a15.537 15.537 0 0 1 1.0938 -0.78125c6.8594-4.4241 19.361-13.321 35.531-8.1562a15.537 15.537 0 0 1 2.9688 1.3125c9.1497 5.2172 13.6 13.184 16.5 18.531s4.7761 8.4409 5.875 9.4062a15.537 15.537 0 0 1 1.1874 1.125c7.5525 8.2103 16.788 14.504 26.5 17.812 1.4182-1.231 4.0667-3.0906 7.0313-5.0938 8.9384-8.786 18.51-22.804 36.031-31.656l-0.031-0.0312c13.503-7.5713 30.803-16.745 51.688-14.812a15.537 15.537 0 0 1 0.375 0.0312c12.21 1.4292 26.079 3.4325 39.594 10.156a15.537 15.537 0 0 1 1 0.53125c10.185 6.022 16.148 11.162 20.25 12.562 3.7246 0.0828 9.2732-3.2118 13.687-9.125a15.537 15.537 0 0 1 0.7188 -0.9375c9.5371-10.946 16.709-20.441 17.438-29.344a15.537 15.537 0 0 1 0.031 -0.53125c1.0567-8.9638-4.7503-19.635-12.406-22.344a15.537 15.537 0 0 1 -0.9687 -0.40625c-21.541-9.3147-46.177-13.617-71.75-18.625-45.107-7.4282-91.466-8.792-138.16-8.5938a15.537 15.537 0 0 1 -0.062 0z" fill="#faf5e0" fill-rule="evenodd" filter="url(#ad)" opacity=".6"/>
  <path transform="matrix(.24283 0 0 .29962 39.078 331.41)" d="m1285.7 870.93c0 24.458-97.858 44.286-218.57 44.286s-218.57-19.827-218.57-44.286 97.858-44.286 218.57-44.286 218.57 19.827 218.57 44.286z" fill="#fff6d5" fill-rule="evenodd" stroke="url(#m)" stroke-width="3.7073"/>
  <path transform="matrix(.80818 -.22116 .21451 .83323 364.24 -19.572)" d="m18.436 1004.1c0 7.0489-10.794 12.763-24.108 12.763s-24.108-5.7143-24.108-12.763 10.794-12.763 24.108-12.763 24.108 5.7143 24.108 12.763z" fill-rule="evenodd" filter="url(#b)" opacity=".2"/>
  <g transform="matrix(.67315 0 0 1.103 218.13 161.9)">
   <path transform="matrix(.06863 0 0 .08468 449.95 403.2)" d="m1285.7 870.93c0 24.458-97.858 44.286-218.57 44.286s-218.57-19.827-218.57-44.286 97.858-44.286 218.57-44.286 218.57 19.827 218.57 44.286z" fill="#ff2a2a" fill-rule="evenodd"/>
   <path d="m508.19 475.56v124h0.21875c-0.13782 0.20428-0.21875 0.41092-0.21875 0.625 0 2.0711 6.7157 3.75 15 3.75s15-1.6789 15-3.75c0-0.2173-0.10808-0.41782-0.25-0.625h0.25v-124h-0.0312c-0.31017 2.0026-6.8823 3.5938-14.969 3.5938-8.0838 0-14.654-1.5921-14.969-3.5938h-0.0312z" fill="#f00" fill-rule="evenodd" stroke="#faa"/>
   <path d="m508.18 596.13c6.5985 0 23.13-4.7471 30-8.7133v5.475c-5.9387 3.4287-21.92 8.7133-30 8.7133z" fill="#ffd5d5" fill-rule="evenodd"/>
   <path d="m508.18 576.13c6.5985 0 23.13-4.7471 30-8.7133v5.475c-5.9387 3.4287-21.92 8.7133-30 8.7133z" fill="#ffd5d5" fill-rule="evenodd"/>
   <path d="m508.18 556.13c6.5985 0 23.13-4.7471 30-8.7133v5.475c-5.9387 3.4287-21.92 8.7133-30 8.7133z" fill="#ffd5d5" fill-rule="evenodd"/>
   <path d="m508.18 536.13c6.5985 0 23.13-4.7471 30-8.7133v5.475c-5.9387 3.4287-21.92 8.7133-30 8.7133z" fill="#ffd5d5" fill-rule="evenodd"/>
   <path d="m508.18 516.13c6.5985 0 23.13-4.7471 30-8.7133v5.475c-5.9387 3.4287-21.92 8.7133-30 8.7133z" fill="#ffd5d5" fill-rule="evenodd"/>
   <path d="m508.18 496.13c6.5985 0 23.13-4.7471 30-8.7133v5.475c-5.9387 3.4287-21.92 8.7133-30 8.7133z" fill="#ffd5d5" fill-rule="evenodd"/>
   <path transform="matrix(.03635 0 0 .04486 484.39 437.88)" d="m1285.7 870.93c0 24.458-97.858 44.286-218.57 44.286s-218.57-19.827-218.57-44.286 97.858-44.286 218.57-44.286 218.57 19.827 218.57 44.286z" fill="#ff8080" fill-rule="evenodd" filter="url(#a)"/>
   <path d="m522.45 476.57c-0.69708-7.7239 1.2871-13.437 5.2906-17.635" fill="none" stroke="#000"/>
  </g>
  <path transform="matrix(.96653 -.25654 .25654 .96653 -203.9 -159.3)" d="m18.436 1004.1c0 7.0489-10.794 12.763-24.108 12.763s-24.108-5.7143-24.108-12.763 10.794-12.763 24.108-12.763 24.108 5.7143 24.108 12.763z" fill-rule="evenodd" filter="url(#b)" opacity=".2"/>
  <g transform="matrix(.67315 0 0 1.103 -315.25 162.24)">
   <path transform="matrix(.06863 0 0 .08468 449.95 403.2)" d="m1285.7 870.93c0 24.458-97.858 44.286-218.57 44.286s-218.57-19.827-218.57-44.286 97.858-44.286 218.57-44.286 218.57 19.827 218.57 44.286z" fill="#ff2a2a" fill-rule="evenodd"/>
   <path d="m508.19 475.56v124h0.21875c-0.13782 0.20428-0.21875 0.41092-0.21875 0.625 0 2.0711 6.7157 3.75 15 3.75s15-1.6789 15-3.75c0-0.2173-0.10808-0.41782-0.25-0.625h0.25v-124h-0.0312c-0.31017 2.0026-6.8823 3.5938-14.969 3.5938-8.0838 0-14.654-1.5921-14.969-3.5938h-0.0312z" fill="#f00" fill-rule="evenodd" stroke="#faa"/>
   <path d="m508.18 596.13c6.5985 0 23.13-4.7471 30-8.7133v5.475c-5.9387 3.4287-21.92 8.7133-30 8.7133z" fill="#ffd5d5" fill-rule="evenodd"/>
   <path d="m508.18 576.13c6.5985 0 23.13-4.7471 30-8.7133v5.475c-5.9387 3.4287-21.92 8.7133-30 8.7133z" fill="#ffd5d5" fill-rule="evenodd"/>
   <path d="m508.18 556.13c6.5985 0 23.13-4.7471 30-8.7133v5.475c-5.9387 3.4287-21.92 8.7133-30 8.7133z" fill="#ffd5d5" fill-rule="evenodd"/>
   <path d="m508.18 536.13c6.5985 0 23.13-4.7471 30-8.7133v5.475c-5.9387 3.4287-21.92 8.7133-30 8.7133z" fill="#ffd5d5" fill-rule="evenodd"/>
   <path d="m508.18 516.13c6.5985 0 23.13-4.7471 30-8.7133v5.475c-5.9387 3.4287-21.92 8.7133-30 8.7133z" fill="#ffd5d5" fill-rule="evenodd"/>
   <path d="m508.18 496.13c6.5985 0 23.13-4.7471 30-8.7133v5.475c-5.9387 3.4287-21.92 8.7133-30 8.7133z" fill="#ffd5d5" fill-rule="evenodd"/>
   <path transform="matrix(.03635 0 0 .04486 484.39 437.88)" d="m1285.7 870.93c0 24.458-97.858 44.286-218.57 44.286s-218.57-19.827-218.57-44.286 97.858-44.286 218.57-44.286 218.57 19.827 218.57 44.286z" fill="#ff8080" fill-rule="evenodd" filter="url(#a)"/>
   <path d="m522.45 476.57c-0.69708-7.7239 1.2871-13.437 5.2906-17.635" fill="none" stroke="#000"/>
  </g>
  <path transform="matrix(.96653 -.25654 .25654 .96653 -81.94 -85.556)" d="m18.436 1004.1c0 7.0489-10.794 12.763-24.108 12.763s-24.108-5.7143-24.108-12.763 10.794-12.763 24.108-12.763 24.108 5.7143 24.108 12.763z" fill-rule="evenodd" filter="url(#b)" opacity=".2"/>
  <g transform="matrix(.67315 0 0 1.103 -193.04 234.57)">
   <path transform="matrix(.06863 0 0 .08468 449.95 403.2)" d="m1285.7 870.93c0 24.458-97.858 44.286-218.57 44.286s-218.57-19.827-218.57-44.286 97.858-44.286 218.57-44.286 218.57 19.827 218.57 44.286z" fill="#ff2a2a" fill-rule="evenodd"/>
   <path d="m508.19 475.56v124h0.21875c-0.13782 0.20428-0.21875 0.41092-0.21875 0.625 0 2.0711 6.7157 3.75 15 3.75s15-1.6789 15-3.75c0-0.2173-0.10808-0.41782-0.25-0.625h0.25v-124h-0.0312c-0.31017 2.0026-6.8823 3.5938-14.969 3.5938-8.0838 0-14.654-1.5921-14.969-3.5938h-0.0312z" fill="#f00" fill-rule="evenodd" stroke="#faa"/>
   <path d="m508.18 596.13c6.5985 0 23.13-4.7471 30-8.7133v5.475c-5.9387 3.4287-21.92 8.7133-30 8.7133z" fill="#ffd5d5" fill-rule="evenodd"/>
   <path d="m508.18 576.13c6.5985 0 23.13-4.7471 30-8.7133v5.475c-5.9387 3.4287-21.92 8.7133-30 8.7133z" fill="#ffd5d5" fill-rule="evenodd"/>
   <path d="m508.18 556.13c6.5985 0 23.13-4.7471 30-8.7133v5.475c-5.9387 3.4287-21.92 8.7133-30 8.7133z" fill="#ffd5d5" fill-rule="evenodd"/>
   <path d="m508.18 536.13c6.5985 0 23.13-4.7471 30-8.7133v5.475c-5.9387 3.4287-21.92 8.7133-30 8.7133z" fill="#ffd5d5" fill-rule="evenodd"/>
   <path d="m508.18 516.13c6.5985 0 23.13-4.7471 30-8.7133v5.475c-5.9387 3.4287-21.92 8.7133-30 8.7133z" fill="#ffd5d5" fill-rule="evenodd"/>
   <path d="m508.18 496.13c6.5985 0 23.13-4.7471 30-8.7133v5.475c-5.9387 3.4287-21.92 8.7133-30 8.7133z" fill="#ffd5d5" fill-rule="evenodd"/>
   <path transform="matrix(.03635 0 0 .04486 484.39 437.88)" d="m1285.7 870.93c0 24.458-97.858 44.286-218.57 44.286s-218.57-19.827-218.57-44.286 97.858-44.286 218.57-44.286 218.57 19.827 218.57 44.286z" fill="#ff8080" fill-rule="evenodd" filter="url(#a)"/>
   <path d="m522.45 476.57c-0.69708-7.7239 1.2871-13.437 5.2906-17.635" fill="none" stroke="#000"/>
  </g>
  <path d="m152.39 905.62s31.802 0.15912 47.033-3.7626c10.329-2.6595 18.697-11.104 29.16-13.169 17.853-3.5235 54.558 1.8813 54.558 1.8813s-35.018 1.819-51.736 6.5846c-11.604 3.3078-20.98 13.326-32.923 15.051-15.361 2.2186-46.092-6.5846-46.092-6.5846z" fill="#fff" filter="url(#u)" opacity=".6"/>
  <path transform="matrix(.96653 -.25654 .25654 .96653 20.165 -75.63)" d="m18.436 1004.1c0 7.0489-10.794 12.763-24.108 12.763s-24.108-5.7143-24.108-12.763 10.794-12.763 24.108-12.763 24.108 5.7143 24.108 12.763z" fill-rule="evenodd" filter="url(#b)" opacity=".2"/>
  <g transform="matrix(.67315 0 0 1.103 -93.28 244.55)">
   <path transform="matrix(.06863 0 0 .08468 449.95 403.2)" d="m1285.7 870.93c0 24.458-97.858 44.286-218.57 44.286s-218.57-19.827-218.57-44.286 97.858-44.286 218.57-44.286 218.57 19.827 218.57 44.286z" fill="#ff2a2a" fill-rule="evenodd"/>
   <path d="m508.19 475.56v124h0.21875c-0.13782 0.20428-0.21875 0.41092-0.21875 0.625 0 2.0711 6.7157 3.75 15 3.75s15-1.6789 15-3.75c0-0.2173-0.10808-0.41782-0.25-0.625h0.25v-124h-0.0312c-0.31017 2.0026-6.8823 3.5938-14.969 3.5938-8.0838 0-14.654-1.5921-14.969-3.5938h-0.0312z" fill="#f00" fill-rule="evenodd" stroke="#faa"/>
   <path d="m508.18 596.13c6.5985 0 23.13-4.7471 30-8.7133v5.475c-5.9387 3.4287-21.92 8.7133-30 8.7133z" fill="#ffd5d5" fill-rule="evenodd"/>
   <path d="m508.18 576.13c6.5985 0 23.13-4.7471 30-8.7133v5.475c-5.9387 3.4287-21.92 8.7133-30 8.7133z" fill="#ffd5d5" fill-rule="evenodd"/>
   <path d="m508.18 556.13c6.5985 0 23.13-4.7471 30-8.7133v5.475c-5.9387 3.4287-21.92 8.7133-30 8.7133z" fill="#ffd5d5" fill-rule="evenodd"/>
   <path d="m508.18 536.13c6.5985 0 23.13-4.7471 30-8.7133v5.475c-5.9387 3.4287-21.92 8.7133-30 8.7133z" fill="#ffd5d5" fill-rule="evenodd"/>
   <path d="m508.18 516.13c6.5985 0 23.13-4.7471 30-8.7133v5.475c-5.9387 3.4287-21.92 8.7133-30 8.7133z" fill="#ffd5d5" fill-rule="evenodd"/>
   <path d="m508.18 496.13c6.5985 0 23.13-4.7471 30-8.7133v5.475c-5.9387 3.4287-21.92 8.7133-30 8.7133z" fill="#ffd5d5" fill-rule="evenodd"/>
   <path transform="matrix(.03635 0 0 .04486 484.39 437.88)" d="m1285.7 870.93c0 24.458-97.858 44.286-218.57 44.286s-218.57-19.827-218.57-44.286 97.858-44.286 218.57-44.286 218.57 19.827 218.57 44.286z" fill="#ff8080" fill-rule="evenodd" filter="url(#a)"/>
   <path d="m522.45 476.57c-0.69708-7.7239 1.2871-13.437 5.2906-17.635" fill="none" stroke="#000"/>
  </g>
  <path transform="matrix(.96653 -.25654 .25654 .96653 123.69 -75.63)" d="m18.436 1004.1c0 7.0489-10.794 12.763-24.108 12.763s-24.108-5.7143-24.108-12.763 10.794-12.763 24.108-12.763 24.108 5.7143 24.108 12.763z" fill-rule="evenodd" filter="url(#b)" opacity=".2"/>
  <g transform="matrix(.67315 0 0 1.103 13.963 246.05)">
   <path transform="matrix(.06863 0 0 .08468 449.95 403.2)" d="m1285.7 870.93c0 24.458-97.858 44.286-218.57 44.286s-218.57-19.827-218.57-44.286 97.858-44.286 218.57-44.286 218.57 19.827 218.57 44.286z" fill="#ff2a2a" fill-rule="evenodd"/>
   <path d="m508.19 475.56v124h0.21875c-0.13782 0.20428-0.21875 0.41092-0.21875 0.625 0 2.0711 6.7157 3.75 15 3.75s15-1.6789 15-3.75c0-0.2173-0.10808-0.41782-0.25-0.625h0.25v-124h-0.0312c-0.31017 2.0026-6.8823 3.5938-14.969 3.5938-8.0838 0-14.654-1.5921-14.969-3.5938h-0.0312z" fill="#f00" fill-rule="evenodd" stroke="#faa"/>
   <path d="m508.18 596.13c6.5985 0 23.13-4.7471 30-8.7133v5.475c-5.9387 3.4287-21.92 8.7133-30 8.7133z" fill="#ffd5d5" fill-rule="evenodd"/>
   <path d="m508.18 576.13c6.5985 0 23.13-4.7471 30-8.7133v5.475c-5.9387 3.4287-21.92 8.7133-30 8.7133z" fill="#ffd5d5" fill-rule="evenodd"/>
   <path d="m508.18 556.13c6.5985 0 23.13-4.7471 30-8.7133v5.475c-5.9387 3.4287-21.92 8.7133-30 8.7133z" fill="#ffd5d5" fill-rule="evenodd"/>
   <path d="m508.18 536.13c6.5985 0 23.13-4.7471 30-8.7133v5.475c-5.9387 3.4287-21.92 8.7133-30 8.7133z" fill="#ffd5d5" fill-rule="evenodd"/>
   <path d="m508.18 516.13c6.5985 0 23.13-4.7471 30-8.7133v5.475c-5.9387 3.4287-21.92 8.7133-30 8.7133z" fill="#ffd5d5" fill-rule="evenodd"/>
   <path d="m508.18 496.13c6.5985 0 23.13-4.7471 30-8.7133v5.475c-5.9387 3.4287-21.92 8.7133-30 8.7133z" fill="#ffd5d5" fill-rule="evenodd"/>
   <path transform="matrix(.03635 0 0 .04486 484.39 437.88)" d="m1285.7 870.93c0 24.458-97.858 44.286-218.57 44.286s-218.57-19.827-218.57-44.286 97.858-44.286 218.57-44.286 218.57 19.827 218.57 44.286z" fill="#ff8080" fill-rule="evenodd" filter="url(#a)"/>
   <path d="m522.45 476.57c-0.69708-7.7239 1.2871-13.437 5.2906-17.635" fill="none" stroke="#000"/>
  </g>
  <g transform="matrix(.67315 0 0 1.103 -269.86 121.33)">
   <path transform="matrix(.06863 0 0 .08468 449.95 403.2)" d="m1285.7 870.93c0 24.458-97.858 44.286-218.57 44.286s-218.57-19.827-218.57-44.286 97.858-44.286 218.57-44.286 218.57 19.827 218.57 44.286z" fill="#ff2a2a" fill-rule="evenodd"/>
   <path d="m508.19 475.56v124h0.21875c-0.13782 0.20428-0.21875 0.41092-0.21875 0.625 0 2.0711 6.7157 3.75 15 3.75s15-1.6789 15-3.75c0-0.2173-0.10808-0.41782-0.25-0.625h0.25v-124h-0.0312c-0.31017 2.0026-6.8823 3.5938-14.969 3.5938-8.0838 0-14.654-1.5921-14.969-3.5938h-0.0312z" fill="#f00" fill-rule="evenodd" stroke="#faa"/>
   <path d="m508.18 596.13c6.5985 0 23.13-4.7471 30-8.7133v5.475c-5.9387 3.4287-21.92 8.7133-30 8.7133z" fill="#ffd5d5" fill-rule="evenodd"/>
   <path d="m508.18 576.13c6.5985 0 23.13-4.7471 30-8.7133v5.475c-5.9387 3.4287-21.92 8.7133-30 8.7133z" fill="#ffd5d5" fill-rule="evenodd"/>
   <path d="m508.18 556.13c6.5985 0 23.13-4.7471 30-8.7133v5.475c-5.9387 3.4287-21.92 8.7133-30 8.7133z" fill="#ffd5d5" fill-rule="evenodd"/>
   <path d="m508.18 536.13c6.5985 0 23.13-4.7471 30-8.7133v5.475c-5.9387 3.4287-21.92 8.7133-30 8.7133z" fill="#ffd5d5" fill-rule="evenodd"/>
   <path d="m508.18 516.13c6.5985 0 23.13-4.7471 30-8.7133v5.475c-5.9387 3.4287-21.92 8.7133-30 8.7133z" fill="#ffd5d5" fill-rule="evenodd"/>
   <path d="m508.18 496.13c6.5985 0 23.13-4.7471 30-8.7133v5.475c-5.9387 3.4287-21.92 8.7133-30 8.7133z" fill="#ffd5d5" fill-rule="evenodd"/>
   <path transform="matrix(.03635 0 0 .04486 484.39 437.88)" d="m1285.7 870.93c0 24.458-97.858 44.286-218.57 44.286s-218.57-19.827-218.57-44.286 97.858-44.286 218.57-44.286 218.57 19.827 218.57 44.286z" fill="#ff8080" fill-rule="evenodd" filter="url(#a)"/>
   <path d="m522.45 476.57c-0.69708-7.7239 1.2871-13.437 5.2906-17.635" fill="none" stroke="#000"/>
  </g>
  <path transform="matrix(.96653 -.25654 .25654 .96653 220.12 -91.229)" d="m18.436 1004.1c0 7.0489-10.794 12.763-24.108 12.763s-24.108-5.7143-24.108-12.763 10.794-12.763 24.108-12.763 24.108 5.7143 24.108 12.763z" fill-rule="evenodd" filter="url(#b)" opacity=".2"/>
  <g transform="matrix(.67315 0 0 1.103 111.23 229.58)">
   <path transform="matrix(.06863 0 0 .08468 449.95 403.2)" d="m1285.7 870.93c0 24.458-97.858 44.286-218.57 44.286s-218.57-19.827-218.57-44.286 97.858-44.286 218.57-44.286 218.57 19.827 218.57 44.286z" fill="#ff2a2a" fill-rule="evenodd"/>
   <path d="m508.19 475.56v124h0.21875c-0.13782 0.20428-0.21875 0.41092-0.21875 0.625 0 2.0711 6.7157 3.75 15 3.75s15-1.6789 15-3.75c0-0.2173-0.10808-0.41782-0.25-0.625h0.25v-124h-0.0312c-0.31017 2.0026-6.8823 3.5938-14.969 3.5938-8.0838 0-14.654-1.5921-14.969-3.5938h-0.0312z" fill="#f00" fill-rule="evenodd" stroke="#faa"/>
   <path d="m508.18 596.13c6.5985 0 23.13-4.7471 30-8.7133v5.475c-5.9387 3.4287-21.92 8.7133-30 8.7133z" fill="#ffd5d5" fill-rule="evenodd"/>
   <path d="m508.18 576.13c6.5985 0 23.13-4.7471 30-8.7133v5.475c-5.9387 3.4287-21.92 8.7133-30 8.7133z" fill="#ffd5d5" fill-rule="evenodd"/>
   <path d="m508.18 556.13c6.5985 0 23.13-4.7471 30-8.7133v5.475c-5.9387 3.4287-21.92 8.7133-30 8.7133z" fill="#ffd5d5" fill-rule="evenodd"/>
   <path d="m508.18 536.13c6.5985 0 23.13-4.7471 30-8.7133v5.475c-5.9387 3.4287-21.92 8.7133-30 8.7133z" fill="#ffd5d5" fill-rule="evenodd"/>
   <path d="m508.18 516.13c6.5985 0 23.13-4.7471 30-8.7133v5.475c-5.9387 3.4287-21.92 8.7133-30 8.7133z" fill="#ffd5d5" fill-rule="evenodd"/>
   <path d="m508.18 496.13c6.5985 0 23.13-4.7471 30-8.7133v5.475c-5.9387 3.4287-21.92 8.7133-30 8.7133z" fill="#ffd5d5" fill-rule="evenodd"/>
   <path transform="matrix(.03635 0 0 .04486 484.39 437.88)" d="m1285.7 870.93c0 24.458-97.858 44.286-218.57 44.286s-218.57-19.827-218.57-44.286 97.858-44.286 218.57-44.286 218.57 19.827 218.57 44.286z" fill="#ff8080" fill-rule="evenodd" filter="url(#a)"/>
   <path d="m522.45 476.57c-0.69708-7.7239 1.2871-13.437 5.2906-17.635" fill="none" stroke="#000"/>
  </g>
  <path transform="matrix(.96653 -.25654 .25654 .96653 -164.19 -109.66)" d="m18.436 1004.1c0 7.0489-10.794 12.763-24.108 12.763s-24.108-5.7143-24.108-12.763 10.794-12.763 24.108-12.763 24.108 5.7143 24.108 12.763z" fill-rule="evenodd" filter="url(#b)" opacity=".2"/>
  <g transform="matrix(.67315 0 0 1.103 -278.33 211.63)">
   <path transform="matrix(.06863 0 0 .08468 449.95 403.2)" d="m1285.7 870.93c0 24.458-97.858 44.286-218.57 44.286s-218.57-19.827-218.57-44.286 97.858-44.286 218.57-44.286 218.57 19.827 218.57 44.286z" fill="#ff2a2a" fill-rule="evenodd"/>
   <path d="m508.19 475.56v124h0.21875c-0.13782 0.20428-0.21875 0.41092-0.21875 0.625 0 2.0711 6.7157 3.75 15 3.75s15-1.6789 15-3.75c0-0.2173-0.10808-0.41782-0.25-0.625h0.25v-124h-0.0312c-0.31017 2.0026-6.8823 3.5938-14.969 3.5938-8.0838 0-14.654-1.5921-14.969-3.5938h-0.0312z" fill="#f00" fill-rule="evenodd" stroke="#faa"/>
   <path d="m508.18 596.13c6.5985 0 23.13-4.7471 30-8.7133v5.475c-5.9387 3.4287-21.92 8.7133-30 8.7133z" fill="#ffd5d5" fill-rule="evenodd"/>
   <path d="m508.18 576.13c6.5985 0 23.13-4.7471 30-8.7133v5.475c-5.9387 3.4287-21.92 8.7133-30 8.7133z" fill="#ffd5d5" fill-rule="evenodd"/>
   <path d="m508.18 556.13c6.5985 0 23.13-4.7471 30-8.7133v5.475c-5.9387 3.4287-21.92 8.7133-30 8.7133z" fill="#ffd5d5" fill-rule="evenodd"/>
   <path d="m508.18 536.13c6.5985 0 23.13-4.7471 30-8.7133v5.475c-5.9387 3.4287-21.92 8.7133-30 8.7133z" fill="#ffd5d5" fill-rule="evenodd"/>
   <path d="m508.18 516.13c6.5985 0 23.13-4.7471 30-8.7133v5.475c-5.9387 3.4287-21.92 8.7133-30 8.7133z" fill="#ffd5d5" fill-rule="evenodd"/>
   <path d="m508.18 496.13c6.5985 0 23.13-4.7471 30-8.7133v5.475c-5.9387 3.4287-21.92 8.7133-30 8.7133z" fill="#ffd5d5" fill-rule="evenodd"/>
   <path transform="matrix(.03635 0 0 .04486 484.39 437.88)" d="m1285.7 870.93c0 24.458-97.858 44.286-218.57 44.286s-218.57-19.827-218.57-44.286 97.858-44.286 218.57-44.286 218.57 19.827 218.57 44.286z" fill="#ff8080" fill-rule="evenodd" filter="url(#a)"/>
   <path d="m522.45 476.57c-0.69708-7.7239 1.2871-13.437 5.2906-17.635" fill="none" stroke="#000"/>
  </g>
  <path d="m105.04 895.37c-92.582-21.847-102.74-54.029-91.813-62.864-0.0099 6.5018 34.992 44.091 91.813 62.864z" fill="#fff" filter="url(#d)" opacity=".6"/>
  <path transform="matrix(.71691 0 0 .71691 31.921 199.36)" d="m206.24 747.54c-99.472-17.714-101.7-55.6-63.505-70.6-37.818 19 6.6849 51.827 63.505 70.6z" fill="#fff" filter="url(#f)" opacity=".6"/>
  <path transform="matrix(.4547 0 0 .4547 164.19 273.83)" d="m242.68 751.74c-108.16-4.6781-152.45-33.52-128.7-61.486-2.7659 13.392 50.15 51.403 128.7 61.486z" fill="#fff" filter="url(#w)" opacity=".6"/>
  <path d="m76.376 919.08c-21.143-0.90945-35.098-2.7559-34.793-22.217 5.8932 8.2727 17.849 13.708 34.793 22.217z" fill="#fff" filter="url(#d)" opacity=".6"/>
  <path d="m173.19 939.15c-21.143-0.90945-35.098-2.7559-34.793-22.217 5.8932 8.2727 17.849 13.708 34.793 22.217z" fill="#fff" filter="url(#d)" opacity=".6"/>
  <path transform="matrix(.97716 .2125 -.2125 .97716 209.89 -30.1)" d="m252.29 977.52c-12.878-9.7641-16.799-12.201-13.542-32.252 4.1223 12.405 2.5011 17.25 13.542 32.252z" fill="#fff" filter="url(#v)" opacity=".6"/>
  <path transform="matrix(.63391 0 0 .81062 122.72 186.99)" d="m337.29 948.6c-21.143-0.90945-35.098-2.7559-34.793-22.217 5.8932 8.2727 17.849 13.708 34.793 22.217z" fill="#fff" filter="url(#d)" opacity=".6"/>
  <path transform="matrix(.63391 0 0 .81062 122.72 148.42)" d="m444.14 952.08c-21.143-0.90945-144.91 5.367-141.63-25.698 17.764 18.716 124.69 17.189 141.63 25.698z" fill="#fff" filter="url(#d)" opacity=".6"/>
  <path transform="matrix(2.0413 0 0 2.2119 -434.03 -636.92)" d="m370.4 554.3c0 1.973-4.0406 3.5724-9.025 3.5724s-9.025-1.5994-9.025-3.5724 4.0406-3.5724 9.025-3.5724 9.025 1.5994 9.025 3.5724z" fill-rule="evenodd" filter="url(#t)" opacity=".2"/>
  <path d="m295.63 565.14c-3.7118 0.44674-7.5338 0.96857-10.877 2.7478-2.859 1.5082-4.6922 4.4886-5.4036 7.5745-1.0258 4.1158-0.0897 8.6722 2.5121 12.025 1.8312 2.6874 4.5717 4.6601 7.5129 5.9785 5.0061 2.2171 10.805 2.4596 16.023 0.85428 4.5729-1.431 8.8452-4.4908 10.935-8.8955 1.4858-3.021 1.68-6.5934 0.76305-9.8097-0.94948-3.3081-3.1977-6.3188-6.3514-7.799-4.1012-1.9835-8.6955-2.6993-13.22-2.6942-0.63143-0.0299-1.2625 9e-3 -1.894 0.0178z" fill-rule="evenodd" filter="url(#j)"/>
  <path d="m295.63 565.14c-3.7118 0.44674-7.5338 0.96857-10.877 2.7478-2.859 1.5082-4.6922 4.4886-5.4036 7.5745-1.0258 4.1158-0.0897 8.6722 2.5121 12.025 1.8312 2.6874 4.5717 4.6601 7.5129 5.9785 5.0061 2.2171 10.805 2.4596 16.023 0.85428 4.5729-1.431 8.8452-4.4908 10.935-8.8955 1.4858-3.021 1.68-6.5934 0.76305-9.8097-0.94948-3.3081-3.1977-6.3188-6.3514-7.799-4.1012-1.9835-8.6955-2.6993-13.22-2.6942-0.63143-0.0299-1.2625 9e-3 -1.894 0.0178z" fill="#d40000" fill-rule="evenodd"/>
  <path transform="matrix(1.3571 0 0 1.3571 -169.09 -150.66)" d="m349.25 531.21a5.451 1.7521 0 1 1 -10.902 0 5.451 1.7521 0 1 1 10.902 0z" fill="url(#g)" fill-rule="evenodd" opacity=".56967"/>
  <path d="m297.52 570.67c-0.70002-9.7274 11.636-23.242 17.796-23.893l0.076 1.2915c-6.3076-4e-3 -18.317 11.345-17.872 22.602z" filter="url(#k)" stroke="#000"/>
  <path d="m298.3 573.82c-11.162 0.85085-16.289-2.9799-9.9581-5.7491-3.7065 3.5515 3.162 4.9002 9.9581 5.7491z" fill="#fff" filter="url(#e)" opacity=".6"/>
  <path d="m296.84 593.77c-8.7687-0.21275-17.436-8.4777-16.34-18.1 1.6276 1.2924 5.4297 1.0011 5.4297 1.0011-0.32633 4.1202 5.8072 15.813 10.91 17.099z" fill="url(#i)" filter="url(#e)" opacity=".8"/>
  <path transform="matrix(.71691 0 0 .71691 102.79 235.55)" d="m157.16 723c-21.656 8.2252-49.827 1.8861-50.886-13.815 15.461 14.093 24.912 14.671 50.886 13.815z" fill="#fff" filter="url(#f)" opacity=".6"/>
  <path d="m295.63 565.14c-3.7118 0.44674-7.5338 0.96857-10.877 2.7478-2.859 1.5082-4.6922 4.4886-5.4036 7.5745-1.0258 4.1158-0.0897 8.6722 2.5121 12.025 1.8312 2.6874 4.5717 4.6601 7.5129 5.9785 5.0061 2.2171 10.805 2.4596 16.023 0.85428 4.5729-1.431 8.8452-4.4908 10.935-8.8955 1.4858-3.021 1.68-6.5934 0.76305-9.8097-0.94948-3.3081-3.1977-6.3188-6.3514-7.799-4.1012-1.9835-8.6955-2.6993-13.22-2.6942-0.63143-0.0299-1.2625 9e-3 -1.894 0.0178z" fill-rule="evenodd" filter="url(#j)"/>
  <path d="m295.63 565.14c-3.7118 0.44674-7.5338 0.96857-10.877 2.7478-2.859 1.5082-4.6922 4.4886-5.4036 7.5745-1.0258 4.1158-0.0897 8.6722 2.5121 12.025 1.8312 2.6874 4.5717 4.6601 7.5129 5.9785 5.0061 2.2171 10.805 2.4596 16.023 0.85428 4.5729-1.431 8.8452-4.4908 10.935-8.8955 1.4858-3.021 1.68-6.5934 0.76305-9.8097-0.94948-3.3081-3.1977-6.3188-6.3514-7.799-4.1012-1.9835-8.6955-2.6993-13.22-2.6942-0.63143-0.0299-1.2625 9e-3 -1.894 0.0178z" fill="#d40000" fill-rule="evenodd"/>
  <path transform="matrix(1.3571 0 0 1.3571 -169.09 -150.66)" d="m349.25 531.21a5.451 1.7521 0 1 1 -10.902 0 5.451 1.7521 0 1 1 10.902 0z" fill="url(#g)" fill-rule="evenodd" opacity=".56967"/>
  <path d="m297.52 570.67c-0.70002-9.7274 11.636-23.242 17.796-23.893l0.076 1.2915c-6.3076-4e-3 -18.317 11.345-17.872 22.602z" filter="url(#k)" stroke="#000"/>
  <path d="m298.3 573.82c-11.162 0.85085-16.289-2.9799-9.9581-5.7491-3.7065 3.5515 3.162 4.9002 9.9581 5.7491z" fill="#fff" filter="url(#e)" opacity=".6"/>
  <path d="m296.84 593.77c-8.7687-0.21275-17.436-8.4777-16.34-18.1 1.6276 1.2924 5.4297 1.0011 5.4297 1.0011-0.32633 4.1202 5.8072 15.813 10.91 17.099z" fill="url(#i)" filter="url(#e)" opacity=".8"/>
 </g>
</svg>
