<svg width="18" height="16" viewBox="0 0 18 16" fill="none" xmlns="http://www.w3.org/2000/svg">
<path d="M3.85 4.08C3.85 1.37 6.45 0 9.24 0C10.88 0 12.24 0.49 13.14 1.28C13.91 1.93 14.6 3.01 14.6 4.52H11.59C11.59 4.21 11.54 3.93 11.44 3.67C11.15 2.81 10.24 2.39 9.19 2.39C7.33 2.39 6.85 3.41 6.85 4.09C6.85 4.57 7.1 4.97 7.59 5.3C7.97 5.55 8.36 5.78 9 6H4.39C4.18 5.66 3.85 5.11 3.85 4.08ZM18 9V7H0V9H9.62C10.77 9.45 11.58 9.75 11.58 10.97C11.58 11.97 10.77 12.64 9.3 12.64C7.76 12.64 6.37 12.1 6.37 10.13H3.4C3.4 10.68 3.48 11.26 3.64 11.71C4.45 14 6.93 15.01 9.31 15.01C11.58 15.01 14.61 14.12 14.61 10.96C14.61 10.66 14.6 9.8 14.13 9.02H18V9Z" fill="#6F6F6F"/>
</svg>
